%TF.GenerationSoftware,KiCad,Pcbnew,8.0.1*%
%TF.CreationDate,2024-07-01T16:18:09-04:00*%
%TF.ProjectId,btn,62746e2e-6b69-4636-9164-5f7063625858,rev?*%
%TF.SameCoordinates,Original*%
%TF.FileFunction,Drillmap*%
%TF.FilePolarity,Positive*%
%FSLAX45Y45*%
G04 Gerber Fmt 4.5, Leading zero omitted, Abs format (unit mm)*
G04 Created by KiCad (PCBNEW 8.0.1) date 2024-07-01 16:18:09*
%MOMM*%
%LPD*%
G01*
G04 APERTURE LIST*
%ADD10C,0.100000*%
%ADD11C,0.200000*%
G04 APERTURE END LIST*
D10*
X12240000Y-8250000D02*
G75*
G02*
X12060000Y-8250000I-90000J0D01*
G01*
X12060000Y-8250000D02*
G75*
G02*
X12240000Y-8250000I90000J0D01*
G01*
X14440000Y-8250000D02*
G75*
G02*
X14260000Y-8250000I-90000J0D01*
G01*
X14260000Y-8250000D02*
G75*
G02*
X14440000Y-8250000I90000J0D01*
G01*
X14500000Y-7000000D02*
X12000000Y-7000000D01*
X14500000Y-9500000D02*
X14500000Y-7000000D01*
X12000000Y-9500000D02*
X14500000Y-9500000D01*
X12000000Y-7000000D02*
X12000000Y-9500000D01*
D11*
X12255777Y-9816484D02*
X12255777Y-9616484D01*
X12255777Y-9616484D02*
X12303396Y-9616484D01*
X12303396Y-9616484D02*
X12331967Y-9626008D01*
X12331967Y-9626008D02*
X12351015Y-9645055D01*
X12351015Y-9645055D02*
X12360539Y-9664103D01*
X12360539Y-9664103D02*
X12370062Y-9702198D01*
X12370062Y-9702198D02*
X12370062Y-9730770D01*
X12370062Y-9730770D02*
X12360539Y-9768865D01*
X12360539Y-9768865D02*
X12351015Y-9787912D01*
X12351015Y-9787912D02*
X12331967Y-9806960D01*
X12331967Y-9806960D02*
X12303396Y-9816484D01*
X12303396Y-9816484D02*
X12255777Y-9816484D01*
X12455777Y-9816484D02*
X12455777Y-9683150D01*
X12455777Y-9721246D02*
X12465301Y-9702198D01*
X12465301Y-9702198D02*
X12474824Y-9692674D01*
X12474824Y-9692674D02*
X12493872Y-9683150D01*
X12493872Y-9683150D02*
X12512920Y-9683150D01*
X12579586Y-9816484D02*
X12579586Y-9683150D01*
X12579586Y-9616484D02*
X12570062Y-9626008D01*
X12570062Y-9626008D02*
X12579586Y-9635531D01*
X12579586Y-9635531D02*
X12589110Y-9626008D01*
X12589110Y-9626008D02*
X12579586Y-9616484D01*
X12579586Y-9616484D02*
X12579586Y-9635531D01*
X12703396Y-9816484D02*
X12684348Y-9806960D01*
X12684348Y-9806960D02*
X12674824Y-9787912D01*
X12674824Y-9787912D02*
X12674824Y-9616484D01*
X12808158Y-9816484D02*
X12789110Y-9806960D01*
X12789110Y-9806960D02*
X12779586Y-9787912D01*
X12779586Y-9787912D02*
X12779586Y-9616484D01*
X13036729Y-9816484D02*
X13036729Y-9616484D01*
X13036729Y-9616484D02*
X13103396Y-9759341D01*
X13103396Y-9759341D02*
X13170062Y-9616484D01*
X13170062Y-9616484D02*
X13170062Y-9816484D01*
X13351015Y-9816484D02*
X13351015Y-9711722D01*
X13351015Y-9711722D02*
X13341491Y-9692674D01*
X13341491Y-9692674D02*
X13322443Y-9683150D01*
X13322443Y-9683150D02*
X13284348Y-9683150D01*
X13284348Y-9683150D02*
X13265301Y-9692674D01*
X13351015Y-9806960D02*
X13331967Y-9816484D01*
X13331967Y-9816484D02*
X13284348Y-9816484D01*
X13284348Y-9816484D02*
X13265301Y-9806960D01*
X13265301Y-9806960D02*
X13255777Y-9787912D01*
X13255777Y-9787912D02*
X13255777Y-9768865D01*
X13255777Y-9768865D02*
X13265301Y-9749817D01*
X13265301Y-9749817D02*
X13284348Y-9740293D01*
X13284348Y-9740293D02*
X13331967Y-9740293D01*
X13331967Y-9740293D02*
X13351015Y-9730770D01*
X13446253Y-9683150D02*
X13446253Y-9883150D01*
X13446253Y-9692674D02*
X13465301Y-9683150D01*
X13465301Y-9683150D02*
X13503396Y-9683150D01*
X13503396Y-9683150D02*
X13522443Y-9692674D01*
X13522443Y-9692674D02*
X13531967Y-9702198D01*
X13531967Y-9702198D02*
X13541491Y-9721246D01*
X13541491Y-9721246D02*
X13541491Y-9778389D01*
X13541491Y-9778389D02*
X13531967Y-9797436D01*
X13531967Y-9797436D02*
X13522443Y-9806960D01*
X13522443Y-9806960D02*
X13503396Y-9816484D01*
X13503396Y-9816484D02*
X13465301Y-9816484D01*
X13465301Y-9816484D02*
X13446253Y-9806960D01*
X13627205Y-9797436D02*
X13636729Y-9806960D01*
X13636729Y-9806960D02*
X13627205Y-9816484D01*
X13627205Y-9816484D02*
X13617682Y-9806960D01*
X13617682Y-9806960D02*
X13627205Y-9797436D01*
X13627205Y-9797436D02*
X13627205Y-9816484D01*
X13627205Y-9692674D02*
X13636729Y-9702198D01*
X13636729Y-9702198D02*
X13627205Y-9711722D01*
X13627205Y-9711722D02*
X13617682Y-9702198D01*
X13617682Y-9702198D02*
X13627205Y-9692674D01*
X13627205Y-9692674D02*
X13627205Y-9711722D01*
M02*
