%TF.GenerationSoftware,KiCad,Pcbnew,8.0.1*%
%TF.CreationDate,2024-07-01T16:18:05-04:00*%
%TF.ProjectId,btn,62746e2e-6b69-4636-9164-5f7063625858,rev?*%
%TF.SameCoordinates,Original*%
%TF.FileFunction,Copper,L2,Bot*%
%TF.FilePolarity,Positive*%
%FSLAX46Y46*%
G04 Gerber Fmt 4.6, Leading zero omitted, Abs format (unit mm)*
G04 Created by KiCad (PCBNEW 8.0.1) date 2024-07-01 16:18:05*
%MOMM*%
%LPD*%
G01*
G04 APERTURE LIST*
G04 Aperture macros list*
%AMRoundRect*
0 Rectangle with rounded corners*
0 $1 Rounding radius*
0 $2 $3 $4 $5 $6 $7 $8 $9 X,Y pos of 4 corners*
0 Add a 4 corners polygon primitive as box body*
4,1,4,$2,$3,$4,$5,$6,$7,$8,$9,$2,$3,0*
0 Add four circle primitives for the rounded corners*
1,1,$1+$1,$2,$3*
1,1,$1+$1,$4,$5*
1,1,$1+$1,$6,$7*
1,1,$1+$1,$8,$9*
0 Add four rect primitives between the rounded corners*
20,1,$1+$1,$2,$3,$4,$5,0*
20,1,$1+$1,$4,$5,$6,$7,0*
20,1,$1+$1,$6,$7,$8,$9,0*
20,1,$1+$1,$8,$9,$2,$3,0*%
G04 Aperture macros list end*
%TA.AperFunction,SMDPad,CuDef*%
%ADD10RoundRect,0.300000X0.300000X-0.700000X0.300000X0.700000X-0.300000X0.700000X-0.300000X-0.700000X0*%
%TD*%
%TA.AperFunction,ViaPad*%
%ADD11C,0.660400*%
%TD*%
%TA.AperFunction,Conductor*%
%ADD12C,0.254000*%
%TD*%
G04 APERTURE END LIST*
D10*
%TO.P,J1,1,Pin_1*%
%TO.N,GND*%
X137500000Y-84940000D03*
%TO.P,J1,2,Pin_2*%
%TO.N,/BTN_3*%
X135500000Y-84940000D03*
%TO.P,J1,3,Pin_3*%
%TO.N,/BTN_2*%
X133500000Y-84940000D03*
%TO.P,J1,4,Pin_4*%
%TO.N,/BTN_1*%
X131500000Y-84940000D03*
%TO.P,J1,5,Pin_5*%
%TO.N,/BTN_4*%
X129500000Y-84940000D03*
%TO.P,J1,6,Pin_6*%
%TO.N,VCC*%
X127500000Y-84940000D03*
%TD*%
D11*
%TO.N,GND*%
X126000000Y-92000000D03*
X126000000Y-78000000D03*
X140000000Y-86000000D03*
X126000000Y-88000000D03*
X128000000Y-90000000D03*
X140000000Y-80000000D03*
X126000000Y-90000000D03*
X124000000Y-80000000D03*
X128000000Y-74000000D03*
X126000000Y-72000000D03*
X130000000Y-76000000D03*
X140000000Y-84000000D03*
X124000000Y-78000000D03*
X140000000Y-78000000D03*
X138000000Y-94000000D03*
X132000000Y-90000000D03*
X124000000Y-94000000D03*
X124000000Y-90000000D03*
X124000000Y-76000000D03*
X126000000Y-74000000D03*
X124000000Y-88000000D03*
X134000000Y-94000000D03*
X136000000Y-94000000D03*
X122000000Y-94000000D03*
X124000000Y-84000000D03*
X130000000Y-94000000D03*
X140000000Y-82000000D03*
X142000000Y-84000000D03*
X124000000Y-72000000D03*
X140000000Y-90000000D03*
X138000000Y-74000000D03*
X128000000Y-76000000D03*
X140000000Y-94000000D03*
X130000000Y-90000000D03*
X142000000Y-94000000D03*
X136000000Y-90000000D03*
X128000000Y-92000000D03*
X124000000Y-92000000D03*
X128000000Y-78000000D03*
X124000000Y-82000000D03*
X138000000Y-92000000D03*
X132000000Y-94000000D03*
X134000000Y-76000000D03*
X128000000Y-72000000D03*
X140000000Y-92000000D03*
X134000000Y-90000000D03*
X138000000Y-72000000D03*
X124000000Y-74000000D03*
X128000000Y-94000000D03*
X136000000Y-76000000D03*
X142000000Y-80000000D03*
X126000000Y-76000000D03*
X128000000Y-88000000D03*
X126000000Y-94000000D03*
X138000000Y-90000000D03*
X140000000Y-72000000D03*
%TO.N,VCC*%
X127500000Y-84940000D03*
%TO.N,/BTN_1*%
X130585000Y-80265000D03*
%TO.N,/BTN_2*%
X134060000Y-80160000D03*
%TO.N,/BTN_3*%
X135632500Y-85072500D03*
%TO.N,/BTN_4*%
X129500000Y-84940000D03*
%TD*%
D12*
%TO.N,/BTN_1*%
X131500000Y-81180000D02*
X131500000Y-84940000D01*
X130585000Y-80265000D02*
X131500000Y-81180000D01*
%TO.N,/BTN_2*%
X134060000Y-80160000D02*
X133380000Y-80160000D01*
X132830000Y-80710000D02*
X132830000Y-81650000D01*
X133500000Y-82320000D02*
X133500000Y-84940000D01*
X133380000Y-80160000D02*
X132830000Y-80710000D01*
X132830000Y-81650000D02*
X133500000Y-82320000D01*
%TD*%
%TA.AperFunction,Conductor*%
%TO.N,GND*%
G36*
X144591638Y-70399093D02*
G01*
X144617358Y-70443642D01*
X144618500Y-70456700D01*
X144618500Y-81625090D01*
X144600907Y-81673428D01*
X144556358Y-81699148D01*
X144505700Y-81690215D01*
X144487911Y-81675288D01*
X144487758Y-81675442D01*
X144486004Y-81673688D01*
X144485694Y-81673428D01*
X144485433Y-81673117D01*
X144326886Y-81514570D01*
X144326873Y-81514559D01*
X144143192Y-81385945D01*
X143939976Y-81291185D01*
X143939974Y-81291184D01*
X143939973Y-81291184D01*
X143723380Y-81233148D01*
X143723378Y-81233147D01*
X143723375Y-81233147D01*
X143500000Y-81213605D01*
X143276624Y-81233147D01*
X143060027Y-81291184D01*
X143060023Y-81291185D01*
X142856806Y-81385946D01*
X142856802Y-81385949D01*
X142673117Y-81514566D01*
X142514566Y-81673117D01*
X142385949Y-81856802D01*
X142385946Y-81856806D01*
X142291185Y-82060023D01*
X142291184Y-82060027D01*
X142233147Y-82276624D01*
X142213605Y-82500000D01*
X142233147Y-82723375D01*
X142233147Y-82723378D01*
X142233148Y-82723380D01*
X142271533Y-82866635D01*
X142291184Y-82939972D01*
X142291185Y-82939976D01*
X142385945Y-83143192D01*
X142514559Y-83326873D01*
X142514570Y-83326886D01*
X142673113Y-83485429D01*
X142673126Y-83485440D01*
X142764775Y-83549612D01*
X142856802Y-83614051D01*
X142856804Y-83614051D01*
X142856807Y-83614054D01*
X143025925Y-83692914D01*
X143060027Y-83708816D01*
X143276620Y-83766852D01*
X143500000Y-83786395D01*
X143723380Y-83766852D01*
X143939973Y-83708816D01*
X144143198Y-83614051D01*
X144326879Y-83485436D01*
X144485436Y-83326879D01*
X144485438Y-83326875D01*
X144485694Y-83326572D01*
X144485812Y-83326503D01*
X144487758Y-83324558D01*
X144488279Y-83325079D01*
X144530243Y-83300852D01*
X144580901Y-83309785D01*
X144613965Y-83349191D01*
X144618500Y-83374910D01*
X144618500Y-94543300D01*
X144600907Y-94591638D01*
X144556358Y-94617358D01*
X144543300Y-94618500D01*
X120456700Y-94618500D01*
X120408362Y-94600907D01*
X120382642Y-94556358D01*
X120381500Y-94543300D01*
X120381500Y-85694564D01*
X126747100Y-85694564D01*
X126749968Y-85725143D01*
X126749969Y-85725150D01*
X126749970Y-85725152D01*
X126795059Y-85854014D01*
X126795061Y-85854017D01*
X126876133Y-85963866D01*
X126985982Y-86044938D01*
X126985985Y-86044940D01*
X127016919Y-86055763D01*
X127114850Y-86090031D01*
X127145435Y-86092899D01*
X127145437Y-86092900D01*
X127145444Y-86092900D01*
X127854563Y-86092900D01*
X127854563Y-86092899D01*
X127885150Y-86090031D01*
X128014017Y-86044939D01*
X128123866Y-85963866D01*
X128204939Y-85854017D01*
X128250031Y-85725150D01*
X128252899Y-85694564D01*
X128747100Y-85694564D01*
X128749968Y-85725143D01*
X128749969Y-85725150D01*
X128749970Y-85725152D01*
X128795059Y-85854014D01*
X128795061Y-85854017D01*
X128876133Y-85963866D01*
X128985982Y-86044938D01*
X128985985Y-86044940D01*
X129016919Y-86055763D01*
X129114850Y-86090031D01*
X129145435Y-86092899D01*
X129145437Y-86092900D01*
X129145444Y-86092900D01*
X129854563Y-86092900D01*
X129854563Y-86092899D01*
X129885150Y-86090031D01*
X130014017Y-86044939D01*
X130123866Y-85963866D01*
X130204939Y-85854017D01*
X130250031Y-85725150D01*
X130252899Y-85694563D01*
X130252900Y-85694563D01*
X130252900Y-84185436D01*
X130252899Y-84185435D01*
X130250031Y-84154850D01*
X130212716Y-84048209D01*
X130204940Y-84025985D01*
X130204938Y-84025982D01*
X130123866Y-83916133D01*
X130014017Y-83835061D01*
X130014014Y-83835059D01*
X129916086Y-83800793D01*
X129885150Y-83789969D01*
X129885145Y-83789968D01*
X129885143Y-83789968D01*
X129854564Y-83787100D01*
X129854556Y-83787100D01*
X129145444Y-83787100D01*
X129145436Y-83787100D01*
X129114856Y-83789968D01*
X129114852Y-83789968D01*
X129114850Y-83789969D01*
X129114847Y-83789969D01*
X129114847Y-83789970D01*
X128985985Y-83835059D01*
X128985982Y-83835061D01*
X128876133Y-83916133D01*
X128795061Y-84025982D01*
X128795059Y-84025985D01*
X128749970Y-84154847D01*
X128749968Y-84154856D01*
X128747100Y-84185435D01*
X128747100Y-85694564D01*
X128252899Y-85694564D01*
X128252899Y-85694563D01*
X128252900Y-85694563D01*
X128252900Y-84185436D01*
X128252899Y-84185435D01*
X128250031Y-84154850D01*
X128212716Y-84048209D01*
X128204940Y-84025985D01*
X128204938Y-84025982D01*
X128123866Y-83916133D01*
X128014017Y-83835061D01*
X128014014Y-83835059D01*
X127916086Y-83800793D01*
X127885150Y-83789969D01*
X127885145Y-83789968D01*
X127885143Y-83789968D01*
X127854564Y-83787100D01*
X127854556Y-83787100D01*
X127145444Y-83787100D01*
X127145436Y-83787100D01*
X127114856Y-83789968D01*
X127114852Y-83789968D01*
X127114850Y-83789969D01*
X127114847Y-83789969D01*
X127114847Y-83789970D01*
X126985985Y-83835059D01*
X126985982Y-83835061D01*
X126876133Y-83916133D01*
X126795061Y-84025982D01*
X126795059Y-84025985D01*
X126749970Y-84154847D01*
X126749968Y-84154856D01*
X126747100Y-84185435D01*
X126747100Y-85694564D01*
X120381500Y-85694564D01*
X120381500Y-83374910D01*
X120399093Y-83326572D01*
X120443642Y-83300852D01*
X120494300Y-83309785D01*
X120512088Y-83324711D01*
X120512242Y-83324558D01*
X120513995Y-83326311D01*
X120514306Y-83326572D01*
X120514566Y-83326882D01*
X120673113Y-83485429D01*
X120673126Y-83485440D01*
X120764775Y-83549612D01*
X120856802Y-83614051D01*
X120856804Y-83614051D01*
X120856807Y-83614054D01*
X121025925Y-83692914D01*
X121060027Y-83708816D01*
X121276620Y-83766852D01*
X121500000Y-83786395D01*
X121723380Y-83766852D01*
X121939973Y-83708816D01*
X122143198Y-83614051D01*
X122326879Y-83485436D01*
X122485436Y-83326879D01*
X122614051Y-83143198D01*
X122708816Y-82939973D01*
X122766852Y-82723380D01*
X122786395Y-82500000D01*
X122766852Y-82276620D01*
X122708816Y-82060027D01*
X122691458Y-82022804D01*
X122614053Y-81856806D01*
X122614050Y-81856802D01*
X122589583Y-81821860D01*
X122485436Y-81673121D01*
X122485435Y-81673120D01*
X122485433Y-81673117D01*
X122326886Y-81514570D01*
X122326873Y-81514559D01*
X122143192Y-81385945D01*
X121939976Y-81291185D01*
X121939974Y-81291184D01*
X121939973Y-81291184D01*
X121723380Y-81233148D01*
X121723378Y-81233147D01*
X121723375Y-81233147D01*
X121500000Y-81213605D01*
X121276624Y-81233147D01*
X121060027Y-81291184D01*
X121060023Y-81291185D01*
X120856806Y-81385946D01*
X120856802Y-81385949D01*
X120673117Y-81514566D01*
X120514566Y-81673117D01*
X120514306Y-81673428D01*
X120514187Y-81673496D01*
X120512242Y-81675442D01*
X120511720Y-81674920D01*
X120469757Y-81699148D01*
X120419099Y-81690215D01*
X120386035Y-81650809D01*
X120381500Y-81625090D01*
X120381500Y-80265000D01*
X130096932Y-80265000D01*
X130116702Y-80402508D01*
X130174410Y-80528868D01*
X130174412Y-80528871D01*
X130182443Y-80538139D01*
X130265383Y-80633857D01*
X130301315Y-80656949D01*
X130382248Y-80708962D01*
X130477069Y-80736803D01*
X130515541Y-80748100D01*
X130515544Y-80748100D01*
X130641113Y-80748100D01*
X130689451Y-80765693D01*
X130694287Y-80770126D01*
X131198074Y-81273912D01*
X131219814Y-81320532D01*
X131220100Y-81327086D01*
X131220100Y-83711900D01*
X131202507Y-83760238D01*
X131157958Y-83785958D01*
X131147191Y-83786899D01*
X131147195Y-83786935D01*
X131147189Y-83786935D01*
X131147193Y-83787018D01*
X131145435Y-83787100D01*
X131114856Y-83789968D01*
X131114852Y-83789968D01*
X131114850Y-83789969D01*
X131114847Y-83789969D01*
X131114847Y-83789970D01*
X130985985Y-83835059D01*
X130985982Y-83835061D01*
X130876133Y-83916133D01*
X130795061Y-84025982D01*
X130795059Y-84025985D01*
X130749970Y-84154847D01*
X130749968Y-84154856D01*
X130747100Y-84185435D01*
X130747100Y-85694564D01*
X130749968Y-85725143D01*
X130749969Y-85725150D01*
X130749970Y-85725152D01*
X130795059Y-85854014D01*
X130795061Y-85854017D01*
X130876133Y-85963866D01*
X130985982Y-86044938D01*
X130985985Y-86044940D01*
X131016919Y-86055763D01*
X131114850Y-86090031D01*
X131145435Y-86092899D01*
X131145437Y-86092900D01*
X131145444Y-86092900D01*
X131854563Y-86092900D01*
X131854563Y-86092899D01*
X131885150Y-86090031D01*
X132014017Y-86044939D01*
X132123866Y-85963866D01*
X132204939Y-85854017D01*
X132250031Y-85725150D01*
X132252899Y-85694563D01*
X132252900Y-85694563D01*
X132252900Y-84185436D01*
X132252899Y-84185435D01*
X132250031Y-84154850D01*
X132212716Y-84048209D01*
X132204940Y-84025985D01*
X132204938Y-84025982D01*
X132123866Y-83916133D01*
X132014017Y-83835061D01*
X132014014Y-83835059D01*
X131916086Y-83800793D01*
X131885150Y-83789969D01*
X131885145Y-83789968D01*
X131885143Y-83789968D01*
X131854564Y-83787100D01*
X131852807Y-83787018D01*
X131852810Y-83786935D01*
X131852805Y-83786935D01*
X131852816Y-83786810D01*
X131852841Y-83786278D01*
X131806762Y-83769507D01*
X131781042Y-83724958D01*
X131779900Y-83711900D01*
X131779900Y-81686850D01*
X132550100Y-81686850D01*
X132562816Y-81734308D01*
X132569175Y-81758038D01*
X132606023Y-81821860D01*
X132606027Y-81821866D01*
X133198074Y-82413912D01*
X133219814Y-82460532D01*
X133220100Y-82467086D01*
X133220100Y-83711900D01*
X133202507Y-83760238D01*
X133157958Y-83785958D01*
X133147191Y-83786899D01*
X133147195Y-83786935D01*
X133147189Y-83786935D01*
X133147193Y-83787018D01*
X133145435Y-83787100D01*
X133114856Y-83789968D01*
X133114852Y-83789968D01*
X133114850Y-83789969D01*
X133114847Y-83789969D01*
X133114847Y-83789970D01*
X132985985Y-83835059D01*
X132985982Y-83835061D01*
X132876133Y-83916133D01*
X132795061Y-84025982D01*
X132795059Y-84025985D01*
X132749970Y-84154847D01*
X132749968Y-84154856D01*
X132747100Y-84185435D01*
X132747100Y-85694564D01*
X132749968Y-85725143D01*
X132749969Y-85725150D01*
X132749970Y-85725152D01*
X132795059Y-85854014D01*
X132795061Y-85854017D01*
X132876133Y-85963866D01*
X132985982Y-86044938D01*
X132985985Y-86044940D01*
X133016919Y-86055763D01*
X133114850Y-86090031D01*
X133145435Y-86092899D01*
X133145437Y-86092900D01*
X133145444Y-86092900D01*
X133854563Y-86092900D01*
X133854563Y-86092899D01*
X133885150Y-86090031D01*
X134014017Y-86044939D01*
X134123866Y-85963866D01*
X134204939Y-85854017D01*
X134250031Y-85725150D01*
X134252899Y-85694564D01*
X134747100Y-85694564D01*
X134749968Y-85725143D01*
X134749969Y-85725150D01*
X134749970Y-85725152D01*
X134795059Y-85854014D01*
X134795061Y-85854017D01*
X134876133Y-85963866D01*
X134985982Y-86044938D01*
X134985985Y-86044940D01*
X135016919Y-86055763D01*
X135114850Y-86090031D01*
X135145435Y-86092899D01*
X135145437Y-86092900D01*
X135145444Y-86092900D01*
X135854563Y-86092900D01*
X135854563Y-86092899D01*
X135885150Y-86090031D01*
X136014017Y-86044939D01*
X136123866Y-85963866D01*
X136204939Y-85854017D01*
X136212716Y-85831791D01*
X136787812Y-85831791D01*
X136795507Y-85853779D01*
X136795509Y-85853783D01*
X136876490Y-85963505D01*
X136986223Y-86044493D01*
X136986222Y-86044493D01*
X137114941Y-86089532D01*
X137114950Y-86089534D01*
X137145499Y-86092399D01*
X137854492Y-86092399D01*
X137885056Y-86089534D01*
X138013776Y-86044493D01*
X138123507Y-85963507D01*
X138204492Y-85853778D01*
X138212185Y-85831790D01*
X138212185Y-85831789D01*
X137500001Y-85119605D01*
X137499999Y-85119605D01*
X136787813Y-85831789D01*
X136787812Y-85831791D01*
X136212716Y-85831791D01*
X136250031Y-85725150D01*
X136252899Y-85694563D01*
X136252900Y-85694563D01*
X136252900Y-84367205D01*
X136747600Y-84367205D01*
X136747600Y-85512792D01*
X137320394Y-84940000D01*
X137679605Y-84940000D01*
X138252398Y-85512793D01*
X138252399Y-85512793D01*
X138252399Y-84367205D01*
X138252398Y-84367205D01*
X137679605Y-84939999D01*
X137679605Y-84940000D01*
X137320394Y-84940000D01*
X137320395Y-84939999D01*
X136747600Y-84367205D01*
X136252900Y-84367205D01*
X136252900Y-84185436D01*
X136252899Y-84185435D01*
X136250031Y-84154850D01*
X136212716Y-84048209D01*
X136212715Y-84048206D01*
X136787812Y-84048206D01*
X136787813Y-84048209D01*
X137499999Y-84760395D01*
X137500001Y-84760395D01*
X138212185Y-84048209D01*
X138212185Y-84048207D01*
X138204494Y-84026224D01*
X138204493Y-84026223D01*
X138123507Y-83916492D01*
X138013776Y-83835506D01*
X138013777Y-83835506D01*
X137885058Y-83790467D01*
X137885049Y-83790465D01*
X137854500Y-83787600D01*
X137145507Y-83787600D01*
X137114943Y-83790465D01*
X136986223Y-83835506D01*
X136876490Y-83916494D01*
X136795507Y-84026219D01*
X136787812Y-84048206D01*
X136212715Y-84048206D01*
X136204940Y-84025985D01*
X136204938Y-84025982D01*
X136123866Y-83916133D01*
X136014017Y-83835061D01*
X136014014Y-83835059D01*
X135916086Y-83800793D01*
X135885150Y-83789969D01*
X135885145Y-83789968D01*
X135885143Y-83789968D01*
X135854564Y-83787100D01*
X135854556Y-83787100D01*
X135145444Y-83787100D01*
X135145436Y-83787100D01*
X135114856Y-83789968D01*
X135114852Y-83789968D01*
X135114850Y-83789969D01*
X135114847Y-83789969D01*
X135114847Y-83789970D01*
X134985985Y-83835059D01*
X134985982Y-83835061D01*
X134876133Y-83916133D01*
X134795061Y-84025982D01*
X134795059Y-84025985D01*
X134749970Y-84154847D01*
X134749968Y-84154856D01*
X134747100Y-84185435D01*
X134747100Y-85694564D01*
X134252899Y-85694564D01*
X134252899Y-85694563D01*
X134252900Y-85694563D01*
X134252900Y-84185436D01*
X134252899Y-84185435D01*
X134250031Y-84154850D01*
X134212716Y-84048209D01*
X134204940Y-84025985D01*
X134204938Y-84025982D01*
X134123866Y-83916133D01*
X134014017Y-83835061D01*
X134014014Y-83835059D01*
X133916086Y-83800793D01*
X133885150Y-83789969D01*
X133885145Y-83789968D01*
X133885143Y-83789968D01*
X133854564Y-83787100D01*
X133852807Y-83787018D01*
X133852810Y-83786935D01*
X133852805Y-83786935D01*
X133852816Y-83786810D01*
X133852841Y-83786278D01*
X133806762Y-83769507D01*
X133781042Y-83724958D01*
X133779900Y-83711900D01*
X133779900Y-82283151D01*
X133778150Y-82276620D01*
X133760825Y-82211963D01*
X133723976Y-82148138D01*
X133671862Y-82096024D01*
X133131926Y-81556088D01*
X133110186Y-81509468D01*
X133109900Y-81502914D01*
X133109900Y-80857086D01*
X133127493Y-80808748D01*
X133131914Y-80803923D01*
X133473914Y-80461924D01*
X133520533Y-80440186D01*
X133527087Y-80439900D01*
X133628959Y-80439900D01*
X133677297Y-80457493D01*
X133685791Y-80465854D01*
X133740383Y-80528857D01*
X133740402Y-80528869D01*
X133857248Y-80603962D01*
X133952069Y-80631803D01*
X133990541Y-80643100D01*
X133990544Y-80643100D01*
X134129456Y-80643100D01*
X134129459Y-80643100D01*
X134262751Y-80603962D01*
X134379617Y-80528857D01*
X134470589Y-80423869D01*
X134528298Y-80297505D01*
X134548068Y-80160000D01*
X134528298Y-80022495D01*
X134528297Y-80022493D01*
X134528297Y-80022491D01*
X134470589Y-79896131D01*
X134470587Y-79896128D01*
X134379616Y-79791142D01*
X134379614Y-79791141D01*
X134262751Y-79716037D01*
X134129461Y-79676900D01*
X134129459Y-79676900D01*
X133990541Y-79676900D01*
X133990538Y-79676900D01*
X133857248Y-79716037D01*
X133740385Y-79791141D01*
X133740383Y-79791142D01*
X133685791Y-79854146D01*
X133640841Y-79879155D01*
X133628959Y-79880100D01*
X133343150Y-79880100D01*
X133307556Y-79889637D01*
X133271961Y-79899175D01*
X133248588Y-79912670D01*
X133248587Y-79912670D01*
X133208141Y-79936020D01*
X133208136Y-79936024D01*
X133016670Y-80127491D01*
X132658138Y-80486024D01*
X132632081Y-80512081D01*
X132606024Y-80538137D01*
X132606023Y-80538139D01*
X132569175Y-80601961D01*
X132558152Y-80643099D01*
X132550100Y-80673150D01*
X132550100Y-81613150D01*
X132550100Y-81686850D01*
X131779900Y-81686850D01*
X131779900Y-81143149D01*
X131763388Y-81081527D01*
X131763388Y-81081526D01*
X131760825Y-81071963D01*
X131760825Y-81071962D01*
X131723976Y-81008137D01*
X131088090Y-80372252D01*
X131066351Y-80325633D01*
X131066831Y-80308375D01*
X131073068Y-80265000D01*
X131053298Y-80127495D01*
X131053297Y-80127493D01*
X131053297Y-80127491D01*
X130995589Y-80001131D01*
X130995587Y-80001128D01*
X130904616Y-79896142D01*
X130904614Y-79896141D01*
X130787751Y-79821037D01*
X130654461Y-79781900D01*
X130654459Y-79781900D01*
X130515541Y-79781900D01*
X130515538Y-79781900D01*
X130382248Y-79821037D01*
X130265385Y-79896141D01*
X130265383Y-79896142D01*
X130174412Y-80001128D01*
X130174410Y-80001131D01*
X130116702Y-80127491D01*
X130096932Y-80265000D01*
X120381500Y-80265000D01*
X120381500Y-70456700D01*
X120399093Y-70408362D01*
X120443642Y-70382642D01*
X120456700Y-70381500D01*
X144543300Y-70381500D01*
X144591638Y-70399093D01*
G37*
%TD.AperFunction*%
%TD*%
M02*
