M48
; DRILL file {KiCad 8.0.1} date 2024-07-01T16:18:08-0400
; FORMAT={-:-/ absolute / inch / decimal}
; #@! TF.CreationDate,2024-07-01T16:18:08-04:00
; #@! TF.GenerationSoftware,Kicad,Pcbnew,8.0.1
; #@! TF.FileFunction,Plated,1,2,PTH
FMAT,2
INCH
; #@! TA.AperFunction,Plated,PTH,ViaDrill
T1C0.0130
%
G90
G05
T1
X4.8031Y-3.7008
X4.8819Y-2.8346
X4.8819Y-2.9134
X4.8819Y-2.9921
X4.8819Y-3.0709
X4.8819Y-3.1496
X4.8819Y-3.2283
X4.8819Y-3.3071
X4.8819Y-3.4646
X4.8819Y-3.5433
X4.8819Y-3.622
X4.8819Y-3.7008
X4.9606Y-2.8346
X4.9606Y-2.9134
X4.9606Y-2.9921
X4.9606Y-3.0709
X4.9606Y-3.4646
X4.9606Y-3.5433
X4.9606Y-3.622
X4.9606Y-3.7008
X5.0197Y-3.3441
X5.0394Y-2.8346
X5.0394Y-2.9134
X5.0394Y-2.9921
X5.0394Y-3.0709
X5.0394Y-3.4646
X5.0394Y-3.5433
X5.0394Y-3.622
X5.0394Y-3.7008
X5.0984Y-3.3441
X5.1181Y-2.9921
X5.1181Y-3.5433
X5.1181Y-3.7008
X5.1411Y-3.16
X5.1969Y-3.5433
X5.1969Y-3.7008
X5.2756Y-2.9921
X5.2756Y-3.5433
X5.2756Y-3.7008
X5.278Y-3.1559
X5.3399Y-3.3493
X5.3543Y-2.9921
X5.3543Y-3.5433
X5.3543Y-3.7008
X5.4331Y-2.8346
X5.4331Y-2.9134
X5.4331Y-3.5433
X5.4331Y-3.622
X5.4331Y-3.7008
X5.5118Y-2.8346
X5.5118Y-3.0709
X5.5118Y-3.1496
X5.5118Y-3.2283
X5.5118Y-3.3071
X5.5118Y-3.3858
X5.5118Y-3.5433
X5.5118Y-3.622
X5.5118Y-3.7008
X5.5906Y-3.1496
X5.5906Y-3.3071
X5.5906Y-3.7008
M30
