%TF.GenerationSoftware,KiCad,Pcbnew,8.0.1*%
%TF.CreationDate,2024-07-01T16:18:05-04:00*%
%TF.ProjectId,btn,62746e2e-6b69-4636-9164-5f7063625858,rev?*%
%TF.SameCoordinates,Original*%
%TF.FileFunction,Copper,L1,Top*%
%TF.FilePolarity,Positive*%
%FSLAX46Y46*%
G04 Gerber Fmt 4.6, Leading zero omitted, Abs format (unit mm)*
G04 Created by KiCad (PCBNEW 8.0.1) date 2024-07-01 16:18:05*
%MOMM*%
%LPD*%
G01*
G04 APERTURE LIST*
G04 Aperture macros list*
%AMRoundRect*
0 Rectangle with rounded corners*
0 $1 Rounding radius*
0 $2 $3 $4 $5 $6 $7 $8 $9 X,Y pos of 4 corners*
0 Add a 4 corners polygon primitive as box body*
4,1,4,$2,$3,$4,$5,$6,$7,$8,$9,$2,$3,0*
0 Add four circle primitives for the rounded corners*
1,1,$1+$1,$2,$3*
1,1,$1+$1,$4,$5*
1,1,$1+$1,$6,$7*
1,1,$1+$1,$8,$9*
0 Add four rect primitives between the rounded corners*
20,1,$1+$1,$2,$3,$4,$5,0*
20,1,$1+$1,$4,$5,$6,$7,0*
20,1,$1+$1,$6,$7,$8,$9,0*
20,1,$1+$1,$8,$9,$2,$3,0*%
G04 Aperture macros list end*
%TA.AperFunction,SMDPad,CuDef*%
%ADD10RoundRect,0.155000X0.212500X0.155000X-0.212500X0.155000X-0.212500X-0.155000X0.212500X-0.155000X0*%
%TD*%
%TA.AperFunction,SMDPad,CuDef*%
%ADD11R,2.100000X1.400000*%
%TD*%
%TA.AperFunction,SMDPad,CuDef*%
%ADD12RoundRect,0.155000X-0.212500X-0.155000X0.212500X-0.155000X0.212500X0.155000X-0.212500X0.155000X0*%
%TD*%
%TA.AperFunction,SMDPad,CuDef*%
%ADD13RoundRect,0.160000X0.197500X0.160000X-0.197500X0.160000X-0.197500X-0.160000X0.197500X-0.160000X0*%
%TD*%
%TA.AperFunction,SMDPad,CuDef*%
%ADD14RoundRect,0.160000X-0.197500X-0.160000X0.197500X-0.160000X0.197500X0.160000X-0.197500X0.160000X0*%
%TD*%
%TA.AperFunction,ViaPad*%
%ADD15C,0.660400*%
%TD*%
%TA.AperFunction,Conductor*%
%ADD16C,0.254000*%
%TD*%
G04 APERTURE END LIST*
D10*
%TO.P,C3,1*%
%TO.N,GND*%
X136767500Y-83250000D03*
%TO.P,C3,2*%
%TO.N,/BTN_3*%
X135632500Y-83250000D03*
%TD*%
D11*
%TO.P,S2,1*%
%TO.N,unconnected-(S2-Pad1)*%
X133950000Y-73250000D03*
%TO.P,S2,2*%
%TO.N,unconnected-(S2-Pad2)*%
X133950000Y-77750000D03*
%TO.P,S2,3*%
%TO.N,/BTN_2*%
X143050000Y-73250000D03*
%TO.P,S2,4*%
%TO.N,GND*%
X143050000Y-77750000D03*
%TD*%
%TO.P,S1,1*%
%TO.N,unconnected-(S1-Pad1)*%
X121950000Y-73250000D03*
%TO.P,S1,2*%
%TO.N,unconnected-(S1-Pad2)*%
X121950000Y-77750000D03*
%TO.P,S1,3*%
%TO.N,/BTN_1*%
X131050000Y-73250000D03*
%TO.P,S1,4*%
%TO.N,GND*%
X131050000Y-77750000D03*
%TD*%
D12*
%TO.P,C1,1*%
%TO.N,GND*%
X128832500Y-81500000D03*
%TO.P,C1,2*%
%TO.N,/BTN_1*%
X129967500Y-81500000D03*
%TD*%
D13*
%TO.P,R3,1*%
%TO.N,/BTN_3*%
X134547500Y-83250000D03*
%TO.P,R3,2*%
%TO.N,VCC*%
X133352500Y-83250000D03*
%TD*%
D14*
%TO.P,R1,1*%
%TO.N,/BTN_1*%
X131050000Y-81500000D03*
%TO.P,R1,2*%
%TO.N,VCC*%
X132245000Y-81500000D03*
%TD*%
D13*
%TO.P,R2,1*%
%TO.N,/BTN_2*%
X134547500Y-81500000D03*
%TO.P,R2,2*%
%TO.N,VCC*%
X133352500Y-81500000D03*
%TD*%
D12*
%TO.P,C4,1*%
%TO.N,GND*%
X128832500Y-83250000D03*
%TO.P,C4,2*%
%TO.N,/BTN_4*%
X129967500Y-83250000D03*
%TD*%
D11*
%TO.P,S3,1*%
%TO.N,unconnected-(S3-Pad1)*%
X133950000Y-87250000D03*
%TO.P,S3,2*%
%TO.N,unconnected-(S3-Pad2)*%
X133950000Y-91750000D03*
%TO.P,S3,3*%
%TO.N,/BTN_3*%
X143050000Y-87250000D03*
%TO.P,S3,4*%
%TO.N,GND*%
X143050000Y-91750000D03*
%TD*%
D14*
%TO.P,R4,1*%
%TO.N,/BTN_4*%
X131050000Y-83250000D03*
%TO.P,R4,2*%
%TO.N,VCC*%
X132245000Y-83250000D03*
%TD*%
D10*
%TO.P,C2,1*%
%TO.N,GND*%
X136767500Y-81500000D03*
%TO.P,C2,2*%
%TO.N,/BTN_2*%
X135632500Y-81500000D03*
%TD*%
D11*
%TO.P,S4,1*%
%TO.N,unconnected-(S4-Pad1)*%
X121950000Y-87250000D03*
%TO.P,S4,2*%
%TO.N,unconnected-(S4-Pad2)*%
X121950000Y-91750000D03*
%TO.P,S4,3*%
%TO.N,/BTN_4*%
X131050000Y-87250000D03*
%TO.P,S4,4*%
%TO.N,GND*%
X131050000Y-91750000D03*
%TD*%
D15*
%TO.N,GND*%
X126000000Y-92000000D03*
X126000000Y-78000000D03*
X140000000Y-86000000D03*
X126000000Y-88000000D03*
X128000000Y-90000000D03*
X140000000Y-80000000D03*
X126000000Y-90000000D03*
X124000000Y-80000000D03*
X128000000Y-74000000D03*
X126000000Y-72000000D03*
X130000000Y-76000000D03*
X140000000Y-84000000D03*
X124000000Y-78000000D03*
X140000000Y-78000000D03*
X138000000Y-94000000D03*
X132000000Y-90000000D03*
X124000000Y-94000000D03*
X124000000Y-90000000D03*
X124000000Y-76000000D03*
X126000000Y-74000000D03*
X124000000Y-88000000D03*
X134000000Y-94000000D03*
X136000000Y-94000000D03*
X122000000Y-94000000D03*
X124000000Y-84000000D03*
X130000000Y-94000000D03*
X140000000Y-82000000D03*
X142000000Y-84000000D03*
X124000000Y-72000000D03*
X140000000Y-90000000D03*
X138000000Y-74000000D03*
X128000000Y-76000000D03*
X140000000Y-94000000D03*
X130000000Y-90000000D03*
X142000000Y-94000000D03*
X136000000Y-90000000D03*
X128000000Y-92000000D03*
X124000000Y-92000000D03*
X128000000Y-78000000D03*
X124000000Y-82000000D03*
X138000000Y-92000000D03*
X132000000Y-94000000D03*
X134000000Y-76000000D03*
X128000000Y-72000000D03*
X140000000Y-92000000D03*
X134000000Y-90000000D03*
X138000000Y-72000000D03*
X124000000Y-74000000D03*
X128000000Y-94000000D03*
X136000000Y-76000000D03*
X142000000Y-80000000D03*
X126000000Y-76000000D03*
X128000000Y-88000000D03*
X126000000Y-94000000D03*
X138000000Y-90000000D03*
X140000000Y-72000000D03*
%TO.N,VCC*%
X127500000Y-84940000D03*
%TO.N,/BTN_1*%
X130585000Y-80265000D03*
%TO.N,/BTN_2*%
X134060000Y-80160000D03*
%TO.N,/BTN_3*%
X135632500Y-85072500D03*
%TO.N,/BTN_4*%
X129500000Y-84940000D03*
%TD*%
D16*
%TO.N,VCC*%
X127500000Y-83200000D02*
X128340000Y-82360000D01*
X128340000Y-82360000D02*
X131385000Y-82360000D01*
X132245000Y-81500000D02*
X133352500Y-81500000D01*
X131385000Y-82360000D02*
X132245000Y-81500000D01*
X132245000Y-83250000D02*
X133352500Y-83250000D01*
X132245000Y-81500000D02*
X132245000Y-83250000D01*
X127500000Y-84940000D02*
X127500000Y-83200000D01*
%TO.N,/BTN_1*%
X130650000Y-73250000D02*
X131050000Y-73250000D01*
X129000000Y-78680000D02*
X129000000Y-74900000D01*
X130585000Y-80265000D02*
X131050000Y-80730000D01*
X129000000Y-74900000D02*
X130650000Y-73250000D01*
X131050000Y-81500000D02*
X129967500Y-81500000D01*
X130585000Y-80265000D02*
X129000000Y-78680000D01*
X131050000Y-80730000D02*
X131050000Y-81500000D01*
%TO.N,/BTN_2*%
X134547500Y-80647500D02*
X134060000Y-80160000D01*
X141450000Y-73250000D02*
X143050000Y-73250000D01*
X135632500Y-81500000D02*
X135632500Y-79067500D01*
X134547500Y-81500000D02*
X135632500Y-81500000D01*
X135632500Y-79067500D02*
X141450000Y-73250000D01*
X134547500Y-81500000D02*
X134547500Y-80647500D01*
%TO.N,/BTN_3*%
X135632500Y-85072500D02*
X135632500Y-83250000D01*
X134547500Y-83250000D02*
X135632500Y-83250000D01*
X137810000Y-87250000D02*
X143050000Y-87250000D01*
X135632500Y-85072500D02*
X137810000Y-87250000D01*
%TO.N,/BTN_4*%
X129967500Y-83250000D02*
X131050000Y-83250000D01*
X131050000Y-83250000D02*
X131050000Y-87250000D01*
X129967500Y-83250000D02*
X129967500Y-84472500D01*
X129967500Y-84472500D02*
X129500000Y-84940000D01*
%TD*%
%TA.AperFunction,Conductor*%
%TO.N,GND*%
G36*
X144591638Y-70399093D02*
G01*
X144617358Y-70443642D01*
X144618500Y-70456700D01*
X144618500Y-81625090D01*
X144600907Y-81673428D01*
X144556358Y-81699148D01*
X144505700Y-81690215D01*
X144487911Y-81675288D01*
X144487758Y-81675442D01*
X144486004Y-81673688D01*
X144485694Y-81673428D01*
X144485433Y-81673117D01*
X144326886Y-81514570D01*
X144326873Y-81514559D01*
X144143192Y-81385945D01*
X143939976Y-81291185D01*
X143939974Y-81291184D01*
X143939973Y-81291184D01*
X143723380Y-81233148D01*
X143723378Y-81233147D01*
X143723375Y-81233147D01*
X143500000Y-81213605D01*
X143276624Y-81233147D01*
X143276620Y-81233147D01*
X143276620Y-81233148D01*
X143144114Y-81268653D01*
X143060027Y-81291184D01*
X143060023Y-81291185D01*
X142856806Y-81385946D01*
X142856802Y-81385949D01*
X142673117Y-81514566D01*
X142514566Y-81673117D01*
X142385949Y-81856802D01*
X142385946Y-81856806D01*
X142291185Y-82060023D01*
X142291184Y-82060027D01*
X142233147Y-82276624D01*
X142213605Y-82500000D01*
X142233147Y-82723375D01*
X142233147Y-82723378D01*
X142233148Y-82723380D01*
X142291184Y-82939972D01*
X142291185Y-82939976D01*
X142385945Y-83143192D01*
X142514559Y-83326873D01*
X142514570Y-83326886D01*
X142673113Y-83485429D01*
X142673126Y-83485440D01*
X142736622Y-83529900D01*
X142856802Y-83614051D01*
X142856804Y-83614051D01*
X142856807Y-83614054D01*
X142977349Y-83670263D01*
X143060027Y-83708816D01*
X143276620Y-83766852D01*
X143500000Y-83786395D01*
X143723380Y-83766852D01*
X143939973Y-83708816D01*
X144143198Y-83614051D01*
X144326879Y-83485436D01*
X144485436Y-83326879D01*
X144485438Y-83326875D01*
X144485694Y-83326572D01*
X144485812Y-83326503D01*
X144487758Y-83324558D01*
X144488279Y-83325079D01*
X144530243Y-83300852D01*
X144580901Y-83309785D01*
X144613965Y-83349191D01*
X144618500Y-83374910D01*
X144618500Y-94543300D01*
X144600907Y-94591638D01*
X144556358Y-94617358D01*
X144543300Y-94618500D01*
X120456700Y-94618500D01*
X120408362Y-94600907D01*
X120382642Y-94556358D01*
X120381500Y-94543300D01*
X120381500Y-92465055D01*
X120747100Y-92465055D01*
X120747101Y-92465057D01*
X120755972Y-92509659D01*
X120789764Y-92560232D01*
X120789765Y-92560232D01*
X120789766Y-92560234D01*
X120840342Y-92594028D01*
X120884943Y-92602900D01*
X123015056Y-92602899D01*
X123059658Y-92594028D01*
X123110234Y-92560234D01*
X123144028Y-92509658D01*
X123152900Y-92465057D01*
X123152899Y-91877000D01*
X129847600Y-91877000D01*
X129847600Y-92465012D01*
X129856441Y-92509462D01*
X129856442Y-92509464D01*
X129890126Y-92559873D01*
X129940535Y-92593557D01*
X129940537Y-92593558D01*
X129984987Y-92602400D01*
X130923000Y-92602400D01*
X130923000Y-91877000D01*
X131177000Y-91877000D01*
X131177000Y-92602400D01*
X132115013Y-92602400D01*
X132159462Y-92593558D01*
X132159464Y-92593557D01*
X132209873Y-92559873D01*
X132243557Y-92509464D01*
X132243558Y-92509462D01*
X132252391Y-92465055D01*
X132747100Y-92465055D01*
X132747101Y-92465057D01*
X132755972Y-92509659D01*
X132789764Y-92560232D01*
X132789765Y-92560232D01*
X132789766Y-92560234D01*
X132840342Y-92594028D01*
X132884943Y-92602900D01*
X135015056Y-92602899D01*
X135059658Y-92594028D01*
X135110234Y-92560234D01*
X135144028Y-92509658D01*
X135152900Y-92465057D01*
X135152899Y-91877000D01*
X141847600Y-91877000D01*
X141847600Y-92465012D01*
X141856441Y-92509462D01*
X141856442Y-92509464D01*
X141890126Y-92559873D01*
X141940535Y-92593557D01*
X141940537Y-92593558D01*
X141984987Y-92602400D01*
X142923000Y-92602400D01*
X142923000Y-91877000D01*
X143177000Y-91877000D01*
X143177000Y-92602400D01*
X144115013Y-92602400D01*
X144159462Y-92593558D01*
X144159464Y-92593557D01*
X144209873Y-92559873D01*
X144243557Y-92509464D01*
X144243558Y-92509462D01*
X144252400Y-92465012D01*
X144252400Y-91877000D01*
X143177000Y-91877000D01*
X142923000Y-91877000D01*
X141847600Y-91877000D01*
X135152899Y-91877000D01*
X135152899Y-91623000D01*
X141847600Y-91623000D01*
X142923000Y-91623000D01*
X142923000Y-90897600D01*
X143177000Y-90897600D01*
X143177000Y-91623000D01*
X144252400Y-91623000D01*
X144252400Y-91034987D01*
X144243558Y-90990537D01*
X144243557Y-90990535D01*
X144209873Y-90940126D01*
X144159464Y-90906442D01*
X144159462Y-90906441D01*
X144115013Y-90897600D01*
X143177000Y-90897600D01*
X142923000Y-90897600D01*
X141984987Y-90897600D01*
X141940537Y-90906441D01*
X141940535Y-90906442D01*
X141890126Y-90940126D01*
X141856442Y-90990535D01*
X141856441Y-90990537D01*
X141847600Y-91034987D01*
X141847600Y-91623000D01*
X135152899Y-91623000D01*
X135152899Y-91034944D01*
X135144028Y-90990342D01*
X135110234Y-90939766D01*
X135059658Y-90905972D01*
X135059656Y-90905971D01*
X135015057Y-90897100D01*
X132884944Y-90897100D01*
X132884942Y-90897101D01*
X132840340Y-90905972D01*
X132789767Y-90939764D01*
X132755972Y-90990342D01*
X132755971Y-90990343D01*
X132747100Y-91034942D01*
X132747100Y-92465055D01*
X132252391Y-92465055D01*
X132252400Y-92465012D01*
X132252400Y-91877000D01*
X131177000Y-91877000D01*
X130923000Y-91877000D01*
X129847600Y-91877000D01*
X123152899Y-91877000D01*
X123152899Y-91623000D01*
X129847600Y-91623000D01*
X130923000Y-91623000D01*
X130923000Y-90897600D01*
X131177000Y-90897600D01*
X131177000Y-91623000D01*
X132252400Y-91623000D01*
X132252400Y-91034987D01*
X132243558Y-90990537D01*
X132243557Y-90990535D01*
X132209873Y-90940126D01*
X132159464Y-90906442D01*
X132159462Y-90906441D01*
X132115013Y-90897600D01*
X131177000Y-90897600D01*
X130923000Y-90897600D01*
X129984987Y-90897600D01*
X129940537Y-90906441D01*
X129940535Y-90906442D01*
X129890126Y-90940126D01*
X129856442Y-90990535D01*
X129856441Y-90990537D01*
X129847600Y-91034987D01*
X129847600Y-91623000D01*
X123152899Y-91623000D01*
X123152899Y-91034944D01*
X123144028Y-90990342D01*
X123110234Y-90939766D01*
X123059658Y-90905972D01*
X123059656Y-90905971D01*
X123015057Y-90897100D01*
X120884944Y-90897100D01*
X120884942Y-90897101D01*
X120840340Y-90905972D01*
X120789767Y-90939764D01*
X120755972Y-90990342D01*
X120755971Y-90990343D01*
X120747100Y-91034942D01*
X120747100Y-92465055D01*
X120381500Y-92465055D01*
X120381500Y-87965055D01*
X120747100Y-87965055D01*
X120747101Y-87965057D01*
X120755972Y-88009659D01*
X120789764Y-88060232D01*
X120789765Y-88060232D01*
X120789766Y-88060234D01*
X120840342Y-88094028D01*
X120884943Y-88102900D01*
X123015056Y-88102899D01*
X123059658Y-88094028D01*
X123110234Y-88060234D01*
X123144028Y-88009658D01*
X123152900Y-87965057D01*
X123152899Y-86534944D01*
X123144028Y-86490342D01*
X123110234Y-86439766D01*
X123059658Y-86405972D01*
X123059656Y-86405971D01*
X123015057Y-86397100D01*
X120884944Y-86397100D01*
X120884942Y-86397101D01*
X120840340Y-86405972D01*
X120789767Y-86439764D01*
X120755972Y-86490342D01*
X120755971Y-86490343D01*
X120747100Y-86534942D01*
X120747100Y-87965055D01*
X120381500Y-87965055D01*
X120381500Y-84940000D01*
X127011932Y-84940000D01*
X127031702Y-85077508D01*
X127089410Y-85203868D01*
X127089412Y-85203871D01*
X127180383Y-85308857D01*
X127180385Y-85308858D01*
X127297248Y-85383962D01*
X127392069Y-85411803D01*
X127430541Y-85423100D01*
X127430544Y-85423100D01*
X127569456Y-85423100D01*
X127569459Y-85423100D01*
X127702751Y-85383962D01*
X127819617Y-85308857D01*
X127910589Y-85203869D01*
X127968298Y-85077505D01*
X127988068Y-84940000D01*
X127968298Y-84802495D01*
X127968297Y-84802493D01*
X127968297Y-84802491D01*
X127910589Y-84676131D01*
X127910587Y-84676128D01*
X127819616Y-84571142D01*
X127819615Y-84571141D01*
X127814442Y-84567817D01*
X127783291Y-84526882D01*
X127779900Y-84504556D01*
X127779900Y-83377000D01*
X128312601Y-83377000D01*
X128312601Y-83450888D01*
X128315581Y-83476596D01*
X128362003Y-83581732D01*
X128362005Y-83581735D01*
X128443264Y-83662994D01*
X128443267Y-83662996D01*
X128548402Y-83709418D01*
X128574105Y-83712399D01*
X128705500Y-83712399D01*
X128705500Y-83377000D01*
X128312601Y-83377000D01*
X127779900Y-83377000D01*
X127779900Y-83347086D01*
X127797493Y-83298748D01*
X127801926Y-83293912D01*
X128114299Y-82981539D01*
X128223367Y-82872471D01*
X128269986Y-82850732D01*
X128319673Y-82864046D01*
X128349178Y-82906183D01*
X128345333Y-82956020D01*
X128315582Y-83023400D01*
X128312600Y-83049105D01*
X128312600Y-83123000D01*
X128884300Y-83123000D01*
X128932638Y-83140593D01*
X128958358Y-83185142D01*
X128959500Y-83198200D01*
X128959500Y-83712399D01*
X129090888Y-83712399D01*
X129116596Y-83709418D01*
X129221732Y-83662996D01*
X129221735Y-83662994D01*
X129302994Y-83581735D01*
X129302997Y-83581731D01*
X129330933Y-83518461D01*
X129366552Y-83481348D01*
X129417693Y-83475813D01*
X129460427Y-83504446D01*
X129468518Y-83518459D01*
X129496582Y-83582016D01*
X129496586Y-83582022D01*
X129577977Y-83663413D01*
X129577980Y-83663415D01*
X129577981Y-83663416D01*
X129642776Y-83692026D01*
X129679887Y-83727644D01*
X129687600Y-83760818D01*
X129687600Y-84325412D01*
X129670007Y-84373750D01*
X129665574Y-84378586D01*
X129609286Y-84434874D01*
X129562666Y-84456614D01*
X129556112Y-84456900D01*
X129430538Y-84456900D01*
X129297248Y-84496037D01*
X129180385Y-84571141D01*
X129180383Y-84571142D01*
X129089412Y-84676128D01*
X129089410Y-84676131D01*
X129031702Y-84802491D01*
X129011932Y-84940000D01*
X129031702Y-85077508D01*
X129089410Y-85203868D01*
X129089412Y-85203871D01*
X129180383Y-85308857D01*
X129180385Y-85308858D01*
X129297248Y-85383962D01*
X129392069Y-85411803D01*
X129430541Y-85423100D01*
X129430544Y-85423100D01*
X129569456Y-85423100D01*
X129569459Y-85423100D01*
X129702751Y-85383962D01*
X129819617Y-85308857D01*
X129910589Y-85203869D01*
X129968298Y-85077505D01*
X129988068Y-84940000D01*
X129981831Y-84896622D01*
X129992365Y-84846274D01*
X130003086Y-84832750D01*
X130191476Y-84644362D01*
X130228325Y-84580537D01*
X130247400Y-84509350D01*
X130247400Y-84435650D01*
X130247400Y-83760818D01*
X130264993Y-83712480D01*
X130292222Y-83692026D01*
X130357019Y-83663416D01*
X130438416Y-83582019D01*
X130441636Y-83574727D01*
X130477254Y-83537613D01*
X130510429Y-83529900D01*
X130515255Y-83529900D01*
X130563593Y-83547493D01*
X130583409Y-83573319D01*
X130592230Y-83592237D01*
X130592236Y-83592245D01*
X130670254Y-83670263D01*
X130670257Y-83670265D01*
X130670259Y-83670267D01*
X130670260Y-83670267D01*
X130670261Y-83670268D01*
X130726681Y-83696577D01*
X130763054Y-83732950D01*
X130770100Y-83764731D01*
X130770100Y-86321900D01*
X130752507Y-86370238D01*
X130707958Y-86395958D01*
X130694900Y-86397100D01*
X129984944Y-86397100D01*
X129984942Y-86397101D01*
X129940340Y-86405972D01*
X129889767Y-86439764D01*
X129855972Y-86490342D01*
X129855971Y-86490343D01*
X129847100Y-86534942D01*
X129847100Y-87965055D01*
X129847101Y-87965057D01*
X129855972Y-88009659D01*
X129889764Y-88060232D01*
X129889765Y-88060232D01*
X129889766Y-88060234D01*
X129940342Y-88094028D01*
X129984943Y-88102900D01*
X132115056Y-88102899D01*
X132159658Y-88094028D01*
X132210234Y-88060234D01*
X132244028Y-88009658D01*
X132252900Y-87965057D01*
X132252900Y-87965055D01*
X132747100Y-87965055D01*
X132747101Y-87965057D01*
X132755972Y-88009659D01*
X132789764Y-88060232D01*
X132789765Y-88060232D01*
X132789766Y-88060234D01*
X132840342Y-88094028D01*
X132884943Y-88102900D01*
X135015056Y-88102899D01*
X135059658Y-88094028D01*
X135110234Y-88060234D01*
X135144028Y-88009658D01*
X135152900Y-87965057D01*
X135152899Y-86534944D01*
X135144028Y-86490342D01*
X135110234Y-86439766D01*
X135059658Y-86405972D01*
X135059656Y-86405971D01*
X135015057Y-86397100D01*
X132884944Y-86397100D01*
X132884942Y-86397101D01*
X132840340Y-86405972D01*
X132789767Y-86439764D01*
X132755972Y-86490342D01*
X132755971Y-86490343D01*
X132747100Y-86534942D01*
X132747100Y-87965055D01*
X132252900Y-87965055D01*
X132252899Y-86534944D01*
X132244028Y-86490342D01*
X132210234Y-86439766D01*
X132159658Y-86405972D01*
X132159656Y-86405971D01*
X132115057Y-86397100D01*
X131405100Y-86397100D01*
X131356762Y-86379507D01*
X131331042Y-86334958D01*
X131329900Y-86321900D01*
X131329900Y-83764731D01*
X131347493Y-83716393D01*
X131373319Y-83696577D01*
X131399334Y-83684445D01*
X131429741Y-83670267D01*
X131507767Y-83592241D01*
X131512668Y-83581732D01*
X131554400Y-83492236D01*
X131554399Y-83492236D01*
X131554401Y-83492234D01*
X131560400Y-83446666D01*
X131560400Y-83053334D01*
X131554401Y-83007766D01*
X131554400Y-83007763D01*
X131507769Y-82907762D01*
X131507763Y-82907754D01*
X131429745Y-82829736D01*
X131429737Y-82829730D01*
X131330068Y-82783254D01*
X131293695Y-82746881D01*
X131289211Y-82695637D01*
X131318716Y-82653500D01*
X131361849Y-82639900D01*
X131421848Y-82639900D01*
X131421850Y-82639900D01*
X131493037Y-82620825D01*
X131556862Y-82583976D01*
X131836726Y-82304111D01*
X131883346Y-82282372D01*
X131933033Y-82295686D01*
X131962538Y-82337823D01*
X131965100Y-82357286D01*
X131965100Y-82735268D01*
X131947507Y-82783606D01*
X131921681Y-82803422D01*
X131865262Y-82829730D01*
X131865254Y-82829736D01*
X131787236Y-82907754D01*
X131787230Y-82907762D01*
X131740599Y-83007763D01*
X131738556Y-83023285D01*
X131734600Y-83053334D01*
X131734600Y-83446666D01*
X131737599Y-83469450D01*
X131740599Y-83492236D01*
X131787230Y-83592237D01*
X131787236Y-83592245D01*
X131865254Y-83670263D01*
X131865262Y-83670269D01*
X131965263Y-83716900D01*
X131965264Y-83716900D01*
X131965266Y-83716901D01*
X132010834Y-83722900D01*
X132010836Y-83722900D01*
X132479164Y-83722900D01*
X132479166Y-83722900D01*
X132524734Y-83716901D01*
X132624741Y-83670267D01*
X132702767Y-83592241D01*
X132702769Y-83592237D01*
X132711591Y-83573319D01*
X132747964Y-83536946D01*
X132779745Y-83529900D01*
X132817755Y-83529900D01*
X132866093Y-83547493D01*
X132885909Y-83573319D01*
X132894730Y-83592237D01*
X132894736Y-83592245D01*
X132972754Y-83670263D01*
X132972762Y-83670269D01*
X133072763Y-83716900D01*
X133072764Y-83716900D01*
X133072766Y-83716901D01*
X133118334Y-83722900D01*
X133118336Y-83722900D01*
X133586664Y-83722900D01*
X133586666Y-83722900D01*
X133632234Y-83716901D01*
X133732241Y-83670267D01*
X133810267Y-83592241D01*
X133815168Y-83581732D01*
X133856900Y-83492236D01*
X133856899Y-83492236D01*
X133856901Y-83492234D01*
X133862900Y-83446666D01*
X134037100Y-83446666D01*
X134040099Y-83469450D01*
X134043099Y-83492236D01*
X134089730Y-83592237D01*
X134089736Y-83592245D01*
X134167754Y-83670263D01*
X134167762Y-83670269D01*
X134267763Y-83716900D01*
X134267764Y-83716900D01*
X134267766Y-83716901D01*
X134313334Y-83722900D01*
X134313336Y-83722900D01*
X134781664Y-83722900D01*
X134781666Y-83722900D01*
X134827234Y-83716901D01*
X134927241Y-83670267D01*
X135005267Y-83592241D01*
X135005269Y-83592237D01*
X135014091Y-83573319D01*
X135050464Y-83536946D01*
X135082245Y-83529900D01*
X135089571Y-83529900D01*
X135137909Y-83547493D01*
X135158364Y-83574727D01*
X135161582Y-83582016D01*
X135161586Y-83582022D01*
X135242977Y-83663413D01*
X135242980Y-83663415D01*
X135242981Y-83663416D01*
X135307776Y-83692026D01*
X135344887Y-83727644D01*
X135352600Y-83760818D01*
X135352600Y-84637056D01*
X135335007Y-84685394D01*
X135318058Y-84700317D01*
X135312884Y-84703641D01*
X135312883Y-84703642D01*
X135221912Y-84808628D01*
X135221910Y-84808631D01*
X135164202Y-84934991D01*
X135144432Y-85072500D01*
X135164202Y-85210008D01*
X135221910Y-85336368D01*
X135221912Y-85336371D01*
X135312883Y-85441357D01*
X135312885Y-85441358D01*
X135429748Y-85516462D01*
X135524569Y-85544303D01*
X135563041Y-85555600D01*
X135563044Y-85555600D01*
X135688614Y-85555600D01*
X135736952Y-85573193D01*
X135741788Y-85577626D01*
X137638133Y-87473972D01*
X137638136Y-87473974D01*
X137638138Y-87473976D01*
X137701963Y-87510825D01*
X137773150Y-87529900D01*
X137846850Y-87529900D01*
X141771901Y-87529900D01*
X141820239Y-87547493D01*
X141845959Y-87592042D01*
X141847101Y-87605100D01*
X141847101Y-87965057D01*
X141855972Y-88009659D01*
X141889764Y-88060232D01*
X141889765Y-88060232D01*
X141889766Y-88060234D01*
X141940342Y-88094028D01*
X141984943Y-88102900D01*
X144115056Y-88102899D01*
X144159658Y-88094028D01*
X144210234Y-88060234D01*
X144244028Y-88009658D01*
X144252900Y-87965057D01*
X144252899Y-86534944D01*
X144244028Y-86490342D01*
X144210234Y-86439766D01*
X144159658Y-86405972D01*
X144159656Y-86405971D01*
X144115057Y-86397100D01*
X141984944Y-86397100D01*
X141984942Y-86397101D01*
X141940340Y-86405972D01*
X141889767Y-86439764D01*
X141855972Y-86490342D01*
X141855971Y-86490343D01*
X141847100Y-86534942D01*
X141847100Y-86894900D01*
X141829507Y-86943238D01*
X141784958Y-86968958D01*
X141771900Y-86970100D01*
X137957086Y-86970100D01*
X137908748Y-86952507D01*
X137903912Y-86948074D01*
X136135591Y-85179753D01*
X136113851Y-85133133D01*
X136114331Y-85115875D01*
X136120568Y-85072500D01*
X136100798Y-84934995D01*
X136100797Y-84934993D01*
X136100797Y-84934991D01*
X136043089Y-84808631D01*
X136043087Y-84808628D01*
X135952116Y-84703642D01*
X135952115Y-84703641D01*
X135946942Y-84700317D01*
X135915791Y-84659382D01*
X135912400Y-84637056D01*
X135912400Y-83760818D01*
X135929993Y-83712480D01*
X135957222Y-83692026D01*
X136022019Y-83663416D01*
X136103416Y-83582019D01*
X136131481Y-83518457D01*
X136167099Y-83481347D01*
X136218240Y-83475812D01*
X136260974Y-83504445D01*
X136269066Y-83518460D01*
X136297002Y-83581730D01*
X136297005Y-83581735D01*
X136378264Y-83662994D01*
X136378267Y-83662996D01*
X136483402Y-83709418D01*
X136509105Y-83712399D01*
X136640500Y-83712399D01*
X136640500Y-83377000D01*
X136894500Y-83377000D01*
X136894500Y-83712399D01*
X137025888Y-83712399D01*
X137051596Y-83709418D01*
X137156732Y-83662996D01*
X137156735Y-83662994D01*
X137237994Y-83581735D01*
X137237996Y-83581732D01*
X137284418Y-83476597D01*
X137287400Y-83450894D01*
X137287400Y-83377000D01*
X136894500Y-83377000D01*
X136640500Y-83377000D01*
X136640500Y-82787600D01*
X136894500Y-82787600D01*
X136894500Y-83123000D01*
X137287399Y-83123000D01*
X137287399Y-83049111D01*
X137284418Y-83023403D01*
X137237996Y-82918267D01*
X137237994Y-82918264D01*
X137156735Y-82837005D01*
X137156732Y-82837003D01*
X137051597Y-82790581D01*
X137025895Y-82787600D01*
X136894500Y-82787600D01*
X136640500Y-82787600D01*
X136509111Y-82787600D01*
X136483403Y-82790581D01*
X136378267Y-82837003D01*
X136378264Y-82837005D01*
X136297005Y-82918264D01*
X136297000Y-82918271D01*
X136269065Y-82981539D01*
X136233446Y-83018652D01*
X136182305Y-83024186D01*
X136139571Y-82995552D01*
X136131481Y-82981539D01*
X136103418Y-82917984D01*
X136103413Y-82917977D01*
X136022022Y-82836586D01*
X136022015Y-82836581D01*
X135916716Y-82790087D01*
X135906914Y-82788950D01*
X135890968Y-82787100D01*
X135374032Y-82787100D01*
X135358086Y-82788950D01*
X135348284Y-82790087D01*
X135348282Y-82790087D01*
X135242984Y-82836581D01*
X135242977Y-82836586D01*
X135161586Y-82917977D01*
X135161582Y-82917983D01*
X135158364Y-82925273D01*
X135122746Y-82962387D01*
X135089571Y-82970100D01*
X135082245Y-82970100D01*
X135033907Y-82952507D01*
X135014091Y-82926681D01*
X135005269Y-82907762D01*
X135005263Y-82907754D01*
X134927245Y-82829736D01*
X134927237Y-82829730D01*
X134827236Y-82783099D01*
X134804450Y-82780099D01*
X134781666Y-82777100D01*
X134313334Y-82777100D01*
X134295106Y-82779499D01*
X134267763Y-82783099D01*
X134167762Y-82829730D01*
X134167754Y-82829736D01*
X134089736Y-82907754D01*
X134089730Y-82907762D01*
X134043099Y-83007763D01*
X134041056Y-83023285D01*
X134037100Y-83053334D01*
X134037100Y-83446666D01*
X133862900Y-83446666D01*
X133862900Y-83053334D01*
X133856901Y-83007766D01*
X133856900Y-83007763D01*
X133810269Y-82907762D01*
X133810263Y-82907754D01*
X133732245Y-82829736D01*
X133732237Y-82829730D01*
X133632236Y-82783099D01*
X133609450Y-82780099D01*
X133586666Y-82777100D01*
X133118334Y-82777100D01*
X133100106Y-82779499D01*
X133072763Y-82783099D01*
X132972762Y-82829730D01*
X132972754Y-82829736D01*
X132894736Y-82907754D01*
X132894730Y-82907762D01*
X132885909Y-82926681D01*
X132849536Y-82963054D01*
X132817755Y-82970100D01*
X132779745Y-82970100D01*
X132731407Y-82952507D01*
X132711591Y-82926681D01*
X132702769Y-82907762D01*
X132702763Y-82907754D01*
X132624745Y-82829736D01*
X132624737Y-82829730D01*
X132568319Y-82803422D01*
X132531945Y-82767049D01*
X132524900Y-82735268D01*
X132524900Y-82014731D01*
X132542493Y-81966393D01*
X132568319Y-81946577D01*
X132594334Y-81934445D01*
X132624741Y-81920267D01*
X132702767Y-81842241D01*
X132703507Y-81840655D01*
X132711591Y-81823319D01*
X132747964Y-81786946D01*
X132779745Y-81779900D01*
X132817755Y-81779900D01*
X132866093Y-81797493D01*
X132885909Y-81823319D01*
X132894730Y-81842237D01*
X132894736Y-81842245D01*
X132972754Y-81920263D01*
X132972762Y-81920269D01*
X133072763Y-81966900D01*
X133072764Y-81966900D01*
X133072766Y-81966901D01*
X133118334Y-81972900D01*
X133118336Y-81972900D01*
X133586664Y-81972900D01*
X133586666Y-81972900D01*
X133632234Y-81966901D01*
X133732241Y-81920267D01*
X133810267Y-81842241D01*
X133815168Y-81831732D01*
X133856900Y-81742236D01*
X133856899Y-81742236D01*
X133856901Y-81742234D01*
X133862900Y-81696666D01*
X133862900Y-81303334D01*
X133856901Y-81257766D01*
X133851206Y-81245552D01*
X133810269Y-81157762D01*
X133810263Y-81157754D01*
X133732245Y-81079736D01*
X133732237Y-81079730D01*
X133632236Y-81033099D01*
X133609450Y-81030099D01*
X133586666Y-81027100D01*
X133118334Y-81027100D01*
X133100106Y-81029499D01*
X133072763Y-81033099D01*
X132972762Y-81079730D01*
X132972754Y-81079736D01*
X132894736Y-81157754D01*
X132894730Y-81157762D01*
X132885909Y-81176681D01*
X132849536Y-81213054D01*
X132817755Y-81220100D01*
X132779745Y-81220100D01*
X132731407Y-81202507D01*
X132711591Y-81176681D01*
X132702769Y-81157762D01*
X132702763Y-81157754D01*
X132624745Y-81079736D01*
X132624737Y-81079730D01*
X132524736Y-81033099D01*
X132501950Y-81030099D01*
X132479166Y-81027100D01*
X132010834Y-81027100D01*
X131992606Y-81029499D01*
X131965263Y-81033099D01*
X131865262Y-81079730D01*
X131865254Y-81079736D01*
X131787236Y-81157754D01*
X131787230Y-81157762D01*
X131740599Y-81257763D01*
X131734600Y-81303335D01*
X131734600Y-81583412D01*
X131717007Y-81631750D01*
X131712574Y-81636586D01*
X131688774Y-81660386D01*
X131642154Y-81682126D01*
X131592467Y-81668812D01*
X131562962Y-81626675D01*
X131560400Y-81607212D01*
X131560400Y-81303335D01*
X131559843Y-81299105D01*
X131554401Y-81257766D01*
X131548706Y-81245552D01*
X131507769Y-81157762D01*
X131507763Y-81157754D01*
X131429745Y-81079736D01*
X131429737Y-81079730D01*
X131373319Y-81053422D01*
X131336945Y-81017049D01*
X131329900Y-80985268D01*
X131329900Y-80693149D01*
X131313388Y-80631527D01*
X131313388Y-80631526D01*
X131310825Y-80621963D01*
X131310825Y-80621962D01*
X131273976Y-80558137D01*
X131088090Y-80372251D01*
X131066351Y-80325632D01*
X131066830Y-80308378D01*
X131073068Y-80265000D01*
X131057971Y-80160000D01*
X133571932Y-80160000D01*
X133591702Y-80297508D01*
X133649410Y-80423868D01*
X133649412Y-80423871D01*
X133740383Y-80528857D01*
X133740402Y-80528869D01*
X133857248Y-80603962D01*
X133918551Y-80621962D01*
X133990541Y-80643100D01*
X133990544Y-80643100D01*
X134116114Y-80643100D01*
X134164452Y-80660693D01*
X134169288Y-80665126D01*
X134245574Y-80741412D01*
X134267314Y-80788032D01*
X134267600Y-80794586D01*
X134267600Y-80985268D01*
X134250007Y-81033606D01*
X134224181Y-81053422D01*
X134167762Y-81079730D01*
X134167754Y-81079736D01*
X134089736Y-81157754D01*
X134089730Y-81157762D01*
X134043099Y-81257763D01*
X134041040Y-81273403D01*
X134037100Y-81303334D01*
X134037100Y-81696666D01*
X134040099Y-81719450D01*
X134043099Y-81742236D01*
X134089730Y-81842237D01*
X134089736Y-81842245D01*
X134167754Y-81920263D01*
X134167762Y-81920269D01*
X134267763Y-81966900D01*
X134267764Y-81966900D01*
X134267766Y-81966901D01*
X134313334Y-81972900D01*
X134313336Y-81972900D01*
X134781664Y-81972900D01*
X134781666Y-81972900D01*
X134827234Y-81966901D01*
X134927241Y-81920267D01*
X135005267Y-81842241D01*
X135006007Y-81840655D01*
X135014091Y-81823319D01*
X135050464Y-81786946D01*
X135082245Y-81779900D01*
X135089571Y-81779900D01*
X135137909Y-81797493D01*
X135158364Y-81824727D01*
X135161582Y-81832016D01*
X135161586Y-81832022D01*
X135242977Y-81913413D01*
X135242984Y-81913418D01*
X135318082Y-81946577D01*
X135348285Y-81959913D01*
X135374032Y-81962900D01*
X135374034Y-81962900D01*
X135890966Y-81962900D01*
X135890968Y-81962900D01*
X135916715Y-81959913D01*
X135916717Y-81959912D01*
X136022015Y-81913418D01*
X136022015Y-81913417D01*
X136022019Y-81913416D01*
X136103416Y-81832019D01*
X136131481Y-81768457D01*
X136167099Y-81731347D01*
X136218240Y-81725812D01*
X136260974Y-81754445D01*
X136269066Y-81768460D01*
X136297002Y-81831730D01*
X136297005Y-81831735D01*
X136378264Y-81912994D01*
X136378267Y-81912996D01*
X136483402Y-81959418D01*
X136509105Y-81962399D01*
X136640500Y-81962399D01*
X136640500Y-81627000D01*
X136894500Y-81627000D01*
X136894500Y-81962399D01*
X137025888Y-81962399D01*
X137051596Y-81959418D01*
X137156732Y-81912996D01*
X137156735Y-81912994D01*
X137237994Y-81831735D01*
X137237996Y-81831732D01*
X137284418Y-81726597D01*
X137287400Y-81700894D01*
X137287400Y-81627000D01*
X136894500Y-81627000D01*
X136640500Y-81627000D01*
X136640500Y-81037600D01*
X136894500Y-81037600D01*
X136894500Y-81373000D01*
X137287399Y-81373000D01*
X137287399Y-81299111D01*
X137284418Y-81273403D01*
X137237996Y-81168267D01*
X137237994Y-81168264D01*
X137156735Y-81087005D01*
X137156732Y-81087003D01*
X137051597Y-81040581D01*
X137025895Y-81037600D01*
X136894500Y-81037600D01*
X136640500Y-81037600D01*
X136509111Y-81037600D01*
X136483403Y-81040581D01*
X136378267Y-81087003D01*
X136378264Y-81087005D01*
X136297005Y-81168264D01*
X136297000Y-81168271D01*
X136269065Y-81231539D01*
X136233446Y-81268652D01*
X136182305Y-81274186D01*
X136139571Y-81245552D01*
X136131481Y-81231539D01*
X136103418Y-81167984D01*
X136103413Y-81167977D01*
X136022022Y-81086586D01*
X136022016Y-81086582D01*
X135957224Y-81057973D01*
X135920112Y-81022354D01*
X135912400Y-80989181D01*
X135912400Y-79214586D01*
X135929993Y-79166248D01*
X135934426Y-79161412D01*
X137218838Y-77877000D01*
X141847600Y-77877000D01*
X141847600Y-78465012D01*
X141856441Y-78509462D01*
X141856442Y-78509464D01*
X141890126Y-78559873D01*
X141940535Y-78593557D01*
X141940537Y-78593558D01*
X141984987Y-78602400D01*
X142923000Y-78602400D01*
X142923000Y-77877000D01*
X143177000Y-77877000D01*
X143177000Y-78602400D01*
X144115013Y-78602400D01*
X144159462Y-78593558D01*
X144159464Y-78593557D01*
X144209873Y-78559873D01*
X144243557Y-78509464D01*
X144243558Y-78509462D01*
X144252400Y-78465012D01*
X144252400Y-77877000D01*
X143177000Y-77877000D01*
X142923000Y-77877000D01*
X141847600Y-77877000D01*
X137218838Y-77877000D01*
X137472838Y-77623000D01*
X141847600Y-77623000D01*
X142923000Y-77623000D01*
X142923000Y-76897600D01*
X143177000Y-76897600D01*
X143177000Y-77623000D01*
X144252400Y-77623000D01*
X144252400Y-77034987D01*
X144243558Y-76990537D01*
X144243557Y-76990535D01*
X144209873Y-76940126D01*
X144159464Y-76906442D01*
X144159462Y-76906441D01*
X144115013Y-76897600D01*
X143177000Y-76897600D01*
X142923000Y-76897600D01*
X141984987Y-76897600D01*
X141940537Y-76906441D01*
X141940535Y-76906442D01*
X141890126Y-76940126D01*
X141856442Y-76990535D01*
X141856441Y-76990537D01*
X141847600Y-77034987D01*
X141847600Y-77623000D01*
X137472838Y-77623000D01*
X141543913Y-73551926D01*
X141590533Y-73530186D01*
X141597087Y-73529900D01*
X141771901Y-73529900D01*
X141820239Y-73547493D01*
X141845959Y-73592042D01*
X141847101Y-73605100D01*
X141847101Y-73965057D01*
X141855972Y-74009659D01*
X141889764Y-74060232D01*
X141889765Y-74060232D01*
X141889766Y-74060234D01*
X141940342Y-74094028D01*
X141984943Y-74102900D01*
X144115056Y-74102899D01*
X144159658Y-74094028D01*
X144210234Y-74060234D01*
X144244028Y-74009658D01*
X144252900Y-73965057D01*
X144252899Y-72534944D01*
X144244028Y-72490342D01*
X144210234Y-72439766D01*
X144159658Y-72405972D01*
X144159656Y-72405971D01*
X144115057Y-72397100D01*
X141984944Y-72397100D01*
X141984942Y-72397101D01*
X141940340Y-72405972D01*
X141889767Y-72439764D01*
X141855972Y-72490342D01*
X141855971Y-72490343D01*
X141847100Y-72534942D01*
X141847100Y-72894900D01*
X141829507Y-72943238D01*
X141784958Y-72968958D01*
X141771900Y-72970100D01*
X141413150Y-72970100D01*
X141375720Y-72980129D01*
X141357005Y-72985144D01*
X141357004Y-72985143D01*
X141341961Y-72989174D01*
X141278138Y-73026023D01*
X141278132Y-73026027D01*
X136427162Y-77877000D01*
X135460638Y-78843524D01*
X135434581Y-78869581D01*
X135408524Y-78895637D01*
X135408523Y-78895639D01*
X135371675Y-78959461D01*
X135352600Y-79030651D01*
X135352600Y-80989181D01*
X135335007Y-81037519D01*
X135307776Y-81057973D01*
X135242983Y-81086582D01*
X135242977Y-81086586D01*
X135161586Y-81167977D01*
X135161582Y-81167983D01*
X135158364Y-81175273D01*
X135122746Y-81212387D01*
X135089571Y-81220100D01*
X135082245Y-81220100D01*
X135033907Y-81202507D01*
X135014091Y-81176681D01*
X135005269Y-81157762D01*
X135005263Y-81157754D01*
X134927245Y-81079736D01*
X134927237Y-81079730D01*
X134870819Y-81053422D01*
X134834445Y-81017049D01*
X134827400Y-80985268D01*
X134827400Y-80610651D01*
X134825607Y-80603958D01*
X134825607Y-80603957D01*
X134808326Y-80539467D01*
X134808324Y-80539460D01*
X134771477Y-80475639D01*
X134668091Y-80372253D01*
X134563090Y-80267252D01*
X134541351Y-80220633D01*
X134541831Y-80203375D01*
X134548068Y-80160000D01*
X134528298Y-80022495D01*
X134528297Y-80022493D01*
X134528297Y-80022491D01*
X134470589Y-79896131D01*
X134470587Y-79896128D01*
X134379616Y-79791142D01*
X134379614Y-79791141D01*
X134262751Y-79716037D01*
X134129461Y-79676900D01*
X134129459Y-79676900D01*
X133990541Y-79676900D01*
X133990538Y-79676900D01*
X133857248Y-79716037D01*
X133740385Y-79791141D01*
X133740383Y-79791142D01*
X133649412Y-79896128D01*
X133649410Y-79896131D01*
X133591702Y-80022491D01*
X133571932Y-80160000D01*
X131057971Y-80160000D01*
X131053298Y-80127495D01*
X131053297Y-80127493D01*
X131053297Y-80127491D01*
X130995589Y-80001131D01*
X130995587Y-80001128D01*
X130904616Y-79896142D01*
X130904614Y-79896141D01*
X130787751Y-79821037D01*
X130654461Y-79781900D01*
X130654459Y-79781900D01*
X130528887Y-79781900D01*
X130480549Y-79764307D01*
X130475713Y-79759874D01*
X129301926Y-78586087D01*
X129280186Y-78539467D01*
X129279900Y-78532913D01*
X129279900Y-77877000D01*
X129847600Y-77877000D01*
X129847600Y-78465012D01*
X129856441Y-78509462D01*
X129856442Y-78509464D01*
X129890126Y-78559873D01*
X129940535Y-78593557D01*
X129940537Y-78593558D01*
X129984987Y-78602400D01*
X130923000Y-78602400D01*
X130923000Y-77877000D01*
X131177000Y-77877000D01*
X131177000Y-78602400D01*
X132115013Y-78602400D01*
X132159462Y-78593558D01*
X132159464Y-78593557D01*
X132209873Y-78559873D01*
X132243557Y-78509464D01*
X132243558Y-78509462D01*
X132252391Y-78465055D01*
X132747100Y-78465055D01*
X132747101Y-78465057D01*
X132755972Y-78509659D01*
X132789764Y-78560232D01*
X132789765Y-78560232D01*
X132789766Y-78560234D01*
X132840342Y-78594028D01*
X132884943Y-78602900D01*
X135015056Y-78602899D01*
X135059658Y-78594028D01*
X135110234Y-78560234D01*
X135144028Y-78509658D01*
X135152900Y-78465057D01*
X135152899Y-77034944D01*
X135144028Y-76990342D01*
X135110234Y-76939766D01*
X135059658Y-76905972D01*
X135059656Y-76905971D01*
X135015057Y-76897100D01*
X132884944Y-76897100D01*
X132884942Y-76897101D01*
X132840340Y-76905972D01*
X132789767Y-76939764D01*
X132755972Y-76990342D01*
X132755971Y-76990343D01*
X132747100Y-77034942D01*
X132747100Y-78465055D01*
X132252391Y-78465055D01*
X132252400Y-78465012D01*
X132252400Y-77877000D01*
X131177000Y-77877000D01*
X130923000Y-77877000D01*
X129847600Y-77877000D01*
X129279900Y-77877000D01*
X129279900Y-77623000D01*
X129847600Y-77623000D01*
X130923000Y-77623000D01*
X130923000Y-76897600D01*
X131177000Y-76897600D01*
X131177000Y-77623000D01*
X132252400Y-77623000D01*
X132252400Y-77034987D01*
X132243558Y-76990537D01*
X132243557Y-76990535D01*
X132209873Y-76940126D01*
X132159464Y-76906442D01*
X132159462Y-76906441D01*
X132115013Y-76897600D01*
X131177000Y-76897600D01*
X130923000Y-76897600D01*
X129984987Y-76897600D01*
X129940537Y-76906441D01*
X129940535Y-76906442D01*
X129890126Y-76940126D01*
X129856442Y-76990535D01*
X129856441Y-76990537D01*
X129847600Y-77034987D01*
X129847600Y-77623000D01*
X129279900Y-77623000D01*
X129279900Y-75047085D01*
X129297493Y-74998747D01*
X129301915Y-74993922D01*
X130170912Y-74124924D01*
X130217532Y-74103185D01*
X130224086Y-74102899D01*
X132115056Y-74102899D01*
X132159658Y-74094028D01*
X132210234Y-74060234D01*
X132244028Y-74009658D01*
X132252900Y-73965057D01*
X132252900Y-73965055D01*
X132747100Y-73965055D01*
X132747101Y-73965057D01*
X132755972Y-74009659D01*
X132789764Y-74060232D01*
X132789765Y-74060232D01*
X132789766Y-74060234D01*
X132840342Y-74094028D01*
X132884943Y-74102900D01*
X135015056Y-74102899D01*
X135059658Y-74094028D01*
X135110234Y-74060234D01*
X135144028Y-74009658D01*
X135152900Y-73965057D01*
X135152899Y-72534944D01*
X135144028Y-72490342D01*
X135110234Y-72439766D01*
X135059658Y-72405972D01*
X135059656Y-72405971D01*
X135015057Y-72397100D01*
X132884944Y-72397100D01*
X132884942Y-72397101D01*
X132840340Y-72405972D01*
X132789767Y-72439764D01*
X132755972Y-72490342D01*
X132755971Y-72490343D01*
X132747100Y-72534942D01*
X132747100Y-73965055D01*
X132252900Y-73965055D01*
X132252899Y-72534944D01*
X132244028Y-72490342D01*
X132210234Y-72439766D01*
X132159658Y-72405972D01*
X132159656Y-72405971D01*
X132115057Y-72397100D01*
X129984944Y-72397100D01*
X129984942Y-72397101D01*
X129940340Y-72405972D01*
X129889767Y-72439764D01*
X129855972Y-72490342D01*
X129855971Y-72490343D01*
X129847100Y-72534942D01*
X129847100Y-73625912D01*
X129829507Y-73674250D01*
X129825073Y-73679086D01*
X128828138Y-74676024D01*
X128802081Y-74702081D01*
X128776024Y-74728137D01*
X128776023Y-74728139D01*
X128739175Y-74791961D01*
X128726458Y-74839421D01*
X128720100Y-74863150D01*
X128720100Y-78643150D01*
X128720100Y-78716850D01*
X128732816Y-78764308D01*
X128739175Y-78788038D01*
X128776023Y-78851860D01*
X128776027Y-78851866D01*
X130081907Y-80157746D01*
X130103647Y-80204366D01*
X130103168Y-80221620D01*
X130096932Y-80264998D01*
X130096932Y-80265000D01*
X130101606Y-80297508D01*
X130116702Y-80402508D01*
X130174410Y-80528868D01*
X130174412Y-80528871D01*
X130239479Y-80603962D01*
X130265383Y-80633857D01*
X130301315Y-80656949D01*
X130382248Y-80708962D01*
X130477069Y-80736803D01*
X130515541Y-80748100D01*
X130515544Y-80748100D01*
X130641112Y-80748100D01*
X130689450Y-80765693D01*
X130694286Y-80770125D01*
X130748074Y-80823912D01*
X130769814Y-80870532D01*
X130770100Y-80877087D01*
X130770100Y-80985268D01*
X130752507Y-81033606D01*
X130726681Y-81053422D01*
X130670262Y-81079730D01*
X130670254Y-81079736D01*
X130592236Y-81157754D01*
X130592230Y-81157762D01*
X130583409Y-81176681D01*
X130547036Y-81213054D01*
X130515255Y-81220100D01*
X130510429Y-81220100D01*
X130462091Y-81202507D01*
X130441636Y-81175273D01*
X130438417Y-81167983D01*
X130438413Y-81167977D01*
X130357022Y-81086586D01*
X130357015Y-81086581D01*
X130251716Y-81040087D01*
X130243132Y-81039091D01*
X130225968Y-81037100D01*
X129709032Y-81037100D01*
X129691867Y-81039091D01*
X129683284Y-81040087D01*
X129683282Y-81040087D01*
X129577984Y-81086581D01*
X129577977Y-81086586D01*
X129496586Y-81167977D01*
X129496582Y-81167983D01*
X129468518Y-81231541D01*
X129432899Y-81268653D01*
X129381757Y-81274187D01*
X129339024Y-81245553D01*
X129330933Y-81231539D01*
X129302997Y-81168268D01*
X129302994Y-81168264D01*
X129221735Y-81087005D01*
X129221732Y-81087003D01*
X129116597Y-81040581D01*
X129090895Y-81037600D01*
X128959500Y-81037600D01*
X128959500Y-81551800D01*
X128941907Y-81600138D01*
X128897358Y-81625858D01*
X128884300Y-81627000D01*
X128312601Y-81627000D01*
X128312601Y-81700888D01*
X128315581Y-81726596D01*
X128362003Y-81831732D01*
X128362005Y-81831735D01*
X128443264Y-81912994D01*
X128443267Y-81912996D01*
X128495608Y-81936107D01*
X128532720Y-81971726D01*
X128538255Y-82022867D01*
X128509622Y-82065602D01*
X128465233Y-82080100D01*
X128303150Y-82080100D01*
X128265720Y-82090129D01*
X128247005Y-82095144D01*
X128247004Y-82095143D01*
X128231961Y-82099174D01*
X128168138Y-82136023D01*
X128168132Y-82136027D01*
X127467581Y-82836581D01*
X127328138Y-82976024D01*
X127308610Y-82995552D01*
X127276024Y-83028137D01*
X127276023Y-83028139D01*
X127239175Y-83091961D01*
X127220100Y-83163151D01*
X127220100Y-84504556D01*
X127202507Y-84552894D01*
X127185558Y-84567817D01*
X127180384Y-84571141D01*
X127180383Y-84571142D01*
X127089412Y-84676128D01*
X127089410Y-84676131D01*
X127031702Y-84802491D01*
X127011932Y-84940000D01*
X120381500Y-84940000D01*
X120381500Y-83374910D01*
X120399093Y-83326572D01*
X120443642Y-83300852D01*
X120494300Y-83309785D01*
X120512088Y-83324711D01*
X120512242Y-83324558D01*
X120513995Y-83326311D01*
X120514306Y-83326572D01*
X120514566Y-83326882D01*
X120673113Y-83485429D01*
X120673126Y-83485440D01*
X120736622Y-83529900D01*
X120856802Y-83614051D01*
X120856804Y-83614051D01*
X120856807Y-83614054D01*
X120977349Y-83670263D01*
X121060027Y-83708816D01*
X121276620Y-83766852D01*
X121500000Y-83786395D01*
X121723380Y-83766852D01*
X121939973Y-83708816D01*
X122143198Y-83614051D01*
X122326879Y-83485436D01*
X122485436Y-83326879D01*
X122614051Y-83143198D01*
X122623470Y-83123000D01*
X122637943Y-83091961D01*
X122708816Y-82939973D01*
X122766852Y-82723380D01*
X122786395Y-82500000D01*
X122766852Y-82276620D01*
X122708816Y-82060027D01*
X122687694Y-82014731D01*
X122614053Y-81856806D01*
X122614050Y-81856802D01*
X122603854Y-81842241D01*
X122485436Y-81673121D01*
X122485435Y-81673120D01*
X122485433Y-81673117D01*
X122326886Y-81514570D01*
X122326873Y-81514559D01*
X122143192Y-81385945D01*
X122115431Y-81373000D01*
X128312600Y-81373000D01*
X128705500Y-81373000D01*
X128705500Y-81037600D01*
X128574111Y-81037600D01*
X128548403Y-81040581D01*
X128443267Y-81087003D01*
X128443264Y-81087005D01*
X128362005Y-81168264D01*
X128362003Y-81168267D01*
X128315581Y-81273402D01*
X128312600Y-81299105D01*
X128312600Y-81373000D01*
X122115431Y-81373000D01*
X121939976Y-81291185D01*
X121939974Y-81291184D01*
X121939973Y-81291184D01*
X121723380Y-81233148D01*
X121723378Y-81233147D01*
X121723375Y-81233147D01*
X121500000Y-81213605D01*
X121276624Y-81233147D01*
X121276620Y-81233147D01*
X121276620Y-81233148D01*
X121144114Y-81268653D01*
X121060027Y-81291184D01*
X121060023Y-81291185D01*
X120856806Y-81385946D01*
X120856802Y-81385949D01*
X120673117Y-81514566D01*
X120514566Y-81673117D01*
X120514306Y-81673428D01*
X120514187Y-81673496D01*
X120512242Y-81675442D01*
X120511720Y-81674920D01*
X120469757Y-81699148D01*
X120419099Y-81690215D01*
X120386035Y-81650809D01*
X120381500Y-81625090D01*
X120381500Y-78465055D01*
X120747100Y-78465055D01*
X120747101Y-78465057D01*
X120755972Y-78509659D01*
X120789764Y-78560232D01*
X120789765Y-78560232D01*
X120789766Y-78560234D01*
X120840342Y-78594028D01*
X120884943Y-78602900D01*
X123015056Y-78602899D01*
X123059658Y-78594028D01*
X123110234Y-78560234D01*
X123144028Y-78509658D01*
X123152900Y-78465057D01*
X123152899Y-77034944D01*
X123144028Y-76990342D01*
X123110234Y-76939766D01*
X123059658Y-76905972D01*
X123059656Y-76905971D01*
X123015057Y-76897100D01*
X120884944Y-76897100D01*
X120884942Y-76897101D01*
X120840340Y-76905972D01*
X120789767Y-76939764D01*
X120755972Y-76990342D01*
X120755971Y-76990343D01*
X120747100Y-77034942D01*
X120747100Y-78465055D01*
X120381500Y-78465055D01*
X120381500Y-73965055D01*
X120747100Y-73965055D01*
X120747101Y-73965057D01*
X120755972Y-74009659D01*
X120789764Y-74060232D01*
X120789765Y-74060232D01*
X120789766Y-74060234D01*
X120840342Y-74094028D01*
X120884943Y-74102900D01*
X123015056Y-74102899D01*
X123059658Y-74094028D01*
X123110234Y-74060234D01*
X123144028Y-74009658D01*
X123152900Y-73965057D01*
X123152899Y-72534944D01*
X123144028Y-72490342D01*
X123110234Y-72439766D01*
X123059658Y-72405972D01*
X123059656Y-72405971D01*
X123015057Y-72397100D01*
X120884944Y-72397100D01*
X120884942Y-72397101D01*
X120840340Y-72405972D01*
X120789767Y-72439764D01*
X120755972Y-72490342D01*
X120755971Y-72490343D01*
X120747100Y-72534942D01*
X120747100Y-73965055D01*
X120381500Y-73965055D01*
X120381500Y-70456700D01*
X120399093Y-70408362D01*
X120443642Y-70382642D01*
X120456700Y-70381500D01*
X144543300Y-70381500D01*
X144591638Y-70399093D01*
G37*
%TD.AperFunction*%
%TD*%
M02*
