%TF.GenerationSoftware,KiCad,Pcbnew,8.0.1*%
%TF.CreationDate,2024-07-01T16:07:51-04:00*%
%TF.ProjectId,V1,56312e6b-6963-4616-945f-706362585858,rev?*%
%TF.SameCoordinates,Original*%
%TF.FileFunction,Copper,L2,Bot*%
%TF.FilePolarity,Positive*%
%FSLAX46Y46*%
G04 Gerber Fmt 4.6, Leading zero omitted, Abs format (unit mm)*
G04 Created by KiCad (PCBNEW 8.0.1) date 2024-07-01 16:07:51*
%MOMM*%
%LPD*%
G01*
G04 APERTURE LIST*
G04 Aperture macros list*
%AMRoundRect*
0 Rectangle with rounded corners*
0 $1 Rounding radius*
0 $2 $3 $4 $5 $6 $7 $8 $9 X,Y pos of 4 corners*
0 Add a 4 corners polygon primitive as box body*
4,1,4,$2,$3,$4,$5,$6,$7,$8,$9,$2,$3,0*
0 Add four circle primitives for the rounded corners*
1,1,$1+$1,$2,$3*
1,1,$1+$1,$4,$5*
1,1,$1+$1,$6,$7*
1,1,$1+$1,$8,$9*
0 Add four rect primitives between the rounded corners*
20,1,$1+$1,$2,$3,$4,$5,0*
20,1,$1+$1,$4,$5,$6,$7,0*
20,1,$1+$1,$6,$7,$8,$9,0*
20,1,$1+$1,$8,$9,$2,$3,0*%
G04 Aperture macros list end*
%TA.AperFunction,SMDPad,CuDef*%
%ADD10RoundRect,0.375000X0.375000X-0.625000X0.375000X0.625000X-0.375000X0.625000X-0.375000X-0.625000X0*%
%TD*%
%TA.AperFunction,SMDPad,CuDef*%
%ADD11R,1.500000X0.700000*%
%TD*%
%TA.AperFunction,SMDPad,CuDef*%
%ADD12R,0.800000X1.000000*%
%TD*%
%TA.AperFunction,SMDPad,CuDef*%
%ADD13RoundRect,0.250000X0.750000X0.250000X-0.750000X0.250000X-0.750000X-0.250000X0.750000X-0.250000X0*%
%TD*%
%TA.AperFunction,SMDPad,CuDef*%
%ADD14RoundRect,0.155000X0.212500X0.155000X-0.212500X0.155000X-0.212500X-0.155000X0.212500X-0.155000X0*%
%TD*%
%TA.AperFunction,SMDPad,CuDef*%
%ADD15RoundRect,0.325000X-0.325000X0.675000X-0.325000X-0.675000X0.325000X-0.675000X0.325000X0.675000X0*%
%TD*%
%TA.AperFunction,SMDPad,CuDef*%
%ADD16RoundRect,0.300000X0.300000X-0.700000X0.300000X0.700000X-0.300000X0.700000X-0.300000X-0.700000X0*%
%TD*%
%TA.AperFunction,SMDPad,CuDef*%
%ADD17RoundRect,0.150000X-0.587500X-0.150000X0.587500X-0.150000X0.587500X0.150000X-0.587500X0.150000X0*%
%TD*%
%TA.AperFunction,SMDPad,CuDef*%
%ADD18RoundRect,0.155000X-0.040659X-0.259862X0.259862X0.040659X0.040659X0.259862X-0.259862X-0.040659X0*%
%TD*%
%TA.AperFunction,SMDPad,CuDef*%
%ADD19RoundRect,0.150000X0.512500X0.150000X-0.512500X0.150000X-0.512500X-0.150000X0.512500X-0.150000X0*%
%TD*%
%TA.AperFunction,SMDPad,CuDef*%
%ADD20RoundRect,0.375000X-0.375000X0.625000X-0.375000X-0.625000X0.375000X-0.625000X0.375000X0.625000X0*%
%TD*%
%TA.AperFunction,SMDPad,CuDef*%
%ADD21RoundRect,0.250000X0.475000X-0.337500X0.475000X0.337500X-0.475000X0.337500X-0.475000X-0.337500X0*%
%TD*%
%TA.AperFunction,SMDPad,CuDef*%
%ADD22RoundRect,0.160000X0.197500X0.160000X-0.197500X0.160000X-0.197500X-0.160000X0.197500X-0.160000X0*%
%TD*%
%TA.AperFunction,SMDPad,CuDef*%
%ADD23RoundRect,0.160000X-0.197500X-0.160000X0.197500X-0.160000X0.197500X0.160000X-0.197500X0.160000X0*%
%TD*%
%TA.AperFunction,ViaPad*%
%ADD24C,0.660400*%
%TD*%
%TA.AperFunction,Conductor*%
%ADD25C,0.152400*%
%TD*%
%TA.AperFunction,Conductor*%
%ADD26C,0.254000*%
%TD*%
%TA.AperFunction,Conductor*%
%ADD27C,0.508000*%
%TD*%
G04 APERTURE END LIST*
D10*
%TO.P,J5,1,Pin_1*%
%TO.N,GND*%
X102600000Y-117050000D03*
%TD*%
D11*
%TO.P,SW1,1,1*%
%TO.N,/VIN*%
X124875000Y-114700000D03*
%TO.P,SW1,2,2*%
%TO.N,/VBAT*%
X124875000Y-117700000D03*
%TO.P,SW1,3,3*%
%TO.N,unconnected-(SW1-Pad3)*%
X124875000Y-119200000D03*
D12*
%TO.P,SW1,4*%
%TO.N,N/C*%
X125625000Y-120600000D03*
%TO.P,SW1,5*%
X127625000Y-120600000D03*
%TO.P,SW1,6*%
X127625000Y-113300000D03*
%TO.P,SW1,7*%
X125625000Y-113300000D03*
%TD*%
D13*
%TO.P,J8,1,Pin_1*%
%TO.N,/VIN*%
X122320000Y-112600000D03*
%TD*%
D14*
%TO.P,C1,1*%
%TO.N,VBUS*%
X105927500Y-117717500D03*
%TO.P,C1,2*%
%TO.N,GND*%
X104792500Y-117717500D03*
%TD*%
D15*
%TO.P,J2,1,Pin_1*%
%TO.N,/VIN*%
X105450000Y-107900000D03*
%TO.P,J2,2,Pin_2*%
%TO.N,VCC*%
X107450000Y-107900000D03*
%TO.P,J2,3,Pin_3*%
%TO.N,/SWDIO*%
X109450000Y-107900000D03*
%TO.P,J2,4,Pin_4*%
%TO.N,/SWDCLK*%
X111450000Y-107900000D03*
%TO.P,J2,5,Pin_5*%
%TO.N,/BTN_1*%
X113450000Y-107900000D03*
%TO.P,J2,6,Pin_6*%
%TO.N,/BTN_2*%
X115450000Y-107900000D03*
%TO.P,J2,7,Pin_7*%
%TO.N,/BTN_3*%
X117450000Y-107900000D03*
%TO.P,J2,8,Pin_8*%
%TO.N,/BTN_4*%
X119450000Y-107900000D03*
%TO.P,J2,9,Pin_9*%
%TO.N,/VIB_CTRL*%
X121450000Y-107900000D03*
%TO.P,J2,10,Pin_10*%
%TO.N,GND*%
X123450000Y-107900000D03*
%TD*%
D16*
%TO.P,J1,1,Pin_1*%
%TO.N,GND*%
X119450000Y-103000000D03*
%TO.P,J1,2,Pin_2*%
%TO.N,/BTN_4*%
X117450000Y-103000000D03*
%TO.P,J1,3,Pin_3*%
%TO.N,/BTN_3*%
X115450000Y-103000000D03*
%TO.P,J1,4,Pin_4*%
%TO.N,/BTN_2*%
X113450000Y-103000000D03*
%TO.P,J1,5,Pin_5*%
%TO.N,/BTN_1*%
X111450000Y-103000000D03*
%TO.P,J1,6,Pin_6*%
%TO.N,VCC*%
X109450000Y-103000000D03*
%TD*%
D17*
%TO.P,Q1,1,G*%
%TO.N,/VIB_CTRL*%
X122162500Y-104220000D03*
%TO.P,Q1,2,S*%
%TO.N,GND*%
X122162500Y-102320000D03*
%TO.P,Q1,3,D*%
%TO.N,Net-(J9-Pin_1)*%
X124037500Y-103270000D03*
%TD*%
D18*
%TO.P,C3,1*%
%TO.N,/VIN*%
X107468717Y-112321283D03*
%TO.P,C3,2*%
%TO.N,GND*%
X108271283Y-111518717D03*
%TD*%
D19*
%TO.P,U1,1,STAT*%
%TO.N,Net-(U1-STAT)*%
X109737500Y-115817500D03*
%TO.P,U1,2,V_{SS}*%
%TO.N,GND*%
X109737500Y-116767500D03*
%TO.P,U1,3,V_{BAT}*%
%TO.N,/VBAT*%
X109737500Y-117717500D03*
%TO.P,U1,4,V_{DD}*%
%TO.N,VBUS*%
X107462500Y-117717500D03*
%TO.P,U1,5,PROG*%
%TO.N,Net-(U1-PROG)*%
X107462500Y-115817500D03*
%TD*%
D13*
%TO.P,J9,1,Pin_1*%
%TO.N,Net-(J9-Pin_1)*%
X126250000Y-103270000D03*
%TD*%
D20*
%TO.P,J4,1,Pin_1*%
%TO.N,/VBAT*%
X120300000Y-117050000D03*
%TD*%
D21*
%TO.P,C4,1*%
%TO.N,GND*%
X120050000Y-114667500D03*
%TO.P,C4,2*%
%TO.N,/VIN*%
X120050000Y-112592500D03*
%TD*%
D22*
%TO.P,R2,1*%
%TO.N,Net-(U1-PROG)*%
X105957500Y-115817500D03*
%TO.P,R2,2*%
%TO.N,GND*%
X104762500Y-115817500D03*
%TD*%
D21*
%TO.P,C2,1*%
%TO.N,/VBAT*%
X122475000Y-117707500D03*
%TO.P,C2,2*%
%TO.N,GND*%
X122475000Y-115632500D03*
%TD*%
D23*
%TO.P,R3,1*%
%TO.N,/VIB_CTRL*%
X121450000Y-105830000D03*
%TO.P,R3,2*%
%TO.N,GND*%
X122645000Y-105830000D03*
%TD*%
D24*
%TO.N,/SWDIO*%
X109450000Y-107900000D03*
%TO.N,Net-(U1-STAT)*%
X117370000Y-115820000D03*
%TO.N,VBUS*%
X105940000Y-117710000D03*
%TO.N,GND*%
X127500000Y-101500000D03*
X122000000Y-110500000D03*
X121000000Y-120000000D03*
X102000000Y-122000000D03*
X106000000Y-122000000D03*
X102000000Y-120000000D03*
X125500000Y-107500000D03*
X104000000Y-106000000D03*
X102000000Y-104000000D03*
X102000000Y-115000000D03*
X108000000Y-120000000D03*
X118000000Y-111500000D03*
X109975000Y-105625000D03*
X108000000Y-122000000D03*
X124500000Y-112950000D03*
X127500000Y-107500000D03*
X106000000Y-104000000D03*
X121990000Y-113980000D03*
X104000000Y-113000000D03*
X124500000Y-110500000D03*
X104000000Y-122000000D03*
X123000000Y-120000000D03*
X121000000Y-122000000D03*
X115000000Y-109750000D03*
X125500000Y-101500000D03*
X106000000Y-106000000D03*
X125500000Y-105500000D03*
X123000000Y-122000000D03*
X104000000Y-120000000D03*
X104000000Y-104000000D03*
X106000000Y-113000000D03*
X110000000Y-110000000D03*
X102000000Y-113000000D03*
X102000000Y-102000000D03*
X106000000Y-102000000D03*
X127500000Y-105500000D03*
X114450000Y-113400000D03*
X104000000Y-102000000D03*
X102000000Y-106000000D03*
X106000000Y-120000000D03*
%TO.N,VCC*%
X107450000Y-107900000D03*
%TO.N,/SWDCLK*%
X111450000Y-107900000D03*
%TD*%
D25*
%TO.N,Net-(U1-STAT)*%
X109737500Y-115817500D02*
X117367500Y-115817500D01*
X117367500Y-115817500D02*
X117370000Y-115820000D01*
D26*
%TO.N,Net-(U1-PROG)*%
X107462500Y-115817500D02*
X105957500Y-115817500D01*
D27*
%TO.N,VBUS*%
X105927500Y-117717500D02*
X107462500Y-117717500D01*
D26*
%TO.N,VCC*%
X107450000Y-105000000D02*
X107450000Y-107900000D01*
X109450000Y-103000000D02*
X107450000Y-105000000D01*
D25*
%TO.N,/BTN_1*%
X111450000Y-104500000D02*
X111450000Y-103000000D01*
X113450000Y-107900000D02*
X113450000Y-106500000D01*
X113450000Y-106500000D02*
X111450000Y-104500000D01*
%TO.N,/BTN_2*%
X115450000Y-107900000D02*
X115450000Y-106700000D01*
X115450000Y-106700000D02*
X113450000Y-104700000D01*
X113450000Y-104700000D02*
X113450000Y-103000000D01*
%TO.N,/BTN_3*%
X115450000Y-104700000D02*
X115450000Y-103000000D01*
X117450000Y-107900000D02*
X117450000Y-106700000D01*
X117450000Y-106700000D02*
X115450000Y-104700000D01*
%TO.N,/BTN_4*%
X117450000Y-104650000D02*
X117450000Y-103000000D01*
X119450000Y-106650000D02*
X117450000Y-104650000D01*
X119450000Y-107900000D02*
X119450000Y-106650000D01*
%TO.N,/VIB_CTRL*%
X122162500Y-105117500D02*
X121450000Y-105830000D01*
X122162500Y-104220000D02*
X122162500Y-105117500D01*
X121450000Y-107900000D02*
X121450000Y-105830000D01*
D27*
%TO.N,/VBAT*%
X121817500Y-117050000D02*
X122475000Y-117707500D01*
X124875000Y-117700000D02*
X122482500Y-117700000D01*
X115060000Y-117050000D02*
X120300000Y-117050000D01*
X120300000Y-117050000D02*
X121817500Y-117050000D01*
X114392500Y-117717500D02*
X115060000Y-117050000D01*
X109737500Y-117717500D02*
X114392500Y-117717500D01*
X122482500Y-117700000D02*
X122475000Y-117707500D01*
%TO.N,/VIN*%
X119787500Y-112592500D02*
X117970000Y-114410000D01*
X105450000Y-110230000D02*
X105450000Y-107900000D01*
X124420000Y-114700000D02*
X122320000Y-112600000D01*
X117970000Y-114410000D02*
X109557434Y-114410000D01*
X107468717Y-112321283D02*
X107468717Y-112248717D01*
X120050000Y-112592500D02*
X119787500Y-112592500D01*
X122317500Y-112597500D02*
X122320000Y-112600000D01*
X109557434Y-114410000D02*
X107468717Y-112321283D01*
X120050000Y-112597500D02*
X122317500Y-112597500D01*
X124875000Y-114700000D02*
X124420000Y-114700000D01*
X107468717Y-112248717D02*
X105450000Y-110230000D01*
%TO.N,Net-(J9-Pin_1)*%
X126250000Y-103270000D02*
X124037500Y-103270000D01*
%TD*%
%TA.AperFunction,Conductor*%
%TO.N,GND*%
G36*
X128491638Y-100399093D02*
G01*
X128517358Y-100443642D01*
X128518500Y-100456700D01*
X128518500Y-122543300D01*
X128500907Y-122591638D01*
X128456358Y-122617358D01*
X128443300Y-122618500D01*
X119356700Y-122618500D01*
X119308362Y-122600907D01*
X119282642Y-122556358D01*
X119281500Y-122543300D01*
X119281500Y-121115055D01*
X125072100Y-121115055D01*
X125072101Y-121115057D01*
X125080972Y-121159659D01*
X125114764Y-121210232D01*
X125114765Y-121210232D01*
X125114766Y-121210234D01*
X125165342Y-121244028D01*
X125209943Y-121252900D01*
X126040056Y-121252899D01*
X126084658Y-121244028D01*
X126135234Y-121210234D01*
X126169028Y-121159658D01*
X126177900Y-121115057D01*
X126177900Y-121115055D01*
X127072100Y-121115055D01*
X127072101Y-121115057D01*
X127080972Y-121159659D01*
X127114764Y-121210232D01*
X127114765Y-121210232D01*
X127114766Y-121210234D01*
X127165342Y-121244028D01*
X127209943Y-121252900D01*
X128040056Y-121252899D01*
X128084658Y-121244028D01*
X128135234Y-121210234D01*
X128169028Y-121159658D01*
X128177900Y-121115057D01*
X128177899Y-120084944D01*
X128169028Y-120040342D01*
X128135234Y-119989766D01*
X128084658Y-119955972D01*
X128084656Y-119955971D01*
X128040057Y-119947100D01*
X127209944Y-119947100D01*
X127209942Y-119947101D01*
X127165340Y-119955972D01*
X127114767Y-119989764D01*
X127080972Y-120040342D01*
X127080971Y-120040343D01*
X127072100Y-120084942D01*
X127072100Y-121115055D01*
X126177900Y-121115055D01*
X126177899Y-120084944D01*
X126169028Y-120040342D01*
X126135234Y-119989766D01*
X126084658Y-119955972D01*
X126084656Y-119955971D01*
X126040057Y-119947100D01*
X125209944Y-119947100D01*
X125209942Y-119947101D01*
X125165340Y-119955972D01*
X125114767Y-119989764D01*
X125080972Y-120040342D01*
X125080971Y-120040343D01*
X125072100Y-120084942D01*
X125072100Y-121115055D01*
X119281500Y-121115055D01*
X119281500Y-119565055D01*
X123972100Y-119565055D01*
X123972101Y-119565057D01*
X123980972Y-119609659D01*
X124014764Y-119660232D01*
X124014765Y-119660232D01*
X124014766Y-119660234D01*
X124065342Y-119694028D01*
X124109943Y-119702900D01*
X125640056Y-119702899D01*
X125684658Y-119694028D01*
X125735234Y-119660234D01*
X125769028Y-119609658D01*
X125777900Y-119565057D01*
X125777899Y-118834944D01*
X125769028Y-118790342D01*
X125763326Y-118781809D01*
X125735235Y-118739767D01*
X125735231Y-118739764D01*
X125684658Y-118705972D01*
X125684656Y-118705971D01*
X125640057Y-118697100D01*
X124109944Y-118697100D01*
X124109942Y-118697101D01*
X124065340Y-118705972D01*
X124014767Y-118739764D01*
X123980972Y-118790342D01*
X123980971Y-118790343D01*
X123972100Y-118834942D01*
X123972100Y-119565055D01*
X119281500Y-119565055D01*
X119281500Y-118949777D01*
X119281500Y-118949775D01*
X119255501Y-118852746D01*
X119205276Y-118765753D01*
X119205274Y-118765751D01*
X119205272Y-118765748D01*
X119134251Y-118694727D01*
X119134245Y-118694723D01*
X119047255Y-118644499D01*
X119022996Y-118637999D01*
X118950225Y-118618500D01*
X110050225Y-118618500D01*
X109949775Y-118618500D01*
X109891557Y-118634099D01*
X109852744Y-118644499D01*
X109765754Y-118694723D01*
X109765748Y-118694727D01*
X109694727Y-118765748D01*
X109694723Y-118765754D01*
X109644499Y-118852744D01*
X109632764Y-118896542D01*
X109618500Y-118949775D01*
X109618500Y-118949777D01*
X109618500Y-122543300D01*
X109600907Y-122591638D01*
X109556358Y-122617358D01*
X109543300Y-122618500D01*
X100456700Y-122618500D01*
X100408362Y-122600907D01*
X100382642Y-122556358D01*
X100381500Y-122543300D01*
X100381500Y-118518994D01*
X125924500Y-118518994D01*
X125951420Y-118654329D01*
X125951421Y-118654331D01*
X125997574Y-118765754D01*
X126004225Y-118781811D01*
X126080886Y-118896542D01*
X126080888Y-118896544D01*
X126080890Y-118896547D01*
X126178452Y-118994109D01*
X126178455Y-118994111D01*
X126178458Y-118994114D01*
X126293189Y-119070775D01*
X126420672Y-119123580D01*
X126502165Y-119139790D01*
X126556005Y-119150500D01*
X126556007Y-119150500D01*
X126693995Y-119150500D01*
X126738901Y-119141566D01*
X126829328Y-119123580D01*
X126956811Y-119070775D01*
X127071542Y-118994114D01*
X127169114Y-118896542D01*
X127245775Y-118781811D01*
X127298580Y-118654328D01*
X127325500Y-118518993D01*
X127325500Y-118381007D01*
X127324308Y-118375016D01*
X127306357Y-118284771D01*
X127298580Y-118245672D01*
X127245775Y-118118189D01*
X127169114Y-118003458D01*
X127169111Y-118003455D01*
X127169109Y-118003452D01*
X127071547Y-117905890D01*
X127071544Y-117905888D01*
X127071542Y-117905886D01*
X126956811Y-117829225D01*
X126889066Y-117801164D01*
X126829331Y-117776421D01*
X126829329Y-117776420D01*
X126693995Y-117749500D01*
X126693993Y-117749500D01*
X126556007Y-117749500D01*
X126556005Y-117749500D01*
X126420670Y-117776420D01*
X126420668Y-117776421D01*
X126293190Y-117829224D01*
X126178455Y-117905888D01*
X126178452Y-117905890D01*
X126080890Y-118003452D01*
X126080888Y-118003455D01*
X126004224Y-118118190D01*
X125951421Y-118245668D01*
X125951420Y-118245670D01*
X125924500Y-118381005D01*
X125924500Y-118518994D01*
X100381500Y-118518994D01*
X100381500Y-117177000D01*
X101697601Y-117177000D01*
X101697601Y-117716286D01*
X101707778Y-117801043D01*
X101760964Y-117935912D01*
X101760967Y-117935917D01*
X101848565Y-118051434D01*
X101964082Y-118139032D01*
X101964087Y-118139035D01*
X102098956Y-118192221D01*
X102183713Y-118202399D01*
X102473000Y-118202399D01*
X102473000Y-117177000D01*
X102727000Y-117177000D01*
X102727000Y-118202399D01*
X103016287Y-118202399D01*
X103101043Y-118192221D01*
X103235912Y-118139035D01*
X103235917Y-118139032D01*
X103351434Y-118051434D01*
X103439032Y-117935917D01*
X103439035Y-117935912D01*
X103475084Y-117844500D01*
X104272601Y-117844500D01*
X104272601Y-117918388D01*
X104275581Y-117944096D01*
X104322003Y-118049232D01*
X104322005Y-118049235D01*
X104403264Y-118130494D01*
X104403267Y-118130496D01*
X104508402Y-118176918D01*
X104534105Y-118179899D01*
X104665500Y-118179899D01*
X104919500Y-118179899D01*
X105050888Y-118179899D01*
X105076596Y-118176918D01*
X105181732Y-118130496D01*
X105181735Y-118130494D01*
X105262994Y-118049235D01*
X105262997Y-118049231D01*
X105290933Y-117985961D01*
X105326552Y-117948848D01*
X105377693Y-117943313D01*
X105420427Y-117971946D01*
X105428518Y-117985959D01*
X105456582Y-118049516D01*
X105456586Y-118049522D01*
X105537977Y-118130913D01*
X105537984Y-118130918D01*
X105604381Y-118160235D01*
X105643285Y-118177413D01*
X105669032Y-118180400D01*
X105816477Y-118180400D01*
X105837662Y-118183445D01*
X105870541Y-118193100D01*
X105870544Y-118193100D01*
X106009456Y-118193100D01*
X106009459Y-118193100D01*
X106042337Y-118183445D01*
X106063523Y-118180400D01*
X106185966Y-118180400D01*
X106185968Y-118180400D01*
X106211715Y-118177413D01*
X106211717Y-118177412D01*
X106317266Y-118130808D01*
X106347641Y-118124400D01*
X106766062Y-118124400D01*
X106796437Y-118130808D01*
X106816068Y-118139476D01*
X106879450Y-118167462D01*
X106904774Y-118170400D01*
X106904776Y-118170400D01*
X108020224Y-118170400D01*
X108020226Y-118170400D01*
X108045550Y-118167462D01*
X108149145Y-118121720D01*
X108229220Y-118041645D01*
X108274962Y-117938050D01*
X108277900Y-117912726D01*
X108277900Y-117912723D01*
X108922100Y-117912723D01*
X108925037Y-117938048D01*
X108970780Y-118041645D01*
X108970782Y-118041648D01*
X109050851Y-118121717D01*
X109050854Y-118121719D01*
X109050855Y-118121720D01*
X109154450Y-118167462D01*
X109179774Y-118170400D01*
X109179776Y-118170400D01*
X110295224Y-118170400D01*
X110295226Y-118170400D01*
X110320550Y-118167462D01*
X110320552Y-118167461D01*
X110324525Y-118165707D01*
X110383932Y-118139476D01*
X110403563Y-118130808D01*
X110433938Y-118124400D01*
X114446068Y-118124400D01*
X114446070Y-118124400D01*
X114549558Y-118096670D01*
X114642343Y-118043101D01*
X115206517Y-117478925D01*
X115253137Y-117457186D01*
X115259691Y-117456900D01*
X119321901Y-117456900D01*
X119370239Y-117474493D01*
X119395959Y-117519042D01*
X119397101Y-117532100D01*
X119397101Y-117716325D01*
X119407288Y-117801164D01*
X119460523Y-117936161D01*
X119466631Y-117944215D01*
X119548209Y-118051791D01*
X119644080Y-118124493D01*
X119663838Y-118139476D01*
X119797591Y-118192221D01*
X119798837Y-118192712D01*
X119883673Y-118202900D01*
X120716326Y-118202899D01*
X120801163Y-118192712D01*
X120936162Y-118139476D01*
X121051791Y-118051791D01*
X121139476Y-117936162D01*
X121192712Y-117801163D01*
X121202900Y-117716327D01*
X121202900Y-117532100D01*
X121220493Y-117483762D01*
X121265042Y-117458042D01*
X121278100Y-117456900D01*
X121521900Y-117456900D01*
X121570238Y-117474493D01*
X121595958Y-117519042D01*
X121597100Y-117532100D01*
X121597100Y-118076710D01*
X121612043Y-118171056D01*
X121650060Y-118245668D01*
X121669984Y-118284771D01*
X121760229Y-118375016D01*
X121873943Y-118432956D01*
X121873945Y-118432957D01*
X121968292Y-118447900D01*
X121968296Y-118447900D01*
X122981704Y-118447900D01*
X122981708Y-118447900D01*
X123076055Y-118432957D01*
X123189771Y-118375016D01*
X123280016Y-118284771D01*
X123337957Y-118171055D01*
X123338071Y-118170330D01*
X123338363Y-118169804D01*
X123339784Y-118165431D01*
X123340634Y-118165707D01*
X123363012Y-118125343D01*
X123411037Y-118106911D01*
X123412345Y-118106900D01*
X123938934Y-118106900D01*
X123987272Y-118124493D01*
X124001458Y-118140318D01*
X124014766Y-118160234D01*
X124065342Y-118194028D01*
X124109943Y-118202900D01*
X125640056Y-118202899D01*
X125684658Y-118194028D01*
X125735234Y-118160234D01*
X125769028Y-118109658D01*
X125777900Y-118065057D01*
X125777899Y-117334944D01*
X125769028Y-117290342D01*
X125738026Y-117243945D01*
X125735235Y-117239767D01*
X125735231Y-117239764D01*
X125684658Y-117205972D01*
X125684656Y-117205971D01*
X125640057Y-117197100D01*
X124109944Y-117197100D01*
X124109942Y-117197101D01*
X124065340Y-117205972D01*
X124014767Y-117239764D01*
X124014766Y-117239766D01*
X124001459Y-117259679D01*
X123959977Y-117290096D01*
X123938934Y-117293100D01*
X123408565Y-117293100D01*
X123360227Y-117275507D01*
X123342021Y-117248516D01*
X123340644Y-117249218D01*
X123301993Y-117173361D01*
X123280016Y-117130229D01*
X123189771Y-117039984D01*
X123076055Y-116982043D01*
X123076057Y-116982043D01*
X122981710Y-116967100D01*
X122981708Y-116967100D01*
X122341192Y-116967100D01*
X122292854Y-116949507D01*
X122288028Y-116945084D01*
X122067343Y-116724399D01*
X122047734Y-116713078D01*
X121974559Y-116670830D01*
X121940062Y-116661586D01*
X121871070Y-116643100D01*
X121871069Y-116643100D01*
X121871068Y-116643100D01*
X121278099Y-116643100D01*
X121229761Y-116625507D01*
X121204041Y-116580958D01*
X121202899Y-116567900D01*
X121202899Y-116383674D01*
X121195967Y-116325946D01*
X121192712Y-116298837D01*
X121139476Y-116163838D01*
X121051791Y-116048209D01*
X120936746Y-115960967D01*
X120936161Y-115960523D01*
X120801165Y-115907288D01*
X120744605Y-115900496D01*
X120716327Y-115897100D01*
X120716326Y-115897100D01*
X119883674Y-115897100D01*
X119798835Y-115907288D01*
X119663838Y-115960523D01*
X119548209Y-116048209D01*
X119460523Y-116163838D01*
X119407288Y-116298834D01*
X119397100Y-116383673D01*
X119397100Y-116567900D01*
X119379507Y-116616238D01*
X119334958Y-116641958D01*
X119321900Y-116643100D01*
X115113570Y-116643100D01*
X115006431Y-116643100D01*
X114954687Y-116656965D01*
X114902941Y-116670830D01*
X114810159Y-116724398D01*
X114810153Y-116724402D01*
X114245982Y-117288574D01*
X114199362Y-117310314D01*
X114192808Y-117310600D01*
X110463350Y-117310600D01*
X110415012Y-117293007D01*
X110389292Y-117248458D01*
X110398225Y-117197800D01*
X110420850Y-117173361D01*
X110423860Y-117171298D01*
X110503798Y-117091360D01*
X110503800Y-117091357D01*
X110549467Y-116987932D01*
X110552400Y-116962650D01*
X110552400Y-116894500D01*
X108922600Y-116894500D01*
X108922600Y-116962650D01*
X108925532Y-116987932D01*
X108971199Y-117091357D01*
X108971201Y-117091360D01*
X109051139Y-117171298D01*
X109051142Y-117171300D01*
X109055970Y-117173432D01*
X109093084Y-117209050D01*
X109098621Y-117260191D01*
X109069989Y-117302926D01*
X109055980Y-117311016D01*
X109050857Y-117313278D01*
X109050851Y-117313282D01*
X108970782Y-117393351D01*
X108970780Y-117393354D01*
X108925037Y-117496951D01*
X108922100Y-117522276D01*
X108922100Y-117912723D01*
X108277900Y-117912723D01*
X108277900Y-117522274D01*
X108274962Y-117496950D01*
X108229220Y-117393355D01*
X108229219Y-117393354D01*
X108229217Y-117393351D01*
X108149148Y-117313282D01*
X108149145Y-117313280D01*
X108045548Y-117267537D01*
X108026100Y-117265281D01*
X108020226Y-117264600D01*
X106904774Y-117264600D01*
X106887891Y-117266558D01*
X106879449Y-117267538D01*
X106879447Y-117267538D01*
X106796437Y-117304192D01*
X106766062Y-117310600D01*
X106347641Y-117310600D01*
X106317266Y-117304192D01*
X106211716Y-117257587D01*
X106203132Y-117256591D01*
X106185968Y-117254600D01*
X106185966Y-117254600D01*
X106114609Y-117254600D01*
X106093423Y-117251554D01*
X106085467Y-117249218D01*
X106082879Y-117248458D01*
X106009461Y-117226900D01*
X106009459Y-117226900D01*
X105870541Y-117226900D01*
X105870538Y-117226900D01*
X105786577Y-117251554D01*
X105765391Y-117254600D01*
X105669032Y-117254600D01*
X105651867Y-117256591D01*
X105643284Y-117257587D01*
X105643282Y-117257587D01*
X105537984Y-117304081D01*
X105537977Y-117304086D01*
X105456586Y-117385477D01*
X105456582Y-117385483D01*
X105428518Y-117449041D01*
X105392899Y-117486153D01*
X105341757Y-117491687D01*
X105299024Y-117463053D01*
X105290933Y-117449039D01*
X105262997Y-117385768D01*
X105262994Y-117385764D01*
X105181735Y-117304505D01*
X105181732Y-117304503D01*
X105076597Y-117258081D01*
X105050895Y-117255100D01*
X104919500Y-117255100D01*
X104919500Y-118179899D01*
X104665500Y-118179899D01*
X104665500Y-117844500D01*
X104272601Y-117844500D01*
X103475084Y-117844500D01*
X103492221Y-117801043D01*
X103502400Y-117716287D01*
X103502400Y-117590500D01*
X104272600Y-117590500D01*
X104665500Y-117590500D01*
X104665500Y-117255100D01*
X104534111Y-117255100D01*
X104508403Y-117258081D01*
X104403267Y-117304503D01*
X104403264Y-117304505D01*
X104322005Y-117385764D01*
X104322003Y-117385767D01*
X104275581Y-117490902D01*
X104272600Y-117516605D01*
X104272600Y-117590500D01*
X103502400Y-117590500D01*
X103502400Y-117177000D01*
X102727000Y-117177000D01*
X102473000Y-117177000D01*
X101697601Y-117177000D01*
X100381500Y-117177000D01*
X100381500Y-116923000D01*
X101697600Y-116923000D01*
X102473000Y-116923000D01*
X102473000Y-115897600D01*
X102727000Y-115897600D01*
X102727000Y-116923000D01*
X103502399Y-116923000D01*
X103502399Y-116383713D01*
X103492221Y-116298956D01*
X103439035Y-116164087D01*
X103439032Y-116164082D01*
X103351434Y-116048565D01*
X103235917Y-115960967D01*
X103235912Y-115960964D01*
X103194163Y-115944500D01*
X104252600Y-115944500D01*
X104252600Y-116014102D01*
X104258590Y-116059602D01*
X104305147Y-116159446D01*
X104305152Y-116159453D01*
X104383046Y-116237347D01*
X104383053Y-116237352D01*
X104482897Y-116283909D01*
X104528398Y-116289900D01*
X104635500Y-116289900D01*
X104635500Y-115944500D01*
X104889500Y-115944500D01*
X104889500Y-116289900D01*
X104996602Y-116289900D01*
X105042102Y-116283909D01*
X105141946Y-116237352D01*
X105141953Y-116237347D01*
X105219847Y-116159453D01*
X105219852Y-116159446D01*
X105266409Y-116059602D01*
X105272392Y-116014164D01*
X105447100Y-116014164D01*
X105453099Y-116059736D01*
X105499730Y-116159737D01*
X105499736Y-116159745D01*
X105577754Y-116237763D01*
X105577762Y-116237769D01*
X105677763Y-116284400D01*
X105677764Y-116284400D01*
X105677766Y-116284401D01*
X105723334Y-116290400D01*
X105723336Y-116290400D01*
X106191664Y-116290400D01*
X106191666Y-116290400D01*
X106237234Y-116284401D01*
X106337241Y-116237767D01*
X106415267Y-116159741D01*
X106419576Y-116150500D01*
X106424091Y-116140819D01*
X106460464Y-116104446D01*
X106492245Y-116097400D01*
X106627244Y-116097400D01*
X106675582Y-116114993D01*
X106691473Y-116136150D01*
X106691843Y-116135897D01*
X106695783Y-116141649D01*
X106775851Y-116221717D01*
X106775854Y-116221719D01*
X106775855Y-116221720D01*
X106879450Y-116267462D01*
X106904774Y-116270400D01*
X106904776Y-116270400D01*
X108020224Y-116270400D01*
X108020226Y-116270400D01*
X108045550Y-116267462D01*
X108149145Y-116221720D01*
X108229220Y-116141645D01*
X108274962Y-116038050D01*
X108277900Y-116012726D01*
X108277900Y-116012723D01*
X108922100Y-116012723D01*
X108925037Y-116038048D01*
X108970780Y-116141645D01*
X108970782Y-116141648D01*
X109050851Y-116221717D01*
X109050855Y-116221720D01*
X109055975Y-116223981D01*
X109093086Y-116259601D01*
X109098619Y-116310743D01*
X109069985Y-116353476D01*
X109055975Y-116361564D01*
X109051148Y-116363695D01*
X109051139Y-116363701D01*
X108971201Y-116443639D01*
X108971199Y-116443642D01*
X108925532Y-116547067D01*
X108922600Y-116572349D01*
X108922600Y-116640500D01*
X110552400Y-116640500D01*
X110552400Y-116572349D01*
X110549467Y-116547067D01*
X110503800Y-116443642D01*
X110503798Y-116443639D01*
X110423860Y-116363701D01*
X110423853Y-116363696D01*
X110419026Y-116361565D01*
X110381913Y-116325946D01*
X110376379Y-116274805D01*
X110405013Y-116232071D01*
X110419027Y-116223980D01*
X110419834Y-116223623D01*
X110424145Y-116221720D01*
X110504220Y-116141645D01*
X110526395Y-116091423D01*
X110562013Y-116054313D01*
X110595187Y-116046600D01*
X116894398Y-116046600D01*
X116942736Y-116064193D01*
X116957665Y-116081152D01*
X116959411Y-116083870D01*
X117050383Y-116188857D01*
X117050385Y-116188858D01*
X117167248Y-116263962D01*
X117236858Y-116284401D01*
X117300541Y-116303100D01*
X117300544Y-116303100D01*
X117439456Y-116303100D01*
X117439459Y-116303100D01*
X117572751Y-116263962D01*
X117689617Y-116188857D01*
X117780589Y-116083869D01*
X117821579Y-115994114D01*
X117838297Y-115957508D01*
X117838297Y-115957506D01*
X117838298Y-115957505D01*
X117858068Y-115820000D01*
X117849370Y-115759500D01*
X121597600Y-115759500D01*
X121597600Y-116001671D01*
X121612524Y-116095899D01*
X121670394Y-116209474D01*
X121760525Y-116299605D01*
X121874101Y-116357475D01*
X121874099Y-116357475D01*
X121968328Y-116372399D01*
X121968336Y-116372400D01*
X122348000Y-116372400D01*
X122348000Y-115759500D01*
X122602000Y-115759500D01*
X122602000Y-116372400D01*
X122981664Y-116372400D01*
X122981671Y-116372399D01*
X123075899Y-116357475D01*
X123189474Y-116299605D01*
X123279605Y-116209474D01*
X123337475Y-116095899D01*
X123352399Y-116001671D01*
X123352400Y-116001664D01*
X123352400Y-115759500D01*
X122602000Y-115759500D01*
X122348000Y-115759500D01*
X121597600Y-115759500D01*
X117849370Y-115759500D01*
X117838298Y-115682495D01*
X117838297Y-115682493D01*
X117838297Y-115682491D01*
X117780589Y-115556131D01*
X117780587Y-115556128D01*
X117748411Y-115518994D01*
X125924500Y-115518994D01*
X125951420Y-115654329D01*
X125951421Y-115654331D01*
X126004224Y-115781809D01*
X126004225Y-115781811D01*
X126080886Y-115896542D01*
X126080888Y-115896544D01*
X126080890Y-115896547D01*
X126178452Y-115994109D01*
X126178455Y-115994111D01*
X126178458Y-115994114D01*
X126293189Y-116070775D01*
X126420672Y-116123580D01*
X126502165Y-116139790D01*
X126556005Y-116150500D01*
X126556007Y-116150500D01*
X126693995Y-116150500D01*
X126742662Y-116140819D01*
X126829328Y-116123580D01*
X126956811Y-116070775D01*
X127071542Y-115994114D01*
X127169114Y-115896542D01*
X127245775Y-115781811D01*
X127298580Y-115654328D01*
X127325500Y-115518993D01*
X127325500Y-115381007D01*
X127324511Y-115376037D01*
X127314790Y-115327165D01*
X127298580Y-115245672D01*
X127245775Y-115118189D01*
X127169114Y-115003458D01*
X127169111Y-115003455D01*
X127169109Y-115003452D01*
X127071547Y-114905890D01*
X127071544Y-114905888D01*
X127071542Y-114905886D01*
X126956811Y-114829225D01*
X126956809Y-114829224D01*
X126829331Y-114776421D01*
X126829329Y-114776420D01*
X126693995Y-114749500D01*
X126693993Y-114749500D01*
X126556007Y-114749500D01*
X126556005Y-114749500D01*
X126420670Y-114776420D01*
X126420668Y-114776421D01*
X126293190Y-114829224D01*
X126178455Y-114905888D01*
X126178452Y-114905890D01*
X126080890Y-115003452D01*
X126080888Y-115003455D01*
X126004224Y-115118190D01*
X125951421Y-115245668D01*
X125951420Y-115245670D01*
X125924500Y-115381005D01*
X125924500Y-115518994D01*
X117748411Y-115518994D01*
X117736718Y-115505500D01*
X121597600Y-115505500D01*
X122348000Y-115505500D01*
X122348000Y-114892600D01*
X122602000Y-114892600D01*
X122602000Y-115505500D01*
X123352400Y-115505500D01*
X123352400Y-115263336D01*
X123352399Y-115263328D01*
X123337475Y-115169100D01*
X123279605Y-115055525D01*
X123189474Y-114965394D01*
X123075898Y-114907524D01*
X123075900Y-114907524D01*
X122981671Y-114892600D01*
X122602000Y-114892600D01*
X122348000Y-114892600D01*
X121968328Y-114892600D01*
X121874100Y-114907524D01*
X121760525Y-114965394D01*
X121670394Y-115055525D01*
X121612524Y-115169100D01*
X121597600Y-115263328D01*
X121597600Y-115505500D01*
X117736718Y-115505500D01*
X117689616Y-115451142D01*
X117689614Y-115451141D01*
X117572751Y-115376037D01*
X117439461Y-115336900D01*
X117439459Y-115336900D01*
X117300541Y-115336900D01*
X117300538Y-115336900D01*
X117167248Y-115376037D01*
X117050385Y-115451141D01*
X117050383Y-115451142D01*
X116955888Y-115560196D01*
X116954323Y-115558840D01*
X116919938Y-115585009D01*
X116897610Y-115588400D01*
X110595187Y-115588400D01*
X110546849Y-115570807D01*
X110526395Y-115543576D01*
X110504220Y-115493355D01*
X110504219Y-115493354D01*
X110504217Y-115493351D01*
X110424148Y-115413282D01*
X110424145Y-115413280D01*
X110320548Y-115367537D01*
X110301100Y-115365281D01*
X110295226Y-115364600D01*
X109179774Y-115364600D01*
X109174510Y-115365210D01*
X109154451Y-115367537D01*
X109050854Y-115413280D01*
X109050851Y-115413282D01*
X108970782Y-115493351D01*
X108970780Y-115493354D01*
X108925037Y-115596951D01*
X108922100Y-115622276D01*
X108922100Y-116012723D01*
X108277900Y-116012723D01*
X108277900Y-115622274D01*
X108274962Y-115596950D01*
X108229220Y-115493355D01*
X108229219Y-115493354D01*
X108229217Y-115493351D01*
X108149148Y-115413282D01*
X108149145Y-115413280D01*
X108045548Y-115367537D01*
X108026100Y-115365281D01*
X108020226Y-115364600D01*
X106904774Y-115364600D01*
X106899510Y-115365210D01*
X106879451Y-115367537D01*
X106775854Y-115413280D01*
X106775851Y-115413282D01*
X106695783Y-115493350D01*
X106691843Y-115499103D01*
X106690708Y-115498325D01*
X106660420Y-115529886D01*
X106627244Y-115537600D01*
X106492245Y-115537600D01*
X106443907Y-115520007D01*
X106424091Y-115494181D01*
X106415269Y-115475262D01*
X106415263Y-115475254D01*
X106337245Y-115397236D01*
X106337237Y-115397230D01*
X106237236Y-115350599D01*
X106214450Y-115347599D01*
X106191666Y-115344600D01*
X105723334Y-115344600D01*
X105705106Y-115346999D01*
X105677763Y-115350599D01*
X105577762Y-115397230D01*
X105577754Y-115397236D01*
X105499736Y-115475254D01*
X105499730Y-115475262D01*
X105453099Y-115575263D01*
X105447100Y-115620835D01*
X105447100Y-116014164D01*
X105272392Y-116014164D01*
X105272400Y-116014102D01*
X105272400Y-115944500D01*
X104889500Y-115944500D01*
X104635500Y-115944500D01*
X104252600Y-115944500D01*
X103194163Y-115944500D01*
X103101043Y-115907778D01*
X103016288Y-115897600D01*
X102727000Y-115897600D01*
X102473000Y-115897600D01*
X102183713Y-115897600D01*
X102098956Y-115907778D01*
X101964087Y-115960964D01*
X101964082Y-115960967D01*
X101848565Y-116048565D01*
X101760967Y-116164082D01*
X101760964Y-116164087D01*
X101707778Y-116298956D01*
X101697600Y-116383712D01*
X101697600Y-116923000D01*
X100381500Y-116923000D01*
X100381500Y-115690500D01*
X104252600Y-115690500D01*
X104635500Y-115690500D01*
X104635500Y-115345100D01*
X104889500Y-115345100D01*
X104889500Y-115690500D01*
X105272400Y-115690500D01*
X105272400Y-115620897D01*
X105266409Y-115575397D01*
X105219852Y-115475553D01*
X105219847Y-115475546D01*
X105141953Y-115397652D01*
X105141946Y-115397647D01*
X105042102Y-115351090D01*
X104996602Y-115345100D01*
X104889500Y-115345100D01*
X104635500Y-115345100D01*
X104528398Y-115345100D01*
X104482897Y-115351090D01*
X104383053Y-115397647D01*
X104383046Y-115397652D01*
X104305152Y-115475546D01*
X104305147Y-115475553D01*
X104258590Y-115575397D01*
X104252600Y-115620897D01*
X104252600Y-115690500D01*
X100381500Y-115690500D01*
X100381500Y-110000000D01*
X100713605Y-110000000D01*
X100733147Y-110223375D01*
X100733147Y-110223378D01*
X100733148Y-110223380D01*
X100777006Y-110387059D01*
X100791184Y-110439972D01*
X100791185Y-110439976D01*
X100885945Y-110643192D01*
X101014559Y-110826873D01*
X101014570Y-110826886D01*
X101173113Y-110985429D01*
X101173126Y-110985440D01*
X101264775Y-111049612D01*
X101356802Y-111114051D01*
X101356804Y-111114051D01*
X101356807Y-111114054D01*
X101525925Y-111192914D01*
X101560027Y-111208816D01*
X101776620Y-111266852D01*
X102000000Y-111286395D01*
X102223380Y-111266852D01*
X102439973Y-111208816D01*
X102643198Y-111114051D01*
X102826879Y-110985436D01*
X102985436Y-110826879D01*
X103114051Y-110643198D01*
X103208816Y-110439973D01*
X103266852Y-110223380D01*
X103286395Y-110000000D01*
X103266852Y-109776620D01*
X103208816Y-109560027D01*
X103191458Y-109522804D01*
X103114053Y-109356806D01*
X103114050Y-109356802D01*
X102985433Y-109173117D01*
X102826886Y-109014570D01*
X102826873Y-109014559D01*
X102643192Y-108885945D01*
X102439976Y-108791185D01*
X102439974Y-108791184D01*
X102439973Y-108791184D01*
X102223380Y-108733148D01*
X102223378Y-108733147D01*
X102223375Y-108733147D01*
X102000000Y-108713605D01*
X101776624Y-108733147D01*
X101560027Y-108791184D01*
X101560023Y-108791185D01*
X101356806Y-108885946D01*
X101356802Y-108885949D01*
X101173117Y-109014566D01*
X101014566Y-109173117D01*
X100885949Y-109356802D01*
X100885946Y-109356806D01*
X100791185Y-109560023D01*
X100791184Y-109560027D01*
X100733147Y-109776624D01*
X100713605Y-110000000D01*
X100381500Y-110000000D01*
X100381500Y-108620709D01*
X104647100Y-108620709D01*
X104653219Y-108677627D01*
X104653220Y-108677629D01*
X104701244Y-108806388D01*
X104783599Y-108916401D01*
X104893612Y-108998756D01*
X104994181Y-109036265D01*
X105033321Y-109069640D01*
X105043100Y-109106723D01*
X105043100Y-110176430D01*
X105043100Y-110283570D01*
X105061586Y-110352562D01*
X105070830Y-110387059D01*
X105124398Y-110479841D01*
X105124402Y-110479847D01*
X106880483Y-112235927D01*
X106902223Y-112282547D01*
X106901231Y-112302906D01*
X106900956Y-112304378D01*
X106900956Y-112419497D01*
X106942537Y-112526836D01*
X106958638Y-112547162D01*
X107242837Y-112831361D01*
X107242841Y-112831364D01*
X107242844Y-112831367D01*
X107256790Y-112842414D01*
X107263163Y-112847462D01*
X107328920Y-112872935D01*
X107370502Y-112889044D01*
X107429886Y-112889044D01*
X107478224Y-112906637D01*
X107483060Y-112911070D01*
X109307586Y-114735597D01*
X109307589Y-114735599D01*
X109307591Y-114735601D01*
X109400376Y-114789170D01*
X109503864Y-114816900D01*
X109503865Y-114816900D01*
X109503866Y-114816900D01*
X118023568Y-114816900D01*
X118023570Y-114816900D01*
X118107167Y-114794500D01*
X119172600Y-114794500D01*
X119172600Y-115036671D01*
X119187524Y-115130899D01*
X119245394Y-115244474D01*
X119335525Y-115334605D01*
X119449101Y-115392475D01*
X119449099Y-115392475D01*
X119543328Y-115407399D01*
X119543336Y-115407400D01*
X119923000Y-115407400D01*
X119923000Y-114794500D01*
X120177000Y-114794500D01*
X120177000Y-115407400D01*
X120556664Y-115407400D01*
X120556671Y-115407399D01*
X120650899Y-115392475D01*
X120764474Y-115334605D01*
X120854605Y-115244474D01*
X120912475Y-115130899D01*
X120927399Y-115036671D01*
X120927400Y-115036664D01*
X120927400Y-114794500D01*
X120177000Y-114794500D01*
X119923000Y-114794500D01*
X119172600Y-114794500D01*
X118107167Y-114794500D01*
X118127058Y-114789170D01*
X118219843Y-114735601D01*
X118414944Y-114540500D01*
X119172600Y-114540500D01*
X119923000Y-114540500D01*
X119923000Y-113927600D01*
X120177000Y-113927600D01*
X120177000Y-114540500D01*
X120927400Y-114540500D01*
X120927400Y-114298336D01*
X120927399Y-114298328D01*
X120912475Y-114204100D01*
X120854605Y-114090525D01*
X120764474Y-114000394D01*
X120650898Y-113942524D01*
X120650900Y-113942524D01*
X120556671Y-113927600D01*
X120177000Y-113927600D01*
X119923000Y-113927600D01*
X119543328Y-113927600D01*
X119449100Y-113942524D01*
X119335525Y-114000394D01*
X119245394Y-114090525D01*
X119187524Y-114204100D01*
X119172600Y-114298328D01*
X119172600Y-114540500D01*
X118414944Y-114540500D01*
X119600518Y-113354926D01*
X119647138Y-113333186D01*
X119653692Y-113332900D01*
X120556704Y-113332900D01*
X120556708Y-113332900D01*
X120651055Y-113317957D01*
X120764771Y-113260016D01*
X120855016Y-113169771D01*
X120912957Y-113056055D01*
X120912956Y-113056055D01*
X120915644Y-113050782D01*
X120916770Y-113051355D01*
X120944525Y-113015828D01*
X120984377Y-113004400D01*
X121150402Y-113004400D01*
X121198740Y-113021993D01*
X121217406Y-113045460D01*
X121222804Y-113056055D01*
X121239984Y-113089771D01*
X121330229Y-113180016D01*
X121443943Y-113237956D01*
X121443945Y-113237957D01*
X121538292Y-113252900D01*
X122366308Y-113252900D01*
X122414646Y-113270493D01*
X122419482Y-113274926D01*
X123950074Y-114805517D01*
X123971814Y-114852137D01*
X123972100Y-114858691D01*
X123972100Y-115065055D01*
X123972101Y-115065057D01*
X123980972Y-115109659D01*
X124014764Y-115160232D01*
X124014765Y-115160232D01*
X124014766Y-115160234D01*
X124065342Y-115194028D01*
X124109943Y-115202900D01*
X125640056Y-115202899D01*
X125684658Y-115194028D01*
X125735234Y-115160234D01*
X125769028Y-115109658D01*
X125777900Y-115065057D01*
X125777899Y-114334944D01*
X125769028Y-114290342D01*
X125735234Y-114239766D01*
X125684658Y-114205972D01*
X125684656Y-114205971D01*
X125640057Y-114197100D01*
X124523691Y-114197100D01*
X124475353Y-114179507D01*
X124470517Y-114175074D01*
X124110498Y-113815055D01*
X125072100Y-113815055D01*
X125072101Y-113815057D01*
X125080972Y-113859659D01*
X125114764Y-113910232D01*
X125114765Y-113910232D01*
X125114766Y-113910234D01*
X125165342Y-113944028D01*
X125209943Y-113952900D01*
X126040056Y-113952899D01*
X126084658Y-113944028D01*
X126135234Y-113910234D01*
X126169028Y-113859658D01*
X126177900Y-113815057D01*
X126177900Y-113815055D01*
X127072100Y-113815055D01*
X127072101Y-113815057D01*
X127080972Y-113859659D01*
X127114764Y-113910232D01*
X127114765Y-113910232D01*
X127114766Y-113910234D01*
X127165342Y-113944028D01*
X127209943Y-113952900D01*
X128040056Y-113952899D01*
X128084658Y-113944028D01*
X128135234Y-113910234D01*
X128169028Y-113859658D01*
X128177900Y-113815057D01*
X128177899Y-112784944D01*
X128169028Y-112740342D01*
X128135234Y-112689766D01*
X128084658Y-112655972D01*
X128084656Y-112655971D01*
X128040057Y-112647100D01*
X127209944Y-112647100D01*
X127209942Y-112647101D01*
X127165340Y-112655972D01*
X127114767Y-112689764D01*
X127080972Y-112740342D01*
X127080971Y-112740343D01*
X127072100Y-112784942D01*
X127072100Y-113815055D01*
X126177900Y-113815055D01*
X126177899Y-112784944D01*
X126169028Y-112740342D01*
X126135234Y-112689766D01*
X126084658Y-112655972D01*
X126084656Y-112655971D01*
X126040057Y-112647100D01*
X125209944Y-112647100D01*
X125209942Y-112647101D01*
X125165340Y-112655972D01*
X125114767Y-112689764D01*
X125080972Y-112740342D01*
X125080971Y-112740343D01*
X125072100Y-112784942D01*
X125072100Y-113815055D01*
X124110498Y-113815055D01*
X123433653Y-113138209D01*
X123411913Y-113091589D01*
X123419823Y-113050896D01*
X123457957Y-112976055D01*
X123472900Y-112881708D01*
X123472900Y-112318292D01*
X123457957Y-112223945D01*
X123400016Y-112110229D01*
X123309771Y-112019984D01*
X123196055Y-111962043D01*
X123196057Y-111962043D01*
X123101710Y-111947100D01*
X123101708Y-111947100D01*
X121538292Y-111947100D01*
X121538289Y-111947100D01*
X121443943Y-111962043D01*
X121330230Y-112019983D01*
X121239982Y-112110230D01*
X121219953Y-112149540D01*
X121182333Y-112184622D01*
X121152950Y-112190600D01*
X120986949Y-112190600D01*
X120938611Y-112173007D01*
X120916160Y-112134121D01*
X120914784Y-112134569D01*
X120912957Y-112128949D01*
X120912957Y-112128945D01*
X120855016Y-112015229D01*
X120764771Y-111924984D01*
X120651055Y-111867043D01*
X120651057Y-111867043D01*
X120556710Y-111852100D01*
X120556708Y-111852100D01*
X119543292Y-111852100D01*
X119543289Y-111852100D01*
X119448943Y-111867043D01*
X119335228Y-111924984D01*
X119244984Y-112015228D01*
X119187043Y-112128943D01*
X119172100Y-112223289D01*
X119172100Y-112601308D01*
X119154507Y-112649646D01*
X119150074Y-112654482D01*
X117823482Y-113981074D01*
X117776862Y-114002814D01*
X117770308Y-114003100D01*
X109757126Y-114003100D01*
X109708788Y-113985507D01*
X109703952Y-113981074D01*
X108362333Y-112639455D01*
X116244200Y-112639455D01*
X116272860Y-112783544D01*
X116272861Y-112783545D01*
X116325684Y-112911070D01*
X116329080Y-112919269D01*
X116410699Y-113041420D01*
X116410701Y-113041422D01*
X116410703Y-113041425D01*
X116514574Y-113145296D01*
X116514577Y-113145298D01*
X116514580Y-113145301D01*
X116636731Y-113226920D01*
X116772454Y-113283138D01*
X116772455Y-113283139D01*
X116772456Y-113283139D01*
X116772458Y-113283140D01*
X116868949Y-113302332D01*
X116916544Y-113311800D01*
X116916545Y-113311800D01*
X117063456Y-113311800D01*
X117099232Y-113304683D01*
X117207542Y-113283140D01*
X117343269Y-113226920D01*
X117465420Y-113145301D01*
X117569301Y-113041420D01*
X117650920Y-112919269D01*
X117707140Y-112783542D01*
X117735800Y-112639455D01*
X117735800Y-112492545D01*
X117707140Y-112348458D01*
X117650920Y-112212731D01*
X117569301Y-112090580D01*
X117569298Y-112090577D01*
X117569296Y-112090574D01*
X117465425Y-111986703D01*
X117465422Y-111986701D01*
X117465420Y-111986699D01*
X117343269Y-111905080D01*
X117251440Y-111867043D01*
X117207545Y-111848861D01*
X117207544Y-111848860D01*
X117063456Y-111820200D01*
X117063455Y-111820200D01*
X116916545Y-111820200D01*
X116916544Y-111820200D01*
X116772455Y-111848860D01*
X116772454Y-111848861D01*
X116636732Y-111905079D01*
X116514577Y-111986701D01*
X116514574Y-111986703D01*
X116410703Y-112090574D01*
X116410701Y-112090577D01*
X116329079Y-112212732D01*
X116272861Y-112348454D01*
X116272860Y-112348455D01*
X116244200Y-112492544D01*
X116244200Y-112639455D01*
X108362333Y-112639455D01*
X108058504Y-112335626D01*
X108036764Y-112289006D01*
X108036478Y-112282452D01*
X108036478Y-112223068D01*
X108023900Y-112190600D01*
X108011378Y-112158278D01*
X108010323Y-112106851D01*
X108042572Y-112066775D01*
X108093036Y-112056805D01*
X108108667Y-112060993D01*
X108173160Y-112085978D01*
X108173164Y-112085979D01*
X108288084Y-112085979D01*
X108288089Y-112085977D01*
X108395250Y-112044464D01*
X108415535Y-112028396D01*
X108508446Y-111935485D01*
X108271283Y-111698323D01*
X108271283Y-111698322D01*
X108091679Y-111518718D01*
X108450888Y-111518718D01*
X108688050Y-111755880D01*
X108688052Y-111755880D01*
X108780952Y-111662979D01*
X108780957Y-111662973D01*
X108797027Y-111642687D01*
X108804478Y-111623455D01*
X111164200Y-111623455D01*
X111192860Y-111767544D01*
X111192861Y-111767545D01*
X111249079Y-111903267D01*
X111249080Y-111903269D01*
X111330699Y-112025420D01*
X111330701Y-112025422D01*
X111330703Y-112025425D01*
X111434574Y-112129296D01*
X111434577Y-112129298D01*
X111434580Y-112129301D01*
X111556731Y-112210920D01*
X111692454Y-112267138D01*
X111692455Y-112267139D01*
X111692456Y-112267139D01*
X111692458Y-112267140D01*
X111769916Y-112282547D01*
X111836544Y-112295800D01*
X111836545Y-112295800D01*
X111983456Y-112295800D01*
X112019232Y-112288683D01*
X112127542Y-112267140D01*
X112263269Y-112210920D01*
X112385420Y-112129301D01*
X112489301Y-112025420D01*
X112570920Y-111903269D01*
X112627140Y-111767542D01*
X112655800Y-111623455D01*
X112655800Y-111476545D01*
X112627140Y-111332458D01*
X112570920Y-111196731D01*
X112489301Y-111074580D01*
X112489298Y-111074577D01*
X112489296Y-111074574D01*
X112385425Y-110970703D01*
X112385422Y-110970701D01*
X112385420Y-110970699D01*
X112302061Y-110915000D01*
X113180000Y-110915000D01*
X113180000Y-112185000D01*
X115720000Y-112185000D01*
X115720000Y-110915000D01*
X113180000Y-110915000D01*
X112302061Y-110915000D01*
X112263269Y-110889080D01*
X112258892Y-110887267D01*
X112127545Y-110832861D01*
X112127544Y-110832860D01*
X111983456Y-110804200D01*
X111983455Y-110804200D01*
X111836545Y-110804200D01*
X111836544Y-110804200D01*
X111692455Y-110832860D01*
X111692454Y-110832861D01*
X111556732Y-110889079D01*
X111434577Y-110970701D01*
X111434574Y-110970703D01*
X111330703Y-111074574D01*
X111330701Y-111074577D01*
X111249079Y-111196732D01*
X111192861Y-111332454D01*
X111192860Y-111332455D01*
X111164200Y-111476544D01*
X111164200Y-111623455D01*
X108804478Y-111623455D01*
X108838544Y-111535521D01*
X108838545Y-111535518D01*
X108838545Y-111420597D01*
X108838544Y-111420594D01*
X108797027Y-111313427D01*
X108797026Y-111313425D01*
X108780965Y-111293151D01*
X108780962Y-111293147D01*
X108728709Y-111240895D01*
X108450888Y-111518716D01*
X108450888Y-111518718D01*
X108091679Y-111518718D01*
X107854515Y-111281553D01*
X107854514Y-111281553D01*
X107761606Y-111374462D01*
X107745538Y-111394746D01*
X107704021Y-111501912D01*
X107704021Y-111616836D01*
X107704022Y-111616841D01*
X107729006Y-111681333D01*
X107730062Y-111732762D01*
X107697813Y-111772837D01*
X107647349Y-111782808D01*
X107631719Y-111778620D01*
X107603122Y-111767542D01*
X107566932Y-111753522D01*
X107566931Y-111753522D01*
X107560434Y-111751005D01*
X107560812Y-111750028D01*
X107528368Y-111732924D01*
X106897393Y-111101949D01*
X108034119Y-111101949D01*
X108271282Y-111339112D01*
X108271283Y-111339112D01*
X108549104Y-111061290D01*
X108549104Y-111061289D01*
X108496863Y-111009048D01*
X108496854Y-111009040D01*
X108476569Y-110992970D01*
X108369407Y-110951456D01*
X108369402Y-110951455D01*
X108254482Y-110951455D01*
X108254476Y-110951456D01*
X108147315Y-110992969D01*
X108127038Y-111009030D01*
X108034119Y-111101948D01*
X108034119Y-111101949D01*
X106897393Y-111101949D01*
X106402899Y-110607455D01*
X116244200Y-110607455D01*
X116272860Y-110751544D01*
X116272861Y-110751545D01*
X116306543Y-110832860D01*
X116329080Y-110887269D01*
X116410699Y-111009420D01*
X116410701Y-111009422D01*
X116410703Y-111009425D01*
X116514574Y-111113296D01*
X116514577Y-111113298D01*
X116514580Y-111113301D01*
X116636731Y-111194920D01*
X116772454Y-111251138D01*
X116772455Y-111251139D01*
X116772456Y-111251139D01*
X116772458Y-111251140D01*
X116868949Y-111270332D01*
X116916544Y-111279800D01*
X116916545Y-111279800D01*
X117063456Y-111279800D01*
X117099232Y-111272683D01*
X117207542Y-111251140D01*
X117343269Y-111194920D01*
X117465420Y-111113301D01*
X117569301Y-111009420D01*
X117650920Y-110887269D01*
X117707140Y-110751542D01*
X117735800Y-110607455D01*
X117735800Y-110460545D01*
X117733510Y-110449034D01*
X117721183Y-110387058D01*
X117707140Y-110316458D01*
X117650920Y-110180731D01*
X117569301Y-110058580D01*
X117569298Y-110058577D01*
X117569296Y-110058574D01*
X117510722Y-110000000D01*
X125613605Y-110000000D01*
X125633147Y-110223375D01*
X125633147Y-110223378D01*
X125633148Y-110223380D01*
X125677006Y-110387059D01*
X125691184Y-110439972D01*
X125691185Y-110439976D01*
X125785945Y-110643192D01*
X125914559Y-110826873D01*
X125914570Y-110826886D01*
X126073113Y-110985429D01*
X126073126Y-110985440D01*
X126164775Y-111049612D01*
X126256802Y-111114051D01*
X126256804Y-111114051D01*
X126256807Y-111114054D01*
X126425925Y-111192914D01*
X126460027Y-111208816D01*
X126676620Y-111266852D01*
X126900000Y-111286395D01*
X127123380Y-111266852D01*
X127339973Y-111208816D01*
X127543198Y-111114051D01*
X127726879Y-110985436D01*
X127885436Y-110826879D01*
X128014051Y-110643198D01*
X128108816Y-110439973D01*
X128166852Y-110223380D01*
X128186395Y-110000000D01*
X128166852Y-109776620D01*
X128108816Y-109560027D01*
X128091458Y-109522804D01*
X128014053Y-109356806D01*
X128014050Y-109356802D01*
X127885433Y-109173117D01*
X127726886Y-109014570D01*
X127726873Y-109014559D01*
X127543192Y-108885945D01*
X127339976Y-108791185D01*
X127339974Y-108791184D01*
X127339973Y-108791184D01*
X127123380Y-108733148D01*
X127123378Y-108733147D01*
X127123375Y-108733147D01*
X126900000Y-108713605D01*
X126676624Y-108733147D01*
X126460027Y-108791184D01*
X126460023Y-108791185D01*
X126256806Y-108885946D01*
X126256802Y-108885949D01*
X126073117Y-109014566D01*
X125914566Y-109173117D01*
X125785949Y-109356802D01*
X125785946Y-109356806D01*
X125691185Y-109560023D01*
X125691184Y-109560027D01*
X125633147Y-109776624D01*
X125613605Y-110000000D01*
X117510722Y-110000000D01*
X117465425Y-109954703D01*
X117465422Y-109954701D01*
X117465420Y-109954699D01*
X117343269Y-109873080D01*
X117343267Y-109873079D01*
X117207545Y-109816861D01*
X117207544Y-109816860D01*
X117063456Y-109788200D01*
X117063455Y-109788200D01*
X116916545Y-109788200D01*
X116916544Y-109788200D01*
X116772455Y-109816860D01*
X116772454Y-109816861D01*
X116636732Y-109873079D01*
X116514577Y-109954701D01*
X116514574Y-109954703D01*
X116410703Y-110058574D01*
X116410701Y-110058577D01*
X116329079Y-110180732D01*
X116272861Y-110316454D01*
X116272860Y-110316455D01*
X116244200Y-110460544D01*
X116244200Y-110607455D01*
X106402899Y-110607455D01*
X105878926Y-110083482D01*
X105857186Y-110036862D01*
X105856900Y-110030308D01*
X105856900Y-109106723D01*
X105874493Y-109058385D01*
X105905817Y-109036266D01*
X106006388Y-108998756D01*
X106116401Y-108916401D01*
X106198756Y-108806388D01*
X106246780Y-108677629D01*
X106252900Y-108620709D01*
X106647100Y-108620709D01*
X106653219Y-108677627D01*
X106653220Y-108677629D01*
X106701244Y-108806388D01*
X106783599Y-108916401D01*
X106893612Y-108998756D01*
X107022371Y-109046780D01*
X107079294Y-109052900D01*
X107079302Y-109052900D01*
X107820698Y-109052900D01*
X107820706Y-109052900D01*
X107877629Y-109046780D01*
X108006388Y-108998756D01*
X108116401Y-108916401D01*
X108198756Y-108806388D01*
X108246780Y-108677629D01*
X108252900Y-108620709D01*
X108647100Y-108620709D01*
X108653219Y-108677627D01*
X108653220Y-108677629D01*
X108701244Y-108806388D01*
X108783599Y-108916401D01*
X108893612Y-108998756D01*
X109022371Y-109046780D01*
X109079294Y-109052900D01*
X109079302Y-109052900D01*
X109820698Y-109052900D01*
X109820706Y-109052900D01*
X109877629Y-109046780D01*
X110006388Y-108998756D01*
X110116401Y-108916401D01*
X110198756Y-108806388D01*
X110246780Y-108677629D01*
X110252900Y-108620709D01*
X110647100Y-108620709D01*
X110653219Y-108677627D01*
X110653220Y-108677629D01*
X110701244Y-108806388D01*
X110783599Y-108916401D01*
X110893612Y-108998756D01*
X111022371Y-109046780D01*
X111079294Y-109052900D01*
X111079302Y-109052900D01*
X111820698Y-109052900D01*
X111820706Y-109052900D01*
X111877629Y-109046780D01*
X112006388Y-108998756D01*
X112116401Y-108916401D01*
X112198756Y-108806388D01*
X112246780Y-108677629D01*
X112252900Y-108620706D01*
X112252900Y-107179294D01*
X112246780Y-107122371D01*
X112198756Y-106993612D01*
X112116401Y-106883599D01*
X112033582Y-106821601D01*
X112006391Y-106801246D01*
X112006389Y-106801245D01*
X112006388Y-106801244D01*
X111925654Y-106771132D01*
X111877630Y-106753220D01*
X111877627Y-106753219D01*
X111820709Y-106747100D01*
X111820706Y-106747100D01*
X111079294Y-106747100D01*
X111079290Y-106747100D01*
X111022372Y-106753219D01*
X111022369Y-106753220D01*
X110926321Y-106789044D01*
X110893612Y-106801244D01*
X110893611Y-106801244D01*
X110893610Y-106801245D01*
X110893608Y-106801246D01*
X110783599Y-106883599D01*
X110701246Y-106993608D01*
X110701245Y-106993610D01*
X110653220Y-107122369D01*
X110653219Y-107122372D01*
X110647100Y-107179290D01*
X110647100Y-108620709D01*
X110252900Y-108620709D01*
X110252900Y-108620706D01*
X110252900Y-107179294D01*
X110246780Y-107122371D01*
X110198756Y-106993612D01*
X110116401Y-106883599D01*
X110033582Y-106821601D01*
X110006391Y-106801246D01*
X110006389Y-106801245D01*
X110006388Y-106801244D01*
X109925654Y-106771132D01*
X109877630Y-106753220D01*
X109877627Y-106753219D01*
X109820709Y-106747100D01*
X109820706Y-106747100D01*
X109079294Y-106747100D01*
X109079290Y-106747100D01*
X109022372Y-106753219D01*
X109022369Y-106753220D01*
X108926321Y-106789044D01*
X108893612Y-106801244D01*
X108893611Y-106801244D01*
X108893610Y-106801245D01*
X108893608Y-106801246D01*
X108783599Y-106883599D01*
X108701246Y-106993608D01*
X108701245Y-106993610D01*
X108653220Y-107122369D01*
X108653219Y-107122372D01*
X108647100Y-107179290D01*
X108647100Y-108620709D01*
X108252900Y-108620709D01*
X108252900Y-108620706D01*
X108252900Y-107179294D01*
X108246780Y-107122371D01*
X108198756Y-106993612D01*
X108116401Y-106883599D01*
X108033582Y-106821601D01*
X108006391Y-106801246D01*
X108006389Y-106801245D01*
X108006388Y-106801244D01*
X107925654Y-106771132D01*
X107877630Y-106753220D01*
X107877627Y-106753219D01*
X107820709Y-106747100D01*
X107820706Y-106747100D01*
X107805100Y-106747100D01*
X107756762Y-106729507D01*
X107731042Y-106684958D01*
X107729900Y-106671900D01*
X107729900Y-105147085D01*
X107747493Y-105098747D01*
X107751915Y-105093922D01*
X108777979Y-104067857D01*
X108824598Y-104046118D01*
X108874285Y-104059432D01*
X108875786Y-104060511D01*
X108903971Y-104081313D01*
X108935981Y-104104938D01*
X108935985Y-104104940D01*
X108966919Y-104115763D01*
X109064850Y-104150031D01*
X109095435Y-104152899D01*
X109095437Y-104152900D01*
X109095444Y-104152900D01*
X109804563Y-104152900D01*
X109804563Y-104152899D01*
X109835150Y-104150031D01*
X109964017Y-104104939D01*
X110073866Y-104023866D01*
X110154939Y-103914017D01*
X110200031Y-103785150D01*
X110202899Y-103754564D01*
X110697100Y-103754564D01*
X110699968Y-103785143D01*
X110699969Y-103785150D01*
X110699970Y-103785152D01*
X110745059Y-103914014D01*
X110745061Y-103914017D01*
X110826133Y-104023866D01*
X110935982Y-104104938D01*
X110935985Y-104104940D01*
X110966919Y-104115763D01*
X111064850Y-104150031D01*
X111095435Y-104152899D01*
X111095437Y-104152900D01*
X111095444Y-104152900D01*
X111145700Y-104152900D01*
X111194038Y-104170493D01*
X111219758Y-104215042D01*
X111220900Y-104228100D01*
X111220900Y-104545570D01*
X111255778Y-104629776D01*
X113198874Y-106572871D01*
X113220614Y-106619491D01*
X113220900Y-106626045D01*
X113220900Y-106671900D01*
X113203307Y-106720238D01*
X113158758Y-106745958D01*
X113145700Y-106747100D01*
X113079290Y-106747100D01*
X113022372Y-106753219D01*
X113022369Y-106753220D01*
X112926321Y-106789044D01*
X112893612Y-106801244D01*
X112893611Y-106801244D01*
X112893610Y-106801245D01*
X112893608Y-106801246D01*
X112783599Y-106883599D01*
X112701246Y-106993608D01*
X112701245Y-106993610D01*
X112653220Y-107122369D01*
X112653219Y-107122372D01*
X112647100Y-107179290D01*
X112647100Y-108620709D01*
X112653219Y-108677627D01*
X112653220Y-108677629D01*
X112701244Y-108806388D01*
X112783599Y-108916401D01*
X112893612Y-108998756D01*
X113022371Y-109046780D01*
X113079294Y-109052900D01*
X113079302Y-109052900D01*
X113820698Y-109052900D01*
X113820706Y-109052900D01*
X113877629Y-109046780D01*
X114006388Y-108998756D01*
X114116401Y-108916401D01*
X114198756Y-108806388D01*
X114246780Y-108677629D01*
X114252900Y-108620706D01*
X114252900Y-107179294D01*
X114246780Y-107122371D01*
X114198756Y-106993612D01*
X114116401Y-106883599D01*
X114033582Y-106821601D01*
X114006391Y-106801246D01*
X114006389Y-106801245D01*
X114006388Y-106801244D01*
X113925654Y-106771132D01*
X113877630Y-106753220D01*
X113877627Y-106753219D01*
X113820709Y-106747100D01*
X113820706Y-106747100D01*
X113754300Y-106747100D01*
X113705962Y-106729507D01*
X113680242Y-106684958D01*
X113679100Y-106671900D01*
X113679100Y-106454429D01*
X113665212Y-106420900D01*
X113644222Y-106370225D01*
X113644221Y-106370224D01*
X113644221Y-106370223D01*
X111701126Y-104427128D01*
X111679386Y-104380508D01*
X111679100Y-104373954D01*
X111679100Y-104228100D01*
X111696693Y-104179762D01*
X111741242Y-104154042D01*
X111754300Y-104152900D01*
X111804563Y-104152900D01*
X111804563Y-104152899D01*
X111835150Y-104150031D01*
X111964017Y-104104939D01*
X112073866Y-104023866D01*
X112154939Y-103914017D01*
X112200031Y-103785150D01*
X112202899Y-103754564D01*
X112697100Y-103754564D01*
X112699968Y-103785143D01*
X112699969Y-103785150D01*
X112699970Y-103785152D01*
X112745059Y-103914014D01*
X112745061Y-103914017D01*
X112826133Y-104023866D01*
X112935982Y-104104938D01*
X112935985Y-104104940D01*
X112966919Y-104115763D01*
X113064850Y-104150031D01*
X113095435Y-104152899D01*
X113095437Y-104152900D01*
X113095444Y-104152900D01*
X113145700Y-104152900D01*
X113194038Y-104170493D01*
X113219758Y-104215042D01*
X113220900Y-104228100D01*
X113220900Y-104745570D01*
X113255778Y-104829776D01*
X115053893Y-106627890D01*
X115075633Y-106674510D01*
X115062319Y-106724197D01*
X115026041Y-106749599D01*
X115026779Y-106751576D01*
X115022371Y-106753219D01*
X115022371Y-106753220D01*
X114893612Y-106801244D01*
X114893611Y-106801244D01*
X114893610Y-106801245D01*
X114893608Y-106801246D01*
X114783599Y-106883599D01*
X114701246Y-106993608D01*
X114701245Y-106993610D01*
X114653220Y-107122369D01*
X114653219Y-107122372D01*
X114647100Y-107179290D01*
X114647100Y-108620709D01*
X114653219Y-108677627D01*
X114653220Y-108677629D01*
X114701244Y-108806388D01*
X114783599Y-108916401D01*
X114893612Y-108998756D01*
X115022371Y-109046780D01*
X115079294Y-109052900D01*
X115079302Y-109052900D01*
X115820698Y-109052900D01*
X115820706Y-109052900D01*
X115877629Y-109046780D01*
X116006388Y-108998756D01*
X116116401Y-108916401D01*
X116198756Y-108806388D01*
X116246780Y-108677629D01*
X116252900Y-108620706D01*
X116252900Y-107179294D01*
X116246780Y-107122371D01*
X116198756Y-106993612D01*
X116116401Y-106883599D01*
X116033582Y-106821601D01*
X116006391Y-106801246D01*
X116006389Y-106801245D01*
X116006388Y-106801244D01*
X115925654Y-106771132D01*
X115877630Y-106753220D01*
X115877627Y-106753219D01*
X115820709Y-106747100D01*
X115820706Y-106747100D01*
X115754300Y-106747100D01*
X115705962Y-106729507D01*
X115680242Y-106684958D01*
X115679100Y-106671900D01*
X115679100Y-106654428D01*
X115679099Y-106654427D01*
X115668884Y-106629766D01*
X115644222Y-106570225D01*
X115644221Y-106570224D01*
X115644221Y-106570223D01*
X113701126Y-104627128D01*
X113679386Y-104580508D01*
X113679100Y-104573954D01*
X113679100Y-104228100D01*
X113696693Y-104179762D01*
X113741242Y-104154042D01*
X113754300Y-104152900D01*
X113804563Y-104152900D01*
X113804563Y-104152899D01*
X113835150Y-104150031D01*
X113964017Y-104104939D01*
X114073866Y-104023866D01*
X114154939Y-103914017D01*
X114200031Y-103785150D01*
X114202899Y-103754564D01*
X114697100Y-103754564D01*
X114699968Y-103785143D01*
X114699969Y-103785150D01*
X114699970Y-103785152D01*
X114745059Y-103914014D01*
X114745061Y-103914017D01*
X114826133Y-104023866D01*
X114935982Y-104104938D01*
X114935985Y-104104940D01*
X114966919Y-104115763D01*
X115064850Y-104150031D01*
X115095435Y-104152899D01*
X115095437Y-104152900D01*
X115095444Y-104152900D01*
X115145700Y-104152900D01*
X115194038Y-104170493D01*
X115219758Y-104215042D01*
X115220900Y-104228100D01*
X115220900Y-104745570D01*
X115255778Y-104829776D01*
X117053893Y-106627890D01*
X117075633Y-106674510D01*
X117062319Y-106724197D01*
X117026041Y-106749599D01*
X117026779Y-106751576D01*
X117022371Y-106753219D01*
X117022371Y-106753220D01*
X116893612Y-106801244D01*
X116893611Y-106801244D01*
X116893610Y-106801245D01*
X116893608Y-106801246D01*
X116783599Y-106883599D01*
X116701246Y-106993608D01*
X116701245Y-106993610D01*
X116653220Y-107122369D01*
X116653219Y-107122372D01*
X116647100Y-107179290D01*
X116647100Y-108620709D01*
X116653219Y-108677627D01*
X116653220Y-108677629D01*
X116701244Y-108806388D01*
X116783599Y-108916401D01*
X116893612Y-108998756D01*
X117022371Y-109046780D01*
X117079294Y-109052900D01*
X117079302Y-109052900D01*
X117820698Y-109052900D01*
X117820706Y-109052900D01*
X117877629Y-109046780D01*
X118006388Y-108998756D01*
X118116401Y-108916401D01*
X118198756Y-108806388D01*
X118246780Y-108677629D01*
X118252900Y-108620706D01*
X118252900Y-107179294D01*
X118246780Y-107122371D01*
X118198756Y-106993612D01*
X118116401Y-106883599D01*
X118033582Y-106821601D01*
X118006391Y-106801246D01*
X118006389Y-106801245D01*
X118006388Y-106801244D01*
X117925654Y-106771132D01*
X117877630Y-106753220D01*
X117877627Y-106753219D01*
X117820709Y-106747100D01*
X117820706Y-106747100D01*
X117754300Y-106747100D01*
X117705962Y-106729507D01*
X117680242Y-106684958D01*
X117679100Y-106671900D01*
X117679100Y-106654428D01*
X117679099Y-106654427D01*
X117668884Y-106629766D01*
X117644222Y-106570225D01*
X117644221Y-106570224D01*
X117644221Y-106570223D01*
X115701126Y-104627128D01*
X115679386Y-104580508D01*
X115679100Y-104573954D01*
X115679100Y-104228100D01*
X115696693Y-104179762D01*
X115741242Y-104154042D01*
X115754300Y-104152900D01*
X115804563Y-104152900D01*
X115804563Y-104152899D01*
X115835150Y-104150031D01*
X115964017Y-104104939D01*
X116073866Y-104023866D01*
X116154939Y-103914017D01*
X116200031Y-103785150D01*
X116202899Y-103754564D01*
X116697100Y-103754564D01*
X116699968Y-103785143D01*
X116699969Y-103785150D01*
X116699970Y-103785152D01*
X116745059Y-103914014D01*
X116745061Y-103914017D01*
X116826133Y-104023866D01*
X116935982Y-104104938D01*
X116935985Y-104104940D01*
X116966919Y-104115763D01*
X117064850Y-104150031D01*
X117095435Y-104152899D01*
X117095437Y-104152900D01*
X117095444Y-104152900D01*
X117145700Y-104152900D01*
X117194038Y-104170493D01*
X117219758Y-104215042D01*
X117220900Y-104228100D01*
X117220900Y-104695570D01*
X117255778Y-104779776D01*
X119098001Y-106621998D01*
X119119741Y-106668618D01*
X119106427Y-106718305D01*
X119064290Y-106747810D01*
X119052867Y-106749941D01*
X119022371Y-106753220D01*
X119022369Y-106753220D01*
X118926321Y-106789044D01*
X118893612Y-106801244D01*
X118893611Y-106801244D01*
X118893610Y-106801245D01*
X118893608Y-106801246D01*
X118783599Y-106883599D01*
X118701246Y-106993608D01*
X118701245Y-106993610D01*
X118653220Y-107122369D01*
X118653219Y-107122372D01*
X118647100Y-107179290D01*
X118647100Y-108620709D01*
X118653219Y-108677627D01*
X118653220Y-108677629D01*
X118701244Y-108806388D01*
X118783599Y-108916401D01*
X118893612Y-108998756D01*
X119022371Y-109046780D01*
X119079294Y-109052900D01*
X119079302Y-109052900D01*
X119820698Y-109052900D01*
X119820706Y-109052900D01*
X119877629Y-109046780D01*
X120006388Y-108998756D01*
X120116401Y-108916401D01*
X120198756Y-108806388D01*
X120246780Y-108677629D01*
X120252900Y-108620709D01*
X120647100Y-108620709D01*
X120653219Y-108677627D01*
X120653220Y-108677629D01*
X120701244Y-108806388D01*
X120783599Y-108916401D01*
X120893612Y-108998756D01*
X121022371Y-109046780D01*
X121079294Y-109052900D01*
X121079302Y-109052900D01*
X121820698Y-109052900D01*
X121820706Y-109052900D01*
X121877629Y-109046780D01*
X122006388Y-108998756D01*
X122116401Y-108916401D01*
X122189617Y-108818596D01*
X122711008Y-108818596D01*
X122783955Y-108916044D01*
X122893851Y-108998310D01*
X122893858Y-108998314D01*
X123022469Y-109046284D01*
X123022479Y-109046287D01*
X123079341Y-109052399D01*
X123820650Y-109052399D01*
X123820665Y-109052398D01*
X123877523Y-109046286D01*
X123877528Y-109046285D01*
X124006141Y-108998314D01*
X124006148Y-108998310D01*
X124116044Y-108916044D01*
X124188991Y-108818595D01*
X123450001Y-108079605D01*
X123449999Y-108079605D01*
X122711008Y-108818595D01*
X122711008Y-108818596D01*
X122189617Y-108818596D01*
X122198756Y-108806388D01*
X122246780Y-108677629D01*
X122252900Y-108620706D01*
X122252900Y-107277205D01*
X122647600Y-107277205D01*
X122647600Y-108522792D01*
X123270394Y-107900000D01*
X123629605Y-107900000D01*
X124252398Y-108522793D01*
X124252399Y-108522793D01*
X124252399Y-107277205D01*
X124252398Y-107277205D01*
X123629605Y-107899999D01*
X123629605Y-107900000D01*
X123270394Y-107900000D01*
X123270395Y-107899999D01*
X122647600Y-107277205D01*
X122252900Y-107277205D01*
X122252900Y-107179294D01*
X122246780Y-107122371D01*
X122198756Y-106993612D01*
X122189616Y-106981403D01*
X122711008Y-106981403D01*
X123449999Y-107720395D01*
X123450001Y-107720395D01*
X124188990Y-106981403D01*
X124188990Y-106981402D01*
X124116044Y-106883955D01*
X124006148Y-106801689D01*
X124006141Y-106801685D01*
X123877530Y-106753715D01*
X123877520Y-106753712D01*
X123820658Y-106747600D01*
X123079349Y-106747600D01*
X123079334Y-106747601D01*
X123022476Y-106753713D01*
X123022471Y-106753714D01*
X122893858Y-106801685D01*
X122893851Y-106801689D01*
X122783959Y-106883952D01*
X122711008Y-106981403D01*
X122189616Y-106981403D01*
X122116401Y-106883599D01*
X122033582Y-106821601D01*
X122006391Y-106801246D01*
X122006389Y-106801245D01*
X122006388Y-106801244D01*
X121925654Y-106771132D01*
X121877630Y-106753220D01*
X121877627Y-106753219D01*
X121820709Y-106747100D01*
X121820706Y-106747100D01*
X121754300Y-106747100D01*
X121705962Y-106729507D01*
X121680242Y-106684958D01*
X121679100Y-106671900D01*
X121679100Y-106368070D01*
X121696693Y-106319732D01*
X121725322Y-106301053D01*
X121724520Y-106299333D01*
X121829737Y-106250269D01*
X121829737Y-106250268D01*
X121829741Y-106250267D01*
X121907767Y-106172241D01*
X121954401Y-106072234D01*
X121960400Y-106026666D01*
X121960400Y-105957000D01*
X122135100Y-105957000D01*
X122135100Y-106026602D01*
X122141090Y-106072102D01*
X122187647Y-106171946D01*
X122187652Y-106171953D01*
X122265546Y-106249847D01*
X122265553Y-106249852D01*
X122365397Y-106296409D01*
X122410898Y-106302400D01*
X122518000Y-106302400D01*
X122518000Y-105957000D01*
X122772000Y-105957000D01*
X122772000Y-106302400D01*
X122879102Y-106302400D01*
X122924602Y-106296409D01*
X123024446Y-106249852D01*
X123024453Y-106249847D01*
X123102347Y-106171953D01*
X123102352Y-106171946D01*
X123148909Y-106072102D01*
X123154900Y-106026602D01*
X123154900Y-105957000D01*
X122772000Y-105957000D01*
X122518000Y-105957000D01*
X122135100Y-105957000D01*
X121960400Y-105957000D01*
X121960400Y-105674745D01*
X121977993Y-105626407D01*
X121982426Y-105621571D01*
X122006726Y-105597271D01*
X122053346Y-105575531D01*
X122103033Y-105588845D01*
X122132538Y-105630982D01*
X122135100Y-105650445D01*
X122135100Y-105703000D01*
X122518000Y-105703000D01*
X122518000Y-105357600D01*
X122772000Y-105357600D01*
X122772000Y-105703000D01*
X123154900Y-105703000D01*
X123154900Y-105633397D01*
X123148909Y-105587897D01*
X123102352Y-105488053D01*
X123102347Y-105488046D01*
X123024453Y-105410152D01*
X123024446Y-105410147D01*
X122924602Y-105363590D01*
X122879102Y-105357600D01*
X122772000Y-105357600D01*
X122518000Y-105357600D01*
X122423569Y-105357600D01*
X122375231Y-105340007D01*
X122349511Y-105295458D01*
X122354093Y-105253624D01*
X122381384Y-105187734D01*
X122381384Y-105187732D01*
X122391600Y-105163071D01*
X122391600Y-104748100D01*
X122409193Y-104699762D01*
X122453742Y-104674042D01*
X122466800Y-104672900D01*
X122795224Y-104672900D01*
X122795226Y-104672900D01*
X122820550Y-104669962D01*
X122924145Y-104624220D01*
X123004220Y-104544145D01*
X123049962Y-104440550D01*
X123052900Y-104415226D01*
X123052900Y-104024774D01*
X123049962Y-103999450D01*
X123004220Y-103895855D01*
X123004219Y-103895854D01*
X123004217Y-103895851D01*
X122924148Y-103815782D01*
X122924145Y-103815780D01*
X122820548Y-103770037D01*
X122801100Y-103767781D01*
X122795226Y-103767100D01*
X121529774Y-103767100D01*
X121524510Y-103767710D01*
X121504451Y-103770037D01*
X121400854Y-103815780D01*
X121400851Y-103815782D01*
X121320782Y-103895851D01*
X121320780Y-103895854D01*
X121275037Y-103999451D01*
X121272710Y-104019510D01*
X121272206Y-104023866D01*
X121272100Y-104024776D01*
X121272100Y-104415223D01*
X121275037Y-104440548D01*
X121320780Y-104544145D01*
X121320782Y-104544148D01*
X121400851Y-104624217D01*
X121400854Y-104624219D01*
X121400855Y-104624220D01*
X121504450Y-104669962D01*
X121529774Y-104672900D01*
X121858200Y-104672900D01*
X121906538Y-104690493D01*
X121932258Y-104735042D01*
X121933400Y-104748100D01*
X121933400Y-104991455D01*
X121915807Y-105039793D01*
X121911374Y-105044629D01*
X121620929Y-105335074D01*
X121574309Y-105356814D01*
X121567755Y-105357100D01*
X121215834Y-105357100D01*
X121197606Y-105359499D01*
X121170263Y-105363099D01*
X121070262Y-105409730D01*
X121070254Y-105409736D01*
X120992236Y-105487754D01*
X120992230Y-105487762D01*
X120945599Y-105587763D01*
X120939600Y-105633335D01*
X120939600Y-106026664D01*
X120945599Y-106072236D01*
X120992230Y-106172237D01*
X120992236Y-106172245D01*
X121070254Y-106250263D01*
X121070262Y-106250269D01*
X121175480Y-106299333D01*
X121174454Y-106301531D01*
X121208222Y-106326284D01*
X121220900Y-106368070D01*
X121220900Y-106671900D01*
X121203307Y-106720238D01*
X121158758Y-106745958D01*
X121145700Y-106747100D01*
X121079290Y-106747100D01*
X121022372Y-106753219D01*
X121022369Y-106753220D01*
X120926321Y-106789044D01*
X120893612Y-106801244D01*
X120893611Y-106801244D01*
X120893610Y-106801245D01*
X120893608Y-106801246D01*
X120783599Y-106883599D01*
X120701246Y-106993608D01*
X120701245Y-106993610D01*
X120653220Y-107122369D01*
X120653219Y-107122372D01*
X120647100Y-107179290D01*
X120647100Y-108620709D01*
X120252900Y-108620709D01*
X120252900Y-108620706D01*
X120252900Y-107179294D01*
X120246780Y-107122371D01*
X120198756Y-106993612D01*
X120116401Y-106883599D01*
X120033582Y-106821601D01*
X120006391Y-106801246D01*
X120006389Y-106801245D01*
X120006388Y-106801244D01*
X119925654Y-106771132D01*
X119877630Y-106753220D01*
X119877627Y-106753219D01*
X119820709Y-106747100D01*
X119820706Y-106747100D01*
X119754300Y-106747100D01*
X119705962Y-106729507D01*
X119680242Y-106684958D01*
X119679100Y-106671900D01*
X119679100Y-106604430D01*
X119679100Y-106604429D01*
X119664932Y-106570225D01*
X119664931Y-106570223D01*
X119644221Y-106520223D01*
X117701126Y-104577128D01*
X117679386Y-104530508D01*
X117679100Y-104523954D01*
X117679100Y-104228100D01*
X117696693Y-104179762D01*
X117741242Y-104154042D01*
X117754300Y-104152900D01*
X117804563Y-104152900D01*
X117804563Y-104152899D01*
X117835150Y-104150031D01*
X117964017Y-104104939D01*
X118073866Y-104023866D01*
X118154939Y-103914017D01*
X118162716Y-103891791D01*
X118737812Y-103891791D01*
X118745507Y-103913779D01*
X118745509Y-103913783D01*
X118826490Y-104023505D01*
X118936223Y-104104493D01*
X118936222Y-104104493D01*
X119064941Y-104149532D01*
X119064950Y-104149534D01*
X119095499Y-104152399D01*
X119804492Y-104152399D01*
X119835056Y-104149534D01*
X119963776Y-104104493D01*
X120073507Y-104023507D01*
X120154492Y-103913778D01*
X120162185Y-103891790D01*
X120162185Y-103891789D01*
X119450001Y-103179605D01*
X119449999Y-103179605D01*
X118737813Y-103891789D01*
X118737812Y-103891791D01*
X118162716Y-103891791D01*
X118200031Y-103785150D01*
X118202899Y-103754563D01*
X118202900Y-103754563D01*
X118202900Y-102427205D01*
X118697600Y-102427205D01*
X118697600Y-103572792D01*
X119270394Y-103000000D01*
X119629605Y-103000000D01*
X120202398Y-103572793D01*
X120202399Y-103572793D01*
X120202399Y-103465223D01*
X123147100Y-103465223D01*
X123150037Y-103490548D01*
X123195780Y-103594145D01*
X123195782Y-103594148D01*
X123275851Y-103674217D01*
X123275854Y-103674219D01*
X123275855Y-103674220D01*
X123379450Y-103719962D01*
X123404774Y-103722900D01*
X123404776Y-103722900D01*
X124670224Y-103722900D01*
X124670226Y-103722900D01*
X124695550Y-103719962D01*
X124695552Y-103719961D01*
X124778563Y-103683308D01*
X124808938Y-103676900D01*
X125081676Y-103676900D01*
X125130014Y-103694493D01*
X125148679Y-103717959D01*
X125169983Y-103759770D01*
X125169984Y-103759771D01*
X125260229Y-103850016D01*
X125373943Y-103907956D01*
X125373945Y-103907957D01*
X125468292Y-103922900D01*
X125468296Y-103922900D01*
X127031704Y-103922900D01*
X127031708Y-103922900D01*
X127126055Y-103907957D01*
X127239771Y-103850016D01*
X127330016Y-103759771D01*
X127387957Y-103646055D01*
X127402900Y-103551708D01*
X127402900Y-102988292D01*
X127387957Y-102893945D01*
X127330016Y-102780229D01*
X127239771Y-102689984D01*
X127126055Y-102632043D01*
X127126057Y-102632043D01*
X127031710Y-102617100D01*
X127031708Y-102617100D01*
X125468292Y-102617100D01*
X125468289Y-102617100D01*
X125373943Y-102632043D01*
X125260230Y-102689983D01*
X125169983Y-102780229D01*
X125148679Y-102822041D01*
X125111058Y-102857122D01*
X125081676Y-102863100D01*
X124808938Y-102863100D01*
X124778563Y-102856692D01*
X124695551Y-102820038D01*
X124687108Y-102819058D01*
X124670226Y-102817100D01*
X123404774Y-102817100D01*
X123399510Y-102817710D01*
X123379451Y-102820037D01*
X123275854Y-102865780D01*
X123275851Y-102865782D01*
X123195782Y-102945851D01*
X123195780Y-102945854D01*
X123150037Y-103049451D01*
X123147100Y-103074776D01*
X123147100Y-103465223D01*
X120202399Y-103465223D01*
X120202399Y-102447000D01*
X121272600Y-102447000D01*
X121272600Y-102515150D01*
X121275532Y-102540432D01*
X121321199Y-102643857D01*
X121321201Y-102643860D01*
X121401139Y-102723798D01*
X121401142Y-102723800D01*
X121504567Y-102769467D01*
X121529850Y-102772400D01*
X122035500Y-102772400D01*
X122035500Y-102447000D01*
X122289500Y-102447000D01*
X122289500Y-102772400D01*
X122795150Y-102772400D01*
X122820432Y-102769467D01*
X122923857Y-102723800D01*
X122923860Y-102723798D01*
X123003798Y-102643860D01*
X123003800Y-102643857D01*
X123049467Y-102540432D01*
X123052400Y-102515150D01*
X123052400Y-102447000D01*
X122289500Y-102447000D01*
X122035500Y-102447000D01*
X121272600Y-102447000D01*
X120202399Y-102447000D01*
X120202399Y-102427205D01*
X120202398Y-102427205D01*
X119629605Y-102999999D01*
X119629605Y-103000000D01*
X119270394Y-103000000D01*
X119270395Y-102999999D01*
X118697600Y-102427205D01*
X118202900Y-102427205D01*
X118202900Y-102245436D01*
X118202899Y-102245435D01*
X118200031Y-102214850D01*
X118162716Y-102108209D01*
X118162715Y-102108206D01*
X118737812Y-102108206D01*
X118737813Y-102108209D01*
X119449999Y-102820395D01*
X119450001Y-102820395D01*
X120077394Y-102193000D01*
X121272600Y-102193000D01*
X122035500Y-102193000D01*
X122035500Y-101867600D01*
X122289500Y-101867600D01*
X122289500Y-102193000D01*
X123052400Y-102193000D01*
X123052400Y-102124849D01*
X123049467Y-102099567D01*
X123003800Y-101996142D01*
X123003798Y-101996139D01*
X122923860Y-101916201D01*
X122923857Y-101916199D01*
X122820432Y-101870532D01*
X122795150Y-101867600D01*
X122289500Y-101867600D01*
X122035500Y-101867600D01*
X121529850Y-101867600D01*
X121504567Y-101870532D01*
X121401142Y-101916199D01*
X121401139Y-101916201D01*
X121321201Y-101996139D01*
X121321199Y-101996142D01*
X121275532Y-102099567D01*
X121272600Y-102124849D01*
X121272600Y-102193000D01*
X120077394Y-102193000D01*
X120162185Y-102108209D01*
X120162185Y-102108207D01*
X120154494Y-102086224D01*
X120154493Y-102086223D01*
X120073507Y-101976492D01*
X119963776Y-101895506D01*
X119963777Y-101895506D01*
X119835058Y-101850467D01*
X119835049Y-101850465D01*
X119804500Y-101847600D01*
X119095507Y-101847600D01*
X119064943Y-101850465D01*
X118936223Y-101895506D01*
X118826490Y-101976494D01*
X118745507Y-102086219D01*
X118737812Y-102108206D01*
X118162715Y-102108206D01*
X118154940Y-102085985D01*
X118154938Y-102085982D01*
X118073866Y-101976133D01*
X117964017Y-101895061D01*
X117964014Y-101895059D01*
X117866086Y-101860793D01*
X117835150Y-101849969D01*
X117835145Y-101849968D01*
X117835143Y-101849968D01*
X117804564Y-101847100D01*
X117804556Y-101847100D01*
X117095444Y-101847100D01*
X117095436Y-101847100D01*
X117064856Y-101849968D01*
X117064852Y-101849968D01*
X117064850Y-101849969D01*
X117064847Y-101849969D01*
X117064847Y-101849970D01*
X116935985Y-101895059D01*
X116935982Y-101895061D01*
X116826133Y-101976133D01*
X116745061Y-102085982D01*
X116745059Y-102085985D01*
X116699970Y-102214847D01*
X116699968Y-102214856D01*
X116697100Y-102245435D01*
X116697100Y-103754564D01*
X116202899Y-103754564D01*
X116202899Y-103754563D01*
X116202900Y-103754563D01*
X116202900Y-102245436D01*
X116202899Y-102245435D01*
X116200031Y-102214850D01*
X116162716Y-102108209D01*
X116154940Y-102085985D01*
X116154938Y-102085982D01*
X116073866Y-101976133D01*
X115964017Y-101895061D01*
X115964014Y-101895059D01*
X115866086Y-101860793D01*
X115835150Y-101849969D01*
X115835145Y-101849968D01*
X115835143Y-101849968D01*
X115804564Y-101847100D01*
X115804556Y-101847100D01*
X115095444Y-101847100D01*
X115095436Y-101847100D01*
X115064856Y-101849968D01*
X115064852Y-101849968D01*
X115064850Y-101849969D01*
X115064847Y-101849969D01*
X115064847Y-101849970D01*
X114935985Y-101895059D01*
X114935982Y-101895061D01*
X114826133Y-101976133D01*
X114745061Y-102085982D01*
X114745059Y-102085985D01*
X114699970Y-102214847D01*
X114699968Y-102214856D01*
X114697100Y-102245435D01*
X114697100Y-103754564D01*
X114202899Y-103754564D01*
X114202899Y-103754563D01*
X114202900Y-103754563D01*
X114202900Y-102245436D01*
X114202899Y-102245435D01*
X114200031Y-102214850D01*
X114162716Y-102108209D01*
X114154940Y-102085985D01*
X114154938Y-102085982D01*
X114073866Y-101976133D01*
X113964017Y-101895061D01*
X113964014Y-101895059D01*
X113866086Y-101860793D01*
X113835150Y-101849969D01*
X113835145Y-101849968D01*
X113835143Y-101849968D01*
X113804564Y-101847100D01*
X113804556Y-101847100D01*
X113095444Y-101847100D01*
X113095436Y-101847100D01*
X113064856Y-101849968D01*
X113064852Y-101849968D01*
X113064850Y-101849969D01*
X113064847Y-101849969D01*
X113064847Y-101849970D01*
X112935985Y-101895059D01*
X112935982Y-101895061D01*
X112826133Y-101976133D01*
X112745061Y-102085982D01*
X112745059Y-102085985D01*
X112699970Y-102214847D01*
X112699968Y-102214856D01*
X112697100Y-102245435D01*
X112697100Y-103754564D01*
X112202899Y-103754564D01*
X112202899Y-103754563D01*
X112202900Y-103754563D01*
X112202900Y-102245436D01*
X112202899Y-102245435D01*
X112200031Y-102214850D01*
X112162716Y-102108209D01*
X112154940Y-102085985D01*
X112154938Y-102085982D01*
X112073866Y-101976133D01*
X111964017Y-101895061D01*
X111964014Y-101895059D01*
X111866086Y-101860793D01*
X111835150Y-101849969D01*
X111835145Y-101849968D01*
X111835143Y-101849968D01*
X111804564Y-101847100D01*
X111804556Y-101847100D01*
X111095444Y-101847100D01*
X111095436Y-101847100D01*
X111064856Y-101849968D01*
X111064852Y-101849968D01*
X111064850Y-101849969D01*
X111064847Y-101849969D01*
X111064847Y-101849970D01*
X110935985Y-101895059D01*
X110935982Y-101895061D01*
X110826133Y-101976133D01*
X110745061Y-102085982D01*
X110745059Y-102085985D01*
X110699970Y-102214847D01*
X110699968Y-102214856D01*
X110697100Y-102245435D01*
X110697100Y-103754564D01*
X110202899Y-103754564D01*
X110202899Y-103754563D01*
X110202900Y-103754563D01*
X110202900Y-102245436D01*
X110202899Y-102245435D01*
X110200031Y-102214850D01*
X110162716Y-102108209D01*
X110154940Y-102085985D01*
X110154938Y-102085982D01*
X110073866Y-101976133D01*
X109964017Y-101895061D01*
X109964014Y-101895059D01*
X109866086Y-101860793D01*
X109835150Y-101849969D01*
X109835145Y-101849968D01*
X109835143Y-101849968D01*
X109804564Y-101847100D01*
X109804556Y-101847100D01*
X109095444Y-101847100D01*
X109095436Y-101847100D01*
X109064856Y-101849968D01*
X109064852Y-101849968D01*
X109064850Y-101849969D01*
X109064847Y-101849969D01*
X109064847Y-101849970D01*
X108935985Y-101895059D01*
X108935982Y-101895061D01*
X108826133Y-101976133D01*
X108745061Y-102085982D01*
X108745059Y-102085985D01*
X108699970Y-102214847D01*
X108699968Y-102214856D01*
X108697100Y-102245435D01*
X108697100Y-103325914D01*
X108679507Y-103374252D01*
X108675074Y-103379088D01*
X107278138Y-104776024D01*
X107252081Y-104802081D01*
X107226024Y-104828137D01*
X107226023Y-104828139D01*
X107189175Y-104891961D01*
X107170100Y-104963151D01*
X107170100Y-106671900D01*
X107152507Y-106720238D01*
X107107958Y-106745958D01*
X107094900Y-106747100D01*
X107079290Y-106747100D01*
X107022372Y-106753219D01*
X107022369Y-106753220D01*
X106926321Y-106789044D01*
X106893612Y-106801244D01*
X106893611Y-106801244D01*
X106893610Y-106801245D01*
X106893608Y-106801246D01*
X106783599Y-106883599D01*
X106701246Y-106993608D01*
X106701245Y-106993610D01*
X106653220Y-107122369D01*
X106653219Y-107122372D01*
X106647100Y-107179290D01*
X106647100Y-108620709D01*
X106252900Y-108620709D01*
X106252900Y-108620706D01*
X106252900Y-107179294D01*
X106246780Y-107122371D01*
X106198756Y-106993612D01*
X106116401Y-106883599D01*
X106033582Y-106821601D01*
X106006391Y-106801246D01*
X106006389Y-106801245D01*
X106006388Y-106801244D01*
X105925654Y-106771132D01*
X105877630Y-106753220D01*
X105877627Y-106753219D01*
X105820709Y-106747100D01*
X105820706Y-106747100D01*
X105079294Y-106747100D01*
X105079290Y-106747100D01*
X105022372Y-106753219D01*
X105022369Y-106753220D01*
X104926321Y-106789044D01*
X104893612Y-106801244D01*
X104893611Y-106801244D01*
X104893610Y-106801245D01*
X104893608Y-106801246D01*
X104783599Y-106883599D01*
X104701246Y-106993608D01*
X104701245Y-106993610D01*
X104653220Y-107122369D01*
X104653219Y-107122372D01*
X104647100Y-107179290D01*
X104647100Y-108620709D01*
X100381500Y-108620709D01*
X100381500Y-100456700D01*
X100399093Y-100408362D01*
X100443642Y-100382642D01*
X100456700Y-100381500D01*
X128443300Y-100381500D01*
X128491638Y-100399093D01*
G37*
%TD.AperFunction*%
%TD*%
M02*
