%TF.GenerationSoftware,KiCad,Pcbnew,8.0.1*%
%TF.CreationDate,2024-07-01T16:07:51-04:00*%
%TF.ProjectId,V1,56312e6b-6963-4616-945f-706362585858,rev?*%
%TF.SameCoordinates,Original*%
%TF.FileFunction,Legend,Top*%
%TF.FilePolarity,Positive*%
%FSLAX46Y46*%
G04 Gerber Fmt 4.6, Leading zero omitted, Abs format (unit mm)*
G04 Created by KiCad (PCBNEW 8.0.1) date 2024-07-01 16:07:51*
%MOMM*%
%LPD*%
G01*
G04 APERTURE LIST*
%ADD10C,0.260000*%
%ADD11C,0.200000*%
%ADD12C,0.120000*%
G04 APERTURE END LIST*
D10*
G36*
X109817572Y-102895000D02*
G01*
X109817572Y-101370924D01*
X110274062Y-101370924D01*
X110548102Y-102410666D01*
X110819212Y-101370924D01*
X111276435Y-101370924D01*
X111276435Y-102895000D01*
X110993235Y-102895000D01*
X110993235Y-101695157D01*
X110693183Y-102895000D01*
X110399725Y-102895000D01*
X110100772Y-101695157D01*
X110100772Y-102895000D01*
X109817572Y-102895000D01*
G37*
G36*
X111567694Y-101628845D02*
G01*
X111567694Y-101370924D01*
X111857488Y-101370924D01*
X111857488Y-101628845D01*
X111567694Y-101628845D01*
G37*
G36*
X111567694Y-102895000D02*
G01*
X111567694Y-101792976D01*
X111857488Y-101792976D01*
X111857488Y-102895000D01*
X111567694Y-102895000D01*
G37*
G36*
X113146358Y-102895000D02*
G01*
X112856930Y-102895000D01*
X112856930Y-102326036D01*
X112855762Y-102243695D01*
X112851657Y-102170112D01*
X112839395Y-102095740D01*
X112838246Y-102092295D01*
X112799800Y-102028234D01*
X112778162Y-102009863D01*
X112709418Y-101982873D01*
X112677778Y-101980554D01*
X112602036Y-101992445D01*
X112542590Y-102022686D01*
X112489686Y-102074920D01*
X112460524Y-102134061D01*
X112446292Y-102209730D01*
X112440689Y-102284856D01*
X112438628Y-102367253D01*
X112438542Y-102390150D01*
X112438542Y-102895000D01*
X112149114Y-102895000D01*
X112149114Y-101792976D01*
X112418026Y-101792976D01*
X112418026Y-101953810D01*
X112474346Y-101891183D01*
X112535869Y-101841513D01*
X112602596Y-101804801D01*
X112674527Y-101781046D01*
X112751660Y-101770248D01*
X112778528Y-101769528D01*
X112853737Y-101775273D01*
X112928509Y-101794306D01*
X112953650Y-101804333D01*
X113019650Y-101841148D01*
X113073818Y-101892993D01*
X113111685Y-101958218D01*
X113130238Y-102015359D01*
X113141808Y-102092285D01*
X113145964Y-102172604D01*
X113146358Y-102210997D01*
X113146358Y-102895000D01*
G37*
G36*
X114437059Y-102895000D02*
G01*
X114168148Y-102895000D01*
X114168148Y-102734166D01*
X114119197Y-102792931D01*
X114059280Y-102844005D01*
X114009878Y-102873384D01*
X113941254Y-102900844D01*
X113866445Y-102916290D01*
X113825964Y-102918447D01*
X113746012Y-102911154D01*
X113671249Y-102889275D01*
X113601676Y-102852810D01*
X113537291Y-102801760D01*
X113502830Y-102766039D01*
X113457136Y-102704512D01*
X113420896Y-102634509D01*
X113394110Y-102556031D01*
X113379010Y-102484159D01*
X113370476Y-102406401D01*
X113368375Y-102339958D01*
X113369015Y-102323105D01*
X113664031Y-102323105D01*
X113666345Y-102398551D01*
X113674657Y-102472883D01*
X113693547Y-102547959D01*
X113712391Y-102588719D01*
X113761599Y-102651316D01*
X113828374Y-102693395D01*
X113900573Y-102707305D01*
X113908396Y-102707421D01*
X113984464Y-102692728D01*
X114050738Y-102648650D01*
X114078022Y-102618394D01*
X114115117Y-102554130D01*
X114136755Y-102481548D01*
X114146647Y-102405305D01*
X114148364Y-102352048D01*
X114145103Y-102270949D01*
X114133391Y-102191230D01*
X114110033Y-102118078D01*
X114080220Y-102067749D01*
X114023978Y-102014615D01*
X113950839Y-101984727D01*
X113906197Y-101980554D01*
X113833674Y-101992661D01*
X113765689Y-102033103D01*
X113733640Y-102066650D01*
X113694009Y-102135632D01*
X113673819Y-102207013D01*
X113665118Y-102281752D01*
X113664031Y-102323105D01*
X113369015Y-102323105D01*
X113371568Y-102255876D01*
X113381147Y-102178342D01*
X113401073Y-102093944D01*
X113430194Y-102018974D01*
X113468512Y-101953432D01*
X113499167Y-101914975D01*
X113559827Y-101858302D01*
X113627044Y-101815549D01*
X113700817Y-101786715D01*
X113781147Y-101771801D01*
X113829994Y-101769528D01*
X113907929Y-101776821D01*
X113981132Y-101798700D01*
X114049601Y-101835165D01*
X114113336Y-101886215D01*
X114147631Y-101921936D01*
X114147631Y-101370924D01*
X114437059Y-101370924D01*
X114437059Y-102895000D01*
G37*
G36*
X115684163Y-102308817D02*
G01*
X115979819Y-102402606D01*
X115956324Y-102477548D01*
X115928428Y-102546211D01*
X115889144Y-102620318D01*
X115843523Y-102685383D01*
X115791565Y-102741407D01*
X115753406Y-102773733D01*
X115691191Y-102814945D01*
X115622975Y-102847630D01*
X115548756Y-102871788D01*
X115468535Y-102887420D01*
X115382312Y-102894526D01*
X115352237Y-102895000D01*
X115278712Y-102891817D01*
X115191508Y-102878887D01*
X115109527Y-102856010D01*
X115032769Y-102823188D01*
X114961235Y-102780419D01*
X114894924Y-102727704D01*
X114857645Y-102691301D01*
X114801918Y-102623996D01*
X114755636Y-102549392D01*
X114718799Y-102467490D01*
X114696130Y-102396713D01*
X114679506Y-102321264D01*
X114668928Y-102241145D01*
X114664394Y-102156355D01*
X114664205Y-102134427D01*
X114667245Y-102043615D01*
X114676364Y-101958023D01*
X114691562Y-101877652D01*
X114712840Y-101802501D01*
X114740197Y-101732571D01*
X114782943Y-101652501D01*
X114835187Y-101580588D01*
X114858744Y-101554106D01*
X114922640Y-101494579D01*
X114992510Y-101445142D01*
X115068356Y-101405793D01*
X115150176Y-101376534D01*
X115237971Y-101357364D01*
X115312509Y-101349293D01*
X115370922Y-101347477D01*
X115455041Y-101351716D01*
X115534061Y-101364435D01*
X115607983Y-101385634D01*
X115676807Y-101415311D01*
X115740533Y-101453468D01*
X115799160Y-101500105D01*
X115821183Y-101521133D01*
X115869452Y-101578195D01*
X115911309Y-101646430D01*
X115942675Y-101715302D01*
X115969132Y-101792730D01*
X115975789Y-101816423D01*
X115673905Y-101863318D01*
X115648635Y-101787137D01*
X115609598Y-101722818D01*
X115562164Y-101674640D01*
X115499400Y-101635218D01*
X115427977Y-101612159D01*
X115355534Y-101605397D01*
X115275575Y-101612862D01*
X115203493Y-101635256D01*
X115139288Y-101672579D01*
X115082959Y-101724832D01*
X115037278Y-101793823D01*
X115008014Y-101869405D01*
X114990884Y-101945491D01*
X114981095Y-102032010D01*
X114978546Y-102112079D01*
X114981059Y-102196819D01*
X114988599Y-102273580D01*
X115004283Y-102355162D01*
X115027205Y-102425255D01*
X115063096Y-102492509D01*
X115081494Y-102516545D01*
X115136838Y-102569279D01*
X115199921Y-102606946D01*
X115270744Y-102629546D01*
X115349306Y-102637079D01*
X115428903Y-102627728D01*
X115500447Y-102599676D01*
X115558500Y-102557944D01*
X115608396Y-102499612D01*
X115645043Y-102431941D01*
X115671049Y-102359721D01*
X115684163Y-102308817D01*
G37*
G36*
X116951051Y-102895000D02*
G01*
X116951051Y-102731235D01*
X116900956Y-102791599D01*
X116840249Y-102841350D01*
X116793881Y-102868621D01*
X116725792Y-102896989D01*
X116648451Y-102914506D01*
X116588350Y-102918447D01*
X116509061Y-102911595D01*
X116436057Y-102891038D01*
X116390880Y-102869720D01*
X116327718Y-102823660D01*
X116280518Y-102764661D01*
X116264118Y-102733066D01*
X116240230Y-102657418D01*
X116228745Y-102579973D01*
X116224955Y-102499077D01*
X116224917Y-102489434D01*
X116224917Y-101792976D01*
X116514345Y-101792976D01*
X116514345Y-102304787D01*
X116514898Y-102386463D01*
X116516945Y-102465603D01*
X116521791Y-102541801D01*
X116530098Y-102592749D01*
X116566709Y-102657420D01*
X116588350Y-102676646D01*
X116657348Y-102704416D01*
X116695695Y-102707421D01*
X116769983Y-102695737D01*
X116828319Y-102666022D01*
X116882853Y-102613188D01*
X116908919Y-102563440D01*
X116922914Y-102484106D01*
X116927980Y-102406133D01*
X116930197Y-102319687D01*
X116930534Y-102262655D01*
X116930534Y-101792976D01*
X117219962Y-101792976D01*
X117219962Y-102895000D01*
X116951051Y-102895000D01*
G37*
G36*
X117790391Y-101921936D02*
G01*
X117842401Y-101870141D01*
X117907441Y-101823258D01*
X117977180Y-101790961D01*
X118051617Y-101773249D01*
X118107663Y-101769528D01*
X118191865Y-101776488D01*
X118269440Y-101797368D01*
X118340388Y-101832167D01*
X118404710Y-101880886D01*
X118438490Y-101914975D01*
X118482939Y-101973974D01*
X118518191Y-102041886D01*
X118544247Y-102118711D01*
X118561107Y-102204449D01*
X118568132Y-102282705D01*
X118569282Y-102332630D01*
X118566026Y-102417409D01*
X118556259Y-102495891D01*
X118539980Y-102568077D01*
X118511850Y-102646387D01*
X118474343Y-102715630D01*
X118435925Y-102766406D01*
X118383907Y-102818076D01*
X118318141Y-102864846D01*
X118246904Y-102897066D01*
X118170198Y-102914735D01*
X118112059Y-102918447D01*
X118036279Y-102910828D01*
X117961345Y-102887973D01*
X117927045Y-102872285D01*
X117862182Y-102831223D01*
X117804428Y-102777282D01*
X117769875Y-102734166D01*
X117769875Y-102895000D01*
X117500964Y-102895000D01*
X117500964Y-102323105D01*
X117788193Y-102323105D01*
X117790753Y-102396568D01*
X117799946Y-102469663D01*
X117820840Y-102544739D01*
X117841682Y-102586521D01*
X117888018Y-102644964D01*
X117948611Y-102687468D01*
X118026339Y-102706949D01*
X118041717Y-102707421D01*
X118114991Y-102693272D01*
X118178832Y-102650826D01*
X118205116Y-102621692D01*
X118243495Y-102550856D01*
X118263047Y-102475575D01*
X118271473Y-102395571D01*
X118272527Y-102350949D01*
X118269266Y-102270278D01*
X118257554Y-102190920D01*
X118234196Y-102118010D01*
X118204383Y-102067749D01*
X118148140Y-102014615D01*
X118075002Y-101984727D01*
X118030360Y-101980554D01*
X117957219Y-101992507D01*
X117889029Y-102032432D01*
X117857070Y-102065551D01*
X117817856Y-102134167D01*
X117797879Y-102205828D01*
X117789269Y-102281253D01*
X117788193Y-102323105D01*
X117500964Y-102323105D01*
X117500964Y-101370924D01*
X117790391Y-101370924D01*
X117790391Y-101921936D01*
G37*
G36*
X119286720Y-101773473D02*
G01*
X119368568Y-101788620D01*
X119443178Y-101815127D01*
X119510549Y-101852994D01*
X119570681Y-101902221D01*
X119598033Y-101931095D01*
X119645873Y-101997723D01*
X119683333Y-102076433D01*
X119706619Y-102151253D01*
X119722695Y-102234463D01*
X119731563Y-102326063D01*
X119733466Y-102405384D01*
X119733221Y-102426053D01*
X119007820Y-102426053D01*
X119015913Y-102503605D01*
X119039278Y-102575523D01*
X119077795Y-102633415D01*
X119137711Y-102681331D01*
X119208510Y-102704819D01*
X119244858Y-102707421D01*
X119317723Y-102695668D01*
X119358797Y-102674082D01*
X119408084Y-102616523D01*
X119429139Y-102566737D01*
X119717834Y-102613632D01*
X119685960Y-102683745D01*
X119640468Y-102752002D01*
X119584775Y-102809016D01*
X119541979Y-102840778D01*
X119469809Y-102878323D01*
X119397630Y-102901381D01*
X119317894Y-102914730D01*
X119241927Y-102918447D01*
X119156257Y-102913876D01*
X119077850Y-102900164D01*
X119006706Y-102877311D01*
X118930920Y-102837821D01*
X118865593Y-102785168D01*
X118819142Y-102731235D01*
X118777030Y-102661766D01*
X118745261Y-102584795D01*
X118726263Y-102512847D01*
X118714864Y-102435387D01*
X118711065Y-102352414D01*
X118714535Y-102269903D01*
X118718801Y-102238475D01*
X119012949Y-102238475D01*
X119445625Y-102238475D01*
X119438033Y-102165417D01*
X119413716Y-102093426D01*
X119380779Y-102046500D01*
X119321483Y-102001420D01*
X119246592Y-101981134D01*
X119230203Y-101980554D01*
X119153737Y-101993808D01*
X119089754Y-102033568D01*
X119073765Y-102049797D01*
X119033859Y-102114517D01*
X119015483Y-102188749D01*
X119012949Y-102238475D01*
X118718801Y-102238475D01*
X118724947Y-102193189D01*
X118746602Y-102108782D01*
X118778253Y-102032721D01*
X118819898Y-101965007D01*
X118853214Y-101924501D01*
X118909173Y-101871834D01*
X118970439Y-101830064D01*
X119037012Y-101799191D01*
X119108891Y-101779214D01*
X119186076Y-101770134D01*
X119212984Y-101769528D01*
X119286720Y-101773473D01*
G37*
D11*
X112393483Y-104343409D02*
X112060150Y-104343409D01*
X111994673Y-104867219D02*
X112119673Y-103867219D01*
X112119673Y-103867219D02*
X112595864Y-103867219D01*
X112881578Y-103867219D02*
X113548245Y-103867219D01*
X113548245Y-103867219D02*
X112756578Y-104867219D01*
X112756578Y-104867219D02*
X113423245Y-104867219D01*
X113816102Y-104771980D02*
X113857769Y-104819600D01*
X113857769Y-104819600D02*
X113804197Y-104867219D01*
X113804197Y-104867219D02*
X113762531Y-104819600D01*
X113762531Y-104819600D02*
X113816102Y-104771980D01*
X113816102Y-104771980D02*
X113804197Y-104867219D01*
X115518483Y-104867219D02*
X115042292Y-104867219D01*
X115042292Y-104867219D02*
X115167292Y-103867219D01*
X115851816Y-104867219D02*
X115935150Y-104200552D01*
X115976816Y-103867219D02*
X115923245Y-103914838D01*
X115923245Y-103914838D02*
X115964912Y-103962457D01*
X115964912Y-103962457D02*
X116018483Y-103914838D01*
X116018483Y-103914838D02*
X115976816Y-103867219D01*
X115976816Y-103867219D02*
X115964912Y-103962457D01*
X116839911Y-104200552D02*
X116756578Y-104867219D01*
X116411340Y-104200552D02*
X116345864Y-104724361D01*
X116345864Y-104724361D02*
X116381578Y-104819600D01*
X116381578Y-104819600D02*
X116470864Y-104867219D01*
X116470864Y-104867219D02*
X116613721Y-104867219D01*
X116613721Y-104867219D02*
X116714911Y-104819600D01*
X116714911Y-104819600D02*
X116768483Y-104771980D01*
D12*
%TO.C,J3*%
X112545000Y-112820000D02*
X112545000Y-112185000D01*
X113180000Y-112820000D02*
X112545000Y-112820000D01*
%TO.C,R1*%
X114659879Y-105770000D02*
X114995121Y-105770000D01*
X114659879Y-106530000D02*
X114995121Y-106530000D01*
%TO.C,D1*%
X113190000Y-106735000D02*
X113190000Y-108205000D01*
X113190000Y-108205000D02*
X115650000Y-108205000D01*
X115650000Y-106735000D02*
X113190000Y-106735000D01*
%TD*%
M02*
