%TF.GenerationSoftware,KiCad,Pcbnew,8.0.1*%
%TF.CreationDate,2024-07-01T16:07:56-04:00*%
%TF.ProjectId,V1,56312e6b-6963-4616-945f-706362585858,rev?*%
%TF.SameCoordinates,Original*%
%TF.FileFunction,Drillmap*%
%TF.FilePolarity,Positive*%
%FSLAX45Y45*%
G04 Gerber Fmt 4.5, Leading zero omitted, Abs format (unit mm)*
G04 Created by KiCad (PCBNEW 8.0.1) date 2024-07-01 16:07:56*
%MOMM*%
%LPD*%
G01*
G04 APERTURE LIST*
%ADD10C,0.100000*%
%ADD11C,0.200000*%
G04 APERTURE END LIST*
D10*
X11000000Y-12300000D02*
X11000000Y-11900000D01*
X10290000Y-11000000D02*
G75*
G02*
X10110000Y-11000000I-90000J0D01*
G01*
X10110000Y-11000000D02*
G75*
G02*
X10290000Y-11000000I90000J0D01*
G01*
X11000000Y-11900000D02*
X11890000Y-11900000D01*
X12890000Y-12300000D02*
X12890000Y-10000000D01*
X11890000Y-12300000D02*
X12890000Y-12300000D01*
X12780000Y-11000000D02*
G75*
G02*
X12600000Y-11000000I-90000J0D01*
G01*
X12600000Y-11000000D02*
G75*
G02*
X12780000Y-11000000I90000J0D01*
G01*
X10000000Y-10000000D02*
X10000000Y-12300000D01*
X11890000Y-11900000D02*
X11890000Y-12300000D01*
X12890000Y-10000000D02*
X10000000Y-10000000D01*
X10000000Y-12300000D02*
X11000000Y-12300000D01*
D11*
D10*
X12617500Y-11500000D02*
X12707500Y-11590000D01*
X12707500Y-11500000D02*
X12617500Y-11590000D01*
X12617500Y-11800000D02*
X12707500Y-11890000D01*
X12707500Y-11800000D02*
X12617500Y-11890000D01*
X11240530Y-11155000D02*
G75*
G02*
X11141470Y-11155000I-49530J0D01*
G01*
X11141470Y-11155000D02*
G75*
G02*
X11240530Y-11155000I49530J0D01*
G01*
X11748530Y-11053400D02*
G75*
G02*
X11649470Y-11053400I-49530J0D01*
G01*
X11649470Y-11053400D02*
G75*
G02*
X11748530Y-11053400I49530J0D01*
G01*
X11748530Y-11256600D02*
G75*
G02*
X11649470Y-11256600I-49530J0D01*
G01*
X11649470Y-11256600D02*
G75*
G02*
X11748530Y-11256600I49530J0D01*
G01*
D11*
X10255777Y-12616484D02*
X10255777Y-12416484D01*
X10255777Y-12416484D02*
X10303396Y-12416484D01*
X10303396Y-12416484D02*
X10331967Y-12426008D01*
X10331967Y-12426008D02*
X10351015Y-12445055D01*
X10351015Y-12445055D02*
X10360539Y-12464103D01*
X10360539Y-12464103D02*
X10370063Y-12502198D01*
X10370063Y-12502198D02*
X10370063Y-12530769D01*
X10370063Y-12530769D02*
X10360539Y-12568865D01*
X10360539Y-12568865D02*
X10351015Y-12587912D01*
X10351015Y-12587912D02*
X10331967Y-12606960D01*
X10331967Y-12606960D02*
X10303396Y-12616484D01*
X10303396Y-12616484D02*
X10255777Y-12616484D01*
X10455777Y-12616484D02*
X10455777Y-12483150D01*
X10455777Y-12521246D02*
X10465301Y-12502198D01*
X10465301Y-12502198D02*
X10474824Y-12492674D01*
X10474824Y-12492674D02*
X10493872Y-12483150D01*
X10493872Y-12483150D02*
X10512920Y-12483150D01*
X10579586Y-12616484D02*
X10579586Y-12483150D01*
X10579586Y-12416484D02*
X10570063Y-12426008D01*
X10570063Y-12426008D02*
X10579586Y-12435531D01*
X10579586Y-12435531D02*
X10589110Y-12426008D01*
X10589110Y-12426008D02*
X10579586Y-12416484D01*
X10579586Y-12416484D02*
X10579586Y-12435531D01*
X10703396Y-12616484D02*
X10684348Y-12606960D01*
X10684348Y-12606960D02*
X10674824Y-12587912D01*
X10674824Y-12587912D02*
X10674824Y-12416484D01*
X10808158Y-12616484D02*
X10789110Y-12606960D01*
X10789110Y-12606960D02*
X10779586Y-12587912D01*
X10779586Y-12587912D02*
X10779586Y-12416484D01*
X11036729Y-12616484D02*
X11036729Y-12416484D01*
X11036729Y-12416484D02*
X11103396Y-12559341D01*
X11103396Y-12559341D02*
X11170063Y-12416484D01*
X11170063Y-12416484D02*
X11170063Y-12616484D01*
X11351015Y-12616484D02*
X11351015Y-12511722D01*
X11351015Y-12511722D02*
X11341491Y-12492674D01*
X11341491Y-12492674D02*
X11322443Y-12483150D01*
X11322443Y-12483150D02*
X11284348Y-12483150D01*
X11284348Y-12483150D02*
X11265301Y-12492674D01*
X11351015Y-12606960D02*
X11331967Y-12616484D01*
X11331967Y-12616484D02*
X11284348Y-12616484D01*
X11284348Y-12616484D02*
X11265301Y-12606960D01*
X11265301Y-12606960D02*
X11255777Y-12587912D01*
X11255777Y-12587912D02*
X11255777Y-12568865D01*
X11255777Y-12568865D02*
X11265301Y-12549817D01*
X11265301Y-12549817D02*
X11284348Y-12540293D01*
X11284348Y-12540293D02*
X11331967Y-12540293D01*
X11331967Y-12540293D02*
X11351015Y-12530769D01*
X11446253Y-12483150D02*
X11446253Y-12683150D01*
X11446253Y-12492674D02*
X11465301Y-12483150D01*
X11465301Y-12483150D02*
X11503396Y-12483150D01*
X11503396Y-12483150D02*
X11522443Y-12492674D01*
X11522443Y-12492674D02*
X11531967Y-12502198D01*
X11531967Y-12502198D02*
X11541491Y-12521246D01*
X11541491Y-12521246D02*
X11541491Y-12578388D01*
X11541491Y-12578388D02*
X11531967Y-12597436D01*
X11531967Y-12597436D02*
X11522443Y-12606960D01*
X11522443Y-12606960D02*
X11503396Y-12616484D01*
X11503396Y-12616484D02*
X11465301Y-12616484D01*
X11465301Y-12616484D02*
X11446253Y-12606960D01*
X11627205Y-12597436D02*
X11636729Y-12606960D01*
X11636729Y-12606960D02*
X11627205Y-12616484D01*
X11627205Y-12616484D02*
X11617682Y-12606960D01*
X11617682Y-12606960D02*
X11627205Y-12597436D01*
X11627205Y-12597436D02*
X11627205Y-12616484D01*
X11627205Y-12492674D02*
X11636729Y-12502198D01*
X11636729Y-12502198D02*
X11627205Y-12511722D01*
X11627205Y-12511722D02*
X11617682Y-12502198D01*
X11617682Y-12502198D02*
X11627205Y-12492674D01*
X11627205Y-12492674D02*
X11627205Y-12511722D01*
D10*
X9905000Y-12900000D02*
X9995000Y-12990000D01*
X9995000Y-12900000D02*
X9905000Y-12990000D01*
D11*
X10293872Y-12836484D02*
X10312920Y-12836484D01*
X10312920Y-12836484D02*
X10331967Y-12846008D01*
X10331967Y-12846008D02*
X10341491Y-12855531D01*
X10341491Y-12855531D02*
X10351015Y-12874579D01*
X10351015Y-12874579D02*
X10360539Y-12912674D01*
X10360539Y-12912674D02*
X10360539Y-12960293D01*
X10360539Y-12960293D02*
X10351015Y-12998388D01*
X10351015Y-12998388D02*
X10341491Y-13017436D01*
X10341491Y-13017436D02*
X10331967Y-13026960D01*
X10331967Y-13026960D02*
X10312920Y-13036484D01*
X10312920Y-13036484D02*
X10293872Y-13036484D01*
X10293872Y-13036484D02*
X10274824Y-13026960D01*
X10274824Y-13026960D02*
X10265301Y-13017436D01*
X10265301Y-13017436D02*
X10255777Y-12998388D01*
X10255777Y-12998388D02*
X10246253Y-12960293D01*
X10246253Y-12960293D02*
X10246253Y-12912674D01*
X10246253Y-12912674D02*
X10255777Y-12874579D01*
X10255777Y-12874579D02*
X10265301Y-12855531D01*
X10265301Y-12855531D02*
X10274824Y-12846008D01*
X10274824Y-12846008D02*
X10293872Y-12836484D01*
X10446253Y-13017436D02*
X10455777Y-13026960D01*
X10455777Y-13026960D02*
X10446253Y-13036484D01*
X10446253Y-13036484D02*
X10436729Y-13026960D01*
X10436729Y-13026960D02*
X10446253Y-13017436D01*
X10446253Y-13017436D02*
X10446253Y-13036484D01*
X10551015Y-13036484D02*
X10589110Y-13036484D01*
X10589110Y-13036484D02*
X10608158Y-13026960D01*
X10608158Y-13026960D02*
X10617682Y-13017436D01*
X10617682Y-13017436D02*
X10636729Y-12988865D01*
X10636729Y-12988865D02*
X10646253Y-12950769D01*
X10646253Y-12950769D02*
X10646253Y-12874579D01*
X10646253Y-12874579D02*
X10636729Y-12855531D01*
X10636729Y-12855531D02*
X10627205Y-12846008D01*
X10627205Y-12846008D02*
X10608158Y-12836484D01*
X10608158Y-12836484D02*
X10570063Y-12836484D01*
X10570063Y-12836484D02*
X10551015Y-12846008D01*
X10551015Y-12846008D02*
X10541491Y-12855531D01*
X10541491Y-12855531D02*
X10531967Y-12874579D01*
X10531967Y-12874579D02*
X10531967Y-12922198D01*
X10531967Y-12922198D02*
X10541491Y-12941246D01*
X10541491Y-12941246D02*
X10551015Y-12950769D01*
X10551015Y-12950769D02*
X10570063Y-12960293D01*
X10570063Y-12960293D02*
X10608158Y-12960293D01*
X10608158Y-12960293D02*
X10627205Y-12950769D01*
X10627205Y-12950769D02*
X10636729Y-12941246D01*
X10636729Y-12941246D02*
X10646253Y-12922198D01*
X10770063Y-12836484D02*
X10789110Y-12836484D01*
X10789110Y-12836484D02*
X10808158Y-12846008D01*
X10808158Y-12846008D02*
X10817682Y-12855531D01*
X10817682Y-12855531D02*
X10827205Y-12874579D01*
X10827205Y-12874579D02*
X10836729Y-12912674D01*
X10836729Y-12912674D02*
X10836729Y-12960293D01*
X10836729Y-12960293D02*
X10827205Y-12998388D01*
X10827205Y-12998388D02*
X10817682Y-13017436D01*
X10817682Y-13017436D02*
X10808158Y-13026960D01*
X10808158Y-13026960D02*
X10789110Y-13036484D01*
X10789110Y-13036484D02*
X10770063Y-13036484D01*
X10770063Y-13036484D02*
X10751015Y-13026960D01*
X10751015Y-13026960D02*
X10741491Y-13017436D01*
X10741491Y-13017436D02*
X10731967Y-12998388D01*
X10731967Y-12998388D02*
X10722444Y-12960293D01*
X10722444Y-12960293D02*
X10722444Y-12912674D01*
X10722444Y-12912674D02*
X10731967Y-12874579D01*
X10731967Y-12874579D02*
X10741491Y-12855531D01*
X10741491Y-12855531D02*
X10751015Y-12846008D01*
X10751015Y-12846008D02*
X10770063Y-12836484D01*
X10960539Y-12836484D02*
X10979586Y-12836484D01*
X10979586Y-12836484D02*
X10998634Y-12846008D01*
X10998634Y-12846008D02*
X11008158Y-12855531D01*
X11008158Y-12855531D02*
X11017682Y-12874579D01*
X11017682Y-12874579D02*
X11027205Y-12912674D01*
X11027205Y-12912674D02*
X11027205Y-12960293D01*
X11027205Y-12960293D02*
X11017682Y-12998388D01*
X11017682Y-12998388D02*
X11008158Y-13017436D01*
X11008158Y-13017436D02*
X10998634Y-13026960D01*
X10998634Y-13026960D02*
X10979586Y-13036484D01*
X10979586Y-13036484D02*
X10960539Y-13036484D01*
X10960539Y-13036484D02*
X10941491Y-13026960D01*
X10941491Y-13026960D02*
X10931967Y-13017436D01*
X10931967Y-13017436D02*
X10922444Y-12998388D01*
X10922444Y-12998388D02*
X10912920Y-12960293D01*
X10912920Y-12960293D02*
X10912920Y-12912674D01*
X10912920Y-12912674D02*
X10922444Y-12874579D01*
X10922444Y-12874579D02*
X10931967Y-12855531D01*
X10931967Y-12855531D02*
X10941491Y-12846008D01*
X10941491Y-12846008D02*
X10960539Y-12836484D01*
X11112920Y-13036484D02*
X11112920Y-12903150D01*
X11112920Y-12922198D02*
X11122444Y-12912674D01*
X11122444Y-12912674D02*
X11141491Y-12903150D01*
X11141491Y-12903150D02*
X11170063Y-12903150D01*
X11170063Y-12903150D02*
X11189110Y-12912674D01*
X11189110Y-12912674D02*
X11198634Y-12931722D01*
X11198634Y-12931722D02*
X11198634Y-13036484D01*
X11198634Y-12931722D02*
X11208158Y-12912674D01*
X11208158Y-12912674D02*
X11227205Y-12903150D01*
X11227205Y-12903150D02*
X11255777Y-12903150D01*
X11255777Y-12903150D02*
X11274824Y-12912674D01*
X11274824Y-12912674D02*
X11284348Y-12931722D01*
X11284348Y-12931722D02*
X11284348Y-13036484D01*
X11379586Y-13036484D02*
X11379586Y-12903150D01*
X11379586Y-12922198D02*
X11389110Y-12912674D01*
X11389110Y-12912674D02*
X11408158Y-12903150D01*
X11408158Y-12903150D02*
X11436729Y-12903150D01*
X11436729Y-12903150D02*
X11455777Y-12912674D01*
X11455777Y-12912674D02*
X11465301Y-12931722D01*
X11465301Y-12931722D02*
X11465301Y-13036484D01*
X11465301Y-12931722D02*
X11474824Y-12912674D01*
X11474824Y-12912674D02*
X11493872Y-12903150D01*
X11493872Y-12903150D02*
X11522443Y-12903150D01*
X11522443Y-12903150D02*
X11541491Y-12912674D01*
X11541491Y-12912674D02*
X11551015Y-12931722D01*
X11551015Y-12931722D02*
X11551015Y-13036484D01*
X11941491Y-12826960D02*
X11770063Y-13084103D01*
X12198634Y-12836484D02*
X12217682Y-12836484D01*
X12217682Y-12836484D02*
X12236729Y-12846008D01*
X12236729Y-12846008D02*
X12246253Y-12855531D01*
X12246253Y-12855531D02*
X12255777Y-12874579D01*
X12255777Y-12874579D02*
X12265301Y-12912674D01*
X12265301Y-12912674D02*
X12265301Y-12960293D01*
X12265301Y-12960293D02*
X12255777Y-12998388D01*
X12255777Y-12998388D02*
X12246253Y-13017436D01*
X12246253Y-13017436D02*
X12236729Y-13026960D01*
X12236729Y-13026960D02*
X12217682Y-13036484D01*
X12217682Y-13036484D02*
X12198634Y-13036484D01*
X12198634Y-13036484D02*
X12179586Y-13026960D01*
X12179586Y-13026960D02*
X12170063Y-13017436D01*
X12170063Y-13017436D02*
X12160539Y-12998388D01*
X12160539Y-12998388D02*
X12151015Y-12960293D01*
X12151015Y-12960293D02*
X12151015Y-12912674D01*
X12151015Y-12912674D02*
X12160539Y-12874579D01*
X12160539Y-12874579D02*
X12170063Y-12855531D01*
X12170063Y-12855531D02*
X12179586Y-12846008D01*
X12179586Y-12846008D02*
X12198634Y-12836484D01*
X12351015Y-13017436D02*
X12360539Y-13026960D01*
X12360539Y-13026960D02*
X12351015Y-13036484D01*
X12351015Y-13036484D02*
X12341491Y-13026960D01*
X12341491Y-13026960D02*
X12351015Y-13017436D01*
X12351015Y-13017436D02*
X12351015Y-13036484D01*
X12484348Y-12836484D02*
X12503396Y-12836484D01*
X12503396Y-12836484D02*
X12522444Y-12846008D01*
X12522444Y-12846008D02*
X12531967Y-12855531D01*
X12531967Y-12855531D02*
X12541491Y-12874579D01*
X12541491Y-12874579D02*
X12551015Y-12912674D01*
X12551015Y-12912674D02*
X12551015Y-12960293D01*
X12551015Y-12960293D02*
X12541491Y-12998388D01*
X12541491Y-12998388D02*
X12531967Y-13017436D01*
X12531967Y-13017436D02*
X12522444Y-13026960D01*
X12522444Y-13026960D02*
X12503396Y-13036484D01*
X12503396Y-13036484D02*
X12484348Y-13036484D01*
X12484348Y-13036484D02*
X12465301Y-13026960D01*
X12465301Y-13026960D02*
X12455777Y-13017436D01*
X12455777Y-13017436D02*
X12446253Y-12998388D01*
X12446253Y-12998388D02*
X12436729Y-12960293D01*
X12436729Y-12960293D02*
X12436729Y-12912674D01*
X12436729Y-12912674D02*
X12446253Y-12874579D01*
X12446253Y-12874579D02*
X12455777Y-12855531D01*
X12455777Y-12855531D02*
X12465301Y-12846008D01*
X12465301Y-12846008D02*
X12484348Y-12836484D01*
X12617682Y-12836484D02*
X12741491Y-12836484D01*
X12741491Y-12836484D02*
X12674825Y-12912674D01*
X12674825Y-12912674D02*
X12703396Y-12912674D01*
X12703396Y-12912674D02*
X12722444Y-12922198D01*
X12722444Y-12922198D02*
X12731967Y-12931722D01*
X12731967Y-12931722D02*
X12741491Y-12950769D01*
X12741491Y-12950769D02*
X12741491Y-12998388D01*
X12741491Y-12998388D02*
X12731967Y-13017436D01*
X12731967Y-13017436D02*
X12722444Y-13026960D01*
X12722444Y-13026960D02*
X12703396Y-13036484D01*
X12703396Y-13036484D02*
X12646253Y-13036484D01*
X12646253Y-13036484D02*
X12627206Y-13026960D01*
X12627206Y-13026960D02*
X12617682Y-13017436D01*
X12922444Y-12836484D02*
X12827206Y-12836484D01*
X12827206Y-12836484D02*
X12817682Y-12931722D01*
X12817682Y-12931722D02*
X12827206Y-12922198D01*
X12827206Y-12922198D02*
X12846253Y-12912674D01*
X12846253Y-12912674D02*
X12893872Y-12912674D01*
X12893872Y-12912674D02*
X12912920Y-12922198D01*
X12912920Y-12922198D02*
X12922444Y-12931722D01*
X12922444Y-12931722D02*
X12931967Y-12950769D01*
X12931967Y-12950769D02*
X12931967Y-12998388D01*
X12931967Y-12998388D02*
X12922444Y-13017436D01*
X12922444Y-13017436D02*
X12912920Y-13026960D01*
X12912920Y-13026960D02*
X12893872Y-13036484D01*
X12893872Y-13036484D02*
X12846253Y-13036484D01*
X12846253Y-13036484D02*
X12827206Y-13026960D01*
X12827206Y-13026960D02*
X12817682Y-13017436D01*
X13103396Y-12903150D02*
X13103396Y-13036484D01*
X13055777Y-12826960D02*
X13008158Y-12969817D01*
X13008158Y-12969817D02*
X13131967Y-12969817D01*
X13198634Y-12836484D02*
X13198634Y-12874579D01*
X13274825Y-12836484D02*
X13274825Y-12874579D01*
X13570063Y-13112674D02*
X13560539Y-13103150D01*
X13560539Y-13103150D02*
X13541491Y-13074579D01*
X13541491Y-13074579D02*
X13531968Y-13055531D01*
X13531968Y-13055531D02*
X13522444Y-13026960D01*
X13522444Y-13026960D02*
X13512920Y-12979341D01*
X13512920Y-12979341D02*
X13512920Y-12941246D01*
X13512920Y-12941246D02*
X13522444Y-12893627D01*
X13522444Y-12893627D02*
X13531968Y-12865055D01*
X13531968Y-12865055D02*
X13541491Y-12846008D01*
X13541491Y-12846008D02*
X13560539Y-12817436D01*
X13560539Y-12817436D02*
X13570063Y-12807912D01*
X13636729Y-12855531D02*
X13646253Y-12846008D01*
X13646253Y-12846008D02*
X13665301Y-12836484D01*
X13665301Y-12836484D02*
X13712920Y-12836484D01*
X13712920Y-12836484D02*
X13731968Y-12846008D01*
X13731968Y-12846008D02*
X13741491Y-12855531D01*
X13741491Y-12855531D02*
X13751015Y-12874579D01*
X13751015Y-12874579D02*
X13751015Y-12893627D01*
X13751015Y-12893627D02*
X13741491Y-12922198D01*
X13741491Y-12922198D02*
X13627206Y-13036484D01*
X13627206Y-13036484D02*
X13751015Y-13036484D01*
X13989110Y-13036484D02*
X13989110Y-12836484D01*
X14074825Y-13036484D02*
X14074825Y-12931722D01*
X14074825Y-12931722D02*
X14065301Y-12912674D01*
X14065301Y-12912674D02*
X14046253Y-12903150D01*
X14046253Y-12903150D02*
X14017682Y-12903150D01*
X14017682Y-12903150D02*
X13998634Y-12912674D01*
X13998634Y-12912674D02*
X13989110Y-12922198D01*
X14198634Y-13036484D02*
X14179587Y-13026960D01*
X14179587Y-13026960D02*
X14170063Y-13017436D01*
X14170063Y-13017436D02*
X14160539Y-12998388D01*
X14160539Y-12998388D02*
X14160539Y-12941246D01*
X14160539Y-12941246D02*
X14170063Y-12922198D01*
X14170063Y-12922198D02*
X14179587Y-12912674D01*
X14179587Y-12912674D02*
X14198634Y-12903150D01*
X14198634Y-12903150D02*
X14227206Y-12903150D01*
X14227206Y-12903150D02*
X14246253Y-12912674D01*
X14246253Y-12912674D02*
X14255777Y-12922198D01*
X14255777Y-12922198D02*
X14265301Y-12941246D01*
X14265301Y-12941246D02*
X14265301Y-12998388D01*
X14265301Y-12998388D02*
X14255777Y-13017436D01*
X14255777Y-13017436D02*
X14246253Y-13026960D01*
X14246253Y-13026960D02*
X14227206Y-13036484D01*
X14227206Y-13036484D02*
X14198634Y-13036484D01*
X14379587Y-13036484D02*
X14360539Y-13026960D01*
X14360539Y-13026960D02*
X14351015Y-13007912D01*
X14351015Y-13007912D02*
X14351015Y-12836484D01*
X14531968Y-13026960D02*
X14512920Y-13036484D01*
X14512920Y-13036484D02*
X14474825Y-13036484D01*
X14474825Y-13036484D02*
X14455777Y-13026960D01*
X14455777Y-13026960D02*
X14446253Y-13007912D01*
X14446253Y-13007912D02*
X14446253Y-12931722D01*
X14446253Y-12931722D02*
X14455777Y-12912674D01*
X14455777Y-12912674D02*
X14474825Y-12903150D01*
X14474825Y-12903150D02*
X14512920Y-12903150D01*
X14512920Y-12903150D02*
X14531968Y-12912674D01*
X14531968Y-12912674D02*
X14541491Y-12931722D01*
X14541491Y-12931722D02*
X14541491Y-12950769D01*
X14541491Y-12950769D02*
X14446253Y-12969817D01*
X14617682Y-13026960D02*
X14636730Y-13036484D01*
X14636730Y-13036484D02*
X14674825Y-13036484D01*
X14674825Y-13036484D02*
X14693872Y-13026960D01*
X14693872Y-13026960D02*
X14703396Y-13007912D01*
X14703396Y-13007912D02*
X14703396Y-12998388D01*
X14703396Y-12998388D02*
X14693872Y-12979341D01*
X14693872Y-12979341D02*
X14674825Y-12969817D01*
X14674825Y-12969817D02*
X14646253Y-12969817D01*
X14646253Y-12969817D02*
X14627206Y-12960293D01*
X14627206Y-12960293D02*
X14617682Y-12941246D01*
X14617682Y-12941246D02*
X14617682Y-12931722D01*
X14617682Y-12931722D02*
X14627206Y-12912674D01*
X14627206Y-12912674D02*
X14646253Y-12903150D01*
X14646253Y-12903150D02*
X14674825Y-12903150D01*
X14674825Y-12903150D02*
X14693872Y-12912674D01*
X14770063Y-13112674D02*
X14779587Y-13103150D01*
X14779587Y-13103150D02*
X14798634Y-13074579D01*
X14798634Y-13074579D02*
X14808158Y-13055531D01*
X14808158Y-13055531D02*
X14817682Y-13026960D01*
X14817682Y-13026960D02*
X14827206Y-12979341D01*
X14827206Y-12979341D02*
X14827206Y-12941246D01*
X14827206Y-12941246D02*
X14817682Y-12893627D01*
X14817682Y-12893627D02*
X14808158Y-12865055D01*
X14808158Y-12865055D02*
X14798634Y-12846008D01*
X14798634Y-12846008D02*
X14779587Y-12817436D01*
X14779587Y-12817436D02*
X14770063Y-12807912D01*
X15131968Y-13112674D02*
X15122444Y-13103150D01*
X15122444Y-13103150D02*
X15103396Y-13074579D01*
X15103396Y-13074579D02*
X15093872Y-13055531D01*
X15093872Y-13055531D02*
X15084349Y-13026960D01*
X15084349Y-13026960D02*
X15074825Y-12979341D01*
X15074825Y-12979341D02*
X15074825Y-12941246D01*
X15074825Y-12941246D02*
X15084349Y-12893627D01*
X15084349Y-12893627D02*
X15093872Y-12865055D01*
X15093872Y-12865055D02*
X15103396Y-12846008D01*
X15103396Y-12846008D02*
X15122444Y-12817436D01*
X15122444Y-12817436D02*
X15131968Y-12807912D01*
X15208158Y-12903150D02*
X15208158Y-13036484D01*
X15208158Y-12922198D02*
X15217682Y-12912674D01*
X15217682Y-12912674D02*
X15236730Y-12903150D01*
X15236730Y-12903150D02*
X15265301Y-12903150D01*
X15265301Y-12903150D02*
X15284349Y-12912674D01*
X15284349Y-12912674D02*
X15293872Y-12931722D01*
X15293872Y-12931722D02*
X15293872Y-13036484D01*
X15417682Y-13036484D02*
X15398634Y-13026960D01*
X15398634Y-13026960D02*
X15389111Y-13017436D01*
X15389111Y-13017436D02*
X15379587Y-12998388D01*
X15379587Y-12998388D02*
X15379587Y-12941246D01*
X15379587Y-12941246D02*
X15389111Y-12922198D01*
X15389111Y-12922198D02*
X15398634Y-12912674D01*
X15398634Y-12912674D02*
X15417682Y-12903150D01*
X15417682Y-12903150D02*
X15446253Y-12903150D01*
X15446253Y-12903150D02*
X15465301Y-12912674D01*
X15465301Y-12912674D02*
X15474825Y-12922198D01*
X15474825Y-12922198D02*
X15484349Y-12941246D01*
X15484349Y-12941246D02*
X15484349Y-12998388D01*
X15484349Y-12998388D02*
X15474825Y-13017436D01*
X15474825Y-13017436D02*
X15465301Y-13026960D01*
X15465301Y-13026960D02*
X15446253Y-13036484D01*
X15446253Y-13036484D02*
X15417682Y-13036484D01*
X15541492Y-12903150D02*
X15617682Y-12903150D01*
X15570063Y-12836484D02*
X15570063Y-13007912D01*
X15570063Y-13007912D02*
X15579587Y-13026960D01*
X15579587Y-13026960D02*
X15598634Y-13036484D01*
X15598634Y-13036484D02*
X15617682Y-13036484D01*
X15836730Y-12903150D02*
X15836730Y-13103150D01*
X15836730Y-12912674D02*
X15855777Y-12903150D01*
X15855777Y-12903150D02*
X15893873Y-12903150D01*
X15893873Y-12903150D02*
X15912920Y-12912674D01*
X15912920Y-12912674D02*
X15922444Y-12922198D01*
X15922444Y-12922198D02*
X15931968Y-12941246D01*
X15931968Y-12941246D02*
X15931968Y-12998388D01*
X15931968Y-12998388D02*
X15922444Y-13017436D01*
X15922444Y-13017436D02*
X15912920Y-13026960D01*
X15912920Y-13026960D02*
X15893873Y-13036484D01*
X15893873Y-13036484D02*
X15855777Y-13036484D01*
X15855777Y-13036484D02*
X15836730Y-13026960D01*
X16046253Y-13036484D02*
X16027206Y-13026960D01*
X16027206Y-13026960D02*
X16017682Y-13007912D01*
X16017682Y-13007912D02*
X16017682Y-12836484D01*
X16208158Y-13036484D02*
X16208158Y-12931722D01*
X16208158Y-12931722D02*
X16198634Y-12912674D01*
X16198634Y-12912674D02*
X16179587Y-12903150D01*
X16179587Y-12903150D02*
X16141492Y-12903150D01*
X16141492Y-12903150D02*
X16122444Y-12912674D01*
X16208158Y-13026960D02*
X16189111Y-13036484D01*
X16189111Y-13036484D02*
X16141492Y-13036484D01*
X16141492Y-13036484D02*
X16122444Y-13026960D01*
X16122444Y-13026960D02*
X16112920Y-13007912D01*
X16112920Y-13007912D02*
X16112920Y-12988865D01*
X16112920Y-12988865D02*
X16122444Y-12969817D01*
X16122444Y-12969817D02*
X16141492Y-12960293D01*
X16141492Y-12960293D02*
X16189111Y-12960293D01*
X16189111Y-12960293D02*
X16208158Y-12950769D01*
X16274825Y-12903150D02*
X16351015Y-12903150D01*
X16303396Y-12836484D02*
X16303396Y-13007912D01*
X16303396Y-13007912D02*
X16312920Y-13026960D01*
X16312920Y-13026960D02*
X16331968Y-13036484D01*
X16331968Y-13036484D02*
X16351015Y-13036484D01*
X16493873Y-13026960D02*
X16474825Y-13036484D01*
X16474825Y-13036484D02*
X16436730Y-13036484D01*
X16436730Y-13036484D02*
X16417682Y-13026960D01*
X16417682Y-13026960D02*
X16408158Y-13007912D01*
X16408158Y-13007912D02*
X16408158Y-12931722D01*
X16408158Y-12931722D02*
X16417682Y-12912674D01*
X16417682Y-12912674D02*
X16436730Y-12903150D01*
X16436730Y-12903150D02*
X16474825Y-12903150D01*
X16474825Y-12903150D02*
X16493873Y-12912674D01*
X16493873Y-12912674D02*
X16503396Y-12931722D01*
X16503396Y-12931722D02*
X16503396Y-12950769D01*
X16503396Y-12950769D02*
X16408158Y-12969817D01*
X16674825Y-13036484D02*
X16674825Y-12836484D01*
X16674825Y-13026960D02*
X16655777Y-13036484D01*
X16655777Y-13036484D02*
X16617682Y-13036484D01*
X16617682Y-13036484D02*
X16598634Y-13026960D01*
X16598634Y-13026960D02*
X16589111Y-13017436D01*
X16589111Y-13017436D02*
X16579587Y-12998388D01*
X16579587Y-12998388D02*
X16579587Y-12941246D01*
X16579587Y-12941246D02*
X16589111Y-12922198D01*
X16589111Y-12922198D02*
X16598634Y-12912674D01*
X16598634Y-12912674D02*
X16617682Y-12903150D01*
X16617682Y-12903150D02*
X16655777Y-12903150D01*
X16655777Y-12903150D02*
X16674825Y-12912674D01*
X16751015Y-13112674D02*
X16760539Y-13103150D01*
X16760539Y-13103150D02*
X16779587Y-13074579D01*
X16779587Y-13074579D02*
X16789111Y-13055531D01*
X16789111Y-13055531D02*
X16798635Y-13026960D01*
X16798635Y-13026960D02*
X16808158Y-12979341D01*
X16808158Y-12979341D02*
X16808158Y-12941246D01*
X16808158Y-12941246D02*
X16798635Y-12893627D01*
X16798635Y-12893627D02*
X16789111Y-12865055D01*
X16789111Y-12865055D02*
X16779587Y-12846008D01*
X16779587Y-12846008D02*
X16760539Y-12817436D01*
X16760539Y-12817436D02*
X16751015Y-12807912D01*
D10*
X9995000Y-13209000D02*
G75*
G02*
X9895940Y-13209000I-49530J0D01*
G01*
X9895940Y-13209000D02*
G75*
G02*
X9995000Y-13209000I49530J0D01*
G01*
D11*
X10293872Y-13100484D02*
X10312920Y-13100484D01*
X10312920Y-13100484D02*
X10331967Y-13110008D01*
X10331967Y-13110008D02*
X10341491Y-13119531D01*
X10341491Y-13119531D02*
X10351015Y-13138579D01*
X10351015Y-13138579D02*
X10360539Y-13176674D01*
X10360539Y-13176674D02*
X10360539Y-13224293D01*
X10360539Y-13224293D02*
X10351015Y-13262388D01*
X10351015Y-13262388D02*
X10341491Y-13281436D01*
X10341491Y-13281436D02*
X10331967Y-13290960D01*
X10331967Y-13290960D02*
X10312920Y-13300484D01*
X10312920Y-13300484D02*
X10293872Y-13300484D01*
X10293872Y-13300484D02*
X10274824Y-13290960D01*
X10274824Y-13290960D02*
X10265301Y-13281436D01*
X10265301Y-13281436D02*
X10255777Y-13262388D01*
X10255777Y-13262388D02*
X10246253Y-13224293D01*
X10246253Y-13224293D02*
X10246253Y-13176674D01*
X10246253Y-13176674D02*
X10255777Y-13138579D01*
X10255777Y-13138579D02*
X10265301Y-13119531D01*
X10265301Y-13119531D02*
X10274824Y-13110008D01*
X10274824Y-13110008D02*
X10293872Y-13100484D01*
X10446253Y-13281436D02*
X10455777Y-13290960D01*
X10455777Y-13290960D02*
X10446253Y-13300484D01*
X10446253Y-13300484D02*
X10436729Y-13290960D01*
X10436729Y-13290960D02*
X10446253Y-13281436D01*
X10446253Y-13281436D02*
X10446253Y-13300484D01*
X10551015Y-13300484D02*
X10589110Y-13300484D01*
X10589110Y-13300484D02*
X10608158Y-13290960D01*
X10608158Y-13290960D02*
X10617682Y-13281436D01*
X10617682Y-13281436D02*
X10636729Y-13252865D01*
X10636729Y-13252865D02*
X10646253Y-13214769D01*
X10646253Y-13214769D02*
X10646253Y-13138579D01*
X10646253Y-13138579D02*
X10636729Y-13119531D01*
X10636729Y-13119531D02*
X10627205Y-13110008D01*
X10627205Y-13110008D02*
X10608158Y-13100484D01*
X10608158Y-13100484D02*
X10570063Y-13100484D01*
X10570063Y-13100484D02*
X10551015Y-13110008D01*
X10551015Y-13110008D02*
X10541491Y-13119531D01*
X10541491Y-13119531D02*
X10531967Y-13138579D01*
X10531967Y-13138579D02*
X10531967Y-13186198D01*
X10531967Y-13186198D02*
X10541491Y-13205246D01*
X10541491Y-13205246D02*
X10551015Y-13214769D01*
X10551015Y-13214769D02*
X10570063Y-13224293D01*
X10570063Y-13224293D02*
X10608158Y-13224293D01*
X10608158Y-13224293D02*
X10627205Y-13214769D01*
X10627205Y-13214769D02*
X10636729Y-13205246D01*
X10636729Y-13205246D02*
X10646253Y-13186198D01*
X10741491Y-13300484D02*
X10779586Y-13300484D01*
X10779586Y-13300484D02*
X10798634Y-13290960D01*
X10798634Y-13290960D02*
X10808158Y-13281436D01*
X10808158Y-13281436D02*
X10827205Y-13252865D01*
X10827205Y-13252865D02*
X10836729Y-13214769D01*
X10836729Y-13214769D02*
X10836729Y-13138579D01*
X10836729Y-13138579D02*
X10827205Y-13119531D01*
X10827205Y-13119531D02*
X10817682Y-13110008D01*
X10817682Y-13110008D02*
X10798634Y-13100484D01*
X10798634Y-13100484D02*
X10760539Y-13100484D01*
X10760539Y-13100484D02*
X10741491Y-13110008D01*
X10741491Y-13110008D02*
X10731967Y-13119531D01*
X10731967Y-13119531D02*
X10722444Y-13138579D01*
X10722444Y-13138579D02*
X10722444Y-13186198D01*
X10722444Y-13186198D02*
X10731967Y-13205246D01*
X10731967Y-13205246D02*
X10741491Y-13214769D01*
X10741491Y-13214769D02*
X10760539Y-13224293D01*
X10760539Y-13224293D02*
X10798634Y-13224293D01*
X10798634Y-13224293D02*
X10817682Y-13214769D01*
X10817682Y-13214769D02*
X10827205Y-13205246D01*
X10827205Y-13205246D02*
X10836729Y-13186198D01*
X11027205Y-13300484D02*
X10912920Y-13300484D01*
X10970063Y-13300484D02*
X10970063Y-13100484D01*
X10970063Y-13100484D02*
X10951015Y-13129055D01*
X10951015Y-13129055D02*
X10931967Y-13148103D01*
X10931967Y-13148103D02*
X10912920Y-13157627D01*
X11112920Y-13300484D02*
X11112920Y-13167150D01*
X11112920Y-13186198D02*
X11122444Y-13176674D01*
X11122444Y-13176674D02*
X11141491Y-13167150D01*
X11141491Y-13167150D02*
X11170063Y-13167150D01*
X11170063Y-13167150D02*
X11189110Y-13176674D01*
X11189110Y-13176674D02*
X11198634Y-13195722D01*
X11198634Y-13195722D02*
X11198634Y-13300484D01*
X11198634Y-13195722D02*
X11208158Y-13176674D01*
X11208158Y-13176674D02*
X11227205Y-13167150D01*
X11227205Y-13167150D02*
X11255777Y-13167150D01*
X11255777Y-13167150D02*
X11274824Y-13176674D01*
X11274824Y-13176674D02*
X11284348Y-13195722D01*
X11284348Y-13195722D02*
X11284348Y-13300484D01*
X11379586Y-13300484D02*
X11379586Y-13167150D01*
X11379586Y-13186198D02*
X11389110Y-13176674D01*
X11389110Y-13176674D02*
X11408158Y-13167150D01*
X11408158Y-13167150D02*
X11436729Y-13167150D01*
X11436729Y-13167150D02*
X11455777Y-13176674D01*
X11455777Y-13176674D02*
X11465301Y-13195722D01*
X11465301Y-13195722D02*
X11465301Y-13300484D01*
X11465301Y-13195722D02*
X11474824Y-13176674D01*
X11474824Y-13176674D02*
X11493872Y-13167150D01*
X11493872Y-13167150D02*
X11522443Y-13167150D01*
X11522443Y-13167150D02*
X11541491Y-13176674D01*
X11541491Y-13176674D02*
X11551015Y-13195722D01*
X11551015Y-13195722D02*
X11551015Y-13300484D01*
X11941491Y-13090960D02*
X11770063Y-13348103D01*
X12198634Y-13100484D02*
X12217682Y-13100484D01*
X12217682Y-13100484D02*
X12236729Y-13110008D01*
X12236729Y-13110008D02*
X12246253Y-13119531D01*
X12246253Y-13119531D02*
X12255777Y-13138579D01*
X12255777Y-13138579D02*
X12265301Y-13176674D01*
X12265301Y-13176674D02*
X12265301Y-13224293D01*
X12265301Y-13224293D02*
X12255777Y-13262388D01*
X12255777Y-13262388D02*
X12246253Y-13281436D01*
X12246253Y-13281436D02*
X12236729Y-13290960D01*
X12236729Y-13290960D02*
X12217682Y-13300484D01*
X12217682Y-13300484D02*
X12198634Y-13300484D01*
X12198634Y-13300484D02*
X12179586Y-13290960D01*
X12179586Y-13290960D02*
X12170063Y-13281436D01*
X12170063Y-13281436D02*
X12160539Y-13262388D01*
X12160539Y-13262388D02*
X12151015Y-13224293D01*
X12151015Y-13224293D02*
X12151015Y-13176674D01*
X12151015Y-13176674D02*
X12160539Y-13138579D01*
X12160539Y-13138579D02*
X12170063Y-13119531D01*
X12170063Y-13119531D02*
X12179586Y-13110008D01*
X12179586Y-13110008D02*
X12198634Y-13100484D01*
X12351015Y-13281436D02*
X12360539Y-13290960D01*
X12360539Y-13290960D02*
X12351015Y-13300484D01*
X12351015Y-13300484D02*
X12341491Y-13290960D01*
X12341491Y-13290960D02*
X12351015Y-13281436D01*
X12351015Y-13281436D02*
X12351015Y-13300484D01*
X12484348Y-13100484D02*
X12503396Y-13100484D01*
X12503396Y-13100484D02*
X12522444Y-13110008D01*
X12522444Y-13110008D02*
X12531967Y-13119531D01*
X12531967Y-13119531D02*
X12541491Y-13138579D01*
X12541491Y-13138579D02*
X12551015Y-13176674D01*
X12551015Y-13176674D02*
X12551015Y-13224293D01*
X12551015Y-13224293D02*
X12541491Y-13262388D01*
X12541491Y-13262388D02*
X12531967Y-13281436D01*
X12531967Y-13281436D02*
X12522444Y-13290960D01*
X12522444Y-13290960D02*
X12503396Y-13300484D01*
X12503396Y-13300484D02*
X12484348Y-13300484D01*
X12484348Y-13300484D02*
X12465301Y-13290960D01*
X12465301Y-13290960D02*
X12455777Y-13281436D01*
X12455777Y-13281436D02*
X12446253Y-13262388D01*
X12446253Y-13262388D02*
X12436729Y-13224293D01*
X12436729Y-13224293D02*
X12436729Y-13176674D01*
X12436729Y-13176674D02*
X12446253Y-13138579D01*
X12446253Y-13138579D02*
X12455777Y-13119531D01*
X12455777Y-13119531D02*
X12465301Y-13110008D01*
X12465301Y-13110008D02*
X12484348Y-13100484D01*
X12617682Y-13100484D02*
X12741491Y-13100484D01*
X12741491Y-13100484D02*
X12674825Y-13176674D01*
X12674825Y-13176674D02*
X12703396Y-13176674D01*
X12703396Y-13176674D02*
X12722444Y-13186198D01*
X12722444Y-13186198D02*
X12731967Y-13195722D01*
X12731967Y-13195722D02*
X12741491Y-13214769D01*
X12741491Y-13214769D02*
X12741491Y-13262388D01*
X12741491Y-13262388D02*
X12731967Y-13281436D01*
X12731967Y-13281436D02*
X12722444Y-13290960D01*
X12722444Y-13290960D02*
X12703396Y-13300484D01*
X12703396Y-13300484D02*
X12646253Y-13300484D01*
X12646253Y-13300484D02*
X12627206Y-13290960D01*
X12627206Y-13290960D02*
X12617682Y-13281436D01*
X12836729Y-13300484D02*
X12874825Y-13300484D01*
X12874825Y-13300484D02*
X12893872Y-13290960D01*
X12893872Y-13290960D02*
X12903396Y-13281436D01*
X12903396Y-13281436D02*
X12922444Y-13252865D01*
X12922444Y-13252865D02*
X12931967Y-13214769D01*
X12931967Y-13214769D02*
X12931967Y-13138579D01*
X12931967Y-13138579D02*
X12922444Y-13119531D01*
X12922444Y-13119531D02*
X12912920Y-13110008D01*
X12912920Y-13110008D02*
X12893872Y-13100484D01*
X12893872Y-13100484D02*
X12855777Y-13100484D01*
X12855777Y-13100484D02*
X12836729Y-13110008D01*
X12836729Y-13110008D02*
X12827206Y-13119531D01*
X12827206Y-13119531D02*
X12817682Y-13138579D01*
X12817682Y-13138579D02*
X12817682Y-13186198D01*
X12817682Y-13186198D02*
X12827206Y-13205246D01*
X12827206Y-13205246D02*
X12836729Y-13214769D01*
X12836729Y-13214769D02*
X12855777Y-13224293D01*
X12855777Y-13224293D02*
X12893872Y-13224293D01*
X12893872Y-13224293D02*
X12912920Y-13214769D01*
X12912920Y-13214769D02*
X12922444Y-13205246D01*
X12922444Y-13205246D02*
X12931967Y-13186198D01*
X13055777Y-13100484D02*
X13074825Y-13100484D01*
X13074825Y-13100484D02*
X13093872Y-13110008D01*
X13093872Y-13110008D02*
X13103396Y-13119531D01*
X13103396Y-13119531D02*
X13112920Y-13138579D01*
X13112920Y-13138579D02*
X13122444Y-13176674D01*
X13122444Y-13176674D02*
X13122444Y-13224293D01*
X13122444Y-13224293D02*
X13112920Y-13262388D01*
X13112920Y-13262388D02*
X13103396Y-13281436D01*
X13103396Y-13281436D02*
X13093872Y-13290960D01*
X13093872Y-13290960D02*
X13074825Y-13300484D01*
X13074825Y-13300484D02*
X13055777Y-13300484D01*
X13055777Y-13300484D02*
X13036729Y-13290960D01*
X13036729Y-13290960D02*
X13027206Y-13281436D01*
X13027206Y-13281436D02*
X13017682Y-13262388D01*
X13017682Y-13262388D02*
X13008158Y-13224293D01*
X13008158Y-13224293D02*
X13008158Y-13176674D01*
X13008158Y-13176674D02*
X13017682Y-13138579D01*
X13017682Y-13138579D02*
X13027206Y-13119531D01*
X13027206Y-13119531D02*
X13036729Y-13110008D01*
X13036729Y-13110008D02*
X13055777Y-13100484D01*
X13198634Y-13100484D02*
X13198634Y-13138579D01*
X13274825Y-13100484D02*
X13274825Y-13138579D01*
X13570063Y-13376674D02*
X13560539Y-13367150D01*
X13560539Y-13367150D02*
X13541491Y-13338579D01*
X13541491Y-13338579D02*
X13531968Y-13319531D01*
X13531968Y-13319531D02*
X13522444Y-13290960D01*
X13522444Y-13290960D02*
X13512920Y-13243341D01*
X13512920Y-13243341D02*
X13512920Y-13205246D01*
X13512920Y-13205246D02*
X13522444Y-13157627D01*
X13522444Y-13157627D02*
X13531968Y-13129055D01*
X13531968Y-13129055D02*
X13541491Y-13110008D01*
X13541491Y-13110008D02*
X13560539Y-13081436D01*
X13560539Y-13081436D02*
X13570063Y-13071912D01*
X13627206Y-13100484D02*
X13751015Y-13100484D01*
X13751015Y-13100484D02*
X13684348Y-13176674D01*
X13684348Y-13176674D02*
X13712920Y-13176674D01*
X13712920Y-13176674D02*
X13731968Y-13186198D01*
X13731968Y-13186198D02*
X13741491Y-13195722D01*
X13741491Y-13195722D02*
X13751015Y-13214769D01*
X13751015Y-13214769D02*
X13751015Y-13262388D01*
X13751015Y-13262388D02*
X13741491Y-13281436D01*
X13741491Y-13281436D02*
X13731968Y-13290960D01*
X13731968Y-13290960D02*
X13712920Y-13300484D01*
X13712920Y-13300484D02*
X13655777Y-13300484D01*
X13655777Y-13300484D02*
X13636729Y-13290960D01*
X13636729Y-13290960D02*
X13627206Y-13281436D01*
X13989110Y-13300484D02*
X13989110Y-13100484D01*
X14074825Y-13300484D02*
X14074825Y-13195722D01*
X14074825Y-13195722D02*
X14065301Y-13176674D01*
X14065301Y-13176674D02*
X14046253Y-13167150D01*
X14046253Y-13167150D02*
X14017682Y-13167150D01*
X14017682Y-13167150D02*
X13998634Y-13176674D01*
X13998634Y-13176674D02*
X13989110Y-13186198D01*
X14198634Y-13300484D02*
X14179587Y-13290960D01*
X14179587Y-13290960D02*
X14170063Y-13281436D01*
X14170063Y-13281436D02*
X14160539Y-13262388D01*
X14160539Y-13262388D02*
X14160539Y-13205246D01*
X14160539Y-13205246D02*
X14170063Y-13186198D01*
X14170063Y-13186198D02*
X14179587Y-13176674D01*
X14179587Y-13176674D02*
X14198634Y-13167150D01*
X14198634Y-13167150D02*
X14227206Y-13167150D01*
X14227206Y-13167150D02*
X14246253Y-13176674D01*
X14246253Y-13176674D02*
X14255777Y-13186198D01*
X14255777Y-13186198D02*
X14265301Y-13205246D01*
X14265301Y-13205246D02*
X14265301Y-13262388D01*
X14265301Y-13262388D02*
X14255777Y-13281436D01*
X14255777Y-13281436D02*
X14246253Y-13290960D01*
X14246253Y-13290960D02*
X14227206Y-13300484D01*
X14227206Y-13300484D02*
X14198634Y-13300484D01*
X14379587Y-13300484D02*
X14360539Y-13290960D01*
X14360539Y-13290960D02*
X14351015Y-13271912D01*
X14351015Y-13271912D02*
X14351015Y-13100484D01*
X14531968Y-13290960D02*
X14512920Y-13300484D01*
X14512920Y-13300484D02*
X14474825Y-13300484D01*
X14474825Y-13300484D02*
X14455777Y-13290960D01*
X14455777Y-13290960D02*
X14446253Y-13271912D01*
X14446253Y-13271912D02*
X14446253Y-13195722D01*
X14446253Y-13195722D02*
X14455777Y-13176674D01*
X14455777Y-13176674D02*
X14474825Y-13167150D01*
X14474825Y-13167150D02*
X14512920Y-13167150D01*
X14512920Y-13167150D02*
X14531968Y-13176674D01*
X14531968Y-13176674D02*
X14541491Y-13195722D01*
X14541491Y-13195722D02*
X14541491Y-13214769D01*
X14541491Y-13214769D02*
X14446253Y-13233817D01*
X14617682Y-13290960D02*
X14636730Y-13300484D01*
X14636730Y-13300484D02*
X14674825Y-13300484D01*
X14674825Y-13300484D02*
X14693872Y-13290960D01*
X14693872Y-13290960D02*
X14703396Y-13271912D01*
X14703396Y-13271912D02*
X14703396Y-13262388D01*
X14703396Y-13262388D02*
X14693872Y-13243341D01*
X14693872Y-13243341D02*
X14674825Y-13233817D01*
X14674825Y-13233817D02*
X14646253Y-13233817D01*
X14646253Y-13233817D02*
X14627206Y-13224293D01*
X14627206Y-13224293D02*
X14617682Y-13205246D01*
X14617682Y-13205246D02*
X14617682Y-13195722D01*
X14617682Y-13195722D02*
X14627206Y-13176674D01*
X14627206Y-13176674D02*
X14646253Y-13167150D01*
X14646253Y-13167150D02*
X14674825Y-13167150D01*
X14674825Y-13167150D02*
X14693872Y-13176674D01*
X14770063Y-13376674D02*
X14779587Y-13367150D01*
X14779587Y-13367150D02*
X14798634Y-13338579D01*
X14798634Y-13338579D02*
X14808158Y-13319531D01*
X14808158Y-13319531D02*
X14817682Y-13290960D01*
X14817682Y-13290960D02*
X14827206Y-13243341D01*
X14827206Y-13243341D02*
X14827206Y-13205246D01*
X14827206Y-13205246D02*
X14817682Y-13157627D01*
X14817682Y-13157627D02*
X14808158Y-13129055D01*
X14808158Y-13129055D02*
X14798634Y-13110008D01*
X14798634Y-13110008D02*
X14779587Y-13081436D01*
X14779587Y-13081436D02*
X14770063Y-13071912D01*
X15131968Y-13376674D02*
X15122444Y-13367150D01*
X15122444Y-13367150D02*
X15103396Y-13338579D01*
X15103396Y-13338579D02*
X15093872Y-13319531D01*
X15093872Y-13319531D02*
X15084349Y-13290960D01*
X15084349Y-13290960D02*
X15074825Y-13243341D01*
X15074825Y-13243341D02*
X15074825Y-13205246D01*
X15074825Y-13205246D02*
X15084349Y-13157627D01*
X15084349Y-13157627D02*
X15093872Y-13129055D01*
X15093872Y-13129055D02*
X15103396Y-13110008D01*
X15103396Y-13110008D02*
X15122444Y-13081436D01*
X15122444Y-13081436D02*
X15131968Y-13071912D01*
X15208158Y-13167150D02*
X15208158Y-13300484D01*
X15208158Y-13186198D02*
X15217682Y-13176674D01*
X15217682Y-13176674D02*
X15236730Y-13167150D01*
X15236730Y-13167150D02*
X15265301Y-13167150D01*
X15265301Y-13167150D02*
X15284349Y-13176674D01*
X15284349Y-13176674D02*
X15293872Y-13195722D01*
X15293872Y-13195722D02*
X15293872Y-13300484D01*
X15417682Y-13300484D02*
X15398634Y-13290960D01*
X15398634Y-13290960D02*
X15389111Y-13281436D01*
X15389111Y-13281436D02*
X15379587Y-13262388D01*
X15379587Y-13262388D02*
X15379587Y-13205246D01*
X15379587Y-13205246D02*
X15389111Y-13186198D01*
X15389111Y-13186198D02*
X15398634Y-13176674D01*
X15398634Y-13176674D02*
X15417682Y-13167150D01*
X15417682Y-13167150D02*
X15446253Y-13167150D01*
X15446253Y-13167150D02*
X15465301Y-13176674D01*
X15465301Y-13176674D02*
X15474825Y-13186198D01*
X15474825Y-13186198D02*
X15484349Y-13205246D01*
X15484349Y-13205246D02*
X15484349Y-13262388D01*
X15484349Y-13262388D02*
X15474825Y-13281436D01*
X15474825Y-13281436D02*
X15465301Y-13290960D01*
X15465301Y-13290960D02*
X15446253Y-13300484D01*
X15446253Y-13300484D02*
X15417682Y-13300484D01*
X15541492Y-13167150D02*
X15617682Y-13167150D01*
X15570063Y-13100484D02*
X15570063Y-13271912D01*
X15570063Y-13271912D02*
X15579587Y-13290960D01*
X15579587Y-13290960D02*
X15598634Y-13300484D01*
X15598634Y-13300484D02*
X15617682Y-13300484D01*
X15836730Y-13167150D02*
X15836730Y-13367150D01*
X15836730Y-13176674D02*
X15855777Y-13167150D01*
X15855777Y-13167150D02*
X15893873Y-13167150D01*
X15893873Y-13167150D02*
X15912920Y-13176674D01*
X15912920Y-13176674D02*
X15922444Y-13186198D01*
X15922444Y-13186198D02*
X15931968Y-13205246D01*
X15931968Y-13205246D02*
X15931968Y-13262388D01*
X15931968Y-13262388D02*
X15922444Y-13281436D01*
X15922444Y-13281436D02*
X15912920Y-13290960D01*
X15912920Y-13290960D02*
X15893873Y-13300484D01*
X15893873Y-13300484D02*
X15855777Y-13300484D01*
X15855777Y-13300484D02*
X15836730Y-13290960D01*
X16046253Y-13300484D02*
X16027206Y-13290960D01*
X16027206Y-13290960D02*
X16017682Y-13271912D01*
X16017682Y-13271912D02*
X16017682Y-13100484D01*
X16208158Y-13300484D02*
X16208158Y-13195722D01*
X16208158Y-13195722D02*
X16198634Y-13176674D01*
X16198634Y-13176674D02*
X16179587Y-13167150D01*
X16179587Y-13167150D02*
X16141492Y-13167150D01*
X16141492Y-13167150D02*
X16122444Y-13176674D01*
X16208158Y-13290960D02*
X16189111Y-13300484D01*
X16189111Y-13300484D02*
X16141492Y-13300484D01*
X16141492Y-13300484D02*
X16122444Y-13290960D01*
X16122444Y-13290960D02*
X16112920Y-13271912D01*
X16112920Y-13271912D02*
X16112920Y-13252865D01*
X16112920Y-13252865D02*
X16122444Y-13233817D01*
X16122444Y-13233817D02*
X16141492Y-13224293D01*
X16141492Y-13224293D02*
X16189111Y-13224293D01*
X16189111Y-13224293D02*
X16208158Y-13214769D01*
X16274825Y-13167150D02*
X16351015Y-13167150D01*
X16303396Y-13100484D02*
X16303396Y-13271912D01*
X16303396Y-13271912D02*
X16312920Y-13290960D01*
X16312920Y-13290960D02*
X16331968Y-13300484D01*
X16331968Y-13300484D02*
X16351015Y-13300484D01*
X16493873Y-13290960D02*
X16474825Y-13300484D01*
X16474825Y-13300484D02*
X16436730Y-13300484D01*
X16436730Y-13300484D02*
X16417682Y-13290960D01*
X16417682Y-13290960D02*
X16408158Y-13271912D01*
X16408158Y-13271912D02*
X16408158Y-13195722D01*
X16408158Y-13195722D02*
X16417682Y-13176674D01*
X16417682Y-13176674D02*
X16436730Y-13167150D01*
X16436730Y-13167150D02*
X16474825Y-13167150D01*
X16474825Y-13167150D02*
X16493873Y-13176674D01*
X16493873Y-13176674D02*
X16503396Y-13195722D01*
X16503396Y-13195722D02*
X16503396Y-13214769D01*
X16503396Y-13214769D02*
X16408158Y-13233817D01*
X16674825Y-13300484D02*
X16674825Y-13100484D01*
X16674825Y-13290960D02*
X16655777Y-13300484D01*
X16655777Y-13300484D02*
X16617682Y-13300484D01*
X16617682Y-13300484D02*
X16598634Y-13290960D01*
X16598634Y-13290960D02*
X16589111Y-13281436D01*
X16589111Y-13281436D02*
X16579587Y-13262388D01*
X16579587Y-13262388D02*
X16579587Y-13205246D01*
X16579587Y-13205246D02*
X16589111Y-13186198D01*
X16589111Y-13186198D02*
X16598634Y-13176674D01*
X16598634Y-13176674D02*
X16617682Y-13167150D01*
X16617682Y-13167150D02*
X16655777Y-13167150D01*
X16655777Y-13167150D02*
X16674825Y-13176674D01*
X16751015Y-13376674D02*
X16760539Y-13367150D01*
X16760539Y-13367150D02*
X16779587Y-13338579D01*
X16779587Y-13338579D02*
X16789111Y-13319531D01*
X16789111Y-13319531D02*
X16798635Y-13290960D01*
X16798635Y-13290960D02*
X16808158Y-13243341D01*
X16808158Y-13243341D02*
X16808158Y-13205246D01*
X16808158Y-13205246D02*
X16798635Y-13157627D01*
X16798635Y-13157627D02*
X16789111Y-13129055D01*
X16789111Y-13129055D02*
X16779587Y-13110008D01*
X16779587Y-13110008D02*
X16760539Y-13081436D01*
X16760539Y-13081436D02*
X16751015Y-13071912D01*
M02*
