M48
; DRILL file {KiCad 8.0.1} date 2024-07-01T16:07:55-0400
; FORMAT={-:-/ absolute / inch / decimal}
; #@! TF.CreationDate,2024-07-01T16:07:55-04:00
; #@! TF.GenerationSoftware,Kicad,Pcbnew,8.0.1
; #@! TF.FileFunction,Plated,1,2,PTH
FMAT,2
INCH
; #@! TA.AperFunction,Plated,PTH,ViaDrill
T1C0.0130
%
G90
G05
T1
X4.0157Y-4.0157
X4.0157Y-4.0945
X4.0157Y-4.1732
X4.0157Y-4.4488
X4.0157Y-4.5276
X4.0157Y-4.7244
X4.0157Y-4.8031
X4.0945Y-4.0157
X4.0945Y-4.0945
X4.0945Y-4.1732
X4.0945Y-4.4488
X4.0945Y-4.7244
X4.0945Y-4.8031
X4.1709Y-4.6343
X4.1732Y-4.0157
X4.1732Y-4.0945
X4.1732Y-4.1732
X4.1732Y-4.4488
X4.1732Y-4.7244
X4.1732Y-4.8031
X4.2303Y-4.248
X4.252Y-4.7244
X4.252Y-4.8031
X4.3091Y-4.248
X4.3297Y-4.1585
X4.3307Y-4.3307
X4.3878Y-4.248
X4.5059Y-4.4646
X4.5276Y-4.3209
X4.6209Y-4.5598
X4.6457Y-4.3898
X4.7638Y-4.7244
X4.7638Y-4.8031
X4.8028Y-4.4874
X4.8031Y-4.3504
X4.8425Y-4.7244
X4.8425Y-4.8031
X4.9016Y-4.3504
X4.9016Y-4.4469
X4.9409Y-3.9961
X4.9409Y-4.1535
X4.9409Y-4.2323
X5.0197Y-3.9961
X5.0197Y-4.1535
X5.0197Y-4.2323
M30
