%TF.GenerationSoftware,KiCad,Pcbnew,8.0.1*%
%TF.CreationDate,2024-07-01T16:07:56-04:00*%
%TF.ProjectId,V1,56312e6b-6963-4616-945f-706362585858,rev?*%
%TF.SameCoordinates,Original*%
%TF.FileFunction,Drillmap*%
%TF.FilePolarity,Positive*%
%FSLAX45Y45*%
G04 Gerber Fmt 4.5, Leading zero omitted, Abs format (unit mm)*
G04 Created by KiCad (PCBNEW 8.0.1) date 2024-07-01 16:07:56*
%MOMM*%
%LPD*%
G01*
G04 APERTURE LIST*
%ADD10C,0.100000*%
%ADD11C,0.200000*%
G04 APERTURE END LIST*
D10*
X11000000Y-12300000D02*
X11000000Y-11900000D01*
X10290000Y-11000000D02*
G75*
G02*
X10110000Y-11000000I-90000J0D01*
G01*
X10110000Y-11000000D02*
G75*
G02*
X10290000Y-11000000I90000J0D01*
G01*
X11000000Y-11900000D02*
X11890000Y-11900000D01*
X12890000Y-12300000D02*
X12890000Y-10000000D01*
X11890000Y-12300000D02*
X12890000Y-12300000D01*
X12780000Y-11000000D02*
G75*
G02*
X12600000Y-11000000I-90000J0D01*
G01*
X12600000Y-11000000D02*
G75*
G02*
X12780000Y-11000000I90000J0D01*
G01*
X10000000Y-10000000D02*
X10000000Y-12300000D01*
X11890000Y-11900000D02*
X11890000Y-12300000D01*
X12890000Y-10000000D02*
X10000000Y-10000000D01*
X10000000Y-12300000D02*
X11000000Y-12300000D01*
D11*
D10*
X10183490Y-10183490D02*
X10216510Y-10216510D01*
X10216510Y-10183490D02*
X10183490Y-10216510D01*
X10183490Y-10383490D02*
X10216510Y-10416510D01*
X10216510Y-10383490D02*
X10183490Y-10416510D01*
X10183490Y-10583490D02*
X10216510Y-10616510D01*
X10216510Y-10583490D02*
X10183490Y-10616510D01*
X10183490Y-11283490D02*
X10216510Y-11316510D01*
X10216510Y-11283490D02*
X10183490Y-11316510D01*
X10183490Y-11483490D02*
X10216510Y-11516510D01*
X10216510Y-11483490D02*
X10183490Y-11516510D01*
X10183490Y-11983490D02*
X10216510Y-12016510D01*
X10216510Y-11983490D02*
X10183490Y-12016510D01*
X10183490Y-12183490D02*
X10216510Y-12216510D01*
X10216510Y-12183490D02*
X10183490Y-12216510D01*
X10383490Y-10183490D02*
X10416510Y-10216510D01*
X10416510Y-10183490D02*
X10383490Y-10216510D01*
X10383490Y-10383490D02*
X10416510Y-10416510D01*
X10416510Y-10383490D02*
X10383490Y-10416510D01*
X10383490Y-10583490D02*
X10416510Y-10616510D01*
X10416510Y-10583490D02*
X10383490Y-10616510D01*
X10383490Y-11283490D02*
X10416510Y-11316510D01*
X10416510Y-11283490D02*
X10383490Y-11316510D01*
X10383490Y-11983490D02*
X10416510Y-12016510D01*
X10416510Y-11983490D02*
X10383490Y-12016510D01*
X10383490Y-12183490D02*
X10416510Y-12216510D01*
X10416510Y-12183490D02*
X10383490Y-12216510D01*
X10577490Y-11754490D02*
X10610510Y-11787510D01*
X10610510Y-11754490D02*
X10577490Y-11787510D01*
X10583490Y-10183490D02*
X10616510Y-10216510D01*
X10616510Y-10183490D02*
X10583490Y-10216510D01*
X10583490Y-10383490D02*
X10616510Y-10416510D01*
X10616510Y-10383490D02*
X10583490Y-10416510D01*
X10583490Y-10583490D02*
X10616510Y-10616510D01*
X10616510Y-10583490D02*
X10583490Y-10616510D01*
X10583490Y-11283490D02*
X10616510Y-11316510D01*
X10616510Y-11283490D02*
X10583490Y-11316510D01*
X10583490Y-11983490D02*
X10616510Y-12016510D01*
X10616510Y-11983490D02*
X10583490Y-12016510D01*
X10583490Y-12183490D02*
X10616510Y-12216510D01*
X10616510Y-12183490D02*
X10583490Y-12216510D01*
X10728490Y-10773490D02*
X10761510Y-10806510D01*
X10761510Y-10773490D02*
X10728490Y-10806510D01*
X10783490Y-11983490D02*
X10816510Y-12016510D01*
X10816510Y-11983490D02*
X10783490Y-12016510D01*
X10783490Y-12183490D02*
X10816510Y-12216510D01*
X10816510Y-12183490D02*
X10783490Y-12216510D01*
X10928490Y-10773490D02*
X10961510Y-10806510D01*
X10961510Y-10773490D02*
X10928490Y-10806510D01*
X10980990Y-10545990D02*
X11014010Y-10579010D01*
X11014010Y-10545990D02*
X10980990Y-10579010D01*
X10983490Y-10983490D02*
X11016510Y-11016510D01*
X11016510Y-10983490D02*
X10983490Y-11016510D01*
X11128490Y-10773490D02*
X11161510Y-10806510D01*
X11161510Y-10773490D02*
X11128490Y-10806510D01*
X11428490Y-11323490D02*
X11461510Y-11356510D01*
X11461510Y-11323490D02*
X11428490Y-11356510D01*
X11483490Y-10958490D02*
X11516510Y-10991510D01*
X11516510Y-10958490D02*
X11483490Y-10991510D01*
X11720490Y-11565490D02*
X11753510Y-11598510D01*
X11753510Y-11565490D02*
X11720490Y-11598510D01*
X11783490Y-11133490D02*
X11816510Y-11166510D01*
X11816510Y-11133490D02*
X11783490Y-11166510D01*
X12083490Y-11983490D02*
X12116510Y-12016510D01*
X12116510Y-11983490D02*
X12083490Y-12016510D01*
X12083490Y-12183490D02*
X12116510Y-12216510D01*
X12116510Y-12183490D02*
X12083490Y-12216510D01*
X12182490Y-11381490D02*
X12215510Y-11414510D01*
X12215510Y-11381490D02*
X12182490Y-11414510D01*
X12183490Y-11033490D02*
X12216510Y-11066510D01*
X12216510Y-11033490D02*
X12183490Y-11066510D01*
X12283490Y-11983490D02*
X12316510Y-12016510D01*
X12316510Y-11983490D02*
X12283490Y-12016510D01*
X12283490Y-12183490D02*
X12316510Y-12216510D01*
X12316510Y-12183490D02*
X12283490Y-12216510D01*
X12433490Y-11033490D02*
X12466510Y-11066510D01*
X12466510Y-11033490D02*
X12433490Y-11066510D01*
X12433490Y-11278490D02*
X12466510Y-11311510D01*
X12466510Y-11278490D02*
X12433490Y-11311510D01*
X12533490Y-10133490D02*
X12566510Y-10166510D01*
X12566510Y-10133490D02*
X12533490Y-10166510D01*
X12533490Y-10533490D02*
X12566510Y-10566510D01*
X12566510Y-10533490D02*
X12533490Y-10566510D01*
X12533490Y-10733490D02*
X12566510Y-10766510D01*
X12566510Y-10733490D02*
X12533490Y-10766510D01*
X12733490Y-10133490D02*
X12766510Y-10166510D01*
X12766510Y-10133490D02*
X12733490Y-10166510D01*
X12733490Y-10533490D02*
X12766510Y-10566510D01*
X12766510Y-10533490D02*
X12733490Y-10566510D01*
X12733490Y-10733490D02*
X12766510Y-10766510D01*
X12766510Y-10733490D02*
X12733490Y-10766510D01*
D11*
X10255777Y-12616484D02*
X10255777Y-12416484D01*
X10255777Y-12416484D02*
X10303396Y-12416484D01*
X10303396Y-12416484D02*
X10331967Y-12426008D01*
X10331967Y-12426008D02*
X10351015Y-12445055D01*
X10351015Y-12445055D02*
X10360539Y-12464103D01*
X10360539Y-12464103D02*
X10370063Y-12502198D01*
X10370063Y-12502198D02*
X10370063Y-12530769D01*
X10370063Y-12530769D02*
X10360539Y-12568865D01*
X10360539Y-12568865D02*
X10351015Y-12587912D01*
X10351015Y-12587912D02*
X10331967Y-12606960D01*
X10331967Y-12606960D02*
X10303396Y-12616484D01*
X10303396Y-12616484D02*
X10255777Y-12616484D01*
X10455777Y-12616484D02*
X10455777Y-12483150D01*
X10455777Y-12521246D02*
X10465301Y-12502198D01*
X10465301Y-12502198D02*
X10474824Y-12492674D01*
X10474824Y-12492674D02*
X10493872Y-12483150D01*
X10493872Y-12483150D02*
X10512920Y-12483150D01*
X10579586Y-12616484D02*
X10579586Y-12483150D01*
X10579586Y-12416484D02*
X10570063Y-12426008D01*
X10570063Y-12426008D02*
X10579586Y-12435531D01*
X10579586Y-12435531D02*
X10589110Y-12426008D01*
X10589110Y-12426008D02*
X10579586Y-12416484D01*
X10579586Y-12416484D02*
X10579586Y-12435531D01*
X10703396Y-12616484D02*
X10684348Y-12606960D01*
X10684348Y-12606960D02*
X10674824Y-12587912D01*
X10674824Y-12587912D02*
X10674824Y-12416484D01*
X10808158Y-12616484D02*
X10789110Y-12606960D01*
X10789110Y-12606960D02*
X10779586Y-12587912D01*
X10779586Y-12587912D02*
X10779586Y-12416484D01*
X11036729Y-12616484D02*
X11036729Y-12416484D01*
X11036729Y-12416484D02*
X11103396Y-12559341D01*
X11103396Y-12559341D02*
X11170063Y-12416484D01*
X11170063Y-12416484D02*
X11170063Y-12616484D01*
X11351015Y-12616484D02*
X11351015Y-12511722D01*
X11351015Y-12511722D02*
X11341491Y-12492674D01*
X11341491Y-12492674D02*
X11322443Y-12483150D01*
X11322443Y-12483150D02*
X11284348Y-12483150D01*
X11284348Y-12483150D02*
X11265301Y-12492674D01*
X11351015Y-12606960D02*
X11331967Y-12616484D01*
X11331967Y-12616484D02*
X11284348Y-12616484D01*
X11284348Y-12616484D02*
X11265301Y-12606960D01*
X11265301Y-12606960D02*
X11255777Y-12587912D01*
X11255777Y-12587912D02*
X11255777Y-12568865D01*
X11255777Y-12568865D02*
X11265301Y-12549817D01*
X11265301Y-12549817D02*
X11284348Y-12540293D01*
X11284348Y-12540293D02*
X11331967Y-12540293D01*
X11331967Y-12540293D02*
X11351015Y-12530769D01*
X11446253Y-12483150D02*
X11446253Y-12683150D01*
X11446253Y-12492674D02*
X11465301Y-12483150D01*
X11465301Y-12483150D02*
X11503396Y-12483150D01*
X11503396Y-12483150D02*
X11522443Y-12492674D01*
X11522443Y-12492674D02*
X11531967Y-12502198D01*
X11531967Y-12502198D02*
X11541491Y-12521246D01*
X11541491Y-12521246D02*
X11541491Y-12578388D01*
X11541491Y-12578388D02*
X11531967Y-12597436D01*
X11531967Y-12597436D02*
X11522443Y-12606960D01*
X11522443Y-12606960D02*
X11503396Y-12616484D01*
X11503396Y-12616484D02*
X11465301Y-12616484D01*
X11465301Y-12616484D02*
X11446253Y-12606960D01*
X11627205Y-12597436D02*
X11636729Y-12606960D01*
X11636729Y-12606960D02*
X11627205Y-12616484D01*
X11627205Y-12616484D02*
X11617682Y-12606960D01*
X11617682Y-12606960D02*
X11627205Y-12597436D01*
X11627205Y-12597436D02*
X11627205Y-12616484D01*
X11627205Y-12492674D02*
X11636729Y-12502198D01*
X11636729Y-12502198D02*
X11627205Y-12511722D01*
X11627205Y-12511722D02*
X11617682Y-12502198D01*
X11617682Y-12502198D02*
X11627205Y-12492674D01*
X11627205Y-12492674D02*
X11627205Y-12511722D01*
D10*
X9961980Y-12928490D02*
X9995000Y-12961510D01*
X9995000Y-12928490D02*
X9961980Y-12961510D01*
D11*
X10293872Y-12836484D02*
X10312920Y-12836484D01*
X10312920Y-12836484D02*
X10331967Y-12846008D01*
X10331967Y-12846008D02*
X10341491Y-12855531D01*
X10341491Y-12855531D02*
X10351015Y-12874579D01*
X10351015Y-12874579D02*
X10360539Y-12912674D01*
X10360539Y-12912674D02*
X10360539Y-12960293D01*
X10360539Y-12960293D02*
X10351015Y-12998388D01*
X10351015Y-12998388D02*
X10341491Y-13017436D01*
X10341491Y-13017436D02*
X10331967Y-13026960D01*
X10331967Y-13026960D02*
X10312920Y-13036484D01*
X10312920Y-13036484D02*
X10293872Y-13036484D01*
X10293872Y-13036484D02*
X10274824Y-13026960D01*
X10274824Y-13026960D02*
X10265301Y-13017436D01*
X10265301Y-13017436D02*
X10255777Y-12998388D01*
X10255777Y-12998388D02*
X10246253Y-12960293D01*
X10246253Y-12960293D02*
X10246253Y-12912674D01*
X10246253Y-12912674D02*
X10255777Y-12874579D01*
X10255777Y-12874579D02*
X10265301Y-12855531D01*
X10265301Y-12855531D02*
X10274824Y-12846008D01*
X10274824Y-12846008D02*
X10293872Y-12836484D01*
X10446253Y-13017436D02*
X10455777Y-13026960D01*
X10455777Y-13026960D02*
X10446253Y-13036484D01*
X10446253Y-13036484D02*
X10436729Y-13026960D01*
X10436729Y-13026960D02*
X10446253Y-13017436D01*
X10446253Y-13017436D02*
X10446253Y-13036484D01*
X10522444Y-12836484D02*
X10646253Y-12836484D01*
X10646253Y-12836484D02*
X10579586Y-12912674D01*
X10579586Y-12912674D02*
X10608158Y-12912674D01*
X10608158Y-12912674D02*
X10627205Y-12922198D01*
X10627205Y-12922198D02*
X10636729Y-12931722D01*
X10636729Y-12931722D02*
X10646253Y-12950769D01*
X10646253Y-12950769D02*
X10646253Y-12998388D01*
X10646253Y-12998388D02*
X10636729Y-13017436D01*
X10636729Y-13017436D02*
X10627205Y-13026960D01*
X10627205Y-13026960D02*
X10608158Y-13036484D01*
X10608158Y-13036484D02*
X10551015Y-13036484D01*
X10551015Y-13036484D02*
X10531967Y-13026960D01*
X10531967Y-13026960D02*
X10522444Y-13017436D01*
X10712920Y-12836484D02*
X10836729Y-12836484D01*
X10836729Y-12836484D02*
X10770063Y-12912674D01*
X10770063Y-12912674D02*
X10798634Y-12912674D01*
X10798634Y-12912674D02*
X10817682Y-12922198D01*
X10817682Y-12922198D02*
X10827205Y-12931722D01*
X10827205Y-12931722D02*
X10836729Y-12950769D01*
X10836729Y-12950769D02*
X10836729Y-12998388D01*
X10836729Y-12998388D02*
X10827205Y-13017436D01*
X10827205Y-13017436D02*
X10817682Y-13026960D01*
X10817682Y-13026960D02*
X10798634Y-13036484D01*
X10798634Y-13036484D02*
X10741491Y-13036484D01*
X10741491Y-13036484D02*
X10722444Y-13026960D01*
X10722444Y-13026960D02*
X10712920Y-13017436D01*
X10960539Y-12836484D02*
X10979586Y-12836484D01*
X10979586Y-12836484D02*
X10998634Y-12846008D01*
X10998634Y-12846008D02*
X11008158Y-12855531D01*
X11008158Y-12855531D02*
X11017682Y-12874579D01*
X11017682Y-12874579D02*
X11027205Y-12912674D01*
X11027205Y-12912674D02*
X11027205Y-12960293D01*
X11027205Y-12960293D02*
X11017682Y-12998388D01*
X11017682Y-12998388D02*
X11008158Y-13017436D01*
X11008158Y-13017436D02*
X10998634Y-13026960D01*
X10998634Y-13026960D02*
X10979586Y-13036484D01*
X10979586Y-13036484D02*
X10960539Y-13036484D01*
X10960539Y-13036484D02*
X10941491Y-13026960D01*
X10941491Y-13026960D02*
X10931967Y-13017436D01*
X10931967Y-13017436D02*
X10922444Y-12998388D01*
X10922444Y-12998388D02*
X10912920Y-12960293D01*
X10912920Y-12960293D02*
X10912920Y-12912674D01*
X10912920Y-12912674D02*
X10922444Y-12874579D01*
X10922444Y-12874579D02*
X10931967Y-12855531D01*
X10931967Y-12855531D02*
X10941491Y-12846008D01*
X10941491Y-12846008D02*
X10960539Y-12836484D01*
X11112920Y-13036484D02*
X11112920Y-12903150D01*
X11112920Y-12922198D02*
X11122444Y-12912674D01*
X11122444Y-12912674D02*
X11141491Y-12903150D01*
X11141491Y-12903150D02*
X11170063Y-12903150D01*
X11170063Y-12903150D02*
X11189110Y-12912674D01*
X11189110Y-12912674D02*
X11198634Y-12931722D01*
X11198634Y-12931722D02*
X11198634Y-13036484D01*
X11198634Y-12931722D02*
X11208158Y-12912674D01*
X11208158Y-12912674D02*
X11227205Y-12903150D01*
X11227205Y-12903150D02*
X11255777Y-12903150D01*
X11255777Y-12903150D02*
X11274824Y-12912674D01*
X11274824Y-12912674D02*
X11284348Y-12931722D01*
X11284348Y-12931722D02*
X11284348Y-13036484D01*
X11379586Y-13036484D02*
X11379586Y-12903150D01*
X11379586Y-12922198D02*
X11389110Y-12912674D01*
X11389110Y-12912674D02*
X11408158Y-12903150D01*
X11408158Y-12903150D02*
X11436729Y-12903150D01*
X11436729Y-12903150D02*
X11455777Y-12912674D01*
X11455777Y-12912674D02*
X11465301Y-12931722D01*
X11465301Y-12931722D02*
X11465301Y-13036484D01*
X11465301Y-12931722D02*
X11474824Y-12912674D01*
X11474824Y-12912674D02*
X11493872Y-12903150D01*
X11493872Y-12903150D02*
X11522443Y-12903150D01*
X11522443Y-12903150D02*
X11541491Y-12912674D01*
X11541491Y-12912674D02*
X11551015Y-12931722D01*
X11551015Y-12931722D02*
X11551015Y-13036484D01*
X11941491Y-12826960D02*
X11770063Y-13084103D01*
X12198634Y-12836484D02*
X12217682Y-12836484D01*
X12217682Y-12836484D02*
X12236729Y-12846008D01*
X12236729Y-12846008D02*
X12246253Y-12855531D01*
X12246253Y-12855531D02*
X12255777Y-12874579D01*
X12255777Y-12874579D02*
X12265301Y-12912674D01*
X12265301Y-12912674D02*
X12265301Y-12960293D01*
X12265301Y-12960293D02*
X12255777Y-12998388D01*
X12255777Y-12998388D02*
X12246253Y-13017436D01*
X12246253Y-13017436D02*
X12236729Y-13026960D01*
X12236729Y-13026960D02*
X12217682Y-13036484D01*
X12217682Y-13036484D02*
X12198634Y-13036484D01*
X12198634Y-13036484D02*
X12179586Y-13026960D01*
X12179586Y-13026960D02*
X12170063Y-13017436D01*
X12170063Y-13017436D02*
X12160539Y-12998388D01*
X12160539Y-12998388D02*
X12151015Y-12960293D01*
X12151015Y-12960293D02*
X12151015Y-12912674D01*
X12151015Y-12912674D02*
X12160539Y-12874579D01*
X12160539Y-12874579D02*
X12170063Y-12855531D01*
X12170063Y-12855531D02*
X12179586Y-12846008D01*
X12179586Y-12846008D02*
X12198634Y-12836484D01*
X12351015Y-13017436D02*
X12360539Y-13026960D01*
X12360539Y-13026960D02*
X12351015Y-13036484D01*
X12351015Y-13036484D02*
X12341491Y-13026960D01*
X12341491Y-13026960D02*
X12351015Y-13017436D01*
X12351015Y-13017436D02*
X12351015Y-13036484D01*
X12484348Y-12836484D02*
X12503396Y-12836484D01*
X12503396Y-12836484D02*
X12522444Y-12846008D01*
X12522444Y-12846008D02*
X12531967Y-12855531D01*
X12531967Y-12855531D02*
X12541491Y-12874579D01*
X12541491Y-12874579D02*
X12551015Y-12912674D01*
X12551015Y-12912674D02*
X12551015Y-12960293D01*
X12551015Y-12960293D02*
X12541491Y-12998388D01*
X12541491Y-12998388D02*
X12531967Y-13017436D01*
X12531967Y-13017436D02*
X12522444Y-13026960D01*
X12522444Y-13026960D02*
X12503396Y-13036484D01*
X12503396Y-13036484D02*
X12484348Y-13036484D01*
X12484348Y-13036484D02*
X12465301Y-13026960D01*
X12465301Y-13026960D02*
X12455777Y-13017436D01*
X12455777Y-13017436D02*
X12446253Y-12998388D01*
X12446253Y-12998388D02*
X12436729Y-12960293D01*
X12436729Y-12960293D02*
X12436729Y-12912674D01*
X12436729Y-12912674D02*
X12446253Y-12874579D01*
X12446253Y-12874579D02*
X12455777Y-12855531D01*
X12455777Y-12855531D02*
X12465301Y-12846008D01*
X12465301Y-12846008D02*
X12484348Y-12836484D01*
X12741491Y-13036484D02*
X12627206Y-13036484D01*
X12684348Y-13036484D02*
X12684348Y-12836484D01*
X12684348Y-12836484D02*
X12665301Y-12865055D01*
X12665301Y-12865055D02*
X12646253Y-12884103D01*
X12646253Y-12884103D02*
X12627206Y-12893627D01*
X12808158Y-12836484D02*
X12931967Y-12836484D01*
X12931967Y-12836484D02*
X12865301Y-12912674D01*
X12865301Y-12912674D02*
X12893872Y-12912674D01*
X12893872Y-12912674D02*
X12912920Y-12922198D01*
X12912920Y-12922198D02*
X12922444Y-12931722D01*
X12922444Y-12931722D02*
X12931967Y-12950769D01*
X12931967Y-12950769D02*
X12931967Y-12998388D01*
X12931967Y-12998388D02*
X12922444Y-13017436D01*
X12922444Y-13017436D02*
X12912920Y-13026960D01*
X12912920Y-13026960D02*
X12893872Y-13036484D01*
X12893872Y-13036484D02*
X12836729Y-13036484D01*
X12836729Y-13036484D02*
X12817682Y-13026960D01*
X12817682Y-13026960D02*
X12808158Y-13017436D01*
X13055777Y-12836484D02*
X13074825Y-12836484D01*
X13074825Y-12836484D02*
X13093872Y-12846008D01*
X13093872Y-12846008D02*
X13103396Y-12855531D01*
X13103396Y-12855531D02*
X13112920Y-12874579D01*
X13112920Y-12874579D02*
X13122444Y-12912674D01*
X13122444Y-12912674D02*
X13122444Y-12960293D01*
X13122444Y-12960293D02*
X13112920Y-12998388D01*
X13112920Y-12998388D02*
X13103396Y-13017436D01*
X13103396Y-13017436D02*
X13093872Y-13026960D01*
X13093872Y-13026960D02*
X13074825Y-13036484D01*
X13074825Y-13036484D02*
X13055777Y-13036484D01*
X13055777Y-13036484D02*
X13036729Y-13026960D01*
X13036729Y-13026960D02*
X13027206Y-13017436D01*
X13027206Y-13017436D02*
X13017682Y-12998388D01*
X13017682Y-12998388D02*
X13008158Y-12960293D01*
X13008158Y-12960293D02*
X13008158Y-12912674D01*
X13008158Y-12912674D02*
X13017682Y-12874579D01*
X13017682Y-12874579D02*
X13027206Y-12855531D01*
X13027206Y-12855531D02*
X13036729Y-12846008D01*
X13036729Y-12846008D02*
X13055777Y-12836484D01*
X13198634Y-12836484D02*
X13198634Y-12874579D01*
X13274825Y-12836484D02*
X13274825Y-12874579D01*
X13570063Y-13112674D02*
X13560539Y-13103150D01*
X13560539Y-13103150D02*
X13541491Y-13074579D01*
X13541491Y-13074579D02*
X13531968Y-13055531D01*
X13531968Y-13055531D02*
X13522444Y-13026960D01*
X13522444Y-13026960D02*
X13512920Y-12979341D01*
X13512920Y-12979341D02*
X13512920Y-12941246D01*
X13512920Y-12941246D02*
X13522444Y-12893627D01*
X13522444Y-12893627D02*
X13531968Y-12865055D01*
X13531968Y-12865055D02*
X13541491Y-12846008D01*
X13541491Y-12846008D02*
X13560539Y-12817436D01*
X13560539Y-12817436D02*
X13570063Y-12807912D01*
X13731968Y-12903150D02*
X13731968Y-13036484D01*
X13684348Y-12826960D02*
X13636729Y-12969817D01*
X13636729Y-12969817D02*
X13760539Y-12969817D01*
X13931968Y-12836484D02*
X13836729Y-12836484D01*
X13836729Y-12836484D02*
X13827206Y-12931722D01*
X13827206Y-12931722D02*
X13836729Y-12922198D01*
X13836729Y-12922198D02*
X13855777Y-12912674D01*
X13855777Y-12912674D02*
X13903396Y-12912674D01*
X13903396Y-12912674D02*
X13922444Y-12922198D01*
X13922444Y-12922198D02*
X13931968Y-12931722D01*
X13931968Y-12931722D02*
X13941491Y-12950769D01*
X13941491Y-12950769D02*
X13941491Y-12998388D01*
X13941491Y-12998388D02*
X13931968Y-13017436D01*
X13931968Y-13017436D02*
X13922444Y-13026960D01*
X13922444Y-13026960D02*
X13903396Y-13036484D01*
X13903396Y-13036484D02*
X13855777Y-13036484D01*
X13855777Y-13036484D02*
X13836729Y-13026960D01*
X13836729Y-13026960D02*
X13827206Y-13017436D01*
X14179587Y-13036484D02*
X14179587Y-12836484D01*
X14265301Y-13036484D02*
X14265301Y-12931722D01*
X14265301Y-12931722D02*
X14255777Y-12912674D01*
X14255777Y-12912674D02*
X14236730Y-12903150D01*
X14236730Y-12903150D02*
X14208158Y-12903150D01*
X14208158Y-12903150D02*
X14189110Y-12912674D01*
X14189110Y-12912674D02*
X14179587Y-12922198D01*
X14389110Y-13036484D02*
X14370063Y-13026960D01*
X14370063Y-13026960D02*
X14360539Y-13017436D01*
X14360539Y-13017436D02*
X14351015Y-12998388D01*
X14351015Y-12998388D02*
X14351015Y-12941246D01*
X14351015Y-12941246D02*
X14360539Y-12922198D01*
X14360539Y-12922198D02*
X14370063Y-12912674D01*
X14370063Y-12912674D02*
X14389110Y-12903150D01*
X14389110Y-12903150D02*
X14417682Y-12903150D01*
X14417682Y-12903150D02*
X14436730Y-12912674D01*
X14436730Y-12912674D02*
X14446253Y-12922198D01*
X14446253Y-12922198D02*
X14455777Y-12941246D01*
X14455777Y-12941246D02*
X14455777Y-12998388D01*
X14455777Y-12998388D02*
X14446253Y-13017436D01*
X14446253Y-13017436D02*
X14436730Y-13026960D01*
X14436730Y-13026960D02*
X14417682Y-13036484D01*
X14417682Y-13036484D02*
X14389110Y-13036484D01*
X14570063Y-13036484D02*
X14551015Y-13026960D01*
X14551015Y-13026960D02*
X14541491Y-13007912D01*
X14541491Y-13007912D02*
X14541491Y-12836484D01*
X14722444Y-13026960D02*
X14703396Y-13036484D01*
X14703396Y-13036484D02*
X14665301Y-13036484D01*
X14665301Y-13036484D02*
X14646253Y-13026960D01*
X14646253Y-13026960D02*
X14636730Y-13007912D01*
X14636730Y-13007912D02*
X14636730Y-12931722D01*
X14636730Y-12931722D02*
X14646253Y-12912674D01*
X14646253Y-12912674D02*
X14665301Y-12903150D01*
X14665301Y-12903150D02*
X14703396Y-12903150D01*
X14703396Y-12903150D02*
X14722444Y-12912674D01*
X14722444Y-12912674D02*
X14731968Y-12931722D01*
X14731968Y-12931722D02*
X14731968Y-12950769D01*
X14731968Y-12950769D02*
X14636730Y-12969817D01*
X14808158Y-13026960D02*
X14827206Y-13036484D01*
X14827206Y-13036484D02*
X14865301Y-13036484D01*
X14865301Y-13036484D02*
X14884349Y-13026960D01*
X14884349Y-13026960D02*
X14893872Y-13007912D01*
X14893872Y-13007912D02*
X14893872Y-12998388D01*
X14893872Y-12998388D02*
X14884349Y-12979341D01*
X14884349Y-12979341D02*
X14865301Y-12969817D01*
X14865301Y-12969817D02*
X14836730Y-12969817D01*
X14836730Y-12969817D02*
X14817682Y-12960293D01*
X14817682Y-12960293D02*
X14808158Y-12941246D01*
X14808158Y-12941246D02*
X14808158Y-12931722D01*
X14808158Y-12931722D02*
X14817682Y-12912674D01*
X14817682Y-12912674D02*
X14836730Y-12903150D01*
X14836730Y-12903150D02*
X14865301Y-12903150D01*
X14865301Y-12903150D02*
X14884349Y-12912674D01*
X14960539Y-13112674D02*
X14970063Y-13103150D01*
X14970063Y-13103150D02*
X14989111Y-13074579D01*
X14989111Y-13074579D02*
X14998634Y-13055531D01*
X14998634Y-13055531D02*
X15008158Y-13026960D01*
X15008158Y-13026960D02*
X15017682Y-12979341D01*
X15017682Y-12979341D02*
X15017682Y-12941246D01*
X15017682Y-12941246D02*
X15008158Y-12893627D01*
X15008158Y-12893627D02*
X14998634Y-12865055D01*
X14998634Y-12865055D02*
X14989111Y-12846008D01*
X14989111Y-12846008D02*
X14970063Y-12817436D01*
X14970063Y-12817436D02*
X14960539Y-12807912D01*
M02*
