%TF.GenerationSoftware,KiCad,Pcbnew,8.0.1*%
%TF.CreationDate,2024-07-01T16:13:11-04:00*%
%TF.ProjectId,V1,56312e6b-6963-4616-945f-706362585858,rev?*%
%TF.SameCoordinates,Original*%
%TF.FileFunction,Copper,L2,Bot*%
%TF.FilePolarity,Positive*%
%FSLAX46Y46*%
G04 Gerber Fmt 4.6, Leading zero omitted, Abs format (unit mm)*
G04 Created by KiCad (PCBNEW 8.0.1) date 2024-07-01 16:13:11*
%MOMM*%
%LPD*%
G01*
G04 APERTURE LIST*
G04 Aperture macros list*
%AMRoundRect*
0 Rectangle with rounded corners*
0 $1 Rounding radius*
0 $2 $3 $4 $5 $6 $7 $8 $9 X,Y pos of 4 corners*
0 Add a 4 corners polygon primitive as box body*
4,1,4,$2,$3,$4,$5,$6,$7,$8,$9,$2,$3,0*
0 Add four circle primitives for the rounded corners*
1,1,$1+$1,$2,$3*
1,1,$1+$1,$4,$5*
1,1,$1+$1,$6,$7*
1,1,$1+$1,$8,$9*
0 Add four rect primitives between the rounded corners*
20,1,$1+$1,$2,$3,$4,$5,0*
20,1,$1+$1,$4,$5,$6,$7,0*
20,1,$1+$1,$6,$7,$8,$9,0*
20,1,$1+$1,$8,$9,$2,$3,0*%
G04 Aperture macros list end*
%TA.AperFunction,SMDPad,CuDef*%
%ADD10RoundRect,0.237500X-0.287500X-0.237500X0.287500X-0.237500X0.287500X0.237500X-0.287500X0.237500X0*%
%TD*%
%TA.AperFunction,ViaPad*%
%ADD11C,0.660400*%
%TD*%
%TA.AperFunction,Conductor*%
%ADD12C,0.152400*%
%TD*%
%TA.AperFunction,Conductor*%
%ADD13C,0.381000*%
%TD*%
%TA.AperFunction,Conductor*%
%ADD14C,0.254000*%
%TD*%
G04 APERTURE END LIST*
D10*
%TO.P,D1,1,K*%
%TO.N,Net-(D1-K)*%
X166408500Y-105875121D03*
%TO.P,D1,2,A*%
%TO.N,/LED1*%
X168158500Y-105875121D03*
%TD*%
D11*
%TO.N,GND*%
X154810000Y-108948621D03*
X166110000Y-109848621D03*
X151210000Y-117048621D03*
X166310000Y-120848621D03*
X157910000Y-121048621D03*
X153140000Y-121338621D03*
X154410000Y-103048621D03*
X166400000Y-112568621D03*
X155500000Y-113538621D03*
X177710000Y-118048621D03*
X154410000Y-106048621D03*
X156210000Y-108948621D03*
X155910000Y-106048621D03*
X177710000Y-101548621D03*
X174710000Y-119548621D03*
X155910000Y-104598621D03*
X152910000Y-107548621D03*
X156710000Y-118048621D03*
X169110000Y-106848621D03*
X169110000Y-109298621D03*
X162450000Y-110708621D03*
X177710000Y-104548621D03*
X151210000Y-119048621D03*
X158910000Y-106048621D03*
X176210000Y-116548621D03*
X151410000Y-104548621D03*
X177710000Y-103048621D03*
X176210000Y-101548621D03*
X160410000Y-106048621D03*
X176210000Y-118048621D03*
X154410000Y-104548621D03*
X157280000Y-113538621D03*
X152910000Y-106048621D03*
X169310000Y-120848621D03*
X176210000Y-103048621D03*
X174710000Y-101548621D03*
X151210000Y-115048621D03*
X157410000Y-106048621D03*
X155910000Y-103098621D03*
X174710000Y-121048621D03*
X167810000Y-120848621D03*
X152910000Y-104548621D03*
X151410000Y-106048621D03*
%TO.N,VCC*%
X162922500Y-113738621D03*
X163510000Y-117348621D03*
X168962500Y-111328621D03*
X169310000Y-104858621D03*
%TO.N,+1V8*%
X157123500Y-111570121D03*
X153120000Y-109388621D03*
X163710000Y-105858621D03*
X157120000Y-107800121D03*
%TO.N,Net-(D1-K)*%
X166408500Y-105875121D03*
%TO.N,/LED1*%
X169143500Y-108075121D03*
%TO.N,/VBAT*%
X152050000Y-113166121D03*
X158190000Y-114628621D03*
%TO.N,/SWDCLK*%
X164960000Y-120638621D03*
X172280000Y-104118621D03*
%TO.N,/SWDIO*%
X171470000Y-103328621D03*
X163410000Y-120638621D03*
%TO.N,/BAT_V*%
X165301000Y-114906121D03*
X169400000Y-116338621D03*
%TO.N,/VIB_CTRL*%
X173440000Y-111068621D03*
X170510000Y-119053621D03*
%TO.N,/A3*%
X173460000Y-108698621D03*
X161310000Y-103101121D03*
%TO.N,/EN_A*%
X174670000Y-111088621D03*
X154580000Y-121298621D03*
%TO.N,/EN_B*%
X158060000Y-119658621D03*
X174670000Y-109888621D03*
%TO.N,/A5*%
X174930000Y-107308621D03*
X157310000Y-103101121D03*
%TO.N,/BTN_2*%
X171020000Y-109898621D03*
X167510000Y-119053621D03*
%TO.N,/BTN_3*%
X168510000Y-119053621D03*
X171040000Y-111108621D03*
%TO.N,/BTN_4*%
X169510000Y-119053621D03*
X172230000Y-111128621D03*
%TO.N,/BTN_1*%
X166510000Y-119053621D03*
X171060000Y-108698621D03*
%TO.N,/A2*%
X173410000Y-107298621D03*
X163310000Y-103101121D03*
%TO.N,/A1*%
X173420000Y-109948621D03*
X165310000Y-103101121D03*
%TO.N,/A4*%
X174660000Y-108698621D03*
X159310000Y-103101121D03*
%TO.N,/A0*%
X172260000Y-108698621D03*
X167310000Y-103101121D03*
%TD*%
D12*
%TO.N,VCC*%
X167430000Y-113738621D02*
X162922500Y-113738621D01*
X168962500Y-112206121D02*
X167430000Y-113738621D01*
D13*
X162922500Y-113738621D02*
X162922500Y-116761121D01*
X162922500Y-116761121D02*
X163510000Y-117348621D01*
D12*
X168962500Y-111328621D02*
X168962500Y-112206121D01*
X169310000Y-104858621D02*
X167870000Y-104858621D01*
X167260000Y-108908621D02*
X168962500Y-110611121D01*
X167260000Y-105468621D02*
X167260000Y-108908621D01*
X167870000Y-104858621D02*
X167260000Y-105468621D01*
X168962500Y-110611121D02*
X168962500Y-111328621D01*
%TO.N,+1V8*%
X157123500Y-107803621D02*
X157123500Y-111570121D01*
X157120000Y-107800121D02*
X157123500Y-107803621D01*
X160033500Y-107800121D02*
X157120000Y-107800121D01*
X161975000Y-105858621D02*
X160033500Y-107800121D01*
D14*
X154708500Y-107800121D02*
X153120000Y-109388621D01*
X157120000Y-107800121D02*
X154708500Y-107800121D01*
D12*
X163710000Y-105858621D02*
X161975000Y-105858621D01*
%TO.N,/LED1*%
X168158500Y-107090121D02*
X169143500Y-108075121D01*
X168158500Y-105875121D02*
X168158500Y-107090121D01*
D13*
%TO.N,/VBAT*%
X154880000Y-114628621D02*
X153417500Y-113166121D01*
X153417500Y-113166121D02*
X152050000Y-113166121D01*
X158190000Y-114628621D02*
X154880000Y-114628621D01*
D12*
%TO.N,/SWDCLK*%
X162253092Y-120058621D02*
X160582100Y-118387629D01*
X164922100Y-105306521D02*
X166110000Y-104118621D01*
X163720000Y-120058621D02*
X162253092Y-120058621D01*
X164922100Y-109986521D02*
X164922100Y-105306521D01*
X160582100Y-114326521D02*
X164922100Y-109986521D01*
X164300000Y-120638621D02*
X163720000Y-120058621D01*
X166110000Y-104118621D02*
X172280000Y-104118621D01*
X160582100Y-118387629D02*
X160582100Y-114326521D01*
X164960000Y-120638621D02*
X164300000Y-120638621D01*
%TO.N,/SWDIO*%
X169982100Y-103826521D02*
X170480000Y-103328621D01*
X170480000Y-103328621D02*
X171470000Y-103328621D01*
X164630000Y-109838621D02*
X164630000Y-105158621D01*
X165962100Y-103826521D02*
X169982100Y-103826521D01*
X162420000Y-120638621D02*
X160290000Y-118508621D01*
X163410000Y-120638621D02*
X162420000Y-120638621D01*
X160290000Y-114178621D02*
X164630000Y-109838621D01*
X164630000Y-105158621D02*
X165962100Y-103826521D01*
X160290000Y-118508621D02*
X160290000Y-114178621D01*
%TO.N,/BAT_V*%
X169400000Y-116338621D02*
X167967500Y-114906121D01*
X167967500Y-114906121D02*
X165301000Y-114906121D01*
%TO.N,/VIB_CTRL*%
X170510000Y-119053621D02*
X170510000Y-119048621D01*
X170510000Y-119048621D02*
X172522100Y-117036521D01*
X173440000Y-111668621D02*
X173440000Y-111068621D01*
X172522100Y-117036521D02*
X172522100Y-112586521D01*
X172522100Y-112586521D02*
X173440000Y-111668621D01*
%TO.N,/A3*%
X162598800Y-101812321D02*
X172387516Y-101812321D01*
X161310000Y-103101121D02*
X162598800Y-101812321D01*
X172387516Y-101812321D02*
X173956100Y-103380905D01*
X173956100Y-103380905D02*
X173956100Y-108202521D01*
X173956100Y-108202521D02*
X173460000Y-108698621D01*
%TO.N,/EN_A*%
X155490000Y-122208621D02*
X169850000Y-122208621D01*
X169850000Y-122208621D02*
X174670000Y-117388621D01*
X174670000Y-117388621D02*
X174670000Y-111088621D01*
X154580000Y-121298621D02*
X155490000Y-122208621D01*
%TO.N,/EN_B*%
X160230000Y-121828621D02*
X169730000Y-121828621D01*
X169730000Y-121828621D02*
X174080000Y-117478621D01*
X174080000Y-117478621D02*
X174080000Y-110558621D01*
X174670000Y-109968621D02*
X174670000Y-109888621D01*
X174080000Y-110558621D02*
X174670000Y-109968621D01*
X158060000Y-119658621D02*
X160230000Y-121828621D01*
%TO.N,/A5*%
X174540300Y-103138921D02*
X174540300Y-106918921D01*
X159183000Y-101228121D02*
X172629500Y-101228121D01*
X174540300Y-106918921D02*
X174930000Y-107308621D01*
X172629500Y-101228121D02*
X174540300Y-103138921D01*
X157310000Y-103101121D02*
X159183000Y-101228121D01*
%TO.N,/BTN_2*%
X167510000Y-118858621D02*
X168445300Y-117923321D01*
X171645800Y-116666637D02*
X171645800Y-112724421D01*
X168445300Y-117923321D02*
X170389116Y-117923321D01*
X167510000Y-119053621D02*
X167510000Y-118858621D01*
X170420000Y-110498621D02*
X171020000Y-109898621D01*
X170420000Y-111498621D02*
X170420000Y-110498621D01*
X170389116Y-117923321D02*
X171645800Y-116666637D01*
X171645800Y-112724421D02*
X170420000Y-111498621D01*
%TO.N,/BTN_3*%
X170510108Y-118215421D02*
X171937900Y-116787629D01*
X168510000Y-119053621D02*
X168510000Y-118858621D01*
X171937900Y-116787629D02*
X171937900Y-112603429D01*
X171937900Y-112603429D02*
X171040000Y-111705529D01*
X171040000Y-111705529D02*
X171040000Y-111108621D01*
X168510000Y-118858621D02*
X169153200Y-118215421D01*
X169153200Y-118215421D02*
X170510108Y-118215421D01*
%TO.N,/BTN_4*%
X169510000Y-119053621D02*
X170056100Y-118507521D01*
X170631100Y-118507521D02*
X172230000Y-116908621D01*
X170056100Y-118507521D02*
X170631100Y-118507521D01*
X172230000Y-116908621D02*
X172230000Y-111128621D01*
%TO.N,/BTN_1*%
X171353700Y-116545645D02*
X171353700Y-112845413D01*
X170127900Y-109630721D02*
X171060000Y-108698621D01*
X170127900Y-111619613D02*
X170127900Y-109630721D01*
X167767400Y-117631221D02*
X170268124Y-117631221D01*
X171353700Y-112845413D02*
X170127900Y-111619613D01*
X170268124Y-117631221D02*
X171353700Y-116545645D01*
X166510000Y-118888621D02*
X167767400Y-117631221D01*
X166510000Y-119053621D02*
X166510000Y-118888621D01*
%TO.N,/A2*%
X173664000Y-103501897D02*
X173664000Y-105300805D01*
X163310000Y-103101121D02*
X164306700Y-102104421D01*
X164306700Y-102104421D02*
X172266524Y-102104421D01*
X173410000Y-105554805D02*
X173410000Y-107298621D01*
X172266524Y-102104421D02*
X173664000Y-103501897D01*
X173664000Y-105300805D02*
X173410000Y-105554805D01*
%TO.N,/A1*%
X172850000Y-105701713D02*
X172850000Y-108888621D01*
X173420000Y-109458621D02*
X173420000Y-109948621D01*
X173350000Y-103600989D02*
X173350000Y-105201713D01*
X172145532Y-102396521D02*
X173350000Y-103600989D01*
X173350000Y-105201713D02*
X172850000Y-105701713D01*
X165310000Y-103101121D02*
X166014600Y-102396521D01*
X172850000Y-108888621D02*
X173420000Y-109458621D01*
X166014600Y-102396521D02*
X172145532Y-102396521D01*
%TO.N,/A4*%
X174248200Y-103259913D02*
X174248200Y-108286821D01*
X172508508Y-101520221D02*
X174248200Y-103259913D01*
X159310000Y-103101121D02*
X160890900Y-101520221D01*
X174248200Y-108286821D02*
X174660000Y-108698621D01*
X160890900Y-101520221D02*
X172508508Y-101520221D01*
%TO.N,/A0*%
X167310000Y-103101121D02*
X167722500Y-102688621D01*
X173040000Y-105098621D02*
X172260000Y-105878621D01*
X172024540Y-102688621D02*
X173040000Y-103704081D01*
X167722500Y-102688621D02*
X172024540Y-102688621D01*
X173040000Y-103704081D02*
X173040000Y-105098621D01*
X172260000Y-105878621D02*
X172260000Y-108698621D01*
%TD*%
%TA.AperFunction,Conductor*%
%TO.N,GND*%
G36*
X178878638Y-100470714D02*
G01*
X178904358Y-100515263D01*
X178905500Y-100528321D01*
X178905500Y-105812921D01*
X178887907Y-105861259D01*
X178843358Y-105886979D01*
X178830300Y-105888121D01*
X175507500Y-105888121D01*
X175507500Y-107064546D01*
X175489907Y-107112884D01*
X175445358Y-107138604D01*
X175394700Y-107129671D01*
X175363896Y-107095786D01*
X175340589Y-107044752D01*
X175340587Y-107044749D01*
X175249616Y-106939763D01*
X175249614Y-106939762D01*
X175132751Y-106864658D01*
X174999461Y-106825521D01*
X174999459Y-106825521D01*
X174860541Y-106825521D01*
X174860537Y-106825521D01*
X174855297Y-106826274D01*
X174804948Y-106815736D01*
X174773153Y-106775299D01*
X174769400Y-106751839D01*
X174769400Y-103093349D01*
X174769399Y-103093348D01*
X174759237Y-103068816D01*
X174759184Y-103068687D01*
X174734522Y-103009146D01*
X174734521Y-103009145D01*
X174734521Y-103009144D01*
X172759280Y-101033903D01*
X172759277Y-101033901D01*
X172759275Y-101033899D01*
X172699733Y-101009236D01*
X172699732Y-101009235D01*
X172675073Y-100999021D01*
X172675071Y-100999021D01*
X159137429Y-100999021D01*
X159112766Y-101009236D01*
X159070662Y-101026676D01*
X159053222Y-101033900D01*
X157480305Y-102606817D01*
X157433685Y-102628557D01*
X157405947Y-102625798D01*
X157379460Y-102618021D01*
X157379459Y-102618021D01*
X157240541Y-102618021D01*
X157240538Y-102618021D01*
X157107248Y-102657158D01*
X156990385Y-102732262D01*
X156990383Y-102732263D01*
X156899412Y-102837249D01*
X156899410Y-102837252D01*
X156841702Y-102963612D01*
X156821932Y-103101121D01*
X156841702Y-103238629D01*
X156899410Y-103364989D01*
X156899412Y-103364992D01*
X156987045Y-103466126D01*
X156990383Y-103469978D01*
X157013168Y-103484621D01*
X157107248Y-103545083D01*
X157150290Y-103557721D01*
X157240541Y-103584221D01*
X157240544Y-103584221D01*
X157379456Y-103584221D01*
X157379459Y-103584221D01*
X157512751Y-103545083D01*
X157629617Y-103469978D01*
X157720589Y-103364990D01*
X157778298Y-103238626D01*
X157798068Y-103101121D01*
X157782800Y-102994931D01*
X157793334Y-102944583D01*
X157804056Y-102931060D01*
X159255871Y-101479247D01*
X159302491Y-101457507D01*
X159309045Y-101457221D01*
X160448355Y-101457221D01*
X160496693Y-101474814D01*
X160522413Y-101519363D01*
X160513480Y-101570021D01*
X160501529Y-101585594D01*
X159983560Y-102103563D01*
X159480305Y-102606818D01*
X159433685Y-102628558D01*
X159405945Y-102625798D01*
X159379461Y-102618021D01*
X159379459Y-102618021D01*
X159240541Y-102618021D01*
X159240538Y-102618021D01*
X159107248Y-102657158D01*
X158990385Y-102732262D01*
X158990383Y-102732263D01*
X158899412Y-102837249D01*
X158899410Y-102837252D01*
X158841702Y-102963612D01*
X158821932Y-103101121D01*
X158841702Y-103238629D01*
X158899410Y-103364989D01*
X158899412Y-103364992D01*
X158987045Y-103466126D01*
X158990383Y-103469978D01*
X159013168Y-103484621D01*
X159107248Y-103545083D01*
X159150290Y-103557721D01*
X159240541Y-103584221D01*
X159240544Y-103584221D01*
X159379456Y-103584221D01*
X159379459Y-103584221D01*
X159512751Y-103545083D01*
X159629617Y-103469978D01*
X159720589Y-103364990D01*
X159778298Y-103238626D01*
X159798068Y-103101121D01*
X159782800Y-102994931D01*
X159793334Y-102944583D01*
X159804056Y-102931060D01*
X160963771Y-101771347D01*
X161010391Y-101749607D01*
X161016945Y-101749321D01*
X162156256Y-101749321D01*
X162204594Y-101766914D01*
X162230314Y-101811463D01*
X162221381Y-101862121D01*
X162209434Y-101877690D01*
X161480303Y-102606819D01*
X161433685Y-102628558D01*
X161405945Y-102625798D01*
X161379461Y-102618021D01*
X161379459Y-102618021D01*
X161240541Y-102618021D01*
X161240538Y-102618021D01*
X161107248Y-102657158D01*
X160990385Y-102732262D01*
X160990383Y-102732263D01*
X160899412Y-102837249D01*
X160899410Y-102837252D01*
X160841702Y-102963612D01*
X160821932Y-103101121D01*
X160841702Y-103238629D01*
X160899410Y-103364989D01*
X160899412Y-103364992D01*
X160987045Y-103466126D01*
X160990383Y-103469978D01*
X161013168Y-103484621D01*
X161107248Y-103545083D01*
X161150290Y-103557721D01*
X161240541Y-103584221D01*
X161240544Y-103584221D01*
X161379456Y-103584221D01*
X161379459Y-103584221D01*
X161512751Y-103545083D01*
X161629617Y-103469978D01*
X161720589Y-103364990D01*
X161778298Y-103238626D01*
X161798068Y-103101121D01*
X161782800Y-102994931D01*
X161793334Y-102944583D01*
X161804056Y-102931060D01*
X162671670Y-102063447D01*
X162718290Y-102041707D01*
X162724844Y-102041421D01*
X163864155Y-102041421D01*
X163912493Y-102059014D01*
X163938213Y-102103563D01*
X163929280Y-102154221D01*
X163917330Y-102169794D01*
X163794939Y-102292184D01*
X163480304Y-102606818D01*
X163433684Y-102628557D01*
X163405945Y-102625797D01*
X163379464Y-102618022D01*
X163379461Y-102618021D01*
X163379459Y-102618021D01*
X163240541Y-102618021D01*
X163240538Y-102618021D01*
X163107248Y-102657158D01*
X162990385Y-102732262D01*
X162990383Y-102732263D01*
X162899412Y-102837249D01*
X162899410Y-102837252D01*
X162841702Y-102963612D01*
X162821932Y-103101121D01*
X162841702Y-103238629D01*
X162899410Y-103364989D01*
X162899412Y-103364992D01*
X162987045Y-103466126D01*
X162990383Y-103469978D01*
X163013168Y-103484621D01*
X163107248Y-103545083D01*
X163150290Y-103557721D01*
X163240541Y-103584221D01*
X163240544Y-103584221D01*
X163379456Y-103584221D01*
X163379459Y-103584221D01*
X163512751Y-103545083D01*
X163629617Y-103469978D01*
X163720589Y-103364990D01*
X163778298Y-103238626D01*
X163798068Y-103101121D01*
X163782800Y-102994931D01*
X163793334Y-102944583D01*
X163804056Y-102931060D01*
X164379570Y-102355547D01*
X164426190Y-102333807D01*
X164432744Y-102333521D01*
X165572054Y-102333521D01*
X165620392Y-102351114D01*
X165646112Y-102395663D01*
X165637179Y-102446321D01*
X165625228Y-102461896D01*
X165480304Y-102606818D01*
X165433684Y-102628557D01*
X165405945Y-102625797D01*
X165379464Y-102618022D01*
X165379461Y-102618021D01*
X165379459Y-102618021D01*
X165240541Y-102618021D01*
X165240538Y-102618021D01*
X165107248Y-102657158D01*
X164990385Y-102732262D01*
X164990383Y-102732263D01*
X164899412Y-102837249D01*
X164899410Y-102837252D01*
X164841702Y-102963612D01*
X164821932Y-103101121D01*
X164841702Y-103238629D01*
X164899410Y-103364989D01*
X164899412Y-103364992D01*
X164987045Y-103466126D01*
X164990383Y-103469978D01*
X165013168Y-103484621D01*
X165107248Y-103545083D01*
X165150290Y-103557721D01*
X165240541Y-103584221D01*
X165240544Y-103584221D01*
X165379456Y-103584221D01*
X165379459Y-103584221D01*
X165512751Y-103545083D01*
X165629617Y-103469978D01*
X165720589Y-103364990D01*
X165778298Y-103238626D01*
X165798068Y-103101121D01*
X165782800Y-102994930D01*
X165793336Y-102944583D01*
X165804056Y-102931060D01*
X166087472Y-102647646D01*
X166134092Y-102625907D01*
X166140646Y-102625621D01*
X166918125Y-102625621D01*
X166966463Y-102643214D01*
X166992183Y-102687763D01*
X166983250Y-102738421D01*
X166974957Y-102750067D01*
X166899412Y-102837249D01*
X166899410Y-102837252D01*
X166841702Y-102963612D01*
X166821932Y-103101121D01*
X166841702Y-103238629D01*
X166899410Y-103364989D01*
X166899412Y-103364992D01*
X166992980Y-103472975D01*
X167011339Y-103521028D01*
X166994514Y-103569639D01*
X166950380Y-103596062D01*
X166936148Y-103597421D01*
X165916529Y-103597421D01*
X165891866Y-103607636D01*
X165849762Y-103625076D01*
X165832322Y-103632300D01*
X164435778Y-105028844D01*
X164425839Y-105052841D01*
X164400900Y-105113049D01*
X164400900Y-109712575D01*
X164383307Y-109760913D01*
X164378874Y-109765749D01*
X160095778Y-114048844D01*
X160081915Y-114082315D01*
X160081915Y-114082316D01*
X160060900Y-114133051D01*
X160060900Y-118554191D01*
X160095778Y-118638397D01*
X162290223Y-120832842D01*
X162290225Y-120832843D01*
X162342893Y-120854658D01*
X162342894Y-120854659D01*
X162355956Y-120860069D01*
X162374429Y-120867721D01*
X162374430Y-120867721D01*
X162465570Y-120867721D01*
X162936004Y-120867721D01*
X162984342Y-120885314D01*
X162995888Y-120898426D01*
X162995889Y-120898426D01*
X162995997Y-120898551D01*
X162999264Y-120902261D01*
X162999413Y-120902493D01*
X163071396Y-120985566D01*
X163090383Y-121007478D01*
X163090385Y-121007479D01*
X163207248Y-121082583D01*
X163302069Y-121110424D01*
X163340541Y-121121721D01*
X163340544Y-121121721D01*
X163479456Y-121121721D01*
X163479459Y-121121721D01*
X163612751Y-121082583D01*
X163729617Y-121007478D01*
X163820589Y-120902490D01*
X163878298Y-120776126D01*
X163886485Y-120719181D01*
X163910777Y-120673842D01*
X163958532Y-120654723D01*
X164007404Y-120670773D01*
X164014085Y-120676703D01*
X164107957Y-120770575D01*
X164170226Y-120832844D01*
X164222893Y-120854658D01*
X164222894Y-120854659D01*
X164235956Y-120860069D01*
X164254429Y-120867721D01*
X164254430Y-120867721D01*
X164345570Y-120867721D01*
X164486004Y-120867721D01*
X164534342Y-120885314D01*
X164545888Y-120898426D01*
X164545889Y-120898426D01*
X164545997Y-120898551D01*
X164549264Y-120902261D01*
X164549413Y-120902493D01*
X164621396Y-120985566D01*
X164640383Y-121007478D01*
X164640385Y-121007479D01*
X164757248Y-121082583D01*
X164852069Y-121110424D01*
X164890541Y-121121721D01*
X164890544Y-121121721D01*
X165029456Y-121121721D01*
X165029459Y-121121721D01*
X165162751Y-121082583D01*
X165279617Y-121007478D01*
X165370589Y-120902490D01*
X165426629Y-120779781D01*
X165428297Y-120776129D01*
X165428297Y-120776127D01*
X165428298Y-120776126D01*
X165448068Y-120638621D01*
X165428298Y-120501116D01*
X165428297Y-120501114D01*
X165428297Y-120501112D01*
X165370589Y-120374752D01*
X165370587Y-120374749D01*
X165282736Y-120273364D01*
X165279617Y-120269764D01*
X165279616Y-120269763D01*
X165279614Y-120269762D01*
X165162751Y-120194658D01*
X165029461Y-120155521D01*
X165029459Y-120155521D01*
X164890541Y-120155521D01*
X164890538Y-120155521D01*
X164757248Y-120194658D01*
X164640385Y-120269762D01*
X164640380Y-120269766D01*
X164549413Y-120374748D01*
X164549264Y-120374981D01*
X164549111Y-120375097D01*
X164545889Y-120378816D01*
X164545110Y-120378141D01*
X164508329Y-120406131D01*
X164486004Y-120409521D01*
X164426045Y-120409521D01*
X164377707Y-120391928D01*
X164372871Y-120387495D01*
X163849780Y-119864403D01*
X163849777Y-119864401D01*
X163849775Y-119864399D01*
X163790233Y-119839736D01*
X163790232Y-119839735D01*
X163765573Y-119829521D01*
X163765571Y-119829521D01*
X162379136Y-119829521D01*
X162330798Y-119811928D01*
X162325962Y-119807495D01*
X160833226Y-118314758D01*
X160811486Y-118268138D01*
X160811200Y-118261584D01*
X160811200Y-114452566D01*
X160828793Y-114404228D01*
X160833226Y-114399392D01*
X165116321Y-110116297D01*
X165116322Y-110116296D01*
X165151200Y-110032091D01*
X165151200Y-109940951D01*
X165151200Y-105432566D01*
X165168793Y-105384228D01*
X165173226Y-105379392D01*
X166182871Y-104369747D01*
X166229491Y-104348007D01*
X166236045Y-104347721D01*
X168955299Y-104347721D01*
X169003637Y-104365314D01*
X169029357Y-104409863D01*
X169020424Y-104460521D01*
X168995955Y-104486183D01*
X168990385Y-104489762D01*
X168990380Y-104489766D01*
X168899413Y-104594748D01*
X168899264Y-104594981D01*
X168899111Y-104595097D01*
X168895889Y-104598816D01*
X168895110Y-104598141D01*
X168858329Y-104626131D01*
X168836004Y-104629521D01*
X167824429Y-104629521D01*
X167799766Y-104639736D01*
X167757662Y-104657176D01*
X167740222Y-104664400D01*
X167060729Y-105343893D01*
X167014109Y-105365633D01*
X166964422Y-105352319D01*
X166954381Y-105343893D01*
X166928332Y-105317844D01*
X166818144Y-105261701D01*
X166818146Y-105261701D01*
X166726724Y-105247221D01*
X166726722Y-105247221D01*
X166090278Y-105247221D01*
X166090275Y-105247221D01*
X165998854Y-105261701D01*
X165888667Y-105317844D01*
X165801223Y-105405288D01*
X165745080Y-105515475D01*
X165730600Y-105606896D01*
X165730600Y-106143345D01*
X165745080Y-106234766D01*
X165786100Y-106315272D01*
X165801223Y-106344953D01*
X165888668Y-106432398D01*
X165998854Y-106488540D01*
X165998856Y-106488541D01*
X166090278Y-106503021D01*
X166090282Y-106503021D01*
X166726718Y-106503021D01*
X166726722Y-106503021D01*
X166818144Y-106488541D01*
X166921561Y-106435847D01*
X166972616Y-106429579D01*
X167015757Y-106457595D01*
X167030900Y-106502852D01*
X167030900Y-108954191D01*
X167065778Y-109038397D01*
X168711374Y-110683991D01*
X168733114Y-110730611D01*
X168733400Y-110737165D01*
X168733400Y-110860530D01*
X168715807Y-110908868D01*
X168698856Y-110923792D01*
X168642885Y-110959762D01*
X168642883Y-110959763D01*
X168551912Y-111064749D01*
X168551910Y-111064752D01*
X168494202Y-111191112D01*
X168474432Y-111328621D01*
X168494202Y-111466129D01*
X168551910Y-111592489D01*
X168551912Y-111592492D01*
X168590390Y-111636897D01*
X168642883Y-111697478D01*
X168698856Y-111733449D01*
X168730008Y-111774383D01*
X168733400Y-111796712D01*
X168733400Y-112080076D01*
X168715807Y-112128414D01*
X168711374Y-112133250D01*
X167357129Y-113487495D01*
X167310509Y-113509235D01*
X167303955Y-113509521D01*
X163396496Y-113509521D01*
X163348158Y-113491928D01*
X163336611Y-113478815D01*
X163336611Y-113478816D01*
X163336502Y-113478690D01*
X163333236Y-113474981D01*
X163333086Y-113474748D01*
X163242119Y-113369766D01*
X163242114Y-113369762D01*
X163125251Y-113294658D01*
X162991961Y-113255521D01*
X162991959Y-113255521D01*
X162853041Y-113255521D01*
X162853038Y-113255521D01*
X162719748Y-113294658D01*
X162602885Y-113369762D01*
X162602883Y-113369763D01*
X162511912Y-113474749D01*
X162511910Y-113474752D01*
X162454202Y-113601112D01*
X162434432Y-113738621D01*
X162454202Y-113876129D01*
X162510362Y-113999099D01*
X162511911Y-114002490D01*
X162552077Y-114048844D01*
X162560732Y-114058832D01*
X162579091Y-114106885D01*
X162579100Y-114108078D01*
X162579100Y-116806330D01*
X162586299Y-116833197D01*
X162586299Y-116833199D01*
X162586300Y-116833199D01*
X162586300Y-116833200D01*
X162589059Y-116843495D01*
X162602502Y-116893668D01*
X162602503Y-116893672D01*
X162608847Y-116904659D01*
X162647712Y-116971974D01*
X163003826Y-117328088D01*
X163025086Y-117370559D01*
X163041702Y-117486128D01*
X163099410Y-117612489D01*
X163099412Y-117612492D01*
X163190383Y-117717478D01*
X163190385Y-117717479D01*
X163307248Y-117792583D01*
X163402069Y-117820424D01*
X163440541Y-117831721D01*
X163440544Y-117831721D01*
X163579456Y-117831721D01*
X163579459Y-117831721D01*
X163712751Y-117792583D01*
X163829617Y-117717478D01*
X163920589Y-117612490D01*
X163952466Y-117542689D01*
X163978297Y-117486129D01*
X163978297Y-117486127D01*
X163978298Y-117486126D01*
X163998068Y-117348621D01*
X163978298Y-117211116D01*
X163978297Y-117211114D01*
X163978297Y-117211112D01*
X163920589Y-117084752D01*
X163920587Y-117084749D01*
X163846184Y-116998884D01*
X163829617Y-116979764D01*
X163829616Y-116979763D01*
X163829614Y-116979762D01*
X163712751Y-116904658D01*
X163579461Y-116865521D01*
X163579459Y-116865521D01*
X163543689Y-116865521D01*
X163495351Y-116847928D01*
X163490515Y-116843495D01*
X163287926Y-116640906D01*
X163266186Y-116594286D01*
X163265900Y-116587732D01*
X163265900Y-114906121D01*
X164812932Y-114906121D01*
X164832702Y-115043629D01*
X164890410Y-115169989D01*
X164890412Y-115169992D01*
X164981383Y-115274978D01*
X164981385Y-115274979D01*
X165098248Y-115350083D01*
X165193069Y-115377924D01*
X165231541Y-115389221D01*
X165231544Y-115389221D01*
X165370456Y-115389221D01*
X165370459Y-115389221D01*
X165503751Y-115350083D01*
X165620617Y-115274978D01*
X165711589Y-115169990D01*
X165711591Y-115169984D01*
X165711736Y-115169761D01*
X165711888Y-115169644D01*
X165715111Y-115165926D01*
X165715889Y-115166600D01*
X165752671Y-115138611D01*
X165774996Y-115135221D01*
X167841455Y-115135221D01*
X167889793Y-115152814D01*
X167894629Y-115157247D01*
X168905938Y-116168556D01*
X168927678Y-116215176D01*
X168927199Y-116232431D01*
X168911932Y-116338620D01*
X168931702Y-116476129D01*
X168989410Y-116602489D01*
X168989412Y-116602492D01*
X169080383Y-116707478D01*
X169080385Y-116707479D01*
X169197248Y-116782583D01*
X169278124Y-116806330D01*
X169330541Y-116821721D01*
X169330544Y-116821721D01*
X169469456Y-116821721D01*
X169469459Y-116821721D01*
X169602751Y-116782583D01*
X169719617Y-116707478D01*
X169810589Y-116602490D01*
X169868298Y-116476126D01*
X169888068Y-116338621D01*
X169868298Y-116201116D01*
X169868297Y-116201114D01*
X169868297Y-116201112D01*
X169810589Y-116074752D01*
X169810587Y-116074749D01*
X169719616Y-115969763D01*
X169719614Y-115969762D01*
X169602751Y-115894658D01*
X169469461Y-115855521D01*
X169469459Y-115855521D01*
X169330541Y-115855521D01*
X169304053Y-115863298D01*
X169252717Y-115860035D01*
X169229694Y-115844318D01*
X168097280Y-114711903D01*
X168097277Y-114711901D01*
X168097275Y-114711899D01*
X168037733Y-114687236D01*
X168037732Y-114687235D01*
X168013073Y-114677021D01*
X168013071Y-114677021D01*
X165774996Y-114677021D01*
X165726658Y-114659428D01*
X165715111Y-114646315D01*
X165715111Y-114646316D01*
X165715002Y-114646190D01*
X165711736Y-114642481D01*
X165711586Y-114642248D01*
X165620619Y-114537266D01*
X165620614Y-114537262D01*
X165503751Y-114462158D01*
X165370461Y-114423021D01*
X165370459Y-114423021D01*
X165231541Y-114423021D01*
X165231538Y-114423021D01*
X165098248Y-114462158D01*
X164981385Y-114537262D01*
X164981383Y-114537263D01*
X164890412Y-114642249D01*
X164890410Y-114642252D01*
X164832702Y-114768612D01*
X164812932Y-114906121D01*
X163265900Y-114906121D01*
X163265900Y-114108078D01*
X163283493Y-114059740D01*
X163284268Y-114058832D01*
X163292923Y-114048844D01*
X163333089Y-114002490D01*
X163333090Y-114002486D01*
X163333236Y-114002261D01*
X163333385Y-114002146D01*
X163336611Y-113998425D01*
X163337389Y-113999099D01*
X163374171Y-113971111D01*
X163396496Y-113967721D01*
X167475570Y-113967721D01*
X167475571Y-113967721D01*
X167500231Y-113957505D01*
X167500234Y-113957505D01*
X167530004Y-113945174D01*
X167559775Y-113932843D01*
X169156722Y-112335896D01*
X169191600Y-112251691D01*
X169191600Y-112160551D01*
X169191600Y-111796712D01*
X169209193Y-111748374D01*
X169226144Y-111733449D01*
X169282117Y-111697478D01*
X169373089Y-111592490D01*
X169425614Y-111477478D01*
X169430797Y-111466129D01*
X169430797Y-111466127D01*
X169430798Y-111466126D01*
X169450568Y-111328621D01*
X169430798Y-111191116D01*
X169430797Y-111191114D01*
X169430797Y-111191112D01*
X169373089Y-111064752D01*
X169373087Y-111064749D01*
X169282116Y-110959763D01*
X169282114Y-110959762D01*
X169226144Y-110923792D01*
X169194991Y-110882858D01*
X169191600Y-110860530D01*
X169191600Y-110565551D01*
X169169854Y-110513051D01*
X169169854Y-110513050D01*
X169156722Y-110481346D01*
X167511126Y-108835750D01*
X167489386Y-108789130D01*
X167489100Y-108782576D01*
X167489100Y-106464378D01*
X167506693Y-106416040D01*
X167551242Y-106390320D01*
X167601900Y-106399253D01*
X167617474Y-106411204D01*
X167638668Y-106432398D01*
X167748854Y-106488540D01*
X167748856Y-106488541D01*
X167840278Y-106503021D01*
X167854200Y-106503021D01*
X167902538Y-106520614D01*
X167928258Y-106565163D01*
X167929400Y-106578221D01*
X167929400Y-107135691D01*
X167964278Y-107219897D01*
X168649438Y-107905056D01*
X168671178Y-107951676D01*
X168670699Y-107968931D01*
X168655432Y-108075120D01*
X168675202Y-108212629D01*
X168732910Y-108338989D01*
X168732912Y-108338992D01*
X168823883Y-108443978D01*
X168823885Y-108443979D01*
X168940748Y-108519083D01*
X169019080Y-108542083D01*
X169074041Y-108558221D01*
X169074044Y-108558221D01*
X169212956Y-108558221D01*
X169212959Y-108558221D01*
X169346251Y-108519083D01*
X169463117Y-108443978D01*
X169554089Y-108338990D01*
X169592602Y-108254659D01*
X169611797Y-108212629D01*
X169611797Y-108212627D01*
X169611798Y-108212626D01*
X169631568Y-108075121D01*
X169611798Y-107937616D01*
X169611797Y-107937614D01*
X169611797Y-107937612D01*
X169554089Y-107811252D01*
X169554087Y-107811249D01*
X169463116Y-107706263D01*
X169463114Y-107706262D01*
X169346251Y-107631158D01*
X169212961Y-107592021D01*
X169212959Y-107592021D01*
X169074041Y-107592021D01*
X169074040Y-107592021D01*
X169047551Y-107599798D01*
X168996215Y-107596534D01*
X168973193Y-107580818D01*
X168409626Y-107017250D01*
X168387886Y-106970630D01*
X168387600Y-106964076D01*
X168387600Y-106578221D01*
X168405193Y-106529883D01*
X168449742Y-106504163D01*
X168462800Y-106503021D01*
X168476718Y-106503021D01*
X168476722Y-106503021D01*
X168568144Y-106488541D01*
X168678332Y-106432398D01*
X168765777Y-106344953D01*
X168821920Y-106234765D01*
X168836400Y-106143343D01*
X168836400Y-105606899D01*
X168821920Y-105515477D01*
X168765777Y-105405289D01*
X168678332Y-105317844D01*
X168568144Y-105261701D01*
X168568146Y-105261701D01*
X168476724Y-105247221D01*
X168476722Y-105247221D01*
X167986946Y-105247221D01*
X167938608Y-105229628D01*
X167912888Y-105185079D01*
X167921821Y-105134421D01*
X167933772Y-105118847D01*
X167942872Y-105109747D01*
X167989492Y-105088007D01*
X167996046Y-105087721D01*
X168836004Y-105087721D01*
X168884342Y-105105314D01*
X168895888Y-105118426D01*
X168895889Y-105118426D01*
X168895997Y-105118551D01*
X168899264Y-105122261D01*
X168899413Y-105122493D01*
X168909749Y-105134421D01*
X168990383Y-105227478D01*
X169021104Y-105247221D01*
X169107248Y-105302583D01*
X169159223Y-105317844D01*
X169240541Y-105341721D01*
X169240544Y-105341721D01*
X169379456Y-105341721D01*
X169379459Y-105341721D01*
X169512751Y-105302583D01*
X169629617Y-105227478D01*
X169720589Y-105122490D01*
X169778298Y-104996126D01*
X169798068Y-104858621D01*
X169778298Y-104721116D01*
X169778297Y-104721114D01*
X169778297Y-104721112D01*
X169720589Y-104594752D01*
X169720587Y-104594749D01*
X169629616Y-104489763D01*
X169629614Y-104489762D01*
X169624045Y-104486183D01*
X169592892Y-104445249D01*
X169595340Y-104393868D01*
X169630243Y-104356080D01*
X169664701Y-104347721D01*
X171806004Y-104347721D01*
X171854342Y-104365314D01*
X171865888Y-104378426D01*
X171865889Y-104378426D01*
X171865997Y-104378551D01*
X171869264Y-104382261D01*
X171869413Y-104382493D01*
X171960380Y-104487475D01*
X171960383Y-104487478D01*
X171996315Y-104510570D01*
X172077248Y-104562583D01*
X172172069Y-104590424D01*
X172210541Y-104601721D01*
X172210544Y-104601721D01*
X172349456Y-104601721D01*
X172349459Y-104601721D01*
X172482751Y-104562583D01*
X172599617Y-104487478D01*
X172678868Y-104396017D01*
X172723818Y-104371008D01*
X172774329Y-104380743D01*
X172806764Y-104420668D01*
X172810900Y-104445263D01*
X172810900Y-104972575D01*
X172793307Y-105020913D01*
X172788874Y-105025749D01*
X172065779Y-105748843D01*
X172041115Y-105808385D01*
X172041115Y-105808387D01*
X172030900Y-105833050D01*
X172030900Y-105833051D01*
X172030900Y-108230530D01*
X172013307Y-108278868D01*
X171996356Y-108293792D01*
X171940385Y-108329762D01*
X171940383Y-108329763D01*
X171849412Y-108434749D01*
X171849410Y-108434752D01*
X171791702Y-108561112D01*
X171771932Y-108698621D01*
X171791702Y-108836129D01*
X171849410Y-108962489D01*
X171849412Y-108962492D01*
X171940383Y-109067478D01*
X171940385Y-109067479D01*
X172057248Y-109142583D01*
X172117138Y-109160168D01*
X172190541Y-109181721D01*
X172190544Y-109181721D01*
X172329456Y-109181721D01*
X172329459Y-109181721D01*
X172462751Y-109142583D01*
X172579617Y-109067478D01*
X172584865Y-109061420D01*
X172629815Y-109036410D01*
X172680325Y-109046143D01*
X172694873Y-109057491D01*
X173105827Y-109468444D01*
X173127567Y-109515064D01*
X173114253Y-109564751D01*
X173101904Y-109578446D01*
X173100384Y-109579763D01*
X173009412Y-109684749D01*
X173009410Y-109684752D01*
X172951702Y-109811112D01*
X172931932Y-109948621D01*
X172951702Y-110086129D01*
X173009410Y-110212489D01*
X173009412Y-110212492D01*
X173100383Y-110317478D01*
X173100385Y-110317479D01*
X173217248Y-110392583D01*
X173312069Y-110420424D01*
X173350541Y-110431721D01*
X173350544Y-110431721D01*
X173489456Y-110431721D01*
X173489459Y-110431721D01*
X173622751Y-110392583D01*
X173739617Y-110317478D01*
X173830589Y-110212490D01*
X173867810Y-110130988D01*
X173888297Y-110086129D01*
X173888297Y-110086127D01*
X173888298Y-110086126D01*
X173908068Y-109948621D01*
X173888298Y-109811116D01*
X173888297Y-109811114D01*
X173888297Y-109811112D01*
X173830589Y-109684752D01*
X173830587Y-109684749D01*
X173739616Y-109579763D01*
X173739614Y-109579762D01*
X173683644Y-109543792D01*
X173652491Y-109502858D01*
X173649100Y-109480530D01*
X173649100Y-109413051D01*
X173623717Y-109351771D01*
X173623717Y-109351770D01*
X173614221Y-109328845D01*
X173570872Y-109285496D01*
X173549132Y-109238876D01*
X173562446Y-109189189D01*
X173602860Y-109160168D01*
X173662751Y-109142583D01*
X173779617Y-109067478D01*
X173870589Y-108962490D01*
X173916002Y-108863051D01*
X173928297Y-108836129D01*
X173928297Y-108836127D01*
X173928298Y-108836126D01*
X173948068Y-108698621D01*
X173932800Y-108592430D01*
X173943336Y-108542083D01*
X173954056Y-108528559D01*
X174006826Y-108475789D01*
X174053444Y-108454051D01*
X174103131Y-108467364D01*
X174113173Y-108475791D01*
X174165938Y-108528556D01*
X174187678Y-108575176D01*
X174187199Y-108592431D01*
X174171932Y-108698620D01*
X174191702Y-108836129D01*
X174249410Y-108962489D01*
X174249412Y-108962492D01*
X174340383Y-109067478D01*
X174340385Y-109067479D01*
X174457248Y-109142583D01*
X174517138Y-109160168D01*
X174590541Y-109181721D01*
X174590544Y-109181721D01*
X174729456Y-109181721D01*
X174729459Y-109181721D01*
X174862751Y-109142583D01*
X174979617Y-109067478D01*
X175070589Y-108962490D01*
X175116002Y-108863051D01*
X175128297Y-108836129D01*
X175128297Y-108836127D01*
X175128298Y-108836126D01*
X175148068Y-108698621D01*
X175128298Y-108561116D01*
X175128297Y-108561114D01*
X175128297Y-108561112D01*
X175070589Y-108434752D01*
X175070587Y-108434749D01*
X174979616Y-108329763D01*
X174979614Y-108329762D01*
X174862751Y-108254658D01*
X174729461Y-108215521D01*
X174729459Y-108215521D01*
X174590541Y-108215521D01*
X174573685Y-108220470D01*
X174522349Y-108217207D01*
X174485121Y-108181708D01*
X174477300Y-108148316D01*
X174477300Y-107725510D01*
X174494893Y-107677172D01*
X174539442Y-107651452D01*
X174590100Y-107660385D01*
X174609330Y-107676263D01*
X174610383Y-107677478D01*
X174610385Y-107677479D01*
X174727248Y-107752583D01*
X174822069Y-107780424D01*
X174860541Y-107791721D01*
X174860544Y-107791721D01*
X174999456Y-107791721D01*
X174999459Y-107791721D01*
X175132751Y-107752583D01*
X175249617Y-107677478D01*
X175340589Y-107572490D01*
X175352513Y-107546379D01*
X175363896Y-107521456D01*
X175399979Y-107484795D01*
X175451186Y-107479905D01*
X175493556Y-107509075D01*
X175507500Y-107552695D01*
X175507500Y-113762121D01*
X178830300Y-113762121D01*
X178878638Y-113779714D01*
X178904358Y-113824263D01*
X178905500Y-113837321D01*
X178905500Y-122868921D01*
X178887907Y-122917259D01*
X178843358Y-122942979D01*
X178830300Y-122944121D01*
X150489700Y-122944121D01*
X150441362Y-122926528D01*
X150415642Y-122881979D01*
X150414500Y-122868921D01*
X150414500Y-121298621D01*
X154091932Y-121298621D01*
X154111702Y-121436129D01*
X154169410Y-121562489D01*
X154169412Y-121562492D01*
X154260383Y-121667478D01*
X154260385Y-121667479D01*
X154377248Y-121742583D01*
X154441242Y-121761373D01*
X154510541Y-121781721D01*
X154510544Y-121781721D01*
X154649460Y-121781721D01*
X154664838Y-121777205D01*
X154675943Y-121773944D01*
X154727279Y-121777205D01*
X154750305Y-121792923D01*
X155295779Y-122338396D01*
X155360225Y-122402842D01*
X155444429Y-122437721D01*
X155444430Y-122437721D01*
X169895570Y-122437721D01*
X169895571Y-122437721D01*
X169920231Y-122427505D01*
X169920234Y-122427505D01*
X169950004Y-122415174D01*
X169979775Y-122402843D01*
X171183995Y-121198623D01*
X176000554Y-121198623D01*
X176020296Y-121411669D01*
X176020297Y-121411675D01*
X176078847Y-121617455D01*
X176078852Y-121617468D01*
X176174216Y-121808987D01*
X176303155Y-121979731D01*
X176303158Y-121979734D01*
X176461275Y-122123877D01*
X176643186Y-122236512D01*
X176643188Y-122236512D01*
X176643190Y-122236514D01*
X176842703Y-122313806D01*
X177053020Y-122353121D01*
X177053025Y-122353121D01*
X177266975Y-122353121D01*
X177266980Y-122353121D01*
X177477297Y-122313806D01*
X177676810Y-122236514D01*
X177858722Y-122123879D01*
X178016841Y-121979735D01*
X178145781Y-121808991D01*
X178241151Y-121617461D01*
X178299704Y-121411669D01*
X178319446Y-121198621D01*
X178299704Y-120985573D01*
X178241151Y-120779781D01*
X178236567Y-120770575D01*
X178145783Y-120588254D01*
X178016844Y-120417510D01*
X178016841Y-120417507D01*
X177858724Y-120273364D01*
X177676813Y-120160729D01*
X177477298Y-120083436D01*
X177442244Y-120076883D01*
X177266980Y-120044121D01*
X177053020Y-120044121D01*
X176912808Y-120070331D01*
X176842701Y-120083436D01*
X176643187Y-120160729D01*
X176643186Y-120160729D01*
X176461275Y-120273364D01*
X176303158Y-120417507D01*
X176303155Y-120417510D01*
X176174216Y-120588254D01*
X176078852Y-120779773D01*
X176078847Y-120779786D01*
X176020297Y-120985566D01*
X176020296Y-120985572D01*
X176000554Y-121198618D01*
X176000554Y-121198623D01*
X171183995Y-121198623D01*
X174864221Y-117518396D01*
X174880166Y-117479901D01*
X174899100Y-117434192D01*
X174899100Y-111556712D01*
X174916693Y-111508374D01*
X174933644Y-111493449D01*
X174951582Y-111481921D01*
X174989617Y-111457478D01*
X175080589Y-111352490D01*
X175120029Y-111266129D01*
X175138297Y-111226129D01*
X175138297Y-111226127D01*
X175138298Y-111226126D01*
X175158068Y-111088621D01*
X175138298Y-110951116D01*
X175138297Y-110951114D01*
X175138297Y-110951112D01*
X175080589Y-110824752D01*
X175080587Y-110824749D01*
X174989616Y-110719763D01*
X174989614Y-110719762D01*
X174872751Y-110644658D01*
X174739461Y-110605521D01*
X174739459Y-110605521D01*
X174600541Y-110605521D01*
X174600538Y-110605521D01*
X174538597Y-110623709D01*
X174487261Y-110620446D01*
X174450032Y-110584948D01*
X174444331Y-110533825D01*
X174464237Y-110498381D01*
X174568871Y-110393747D01*
X174615491Y-110372007D01*
X174622045Y-110371721D01*
X174739456Y-110371721D01*
X174739459Y-110371721D01*
X174872751Y-110332583D01*
X174989617Y-110257478D01*
X175080589Y-110152490D01*
X175135574Y-110032091D01*
X175138297Y-110026129D01*
X175138297Y-110026127D01*
X175138298Y-110026126D01*
X175158068Y-109888621D01*
X175138298Y-109751116D01*
X175138297Y-109751114D01*
X175138297Y-109751112D01*
X175080589Y-109624752D01*
X175080587Y-109624749D01*
X175006184Y-109538884D01*
X174989617Y-109519764D01*
X174989616Y-109519763D01*
X174989614Y-109519762D01*
X174872751Y-109444658D01*
X174739461Y-109405521D01*
X174739459Y-109405521D01*
X174600541Y-109405521D01*
X174600538Y-109405521D01*
X174467248Y-109444658D01*
X174350385Y-109519762D01*
X174350383Y-109519763D01*
X174259412Y-109624749D01*
X174259410Y-109624752D01*
X174201702Y-109751112D01*
X174181932Y-109888621D01*
X174201702Y-110026129D01*
X174207223Y-110038217D01*
X174211299Y-110089495D01*
X174191993Y-110122629D01*
X173885780Y-110428843D01*
X173885779Y-110428844D01*
X173885778Y-110428846D01*
X173864032Y-110481346D01*
X173864032Y-110481347D01*
X173850900Y-110513049D01*
X173850900Y-110620709D01*
X173833307Y-110669047D01*
X173788758Y-110694767D01*
X173738100Y-110685834D01*
X173735044Y-110683971D01*
X173642751Y-110624658D01*
X173509461Y-110585521D01*
X173509459Y-110585521D01*
X173370541Y-110585521D01*
X173370538Y-110585521D01*
X173237248Y-110624658D01*
X173120385Y-110699762D01*
X173120383Y-110699763D01*
X173029412Y-110804749D01*
X173029410Y-110804752D01*
X172971702Y-110931112D01*
X172951932Y-111068621D01*
X172971702Y-111206129D01*
X173029410Y-111332489D01*
X173029412Y-111332492D01*
X173064070Y-111372489D01*
X173120383Y-111437478D01*
X173176356Y-111473449D01*
X173207508Y-111514383D01*
X173210900Y-111536712D01*
X173210900Y-111542576D01*
X173193307Y-111590914D01*
X173188874Y-111595750D01*
X172587474Y-112197150D01*
X172540854Y-112218890D01*
X172491167Y-112205576D01*
X172461662Y-112163439D01*
X172459100Y-112143976D01*
X172459100Y-111596712D01*
X172476693Y-111548374D01*
X172493644Y-111533449D01*
X172501541Y-111528374D01*
X172549617Y-111497478D01*
X172640589Y-111392490D01*
X172698298Y-111266126D01*
X172718068Y-111128621D01*
X172698298Y-110991116D01*
X172698297Y-110991114D01*
X172698297Y-110991112D01*
X172640589Y-110864752D01*
X172640587Y-110864749D01*
X172549616Y-110759763D01*
X172549614Y-110759762D01*
X172432751Y-110684658D01*
X172299461Y-110645521D01*
X172299459Y-110645521D01*
X172160541Y-110645521D01*
X172160538Y-110645521D01*
X172027248Y-110684658D01*
X171910385Y-110759762D01*
X171910383Y-110759763D01*
X171819412Y-110864749D01*
X171819410Y-110864752D01*
X171761702Y-110991112D01*
X171741932Y-111128621D01*
X171761702Y-111266129D01*
X171819410Y-111392489D01*
X171819412Y-111392492D01*
X171854177Y-111432612D01*
X171910383Y-111497478D01*
X171958459Y-111528374D01*
X171966356Y-111533449D01*
X171997508Y-111574383D01*
X172000900Y-111596712D01*
X172000900Y-112160884D01*
X171983307Y-112209222D01*
X171938758Y-112234942D01*
X171888100Y-112226009D01*
X171872526Y-112214058D01*
X171291126Y-111632658D01*
X171269386Y-111586038D01*
X171269100Y-111579484D01*
X171269100Y-111576712D01*
X171286693Y-111528374D01*
X171303644Y-111513449D01*
X171311541Y-111508374D01*
X171359617Y-111477478D01*
X171450589Y-111372490D01*
X171508298Y-111246126D01*
X171528068Y-111108621D01*
X171508298Y-110971116D01*
X171508297Y-110971114D01*
X171508297Y-110971112D01*
X171450589Y-110844752D01*
X171450587Y-110844749D01*
X171359616Y-110739763D01*
X171359614Y-110739762D01*
X171242751Y-110664658D01*
X171109461Y-110625521D01*
X171109459Y-110625521D01*
X170970541Y-110625521D01*
X170970538Y-110625521D01*
X170837249Y-110664658D01*
X170764955Y-110711118D01*
X170714779Y-110722450D01*
X170669058Y-110698878D01*
X170649185Y-110651432D01*
X170649100Y-110647855D01*
X170649100Y-110624666D01*
X170666693Y-110576328D01*
X170671115Y-110571502D01*
X170849695Y-110392922D01*
X170896314Y-110371183D01*
X170924050Y-110373942D01*
X170950541Y-110381721D01*
X170950544Y-110381721D01*
X171089456Y-110381721D01*
X171089459Y-110381721D01*
X171222751Y-110342583D01*
X171339617Y-110267478D01*
X171430589Y-110162490D01*
X171488298Y-110036126D01*
X171508068Y-109898621D01*
X171488298Y-109761116D01*
X171488297Y-109761114D01*
X171488297Y-109761112D01*
X171430589Y-109634752D01*
X171430587Y-109634749D01*
X171351772Y-109543792D01*
X171339617Y-109529764D01*
X171339616Y-109529763D01*
X171339614Y-109529762D01*
X171222751Y-109454658D01*
X171089461Y-109415521D01*
X171089459Y-109415521D01*
X170950541Y-109415521D01*
X170950538Y-109415521D01*
X170950536Y-109415522D01*
X170831966Y-109450336D01*
X170780630Y-109447073D01*
X170743402Y-109411575D01*
X170737701Y-109360452D01*
X170757605Y-109325010D01*
X170889693Y-109192922D01*
X170936312Y-109171183D01*
X170964051Y-109173942D01*
X170990541Y-109181721D01*
X170990544Y-109181721D01*
X171129456Y-109181721D01*
X171129459Y-109181721D01*
X171262751Y-109142583D01*
X171379617Y-109067478D01*
X171470589Y-108962490D01*
X171516002Y-108863051D01*
X171528297Y-108836129D01*
X171528297Y-108836127D01*
X171528298Y-108836126D01*
X171548068Y-108698621D01*
X171528298Y-108561116D01*
X171528297Y-108561114D01*
X171528297Y-108561112D01*
X171470589Y-108434752D01*
X171470587Y-108434749D01*
X171379616Y-108329763D01*
X171379614Y-108329762D01*
X171262751Y-108254658D01*
X171129461Y-108215521D01*
X171129459Y-108215521D01*
X170990541Y-108215521D01*
X170990538Y-108215521D01*
X170857248Y-108254658D01*
X170740385Y-108329762D01*
X170740383Y-108329763D01*
X170649412Y-108434749D01*
X170649410Y-108434752D01*
X170591702Y-108561112D01*
X170571932Y-108698621D01*
X170587199Y-108804808D01*
X170576663Y-108855158D01*
X170565938Y-108868684D01*
X169933682Y-109500940D01*
X169933679Y-109500944D01*
X169933678Y-109500946D01*
X169911319Y-109554926D01*
X169905059Y-109570038D01*
X169898800Y-109585149D01*
X169898800Y-111665186D01*
X169909014Y-111689845D01*
X169909015Y-111689845D01*
X169909015Y-111689846D01*
X169933678Y-111749388D01*
X169933680Y-111749390D01*
X169933682Y-111749393D01*
X171102574Y-112918284D01*
X171124314Y-112964904D01*
X171124600Y-112971458D01*
X171124600Y-116419600D01*
X171107007Y-116467938D01*
X171102574Y-116472774D01*
X170195253Y-117380095D01*
X170148633Y-117401835D01*
X170142079Y-117402121D01*
X167721829Y-117402121D01*
X167697166Y-117412336D01*
X167665328Y-117425524D01*
X167637622Y-117437000D01*
X166526129Y-118548495D01*
X166479509Y-118570235D01*
X166472955Y-118570521D01*
X166440538Y-118570521D01*
X166307248Y-118609658D01*
X166190385Y-118684762D01*
X166190383Y-118684763D01*
X166099412Y-118789749D01*
X166099410Y-118789752D01*
X166041702Y-118916112D01*
X166021932Y-119053621D01*
X166041702Y-119191129D01*
X166099410Y-119317489D01*
X166099412Y-119317492D01*
X166190383Y-119422478D01*
X166190385Y-119422479D01*
X166307248Y-119497583D01*
X166387395Y-119521116D01*
X166440541Y-119536721D01*
X166440544Y-119536721D01*
X166579456Y-119536721D01*
X166579459Y-119536721D01*
X166712751Y-119497583D01*
X166829617Y-119422478D01*
X166920589Y-119317490D01*
X166941596Y-119271492D01*
X166977679Y-119234831D01*
X167028886Y-119229941D01*
X167071256Y-119259111D01*
X167078404Y-119271492D01*
X167099409Y-119317487D01*
X167099412Y-119317492D01*
X167190383Y-119422478D01*
X167190385Y-119422479D01*
X167307248Y-119497583D01*
X167387395Y-119521116D01*
X167440541Y-119536721D01*
X167440544Y-119536721D01*
X167579456Y-119536721D01*
X167579459Y-119536721D01*
X167712751Y-119497583D01*
X167829617Y-119422478D01*
X167920589Y-119317490D01*
X167941596Y-119271492D01*
X167977679Y-119234831D01*
X168028886Y-119229941D01*
X168071256Y-119259111D01*
X168078404Y-119271492D01*
X168099409Y-119317487D01*
X168099412Y-119317492D01*
X168190383Y-119422478D01*
X168190385Y-119422479D01*
X168307248Y-119497583D01*
X168387395Y-119521116D01*
X168440541Y-119536721D01*
X168440544Y-119536721D01*
X168579456Y-119536721D01*
X168579459Y-119536721D01*
X168712751Y-119497583D01*
X168829617Y-119422478D01*
X168920589Y-119317490D01*
X168941596Y-119271492D01*
X168977679Y-119234831D01*
X169028886Y-119229941D01*
X169071256Y-119259111D01*
X169078404Y-119271492D01*
X169099409Y-119317487D01*
X169099412Y-119317492D01*
X169190383Y-119422478D01*
X169190385Y-119422479D01*
X169307248Y-119497583D01*
X169387395Y-119521116D01*
X169440541Y-119536721D01*
X169440544Y-119536721D01*
X169579456Y-119536721D01*
X169579459Y-119536721D01*
X169712751Y-119497583D01*
X169829617Y-119422478D01*
X169920589Y-119317490D01*
X169941596Y-119271492D01*
X169977679Y-119234831D01*
X170028886Y-119229941D01*
X170071256Y-119259111D01*
X170078404Y-119271492D01*
X170099409Y-119317487D01*
X170099412Y-119317492D01*
X170190383Y-119422478D01*
X170190385Y-119422479D01*
X170307248Y-119497583D01*
X170387395Y-119521116D01*
X170440541Y-119536721D01*
X170440544Y-119536721D01*
X170579456Y-119536721D01*
X170579459Y-119536721D01*
X170712751Y-119497583D01*
X170829617Y-119422478D01*
X170920589Y-119317490D01*
X170952466Y-119247689D01*
X170978297Y-119191129D01*
X170978297Y-119191127D01*
X170978298Y-119191126D01*
X170998068Y-119053621D01*
X170982171Y-118943057D01*
X170992707Y-118892711D01*
X171003428Y-118879188D01*
X172716322Y-117166296D01*
X172751200Y-117082091D01*
X172751200Y-116990951D01*
X172751200Y-112712565D01*
X172768793Y-112664227D01*
X172773226Y-112659391D01*
X173634221Y-111798396D01*
X173634222Y-111798395D01*
X173669100Y-111714191D01*
X173669100Y-111623051D01*
X173669100Y-111536712D01*
X173686693Y-111488374D01*
X173703643Y-111473450D01*
X173710533Y-111469021D01*
X173735044Y-111453269D01*
X173785219Y-111441937D01*
X173830941Y-111465508D01*
X173850815Y-111512953D01*
X173850900Y-111516532D01*
X173850900Y-117352576D01*
X173833307Y-117400914D01*
X173828874Y-117405750D01*
X169657129Y-121577495D01*
X169610509Y-121599235D01*
X169603955Y-121599521D01*
X160356044Y-121599521D01*
X160307706Y-121581928D01*
X160302870Y-121577495D01*
X158554061Y-119828685D01*
X158532321Y-119782065D01*
X158532799Y-119764814D01*
X158548068Y-119658621D01*
X158528298Y-119521116D01*
X158528297Y-119521114D01*
X158528297Y-119521112D01*
X158470589Y-119394752D01*
X158470587Y-119394749D01*
X158379616Y-119289763D01*
X158379614Y-119289762D01*
X158262751Y-119214658D01*
X158129461Y-119175521D01*
X158129459Y-119175521D01*
X157990541Y-119175521D01*
X157990538Y-119175521D01*
X157857248Y-119214658D01*
X157740385Y-119289762D01*
X157740383Y-119289763D01*
X157649412Y-119394749D01*
X157649410Y-119394752D01*
X157591702Y-119521112D01*
X157571932Y-119658621D01*
X157591702Y-119796129D01*
X157649410Y-119922489D01*
X157649412Y-119922492D01*
X157740383Y-120027478D01*
X157740385Y-120027479D01*
X157857248Y-120102583D01*
X157921242Y-120121373D01*
X157990541Y-120141721D01*
X157990544Y-120141721D01*
X158129460Y-120141721D01*
X158144838Y-120137205D01*
X158155943Y-120133944D01*
X158207279Y-120137205D01*
X158230305Y-120152923D01*
X159112134Y-121034752D01*
X159928530Y-121851147D01*
X159950270Y-121897767D01*
X159936956Y-121947454D01*
X159894819Y-121976959D01*
X159875356Y-121979521D01*
X155616044Y-121979521D01*
X155567706Y-121961928D01*
X155562870Y-121957495D01*
X155074061Y-121468685D01*
X155052321Y-121422065D01*
X155052799Y-121404814D01*
X155068068Y-121298621D01*
X155048298Y-121161116D01*
X155048297Y-121161114D01*
X155048297Y-121161112D01*
X154990589Y-121034752D01*
X154990587Y-121034749D01*
X154899616Y-120929763D01*
X154899614Y-120929762D01*
X154782751Y-120854658D01*
X154649461Y-120815521D01*
X154649459Y-120815521D01*
X154510541Y-120815521D01*
X154510538Y-120815521D01*
X154377248Y-120854658D01*
X154260385Y-120929762D01*
X154260383Y-120929763D01*
X154169412Y-121034749D01*
X154169410Y-121034752D01*
X154111702Y-121161112D01*
X154091932Y-121298621D01*
X150414500Y-121298621D01*
X150414500Y-113166121D01*
X151561932Y-113166121D01*
X151581702Y-113303629D01*
X151639410Y-113429989D01*
X151639412Y-113429992D01*
X151730383Y-113534978D01*
X151730385Y-113534979D01*
X151847248Y-113610083D01*
X151942069Y-113637924D01*
X151980541Y-113649221D01*
X151980544Y-113649221D01*
X152119456Y-113649221D01*
X152119459Y-113649221D01*
X152252751Y-113610083D01*
X152369617Y-113534978D01*
X152369622Y-113534971D01*
X152373685Y-113531453D01*
X152374573Y-113532477D01*
X152414139Y-113510465D01*
X152426019Y-113509521D01*
X153244111Y-113509521D01*
X153292449Y-113527114D01*
X153297285Y-113531547D01*
X154669142Y-114903405D01*
X154669145Y-114903407D01*
X154669147Y-114903409D01*
X154714357Y-114929510D01*
X154747453Y-114948619D01*
X154834791Y-114972021D01*
X157813981Y-114972021D01*
X157862319Y-114989614D01*
X157869754Y-114996933D01*
X157870380Y-114997475D01*
X157870383Y-114997478D01*
X157870385Y-114997479D01*
X157987248Y-115072583D01*
X158082069Y-115100424D01*
X158120541Y-115111721D01*
X158120544Y-115111721D01*
X158259456Y-115111721D01*
X158259459Y-115111721D01*
X158392751Y-115072583D01*
X158509617Y-114997478D01*
X158600589Y-114892490D01*
X158658298Y-114766126D01*
X158678068Y-114628621D01*
X158658298Y-114491116D01*
X158658297Y-114491114D01*
X158658297Y-114491112D01*
X158600589Y-114364752D01*
X158600587Y-114364749D01*
X158509616Y-114259763D01*
X158509614Y-114259762D01*
X158392751Y-114184658D01*
X158259461Y-114145521D01*
X158259459Y-114145521D01*
X158120541Y-114145521D01*
X158120538Y-114145521D01*
X157987248Y-114184658D01*
X157870385Y-114259762D01*
X157866315Y-114263289D01*
X157865426Y-114262264D01*
X157825861Y-114284277D01*
X157813981Y-114285221D01*
X155053389Y-114285221D01*
X155005051Y-114267628D01*
X155000215Y-114263195D01*
X153628355Y-112891334D01*
X153550049Y-112846123D01*
X153550040Y-112846120D01*
X153526647Y-112839851D01*
X153526647Y-112839852D01*
X153494677Y-112831286D01*
X153462709Y-112822721D01*
X153462708Y-112822721D01*
X152426019Y-112822721D01*
X152377681Y-112805128D01*
X152370245Y-112797808D01*
X152369619Y-112797266D01*
X152369617Y-112797264D01*
X152369614Y-112797262D01*
X152252751Y-112722158D01*
X152119461Y-112683021D01*
X152119459Y-112683021D01*
X151980541Y-112683021D01*
X151980538Y-112683021D01*
X151847248Y-112722158D01*
X151730385Y-112797262D01*
X151730383Y-112797263D01*
X151639412Y-112902249D01*
X151639410Y-112902252D01*
X151581702Y-113028612D01*
X151561932Y-113166121D01*
X150414500Y-113166121D01*
X150414500Y-109388621D01*
X152631932Y-109388621D01*
X152651702Y-109526129D01*
X152709410Y-109652489D01*
X152709412Y-109652492D01*
X152800383Y-109757478D01*
X152800385Y-109757479D01*
X152917248Y-109832583D01*
X153012069Y-109860424D01*
X153050541Y-109871721D01*
X153050544Y-109871721D01*
X153189456Y-109871721D01*
X153189459Y-109871721D01*
X153322751Y-109832583D01*
X153439617Y-109757478D01*
X153530589Y-109652490D01*
X153564404Y-109578446D01*
X153588297Y-109526129D01*
X153588297Y-109526127D01*
X153588298Y-109526126D01*
X153608068Y-109388621D01*
X153608067Y-109388619D01*
X153608068Y-109388617D01*
X153601831Y-109345243D01*
X153612365Y-109294894D01*
X153623087Y-109281370D01*
X154802412Y-108102047D01*
X154849032Y-108080307D01*
X154855586Y-108080021D01*
X156688959Y-108080021D01*
X156737297Y-108097614D01*
X156745791Y-108105975D01*
X156782479Y-108148316D01*
X156800385Y-108168980D01*
X156859855Y-108207198D01*
X156891008Y-108248132D01*
X156894400Y-108270461D01*
X156894400Y-111102030D01*
X156876807Y-111150368D01*
X156859856Y-111165292D01*
X156803885Y-111201262D01*
X156803883Y-111201263D01*
X156712912Y-111306249D01*
X156712910Y-111306252D01*
X156655202Y-111432612D01*
X156635432Y-111570121D01*
X156655202Y-111707629D01*
X156712910Y-111833989D01*
X156712912Y-111833992D01*
X156803883Y-111938978D01*
X156803885Y-111938979D01*
X156920748Y-112014083D01*
X157015569Y-112041924D01*
X157054041Y-112053221D01*
X157054044Y-112053221D01*
X157192956Y-112053221D01*
X157192959Y-112053221D01*
X157326251Y-112014083D01*
X157443117Y-111938978D01*
X157534089Y-111833990D01*
X157569866Y-111755649D01*
X157591797Y-111707629D01*
X157591797Y-111707627D01*
X157591798Y-111707626D01*
X157611568Y-111570121D01*
X157591798Y-111432616D01*
X157591797Y-111432614D01*
X157591797Y-111432612D01*
X157534089Y-111306252D01*
X157534087Y-111306249D01*
X157459684Y-111220384D01*
X157443117Y-111201264D01*
X157443116Y-111201263D01*
X157443114Y-111201262D01*
X157387144Y-111165292D01*
X157355991Y-111124358D01*
X157352600Y-111102030D01*
X157352600Y-108885121D01*
X159198500Y-108885121D01*
X159198500Y-110635121D01*
X160788500Y-110635121D01*
X160788500Y-108885121D01*
X159198500Y-108885121D01*
X157352600Y-108885121D01*
X157352600Y-108265962D01*
X157370193Y-108217624D01*
X157387143Y-108202700D01*
X157439617Y-108168978D01*
X157530589Y-108063990D01*
X157530591Y-108063984D01*
X157530736Y-108063761D01*
X157530888Y-108063644D01*
X157534111Y-108059926D01*
X157534889Y-108060600D01*
X157571671Y-108032611D01*
X157593996Y-108029221D01*
X160079070Y-108029221D01*
X160079071Y-108029221D01*
X160103731Y-108019005D01*
X160103734Y-108019005D01*
X160133504Y-108006674D01*
X160163275Y-107994343D01*
X162047870Y-106109746D01*
X162094490Y-106088007D01*
X162101044Y-106087721D01*
X163236004Y-106087721D01*
X163284342Y-106105314D01*
X163295888Y-106118426D01*
X163295889Y-106118426D01*
X163295997Y-106118551D01*
X163299264Y-106122261D01*
X163299413Y-106122493D01*
X163390380Y-106227475D01*
X163390383Y-106227478D01*
X163426315Y-106250570D01*
X163507248Y-106302583D01*
X163602069Y-106330424D01*
X163640541Y-106341721D01*
X163640544Y-106341721D01*
X163779456Y-106341721D01*
X163779459Y-106341721D01*
X163912751Y-106302583D01*
X164029617Y-106227478D01*
X164120589Y-106122490D01*
X164178298Y-105996126D01*
X164198068Y-105858621D01*
X164178298Y-105721116D01*
X164178297Y-105721114D01*
X164178297Y-105721112D01*
X164120589Y-105594752D01*
X164120587Y-105594749D01*
X164029616Y-105489763D01*
X164029614Y-105489762D01*
X163912751Y-105414658D01*
X163779461Y-105375521D01*
X163779459Y-105375521D01*
X163640541Y-105375521D01*
X163640538Y-105375521D01*
X163507248Y-105414658D01*
X163390385Y-105489762D01*
X163390380Y-105489766D01*
X163299413Y-105594748D01*
X163299264Y-105594981D01*
X163299111Y-105595097D01*
X163295889Y-105598816D01*
X163295110Y-105598141D01*
X163258329Y-105626131D01*
X163236004Y-105629521D01*
X161929427Y-105629521D01*
X161894550Y-105643968D01*
X161845228Y-105664398D01*
X161845220Y-105664403D01*
X159960629Y-107548995D01*
X159914009Y-107570735D01*
X159907455Y-107571021D01*
X157593996Y-107571021D01*
X157545658Y-107553428D01*
X157534111Y-107540315D01*
X157534111Y-107540316D01*
X157534002Y-107540190D01*
X157530736Y-107536481D01*
X157530586Y-107536248D01*
X157439619Y-107431266D01*
X157439614Y-107431262D01*
X157322751Y-107356158D01*
X157189461Y-107317021D01*
X157189459Y-107317021D01*
X157050541Y-107317021D01*
X157050538Y-107317021D01*
X156917248Y-107356158D01*
X156800385Y-107431262D01*
X156800383Y-107431263D01*
X156745791Y-107494267D01*
X156700841Y-107519276D01*
X156688959Y-107520221D01*
X154745350Y-107520221D01*
X154671650Y-107520221D01*
X154600462Y-107539296D01*
X154600460Y-107539296D01*
X154536637Y-107576144D01*
X153229287Y-108883495D01*
X153182667Y-108905235D01*
X153176113Y-108905521D01*
X153050538Y-108905521D01*
X152917248Y-108944658D01*
X152800385Y-109019762D01*
X152800383Y-109019763D01*
X152709412Y-109124749D01*
X152709410Y-109124752D01*
X152651702Y-109251112D01*
X152631932Y-109388621D01*
X150414500Y-109388621D01*
X150414500Y-102198623D01*
X151000554Y-102198623D01*
X151020296Y-102411669D01*
X151020297Y-102411675D01*
X151078847Y-102617455D01*
X151078852Y-102617468D01*
X151174216Y-102808987D01*
X151303155Y-102979731D01*
X151303158Y-102979734D01*
X151303159Y-102979735D01*
X151314206Y-102989806D01*
X151461275Y-103123877D01*
X151461277Y-103123878D01*
X151461278Y-103123879D01*
X151478270Y-103134400D01*
X151643186Y-103236512D01*
X151643188Y-103236512D01*
X151643190Y-103236514D01*
X151842703Y-103313806D01*
X152053020Y-103353121D01*
X152053025Y-103353121D01*
X152266975Y-103353121D01*
X152266980Y-103353121D01*
X152477297Y-103313806D01*
X152676810Y-103236514D01*
X152858722Y-103123879D01*
X153016841Y-102979735D01*
X153145781Y-102808991D01*
X153241151Y-102617461D01*
X153299704Y-102411669D01*
X153319446Y-102198621D01*
X153299704Y-101985573D01*
X153241151Y-101779781D01*
X153185185Y-101667385D01*
X153145783Y-101588254D01*
X153016844Y-101417510D01*
X153016841Y-101417507D01*
X152858724Y-101273364D01*
X152676813Y-101160729D01*
X152477298Y-101083436D01*
X152442244Y-101076883D01*
X152266980Y-101044121D01*
X152053020Y-101044121D01*
X151912808Y-101070331D01*
X151842701Y-101083436D01*
X151643187Y-101160729D01*
X151643186Y-101160729D01*
X151461275Y-101273364D01*
X151303158Y-101417507D01*
X151303155Y-101417510D01*
X151174216Y-101588254D01*
X151078852Y-101779773D01*
X151078847Y-101779786D01*
X151020297Y-101985566D01*
X151020296Y-101985572D01*
X151000554Y-102198618D01*
X151000554Y-102198623D01*
X150414500Y-102198623D01*
X150414500Y-100528321D01*
X150432093Y-100479983D01*
X150476642Y-100454263D01*
X150489700Y-100453121D01*
X178830300Y-100453121D01*
X178878638Y-100470714D01*
G37*
%TD.AperFunction*%
%TD*%
M02*
