%TF.GenerationSoftware,KiCad,Pcbnew,8.0.1*%
%TF.CreationDate,2024-07-01T16:13:12-04:00*%
%TF.ProjectId,V1,56312e6b-6963-4616-945f-706362585858,rev?*%
%TF.SameCoordinates,Original*%
%TF.FileFunction,Legend,Top*%
%TF.FilePolarity,Positive*%
%FSLAX46Y46*%
G04 Gerber Fmt 4.6, Leading zero omitted, Abs format (unit mm)*
G04 Created by KiCad (PCBNEW 8.0.1) date 2024-07-01 16:13:12*
%MOMM*%
%LPD*%
G01*
G04 APERTURE LIST*
%ADD10C,0.120000*%
%ADD11C,0.100000*%
%ADD12C,0.200000*%
%ADD13C,0.127000*%
G04 APERTURE END LIST*
D10*
%TO.C,C4*%
X165697665Y-115760121D02*
X165929335Y-115760121D01*
X165697665Y-116480121D02*
X165929335Y-116480121D01*
%TO.C,C5*%
X163746000Y-114209286D02*
X163746000Y-114440956D01*
X164466000Y-114209286D02*
X164466000Y-114440956D01*
%TO.C,U2*%
X158393500Y-108160121D02*
X158393500Y-108410121D01*
X158393500Y-108160121D02*
X158643500Y-108160121D01*
X158393500Y-111360121D02*
X158393500Y-111110121D01*
X158393500Y-111360121D02*
X158643500Y-111360121D01*
X161593500Y-111360121D02*
X161343500Y-111360121D01*
X161593500Y-111360121D02*
X161593500Y-111110121D01*
X161923500Y-108400121D02*
X161593500Y-108160121D01*
X161923500Y-107920121D01*
X161923500Y-108400121D01*
G36*
X161923500Y-108400121D02*
G01*
X161593500Y-108160121D01*
X161923500Y-107920121D01*
X161923500Y-108400121D01*
G37*
%TO.C,R3*%
X156358379Y-111190121D02*
X156693621Y-111190121D01*
X156358379Y-111950121D02*
X156693621Y-111950121D01*
%TO.C,R1*%
X167158379Y-108395121D02*
X167493621Y-108395121D01*
X167158379Y-109155121D02*
X167493621Y-109155121D01*
D11*
%TO.C,J1*%
X151370000Y-119828621D02*
X151370000Y-120628621D01*
X152270000Y-122328621D02*
X155470000Y-122328621D01*
X152470000Y-119828621D02*
X151370000Y-119828621D01*
X155270000Y-119828621D02*
X156370000Y-119828621D01*
X156370000Y-119828621D02*
X156370000Y-120628621D01*
D10*
%TO.C,R7*%
X161755879Y-116083621D02*
X162091121Y-116083621D01*
X161755879Y-116843621D02*
X162091121Y-116843621D01*
%TO.C,U4*%
X151440000Y-112028621D02*
X151440000Y-111228621D01*
X151440000Y-112028621D02*
X151440000Y-112828621D01*
X154560000Y-112028621D02*
X154560000Y-111228621D01*
X154560000Y-112028621D02*
X154560000Y-112828621D01*
X151490000Y-113328621D02*
X151160000Y-113568621D01*
X151160000Y-113088621D01*
X151490000Y-113328621D01*
G36*
X151490000Y-113328621D02*
G01*
X151160000Y-113568621D01*
X151160000Y-113088621D01*
X151490000Y-113328621D01*
G37*
%TO.C,U3*%
X160973500Y-112658621D02*
X160173500Y-112658621D01*
X160973500Y-112658621D02*
X161773500Y-112658621D01*
X160973500Y-115778621D02*
X160173500Y-115778621D01*
X160973500Y-115778621D02*
X161773500Y-115778621D01*
X159673500Y-112708621D02*
X159433500Y-112378621D01*
X159913500Y-112378621D01*
X159673500Y-112708621D01*
G36*
X159673500Y-112708621D02*
G01*
X159433500Y-112378621D01*
X159913500Y-112378621D01*
X159673500Y-112708621D01*
G37*
D12*
%TO.C,Q1*%
X163870500Y-109945121D02*
X164345500Y-109945121D01*
X164695500Y-110125121D02*
X165195500Y-110125121D01*
X164695500Y-111725121D02*
X164695500Y-110125121D01*
X165195500Y-110125121D02*
X165195500Y-111725121D01*
X165195500Y-111725121D02*
X164695500Y-111725121D01*
%TO.C,Q2*%
X163870500Y-107795121D02*
X164345500Y-107795121D01*
X164695500Y-107975121D02*
X165195500Y-107975121D01*
X164695500Y-109575121D02*
X164695500Y-107975121D01*
X165195500Y-107975121D02*
X165195500Y-109575121D01*
X165195500Y-109575121D02*
X164695500Y-109575121D01*
D10*
%TO.C,R11*%
X166845879Y-106795121D02*
X167181121Y-106795121D01*
X166845879Y-107555121D02*
X167181121Y-107555121D01*
%TO.C,R13*%
X162930000Y-103866242D02*
X162930000Y-103531000D01*
X163690000Y-103866242D02*
X163690000Y-103531000D01*
%TO.C,R14*%
X160930000Y-103866242D02*
X160930000Y-103531000D01*
X161690000Y-103866242D02*
X161690000Y-103531000D01*
%TO.C,Y1*%
X167228500Y-115311373D02*
X167228500Y-114788869D01*
X168698500Y-115311373D02*
X168698500Y-114788869D01*
D11*
%TO.C,J2*%
X161010000Y-119378621D02*
X161010000Y-119378621D01*
X161010000Y-119378621D02*
X161010000Y-119378621D01*
X161010000Y-119378621D02*
X161010000Y-120078621D01*
X161010000Y-119378621D02*
X161760000Y-119378621D01*
X161010000Y-120078621D02*
X161010000Y-119378621D01*
X161010000Y-120078621D02*
X161010000Y-120078621D01*
X161760000Y-119378621D02*
X161010000Y-119378621D01*
X161760000Y-119378621D02*
X161760000Y-119378621D01*
X162510000Y-122278621D02*
X162510000Y-122278621D01*
X162510000Y-122278621D02*
X171510000Y-122278621D01*
X171510000Y-122278621D02*
X162510000Y-122278621D01*
X171510000Y-122278621D02*
X171510000Y-122278621D01*
X172510000Y-119378621D02*
X172510000Y-119378621D01*
X172510000Y-119378621D02*
X173010000Y-119378621D01*
X173010000Y-119378621D02*
X172510000Y-119378621D01*
X173010000Y-119378621D02*
X173010000Y-119378621D01*
X173010000Y-119378621D02*
X173010000Y-119378621D01*
X173010000Y-119378621D02*
X173010000Y-120328621D01*
X173010000Y-120328621D02*
X173010000Y-119378621D01*
X173010000Y-120328621D02*
X173010000Y-120328621D01*
D10*
%TO.C,R8*%
X164921000Y-114476242D02*
X164921000Y-114141000D01*
X165681000Y-114476242D02*
X165681000Y-114141000D01*
%TO.C,C9*%
X153014165Y-116278621D02*
X153245835Y-116278621D01*
X153014165Y-116998621D02*
X153245835Y-116998621D01*
%TO.C,C2*%
X166082500Y-114192786D02*
X166082500Y-114424456D01*
X166802500Y-114192786D02*
X166802500Y-114424456D01*
%TO.C,R2*%
X167158379Y-110545121D02*
X167493621Y-110545121D01*
X167158379Y-111305121D02*
X167493621Y-111305121D01*
%TO.C,R12*%
X164930000Y-103866242D02*
X164930000Y-103531000D01*
X165690000Y-103866242D02*
X165690000Y-103531000D01*
%TO.C,R15*%
X158930000Y-103866242D02*
X158930000Y-103531000D01*
X159690000Y-103866242D02*
X159690000Y-103531000D01*
%TO.C,R5*%
X164535879Y-112205121D02*
X164871121Y-112205121D01*
X164535879Y-112965121D02*
X164871121Y-112965121D01*
%TO.C,R9*%
X155269879Y-115188621D02*
X155605121Y-115188621D01*
X155269879Y-115948621D02*
X155605121Y-115948621D01*
%TO.C,C10*%
X155553335Y-116278621D02*
X155321665Y-116278621D01*
X155553335Y-116998621D02*
X155321665Y-116998621D01*
%TO.C,C6*%
X151690000Y-108934456D02*
X151690000Y-108702786D01*
X152410000Y-108934456D02*
X152410000Y-108702786D01*
%TO.C,R4*%
X153297621Y-115188621D02*
X152962379Y-115188621D01*
X153297621Y-115948621D02*
X152962379Y-115948621D01*
%TO.C,C8*%
X177950000Y-115532786D02*
X177950000Y-115764456D01*
X178670000Y-115532786D02*
X178670000Y-115764456D01*
%TO.C,R10*%
X166930000Y-103866242D02*
X166930000Y-103531000D01*
X167690000Y-103866242D02*
X167690000Y-103531000D01*
D13*
%TO.C,U1*%
X169864500Y-105925121D02*
X169864500Y-113725121D01*
X178764500Y-106975121D02*
X178764500Y-112675121D01*
D12*
X178605919Y-104675121D02*
G75*
G02*
X178323081Y-104675121I-141419J0D01*
G01*
X178323081Y-104675121D02*
G75*
G02*
X178605919Y-104675121I141419J0D01*
G01*
D10*
%TO.C,R6*%
X164537379Y-106795121D02*
X164872621Y-106795121D01*
X164537379Y-107555121D02*
X164872621Y-107555121D01*
%TO.C,C1*%
X156641835Y-109730121D02*
X156410165Y-109730121D01*
X156641835Y-110450121D02*
X156410165Y-110450121D01*
%TO.C,C3*%
X156665835Y-107438621D02*
X156434165Y-107438621D01*
X156665835Y-108158621D02*
X156434165Y-108158621D01*
%TO.C,R16*%
X156930000Y-103866242D02*
X156930000Y-103531000D01*
X157690000Y-103866242D02*
X157690000Y-103531000D01*
%TD*%
M02*
