%TF.GenerationSoftware,KiCad,Pcbnew,8.0.1*%
%TF.CreationDate,2024-07-01T16:13:14-04:00*%
%TF.ProjectId,V1,56312e6b-6963-4616-945f-706362585858,rev?*%
%TF.SameCoordinates,Original*%
%TF.FileFunction,Drillmap*%
%TF.FilePolarity,Positive*%
%FSLAX45Y45*%
G04 Gerber Fmt 4.5, Leading zero omitted, Abs format (unit mm)*
G04 Created by KiCad (PCBNEW 8.0.1) date 2024-07-01 16:13:14*
%MOMM*%
%LPD*%
G01*
G04 APERTURE LIST*
%ADD10C,0.100000*%
%ADD11C,0.200000*%
G04 APERTURE END LIST*
D10*
X17916000Y-10019862D02*
X17916000Y-12319862D01*
X17806000Y-12119862D02*
G75*
G02*
X17626000Y-12119862I-90000J0D01*
G01*
X17626000Y-12119862D02*
G75*
G02*
X17806000Y-12119862I90000J0D01*
G01*
X15016000Y-12319862D02*
X15016000Y-10019862D01*
X17916000Y-12319862D02*
X15016000Y-12319862D01*
X15306000Y-10219862D02*
G75*
G02*
X15126000Y-10219862I-90000J0D01*
G01*
X15126000Y-10219862D02*
G75*
G02*
X15306000Y-10219862I90000J0D01*
G01*
X15016000Y-10019862D02*
X17916000Y-10019862D01*
D11*
X15271777Y-12636346D02*
X15271777Y-12436346D01*
X15271777Y-12436346D02*
X15319396Y-12436346D01*
X15319396Y-12436346D02*
X15347967Y-12445870D01*
X15347967Y-12445870D02*
X15367015Y-12464917D01*
X15367015Y-12464917D02*
X15376539Y-12483965D01*
X15376539Y-12483965D02*
X15386062Y-12522060D01*
X15386062Y-12522060D02*
X15386062Y-12550632D01*
X15386062Y-12550632D02*
X15376539Y-12588727D01*
X15376539Y-12588727D02*
X15367015Y-12607774D01*
X15367015Y-12607774D02*
X15347967Y-12626822D01*
X15347967Y-12626822D02*
X15319396Y-12636346D01*
X15319396Y-12636346D02*
X15271777Y-12636346D01*
X15471777Y-12636346D02*
X15471777Y-12503012D01*
X15471777Y-12541108D02*
X15481301Y-12522060D01*
X15481301Y-12522060D02*
X15490824Y-12512536D01*
X15490824Y-12512536D02*
X15509872Y-12503012D01*
X15509872Y-12503012D02*
X15528920Y-12503012D01*
X15595586Y-12636346D02*
X15595586Y-12503012D01*
X15595586Y-12436346D02*
X15586062Y-12445870D01*
X15586062Y-12445870D02*
X15595586Y-12455393D01*
X15595586Y-12455393D02*
X15605110Y-12445870D01*
X15605110Y-12445870D02*
X15595586Y-12436346D01*
X15595586Y-12436346D02*
X15595586Y-12455393D01*
X15719396Y-12636346D02*
X15700348Y-12626822D01*
X15700348Y-12626822D02*
X15690824Y-12607774D01*
X15690824Y-12607774D02*
X15690824Y-12436346D01*
X15824158Y-12636346D02*
X15805110Y-12626822D01*
X15805110Y-12626822D02*
X15795586Y-12607774D01*
X15795586Y-12607774D02*
X15795586Y-12436346D01*
X16052729Y-12636346D02*
X16052729Y-12436346D01*
X16052729Y-12436346D02*
X16119396Y-12579203D01*
X16119396Y-12579203D02*
X16186062Y-12436346D01*
X16186062Y-12436346D02*
X16186062Y-12636346D01*
X16367015Y-12636346D02*
X16367015Y-12531584D01*
X16367015Y-12531584D02*
X16357491Y-12512536D01*
X16357491Y-12512536D02*
X16338443Y-12503012D01*
X16338443Y-12503012D02*
X16300348Y-12503012D01*
X16300348Y-12503012D02*
X16281301Y-12512536D01*
X16367015Y-12626822D02*
X16347967Y-12636346D01*
X16347967Y-12636346D02*
X16300348Y-12636346D01*
X16300348Y-12636346D02*
X16281301Y-12626822D01*
X16281301Y-12626822D02*
X16271777Y-12607774D01*
X16271777Y-12607774D02*
X16271777Y-12588727D01*
X16271777Y-12588727D02*
X16281301Y-12569679D01*
X16281301Y-12569679D02*
X16300348Y-12560155D01*
X16300348Y-12560155D02*
X16347967Y-12560155D01*
X16347967Y-12560155D02*
X16367015Y-12550632D01*
X16462253Y-12503012D02*
X16462253Y-12703012D01*
X16462253Y-12512536D02*
X16481301Y-12503012D01*
X16481301Y-12503012D02*
X16519396Y-12503012D01*
X16519396Y-12503012D02*
X16538443Y-12512536D01*
X16538443Y-12512536D02*
X16547967Y-12522060D01*
X16547967Y-12522060D02*
X16557491Y-12541108D01*
X16557491Y-12541108D02*
X16557491Y-12598251D01*
X16557491Y-12598251D02*
X16547967Y-12617298D01*
X16547967Y-12617298D02*
X16538443Y-12626822D01*
X16538443Y-12626822D02*
X16519396Y-12636346D01*
X16519396Y-12636346D02*
X16481301Y-12636346D01*
X16481301Y-12636346D02*
X16462253Y-12626822D01*
X16643205Y-12617298D02*
X16652729Y-12626822D01*
X16652729Y-12626822D02*
X16643205Y-12636346D01*
X16643205Y-12636346D02*
X16633682Y-12626822D01*
X16633682Y-12626822D02*
X16643205Y-12617298D01*
X16643205Y-12617298D02*
X16643205Y-12636346D01*
X16643205Y-12512536D02*
X16652729Y-12522060D01*
X16652729Y-12522060D02*
X16643205Y-12531584D01*
X16643205Y-12531584D02*
X16633682Y-12522060D01*
X16633682Y-12522060D02*
X16643205Y-12512536D01*
X16643205Y-12512536D02*
X16643205Y-12531584D01*
M02*
