M48
; DRILL file {KiCad 8.0.1} date 2024-07-01T16:13:14-0400
; FORMAT={-:-/ absolute / inch / decimal}
; #@! TF.CreationDate,2024-07-01T16:13:14-04:00
; #@! TF.GenerationSoftware,Kicad,Pcbnew,8.0.1
; #@! TF.FileFunction,Plated,1,2,PTH
FMAT,2
INCH
; #@! TA.AperFunction,Plated,PTH,ViaDrill
T1C0.0130
%
G90
G05
T1
X5.9531Y-4.5295
X5.9531Y-4.6082
X5.9531Y-4.687
X5.961Y-4.1161
X5.961Y-4.1751
X5.9862Y-4.4554
X6.0201Y-4.1161
X6.0201Y-4.1751
X6.0201Y-4.2342
X6.0283Y-4.3066
X6.0291Y-4.7771
X6.0791Y-4.057
X6.0791Y-4.1161
X6.0791Y-4.1751
X6.0858Y-4.7755
X6.0949Y-4.2893
X6.122Y-4.47
X6.1382Y-4.059
X6.1382Y-4.1181
X6.1382Y-4.1751
X6.15Y-4.2893
X6.1697Y-4.6476
X6.1858Y-4.2441
X6.186Y-4.3925
X6.1921Y-4.47
X6.1933Y-4.0591
X6.1972Y-4.1751
X6.2169Y-4.7657
X6.2228Y-4.711
X6.228Y-4.5129
X6.2563Y-4.1751
X6.272Y-4.0591
X6.3154Y-4.1751
X6.3508Y-4.0591
X6.3957Y-4.3586
X6.4143Y-4.4779
X6.4295Y-4.0591
X6.4335Y-4.7496
X6.4374Y-4.62
X6.4453Y-4.1677
X6.4945Y-4.7496
X6.5079Y-4.5239
X6.5083Y-4.0591
X6.5398Y-4.3247
X6.5476Y-4.7578
X6.5512Y-4.4318
X6.5515Y-4.1683
X6.5555Y-4.6872
X6.587Y-4.0591
X6.5949Y-4.6872
X6.6067Y-4.7578
X6.6343Y-4.6872
X6.6521Y-4.383
X6.6579Y-4.2066
X6.6579Y-4.3031
X6.6592Y-4.2549
X6.6657Y-4.1283
X6.6657Y-4.7578
X6.6693Y-4.5803
X6.6736Y-4.6872
X6.713Y-4.6872
X6.7331Y-4.3267
X6.7339Y-4.3744
X6.7346Y-4.2795
X6.7508Y-4.0681
X6.7807Y-4.3751
X6.7819Y-4.2795
X6.7827Y-4.0992
X6.8272Y-4.2244
X6.8276Y-4.3287
X6.8283Y-4.3728
X6.8291Y-4.2795
X6.8764Y-4.2795
X6.8768Y-4.3263
X6.8768Y-4.3736
X6.8783Y-3.998
X6.8783Y-4.7066
X6.8783Y-4.7657
X6.887Y-4.2247
X6.9374Y-3.998
X6.9374Y-4.057
X6.9374Y-4.5885
X6.9374Y-4.6476
X6.9965Y-3.998
X6.9965Y-4.057
X6.9965Y-4.1161
X6.9965Y-4.6476
M30
